<?xml version="1.0" encoding="utf-8" standalone="no"?>
<!DOCTYPE svg PUBLIC "-//W3C//DTD SVG 1.1//EN"
  "http://www.w3.org/Graphics/SVG/1.1/DTD/svg11.dtd">
<!-- Created with matplotlib (https://matplotlib.org/) -->
<svg height="426.212838pt" version="1.1" viewBox="0 0 824.564108 426.212838" width="824.564108pt" xmlns="http://www.w3.org/2000/svg" xmlns:xlink="http://www.w3.org/1999/xlink">
 <defs>
  <style type="text/css">
*{stroke-linecap:butt;stroke-linejoin:round;}
  </style>
 </defs>
 <g id="figure_1">
  <g id="patch_1">
   <path d="M 0 426.212838 
L 824.564108 426.212838 
L 824.564108 0 
L 0 0 
z
" style="fill:#f0f0f0;"/>
  </g>
  <g id="axes_1">
   <g id="patch_2">
    <path d="M 65.144625 379.2354 
L 816.824625 379.2354 
L 816.824625 29.3154 
L 65.144625 29.3154 
z
" style="fill:#f0f0f0;"/>
   </g>
   <g id="matplotlib.axis_1">
    <g id="xtick_1">
     <g id="line2d_1"/>
     <g id="text_1">
      <!-- 1 -->
      <defs>
       <path d="M 52.59375 0 
L 9.234375 0 
L 9.234375 8.25 
L 26.171875 8.25 
L 26.171875 65.671875 
L 8.796875 60.640625 
L 8.796875 69.4375 
L 35.6875 77.25 
L 35.6875 8.25 
L 52.59375 8.25 
z
" id="MicrosoftYaHei-49"/>
      </defs>
      <g transform="translate(68.709985 393.92665)scale(0.14 -0.14)">
       <use xlink:href="#MicrosoftYaHei-49"/>
      </g>
     </g>
    </g>
    <g id="xtick_2">
     <g id="line2d_2"/>
     <g id="text_2">
      <!-- 2 -->
      <defs>
       <path d="M 51.171875 0 
L 5.171875 0 
L 5.171875 8.296875 
L 27.15625 30.21875 
Q 36.234375 39.3125 39.3125 44.609375 
Q 42.390625 49.90625 42.390625 55.5625 
Q 42.390625 62.015625 38.765625 65.453125 
Q 35.15625 68.890625 28.328125 68.890625 
Q 18.21875 68.890625 9.03125 60.296875 
L 9.03125 70.015625 
Q 17.96875 76.90625 29.828125 76.90625 
Q 40.046875 76.90625 45.953125 71.390625 
Q 51.859375 65.875 51.859375 56.546875 
Q 51.859375 49.515625 48.0625 42.75 
Q 44.28125 35.984375 33.734375 25.53125 
L 16.5 8.6875 
L 16.5 8.5 
L 51.171875 8.5 
z
" id="MicrosoftYaHei-50"/>
      </defs>
      <g transform="translate(84.050393 393.92665)scale(0.14 -0.14)">
       <use xlink:href="#MicrosoftYaHei-50"/>
      </g>
     </g>
    </g>
    <g id="xtick_3">
     <g id="line2d_3"/>
     <g id="text_3">
      <!-- 3 -->
      <defs>
       <path d="M 6.984375 12.640625 
Q 14.75 6.640625 24.515625 6.640625 
Q 32.328125 6.640625 36.890625 10.46875 
Q 41.453125 14.3125 41.453125 20.75 
Q 41.453125 35.109375 20.90625 35.109375 
L 14.59375 35.109375 
L 14.59375 43.015625 
L 20.609375 43.015625 
Q 38.8125 43.015625 38.8125 56.5 
Q 38.8125 68.953125 24.90625 68.953125 
Q 16.9375 68.953125 9.90625 63.578125 
L 9.90625 72.609375 
Q 17.328125 76.90625 27.25 76.90625 
Q 36.921875 76.90625 42.78125 71.84375 
Q 48.640625 66.796875 48.640625 58.734375 
Q 48.640625 43.890625 33.5 39.65625 
L 33.5 39.453125 
Q 41.703125 38.578125 46.453125 33.671875 
Q 51.21875 28.765625 51.21875 21.4375 
Q 51.21875 11.234375 43.875 4.984375 
Q 36.53125 -1.265625 24.3125 -1.265625 
Q 13.578125 -1.265625 6.984375 2.734375 
z
" id="MicrosoftYaHei-51"/>
      </defs>
      <g transform="translate(99.390802 393.92665)scale(0.14 -0.14)">
       <use xlink:href="#MicrosoftYaHei-51"/>
      </g>
     </g>
    </g>
    <g id="xtick_4">
     <g id="line2d_4"/>
     <g id="text_4">
      <!-- 4 -->
      <defs>
       <path d="M 55.078125 19.625 
L 45.40625 19.625 
L 45.40625 0 
L 36.140625 0 
L 36.140625 19.625 
L 0.875 19.625 
L 0.875 25.828125 
L 34.328125 75.640625 
L 45.40625 75.640625 
L 45.40625 27.203125 
L 55.078125 27.203125 
z
M 36.140625 27.203125 
L 36.140625 58.890625 
Q 36.140625 62.25 36.328125 66.65625 
L 36.140625 66.65625 
Q 35.453125 64.796875 33.25 60.84375 
L 10.75 27.203125 
z
" id="MicrosoftYaHei-52"/>
      </defs>
      <g transform="translate(114.73121 393.92665)scale(0.14 -0.14)">
       <use xlink:href="#MicrosoftYaHei-52"/>
      </g>
     </g>
    </g>
    <g id="xtick_5">
     <g id="line2d_5"/>
     <g id="text_5">
      <!-- 5 -->
      <defs>
       <path d="M 8.640625 11.625 
Q 16.265625 6.640625 24.515625 6.640625 
Q 32.328125 6.640625 37.109375 11 
Q 41.890625 15.375 41.890625 22.609375 
Q 41.890625 29.890625 37.03125 33.890625 
Q 32.171875 37.890625 22.953125 37.890625 
Q 18.5 37.890625 10.984375 37.203125 
L 10.984375 75.640625 
L 48.1875 75.640625 
L 48.1875 67.1875 
L 19.875 67.1875 
L 19.875 45.796875 
Q 24.125 46.046875 26.265625 46.046875 
Q 38.234375 46.046875 44.921875 39.984375 
Q 51.609375 33.9375 51.609375 23.296875 
Q 51.609375 12.3125 44.421875 5.515625 
Q 37.25 -1.265625 24.609375 -1.265625 
Q 14.015625 -1.265625 8.640625 1.859375 
z
" id="MicrosoftYaHei-53"/>
      </defs>
      <g transform="translate(130.071618 393.92665)scale(0.14 -0.14)">
       <use xlink:href="#MicrosoftYaHei-53"/>
      </g>
     </g>
    </g>
    <g id="xtick_6">
     <g id="line2d_6"/>
     <g id="text_6">
      <!-- 6 -->
      <defs>
       <path d="M 49.703125 65.921875 
Q 43.796875 68.953125 37.359375 68.953125 
Q 27.546875 68.953125 21.578125 60.40625 
Q 15.625 51.859375 15.53125 37.0625 
L 15.765625 37.0625 
Q 21.140625 47.46875 32.90625 47.46875 
Q 42.71875 47.46875 48.578125 41.0625 
Q 54.4375 34.671875 54.4375 24.078125 
Q 54.4375 12.984375 47.671875 5.859375 
Q 40.921875 -1.265625 30.421875 -1.265625 
Q 18.890625 -1.265625 12.328125 7.734375 
Q 5.765625 16.75 5.765625 33.296875 
Q 5.765625 53.328125 14.375 65.109375 
Q 23 76.90625 37.0625 76.90625 
Q 45.125 76.90625 49.703125 74.703125 
z
M 16.109375 24.75 
Q 16.109375 17.28125 20.09375 11.953125 
Q 24.078125 6.640625 30.671875 6.640625 
Q 36.921875 6.640625 40.828125 11.234375 
Q 44.734375 15.828125 44.734375 23.046875 
Q 44.734375 30.859375 41.046875 35.203125 
Q 37.359375 39.546875 30.5625 39.546875 
Q 24.125 39.546875 20.109375 35.15625 
Q 16.109375 30.765625 16.109375 24.75 
z
" id="MicrosoftYaHei-54"/>
      </defs>
      <g transform="translate(145.412026 393.92665)scale(0.14 -0.14)">
       <use xlink:href="#MicrosoftYaHei-54"/>
      </g>
     </g>
    </g>
    <g id="xtick_7">
     <g id="line2d_7"/>
     <g id="text_7">
      <!-- 7 -->
      <defs>
       <path d="M 53.765625 72.3125 
L 24.171875 0 
L 14.265625 0 
L 42.390625 67.1875 
L 4.59375 67.1875 
L 4.59375 75.640625 
L 53.765625 75.640625 
z
" id="MicrosoftYaHei-55"/>
      </defs>
      <g transform="translate(160.752434 393.92665)scale(0.14 -0.14)">
       <use xlink:href="#MicrosoftYaHei-55"/>
      </g>
     </g>
    </g>
    <g id="xtick_8">
     <g id="line2d_8"/>
     <g id="text_8">
      <!-- 8 -->
      <defs>
       <path d="M 21.390625 39.796875 
Q 7.859375 46.09375 7.859375 58.0625 
Q 7.859375 66.40625 14.203125 71.65625 
Q 20.5625 76.90625 30.421875 76.90625 
Q 39.453125 76.90625 45.3125 71.96875 
Q 51.171875 67.046875 51.171875 59.234375 
Q 51.171875 46.625 37.0625 39.84375 
L 37.0625 39.65625 
Q 53.609375 33.6875 53.609375 19.34375 
Q 53.609375 9.90625 46.796875 4.3125 
Q 39.984375 -1.265625 27.78125 -1.265625 
Q 17.78125 -1.265625 11.46875 4.25 
Q 5.171875 9.765625 5.171875 18.5625 
Q 5.171875 33.015625 21.390625 39.59375 
z
M 41.5 58.109375 
Q 41.5 63.1875 38.328125 66.109375 
Q 35.15625 69.046875 29.734375 69.046875 
Q 24.65625 69.046875 21.09375 65.984375 
Q 17.53125 62.9375 17.53125 58.203125 
Q 17.53125 48.734375 29.390625 43.796875 
Q 41.5 48.828125 41.5 58.109375 
z
M 28.8125 35.25 
Q 14.796875 29.59375 14.796875 19.046875 
Q 14.796875 13.578125 18.890625 10.0625 
Q 23 6.546875 29.59375 6.546875 
Q 35.984375 6.546875 39.984375 10.03125 
Q 44 13.53125 44 18.75 
Q 44 29.734375 28.8125 35.25 
z
" id="MicrosoftYaHei-56"/>
      </defs>
      <g transform="translate(176.092842 393.92665)scale(0.14 -0.14)">
       <use xlink:href="#MicrosoftYaHei-56"/>
      </g>
     </g>
    </g>
    <g id="xtick_9">
     <g id="line2d_9"/>
     <g id="text_9">
      <!-- 9 -->
      <defs>
       <path d="M 9.03125 10.25 
Q 15.28125 6.640625 22.515625 6.640625 
Q 32.671875 6.640625 38.25 14.640625 
Q 43.84375 22.65625 43.84375 37.40625 
Q 43.75 37.3125 43.65625 37.40625 
Q 38.671875 27.9375 26.90625 27.9375 
Q 17.390625 27.9375 11.140625 34.46875 
Q 4.890625 41.015625 4.890625 51.46875 
Q 4.890625 62.59375 11.71875 69.75 
Q 18.5625 76.90625 29.4375 76.90625 
Q 40.71875 76.90625 47.0625 68.046875 
Q 53.421875 59.1875 53.421875 42.234375 
Q 53.421875 21.296875 45.21875 10.015625 
Q 37.015625 -1.265625 22.515625 -1.265625 
Q 14.546875 -1.265625 9.03125 1.3125 
z
M 14.546875 52.6875 
Q 14.546875 45.0625 18.453125 40.59375 
Q 22.359375 36.140625 29.25 36.140625 
Q 35.203125 36.140625 39.25 40.203125 
Q 43.3125 44.28125 43.3125 50.09375 
Q 43.3125 58.25 39.28125 63.59375 
Q 35.25 68.953125 28.65625 68.953125 
Q 22.5625 68.953125 18.546875 64.3125 
Q 14.546875 59.671875 14.546875 52.6875 
z
" id="MicrosoftYaHei-57"/>
      </defs>
      <g transform="translate(191.433251 393.92665)scale(0.14 -0.14)">
       <use xlink:href="#MicrosoftYaHei-57"/>
      </g>
     </g>
    </g>
    <g id="xtick_10">
     <g id="line2d_10"/>
     <g id="text_10">
      <!-- 10 -->
      <defs>
       <path d="M 4.4375 36.328125 
Q 4.4375 56.34375 11.078125 66.625 
Q 17.71875 76.90625 30.328125 76.90625 
Q 54.34375 76.90625 54.34375 38.140625 
Q 54.34375 19 47.578125 8.859375 
Q 40.828125 -1.265625 28.609375 -1.265625 
Q 17.09375 -1.265625 10.765625 8.34375 
Q 4.4375 17.96875 4.4375 36.328125 
z
M 14.203125 36.765625 
Q 14.203125 6.640625 29.5 6.640625 
Q 44.53125 6.640625 44.53125 37.25 
Q 44.53125 68.953125 29.78125 68.953125 
Q 14.203125 68.953125 14.203125 36.765625 
z
" id="MicrosoftYaHei-48"/>
      </defs>
      <g transform="translate(202.668815 393.92665)scale(0.14 -0.14)">
       <use xlink:href="#MicrosoftYaHei-49"/>
       <use x="58.642578" xlink:href="#MicrosoftYaHei-48"/>
      </g>
     </g>
    </g>
    <g id="xtick_11">
     <g id="line2d_11"/>
     <g id="text_11">
      <!-- 11 -->
      <g transform="translate(218.009223 393.92665)scale(0.14 -0.14)">
       <use xlink:href="#MicrosoftYaHei-49"/>
       <use x="58.642578" xlink:href="#MicrosoftYaHei-49"/>
      </g>
     </g>
    </g>
    <g id="xtick_12">
     <g id="line2d_12"/>
     <g id="text_12">
      <!-- 12 -->
      <g transform="translate(233.349631 393.92665)scale(0.14 -0.14)">
       <use xlink:href="#MicrosoftYaHei-49"/>
       <use x="58.642578" xlink:href="#MicrosoftYaHei-50"/>
      </g>
     </g>
    </g>
    <g id="xtick_13">
     <g id="line2d_13"/>
     <g id="text_13">
      <!-- 13 -->
      <g transform="translate(248.69004 393.92665)scale(0.14 -0.14)">
       <use xlink:href="#MicrosoftYaHei-49"/>
       <use x="58.642578" xlink:href="#MicrosoftYaHei-51"/>
      </g>
     </g>
    </g>
    <g id="xtick_14">
     <g id="line2d_14"/>
     <g id="text_14">
      <!-- 14 -->
      <g transform="translate(264.030448 393.92665)scale(0.14 -0.14)">
       <use xlink:href="#MicrosoftYaHei-49"/>
       <use x="58.642578" xlink:href="#MicrosoftYaHei-52"/>
      </g>
     </g>
    </g>
    <g id="xtick_15">
     <g id="line2d_15"/>
     <g id="text_15">
      <!-- 15 -->
      <g transform="translate(279.370856 393.92665)scale(0.14 -0.14)">
       <use xlink:href="#MicrosoftYaHei-49"/>
       <use x="58.642578" xlink:href="#MicrosoftYaHei-53"/>
      </g>
     </g>
    </g>
    <g id="xtick_16">
     <g id="line2d_16"/>
     <g id="text_16">
      <!-- 16 -->
      <g transform="translate(294.711264 393.92665)scale(0.14 -0.14)">
       <use xlink:href="#MicrosoftYaHei-49"/>
       <use x="58.642578" xlink:href="#MicrosoftYaHei-54"/>
      </g>
     </g>
    </g>
    <g id="xtick_17">
     <g id="line2d_17"/>
     <g id="text_17">
      <!-- 17 -->
      <g transform="translate(310.051672 393.92665)scale(0.14 -0.14)">
       <use xlink:href="#MicrosoftYaHei-49"/>
       <use x="58.642578" xlink:href="#MicrosoftYaHei-55"/>
      </g>
     </g>
    </g>
    <g id="xtick_18">
     <g id="line2d_18"/>
     <g id="text_18">
      <!-- 18 -->
      <g transform="translate(325.39208 393.92665)scale(0.14 -0.14)">
       <use xlink:href="#MicrosoftYaHei-49"/>
       <use x="58.642578" xlink:href="#MicrosoftYaHei-56"/>
      </g>
     </g>
    </g>
    <g id="xtick_19">
     <g id="line2d_19"/>
     <g id="text_19">
      <!-- 19 -->
      <g transform="translate(340.732489 393.92665)scale(0.14 -0.14)">
       <use xlink:href="#MicrosoftYaHei-49"/>
       <use x="58.642578" xlink:href="#MicrosoftYaHei-57"/>
      </g>
     </g>
    </g>
    <g id="xtick_20">
     <g id="line2d_20"/>
     <g id="text_20">
      <!-- 20 -->
      <g transform="translate(356.072897 393.92665)scale(0.14 -0.14)">
       <use xlink:href="#MicrosoftYaHei-50"/>
       <use x="58.642578" xlink:href="#MicrosoftYaHei-48"/>
      </g>
     </g>
    </g>
    <g id="xtick_21">
     <g id="line2d_21"/>
     <g id="text_21">
      <!-- 21 -->
      <g transform="translate(371.413305 393.92665)scale(0.14 -0.14)">
       <use xlink:href="#MicrosoftYaHei-50"/>
       <use x="58.642578" xlink:href="#MicrosoftYaHei-49"/>
      </g>
     </g>
    </g>
    <g id="xtick_22">
     <g id="line2d_22"/>
     <g id="text_22">
      <!-- 22 -->
      <g transform="translate(386.753713 393.92665)scale(0.14 -0.14)">
       <use xlink:href="#MicrosoftYaHei-50"/>
       <use x="58.642578" xlink:href="#MicrosoftYaHei-50"/>
      </g>
     </g>
    </g>
    <g id="xtick_23">
     <g id="line2d_23"/>
     <g id="text_23">
      <!-- 23 -->
      <g transform="translate(402.094121 393.92665)scale(0.14 -0.14)">
       <use xlink:href="#MicrosoftYaHei-50"/>
       <use x="58.642578" xlink:href="#MicrosoftYaHei-51"/>
      </g>
     </g>
    </g>
    <g id="xtick_24">
     <g id="line2d_24"/>
     <g id="text_24">
      <!-- 24 -->
      <g transform="translate(417.434529 393.92665)scale(0.14 -0.14)">
       <use xlink:href="#MicrosoftYaHei-50"/>
       <use x="58.642578" xlink:href="#MicrosoftYaHei-52"/>
      </g>
     </g>
    </g>
    <g id="xtick_25">
     <g id="line2d_25"/>
     <g id="text_25">
      <!-- 25 -->
      <g transform="translate(432.774937 393.92665)scale(0.14 -0.14)">
       <use xlink:href="#MicrosoftYaHei-50"/>
       <use x="58.642578" xlink:href="#MicrosoftYaHei-53"/>
      </g>
     </g>
    </g>
    <g id="xtick_26">
     <g id="line2d_26"/>
     <g id="text_26">
      <!-- 26 -->
      <g transform="translate(448.115346 393.92665)scale(0.14 -0.14)">
       <use xlink:href="#MicrosoftYaHei-50"/>
       <use x="58.642578" xlink:href="#MicrosoftYaHei-54"/>
      </g>
     </g>
    </g>
    <g id="xtick_27">
     <g id="line2d_27"/>
     <g id="text_27">
      <!-- 27 -->
      <g transform="translate(463.455754 393.92665)scale(0.14 -0.14)">
       <use xlink:href="#MicrosoftYaHei-50"/>
       <use x="58.642578" xlink:href="#MicrosoftYaHei-55"/>
      </g>
     </g>
    </g>
    <g id="xtick_28">
     <g id="line2d_28"/>
     <g id="text_28">
      <!-- 28 -->
      <g transform="translate(478.796162 393.92665)scale(0.14 -0.14)">
       <use xlink:href="#MicrosoftYaHei-50"/>
       <use x="58.642578" xlink:href="#MicrosoftYaHei-56"/>
      </g>
     </g>
    </g>
    <g id="xtick_29">
     <g id="line2d_29"/>
     <g id="text_29">
      <!-- 29 -->
      <g transform="translate(494.13657 393.92665)scale(0.14 -0.14)">
       <use xlink:href="#MicrosoftYaHei-50"/>
       <use x="58.642578" xlink:href="#MicrosoftYaHei-57"/>
      </g>
     </g>
    </g>
    <g id="xtick_30">
     <g id="line2d_30"/>
     <g id="text_30">
      <!-- 30 -->
      <g transform="translate(509.476978 393.92665)scale(0.14 -0.14)">
       <use xlink:href="#MicrosoftYaHei-51"/>
       <use x="58.642578" xlink:href="#MicrosoftYaHei-48"/>
      </g>
     </g>
    </g>
    <g id="xtick_31">
     <g id="line2d_31"/>
     <g id="text_31">
      <!-- 31 -->
      <g transform="translate(524.817386 393.92665)scale(0.14 -0.14)">
       <use xlink:href="#MicrosoftYaHei-51"/>
       <use x="58.642578" xlink:href="#MicrosoftYaHei-49"/>
      </g>
     </g>
    </g>
    <g id="xtick_32">
     <g id="line2d_32"/>
     <g id="text_32">
      <!-- 32 -->
      <g transform="translate(540.157795 393.92665)scale(0.14 -0.14)">
       <use xlink:href="#MicrosoftYaHei-51"/>
       <use x="58.642578" xlink:href="#MicrosoftYaHei-50"/>
      </g>
     </g>
    </g>
    <g id="xtick_33">
     <g id="line2d_33"/>
     <g id="text_33">
      <!-- 33 -->
      <g transform="translate(555.498203 393.92665)scale(0.14 -0.14)">
       <use xlink:href="#MicrosoftYaHei-51"/>
       <use x="58.642578" xlink:href="#MicrosoftYaHei-51"/>
      </g>
     </g>
    </g>
    <g id="xtick_34">
     <g id="line2d_34"/>
     <g id="text_34">
      <!-- 34 -->
      <g transform="translate(570.838611 393.92665)scale(0.14 -0.14)">
       <use xlink:href="#MicrosoftYaHei-51"/>
       <use x="58.642578" xlink:href="#MicrosoftYaHei-52"/>
      </g>
     </g>
    </g>
    <g id="xtick_35">
     <g id="line2d_35"/>
     <g id="text_35">
      <!-- 35 -->
      <g transform="translate(586.179019 393.92665)scale(0.14 -0.14)">
       <use xlink:href="#MicrosoftYaHei-51"/>
       <use x="58.642578" xlink:href="#MicrosoftYaHei-53"/>
      </g>
     </g>
    </g>
    <g id="xtick_36">
     <g id="line2d_36"/>
     <g id="text_36">
      <!-- 36 -->
      <g transform="translate(601.519427 393.92665)scale(0.14 -0.14)">
       <use xlink:href="#MicrosoftYaHei-51"/>
       <use x="58.642578" xlink:href="#MicrosoftYaHei-54"/>
      </g>
     </g>
    </g>
    <g id="xtick_37">
     <g id="line2d_37"/>
     <g id="text_37">
      <!-- 37 -->
      <g transform="translate(616.859835 393.92665)scale(0.14 -0.14)">
       <use xlink:href="#MicrosoftYaHei-51"/>
       <use x="58.642578" xlink:href="#MicrosoftYaHei-55"/>
      </g>
     </g>
    </g>
    <g id="xtick_38">
     <g id="line2d_38"/>
     <g id="text_38">
      <!-- 38 -->
      <g transform="translate(632.200244 393.92665)scale(0.14 -0.14)">
       <use xlink:href="#MicrosoftYaHei-51"/>
       <use x="58.642578" xlink:href="#MicrosoftYaHei-56"/>
      </g>
     </g>
    </g>
    <g id="xtick_39">
     <g id="line2d_39"/>
     <g id="text_39">
      <!-- 39 -->
      <g transform="translate(647.540652 393.92665)scale(0.14 -0.14)">
       <use xlink:href="#MicrosoftYaHei-51"/>
       <use x="58.642578" xlink:href="#MicrosoftYaHei-57"/>
      </g>
     </g>
    </g>
    <g id="xtick_40">
     <g id="line2d_40"/>
     <g id="text_40">
      <!-- 40 -->
      <g transform="translate(662.88106 393.92665)scale(0.14 -0.14)">
       <use xlink:href="#MicrosoftYaHei-52"/>
       <use x="58.642578" xlink:href="#MicrosoftYaHei-48"/>
      </g>
     </g>
    </g>
    <g id="xtick_41">
     <g id="line2d_41"/>
     <g id="text_41">
      <!-- 41 -->
      <g transform="translate(678.221468 393.92665)scale(0.14 -0.14)">
       <use xlink:href="#MicrosoftYaHei-52"/>
       <use x="58.642578" xlink:href="#MicrosoftYaHei-49"/>
      </g>
     </g>
    </g>
    <g id="xtick_42">
     <g id="line2d_42"/>
     <g id="text_42">
      <!-- 42 -->
      <g transform="translate(693.561876 393.92665)scale(0.14 -0.14)">
       <use xlink:href="#MicrosoftYaHei-52"/>
       <use x="58.642578" xlink:href="#MicrosoftYaHei-50"/>
      </g>
     </g>
    </g>
    <g id="xtick_43">
     <g id="line2d_43"/>
     <g id="text_43">
      <!-- 43 -->
      <g transform="translate(708.902284 393.92665)scale(0.14 -0.14)">
       <use xlink:href="#MicrosoftYaHei-52"/>
       <use x="58.642578" xlink:href="#MicrosoftYaHei-51"/>
      </g>
     </g>
    </g>
    <g id="xtick_44">
     <g id="line2d_44"/>
     <g id="text_44">
      <!-- 44 -->
      <g transform="translate(724.242693 393.92665)scale(0.14 -0.14)">
       <use xlink:href="#MicrosoftYaHei-52"/>
       <use x="58.642578" xlink:href="#MicrosoftYaHei-52"/>
      </g>
     </g>
    </g>
    <g id="xtick_45">
     <g id="line2d_45"/>
     <g id="text_45">
      <!-- 45 -->
      <g transform="translate(739.583101 393.92665)scale(0.14 -0.14)">
       <use xlink:href="#MicrosoftYaHei-52"/>
       <use x="58.642578" xlink:href="#MicrosoftYaHei-53"/>
      </g>
     </g>
    </g>
    <g id="xtick_46">
     <g id="line2d_46"/>
     <g id="text_46">
      <!-- 46 -->
      <g transform="translate(754.923509 393.92665)scale(0.14 -0.14)">
       <use xlink:href="#MicrosoftYaHei-52"/>
       <use x="58.642578" xlink:href="#MicrosoftYaHei-54"/>
      </g>
     </g>
    </g>
    <g id="xtick_47">
     <g id="line2d_47"/>
     <g id="text_47">
      <!-- 47 -->
      <g transform="translate(770.263917 393.92665)scale(0.14 -0.14)">
       <use xlink:href="#MicrosoftYaHei-52"/>
       <use x="58.642578" xlink:href="#MicrosoftYaHei-55"/>
      </g>
     </g>
    </g>
    <g id="xtick_48">
     <g id="line2d_48"/>
     <g id="text_48">
      <!-- 48 -->
      <g transform="translate(785.604325 393.92665)scale(0.14 -0.14)">
       <use xlink:href="#MicrosoftYaHei-52"/>
       <use x="58.642578" xlink:href="#MicrosoftYaHei-56"/>
      </g>
     </g>
    </g>
    <g id="xtick_49">
     <g id="line2d_49"/>
     <g id="text_49">
      <!-- 49 -->
      <g transform="translate(800.944733 393.92665)scale(0.14 -0.14)">
       <use xlink:href="#MicrosoftYaHei-52"/>
       <use x="58.642578" xlink:href="#MicrosoftYaHei-57"/>
      </g>
     </g>
    </g>
    <g id="text_50">
     <!-- item出现的次数 -->
     <defs>
      <path d="M 7.375 73.046875 
Q 7.375 75.59375 9.109375 77.3125 
Q 10.84375 79.046875 13.375 79.046875 
Q 15.96875 79.046875 17.75 77.34375 
Q 19.53125 75.640625 19.53125 73.046875 
Q 19.53125 70.515625 17.75 68.828125 
Q 15.96875 67.140625 13.375 67.140625 
Q 10.796875 67.140625 9.078125 68.828125 
Q 7.375 70.515625 7.375 73.046875 
z
M 8.5 0 
L 8.5 54 
L 18.0625 54 
L 18.0625 0 
z
" id="MicrosoftYaHei-105"/>
      <path d="M 34.46875 0.53125 
Q 31.34375 -1.171875 26.03125 -1.171875 
Q 11.53125 -1.171875 11.53125 14.890625 
L 11.53125 46.09375 
L 2.25 46.09375 
L 2.25 54 
L 11.53125 54 
L 11.53125 67 
L 21.046875 70.015625 
L 21.046875 54 
L 34.46875 54 
L 34.46875 46.09375 
L 21.046875 46.09375 
L 21.046875 16.609375 
Q 21.046875 11.28125 22.84375 8.984375 
Q 24.65625 6.6875 28.859375 6.6875 
Q 32.078125 6.6875 34.46875 8.5 
z
" id="MicrosoftYaHei-116"/>
      <path d="M 52.546875 24.5625 
L 14.75 24.5625 
Q 14.984375 15.921875 19.46875 11.203125 
Q 23.96875 6.5 32.03125 6.5 
Q 41.109375 6.5 48.6875 12.3125 
L 48.6875 3.765625 
Q 41.546875 -1.265625 29.78125 -1.265625 
Q 18.0625 -1.265625 11.5 6.15625 
Q 4.9375 13.578125 4.9375 26.765625 
Q 4.9375 39.15625 12.140625 47.21875 
Q 19.34375 55.28125 30.03125 55.28125 
Q 40.625 55.28125 46.578125 48.46875 
Q 52.546875 41.65625 52.546875 29.390625 
z
M 42.96875 32.234375 
Q 42.921875 39.546875 39.5 43.546875 
Q 36.078125 47.5625 29.890625 47.5625 
Q 24.171875 47.5625 20 43.3125 
Q 15.828125 39.0625 14.75 32.234375 
z
" id="MicrosoftYaHei-101"/>
      <path d="M 86.28125 0 
L 76.703125 0 
L 76.703125 31 
Q 76.703125 39.796875 73.96875 43.578125 
Q 71.234375 47.359375 64.984375 47.359375 
Q 59.71875 47.359375 55.953125 42.421875 
Q 52.203125 37.5 52.203125 30.765625 
L 52.203125 0 
L 42.625 0 
L 42.625 31.984375 
Q 42.625 47.359375 30.765625 47.359375 
Q 25.296875 47.359375 21.703125 42.671875 
Q 18.109375 37.984375 18.109375 30.71875 
L 18.109375 0 
L 8.546875 0 
L 8.546875 54 
L 18.109375 54 
L 18.109375 45.453125 
L 18.3125 45.453125 
Q 24.078125 55.28125 35.15625 55.28125 
Q 40.578125 55.28125 44.71875 52.296875 
Q 48.875 49.3125 50.484375 44.234375 
Q 56.5 55.28125 68.453125 55.28125 
Q 86.28125 55.28125 86.28125 33.296875 
z
" id="MicrosoftYaHei-109"/>
      <path d="M 79.6875 33.9375 
L 79.6875 37.546875 
L 54 37.546875 
L 54 -0.734375 
L 82.625 -0.734375 
L 82.625 27.09375 
L 90.828125 27.09375 
L 90.828125 -11.671875 
L 82.625 -11.671875 
L 82.625 -8.15625 
L 9.1875 -8.15625 
L 9.1875 27.09375 
L 17.484375 27.09375 
L 17.484375 -0.734375 
L 45.515625 -0.734375 
L 45.515625 37.546875 
L 11.8125 37.546875 
L 11.8125 72.609375 
L 20.125 72.609375 
L 20.125 44.96875 
L 45.515625 44.96875 
L 45.515625 81.59375 
L 54 81.59375 
L 54 44.96875 
L 79.6875 44.96875 
L 79.6875 72.609375 
L 87.984375 72.609375 
L 87.984375 33.9375 
z
" id="MicrosoftYaHei-20986"/>
      <path d="M 60.9375 64.703125 
L 68.5625 64.703125 
L 68.5625 48.296875 
Q 68.5625 35.75 66.40625 26.21875 
L 72.859375 26.21875 
L 72.859375 1.609375 
Q 72.859375 -3.5625 78.515625 -3.5625 
L 83.203125 -3.5625 
Q 89.0625 -3.5625 89.65625 1.703125 
Q 90.234375 6.203125 90.625 14.5 
Q 93.953125 13.140625 98.640625 11.46875 
Q 97.859375 2.875 97.078125 -1.421875 
Q 95.609375 -10.40625 84.28125 -10.40625 
L 77.046875 -10.40625 
Q 65.4375 -10.40625 65.4375 0.640625 
L 65.4375 22.265625 
Q 63.421875 15.328125 60.15625 10.203125 
Q 51.859375 -3.171875 32.71875 -13.03125 
Q 30.171875 -9.421875 27.4375 -6.59375 
Q 46.484375 2.59375 53.90625 14.703125 
Q 60.9375 25.640625 60.9375 47.703125 
z
M 40.4375 78.65625 
L 90.328125 78.65625 
L 90.328125 20.0625 
L 82.71875 20.0625 
L 82.71875 71.4375 
L 48.046875 71.4375 
L 48.046875 18.703125 
L 40.4375 18.703125 
z
M 1.265625 6 
Q 8.296875 7.90625 16.015625 10.109375 
L 16.015625 38.53125 
L 3.125 38.53125 
L 3.125 45.5625 
L 16.015625 45.5625 
L 16.015625 68.21875 
L 2.34375 68.21875 
L 2.34375 75.25 
L 37.5 75.25 
L 37.5 68.21875 
L 23.640625 68.21875 
L 23.640625 45.5625 
L 36.140625 45.5625 
L 36.140625 38.53125 
L 23.640625 38.53125 
L 23.640625 12.359375 
Q 30.5625 14.453125 37.984375 16.75 
Q 38.1875 13.03125 38.671875 9.421875 
Q 21.875 4.25 4 -1.515625 
z
" id="MicrosoftYaHei-29616"/>
      <path d="M 5.5625 66.9375 
L 15.4375 66.9375 
Q 19.046875 75.828125 21.390625 83.15625 
L 29.59375 80.8125 
Q 26.515625 73.34375 23.640625 66.9375 
L 43.171875 66.9375 
L 43.171875 -10.796875 
L 35.359375 -10.796875 
L 35.359375 -3.171875 
L 13.375 -3.171875 
L 13.375 -11.46875 
L 5.5625 -11.46875 
z
M 44.625 46.921875 
Q 53.8125 61.46875 60.15625 83.15625 
L 68.359375 81.109375 
Q 65.875 73.734375 63.28125 67.234375 
L 94.734375 67.234375 
Q 93.5625 17.046875 92.78125 4.046875 
Q 92.09375 -11.28125 76.65625 -11.28125 
Q 67.78125 -11.28125 58.59375 -10.6875 
Q 58.015625 -5.8125 57.03125 -2 
L 57.328125 -2 
Q 67.09375 -3.375 75.203125 -3.375 
Q 84.078125 -3.375 84.765625 6 
Q 85.84375 20.5625 86.328125 59.90625 
L 60.15625 59.90625 
Q 55.90625 50.484375 51.375 43.3125 
Q 48.734375 45.171875 44.625 46.921875 
z
M 13.375 4.15625 
L 35.359375 4.15625 
L 35.359375 28.859375 
L 13.375 28.859375 
z
M 35.359375 59.625 
L 13.375 59.625 
L 13.375 35.890625 
L 35.359375 35.890625 
z
M 53.21875 40.28125 
L 59.1875 44.671875 
Q 70.015625 31.890625 76.46875 22.515625 
L 69.234375 17.4375 
Q 62.3125 28.765625 53.21875 40.28125 
z
" id="MicrosoftYaHei-30340"/>
      <path d="M 64.359375 54.25 
Q 64.265625 49.359375 63.921875 44.625 
Q 70.453125 11.375 98.734375 -4.4375 
Q 94.734375 -8.734375 92.390625 -12.0625 
Q 67.875 5.171875 60.9375 30.375 
Q 54.546875 3.125 25.78125 -13.53125 
Q 23.828125 -10.5 20.40625 -6.59375 
Q 50.390625 9.234375 55.078125 37.9375 
Q 56.453125 44.96875 56.546875 54.25 
z
M 77.25 41.359375 
Q 81.640625 49.46875 85.15625 58.84375 
L 46.734375 58.84375 
Q 42.484375 49.125 37.3125 40.1875 
Q 33.796875 42.71875 30.28125 44.390625 
Q 41.703125 63.03125 46.875 82.953125 
L 54.78125 80.71875 
Q 52.4375 73.046875 49.609375 65.765625 
L 93.5625 65.765625 
L 93.5625 58.84375 
Q 89.546875 48 84.765625 38.53125 
Q 81.453125 40.1875 77.25 41.359375 
z
M 21.6875 40.96875 
Q 26.171875 37.546875 29.296875 35.6875 
Q 16.796875 13.421875 8.984375 -2.78125 
L 1.078125 2.390625 
Q 11.140625 17.625 21.6875 40.96875 
z
M 10.0625 76.8125 
Q 17.96875 68.890625 27.828125 57.375 
L 21.484375 51.515625 
Q 12.015625 64.015625 4.390625 71.734375 
z
" id="MicrosoftYaHei-27425"/>
      <path d="M 65.234375 82.859375 
L 73.046875 81.6875 
Q 71 72.21875 68.265625 64.015625 
L 98.140625 64.015625 
L 98.140625 57.375 
L 92 57.375 
Q 89.546875 28.65625 79.5 11.765625 
Q 87.40625 1.03125 99.609375 -5.8125 
Q 96.484375 -10.109375 94.34375 -13.53125 
Q 82.421875 -5.8125 74.515625 4.828125 
Q 65.53125 -6.296875 53.125 -14.5 
Q 50.984375 -11.671875 47.5625 -8.34375 
Q 61.234375 0.640625 69.734375 12.0625 
Q 61.8125 25.734375 59.28125 43.609375 
Q 57.234375 39.984375 54.984375 36.859375 
Q 53.03125 39.703125 50.09375 43.109375 
Q 61.421875 59.421875 65.234375 82.859375 
z
M 2.34375 26.515625 
L 17.1875 26.515625 
Q 19.34375 30.21875 21.390625 34.125 
L 28.421875 31.890625 
Q 26.859375 29.15625 25.296875 26.515625 
L 49.21875 26.515625 
L 49.21875 20.171875 
Q 45.515625 10.59375 37.984375 3.375 
Q 43.359375 0.828125 48.921875 -1.703125 
L 44.625 -8.453125 
Q 38.578125 -5.03125 32.03125 -1.609375 
Q 21 -9.515625 4.203125 -14.109375 
Q 2.640625 -10.984375 0.875 -7.28125 
Q 15.140625 -4.046875 25 2 
Q 16.609375 6.296875 7.421875 10.796875 
Q 10.546875 15.28125 13.484375 20.0625 
L 2.34375 20.0625 
z
M 3.421875 60.109375 
L 25.875 60.109375 
L 25.875 81.984375 
L 33.109375 81.984375 
L 33.109375 60.109375 
L 51.859375 60.109375 
L 51.859375 53.65625 
L 33.109375 53.65625 
L 33.109375 47.703125 
L 36.03125 51.03125 
Q 45.125 44.390625 51.265625 39.3125 
L 46.578125 33.84375 
Q 41.21875 38.921875 33.109375 45.265625 
L 33.109375 34.125 
L 25.875 34.125 
L 25.875 47.796875 
Q 17 38.53125 5.171875 31.5 
Q 3.328125 34.328125 0.984375 37.453125 
Q 13.28125 44.09375 23.53125 53.65625 
L 3.421875 53.65625 
z
M 84.1875 57.375 
L 65.921875 57.375 
Q 65.4375 56.109375 64.84375 54.9375 
Q 66.609375 34.234375 74.609375 19.484375 
Q 82.421875 33.734375 84.1875 57.375 
z
M 17 13.03125 
Q 23.921875 9.90625 31.25 6.5 
Q 37.984375 12.25 41.796875 20.0625 
L 21.484375 20.0625 
Q 19.234375 16.453125 17 13.03125 
z
M 47.46875 79.546875 
L 53.515625 75.53125 
Q 48.140625 68.5 42.78125 62.546875 
Q 40.53125 64.5 37.5 66.65625 
Q 42.578125 72.609375 47.46875 79.546875 
z
M 5.953125 75.25 
L 11.53125 79.046875 
Q 15.921875 73.6875 20.609375 67.53125 
L 14.546875 63.234375 
Q 10.25 69.578125 5.953125 75.25 
z
" id="MicrosoftYaHei-25968"/>
     </defs>
     <g transform="translate(380.983687 414.836463)scale(0.168 -0.168)">
      <use xlink:href="#MicrosoftYaHei-105"/>
      <use x="26.611328" xlink:href="#MicrosoftYaHei-116"/>
      <use x="63.867188" xlink:href="#MicrosoftYaHei-101"/>
      <use x="120.605469" xlink:href="#MicrosoftYaHei-109"/>
      <use x="214.306641" xlink:href="#MicrosoftYaHei-20986"/>
      <use x="314.306641" xlink:href="#MicrosoftYaHei-29616"/>
      <use x="414.306641" xlink:href="#MicrosoftYaHei-30340"/>
      <use x="514.306641" xlink:href="#MicrosoftYaHei-27425"/>
      <use x="614.306641" xlink:href="#MicrosoftYaHei-25968"/>
     </g>
    </g>
   </g>
   <g id="matplotlib.axis_2">
    <g id="ytick_1">
     <g id="line2d_50">
      <path clip-path="url(#p78d41806a2)" d="M 65.144625 379.2354 
L 816.824625 379.2354 
" style="fill:none;stroke:#cbcbcb;"/>
     </g>
     <g id="line2d_51"/>
     <g id="text_51">
      <!-- 0 -->
      <g transform="translate(53.434938 384.831025)scale(0.14 -0.14)">
       <use xlink:href="#MicrosoftYaHei-48"/>
      </g>
     </g>
    </g>
    <g id="ytick_2">
     <g id="line2d_52">
      <path clip-path="url(#p78d41806a2)" d="M 65.144625 338.51483 
L 816.824625 338.51483 
" style="fill:none;stroke:#cbcbcb;"/>
     </g>
     <g id="line2d_53"/>
     <g id="text_52">
      <!-- 250 -->
      <g transform="translate(37.015563 344.110455)scale(0.14 -0.14)">
       <use xlink:href="#MicrosoftYaHei-50"/>
       <use x="58.642578" xlink:href="#MicrosoftYaHei-53"/>
       <use x="117.285156" xlink:href="#MicrosoftYaHei-48"/>
      </g>
     </g>
    </g>
    <g id="ytick_3">
     <g id="line2d_54">
      <path clip-path="url(#p78d41806a2)" d="M 65.144625 297.79426 
L 816.824625 297.79426 
" style="fill:none;stroke:#cbcbcb;"/>
     </g>
     <g id="line2d_55"/>
     <g id="text_53">
      <!-- 500 -->
      <g transform="translate(37.015563 303.389885)scale(0.14 -0.14)">
       <use xlink:href="#MicrosoftYaHei-53"/>
       <use x="58.642578" xlink:href="#MicrosoftYaHei-48"/>
       <use x="117.285156" xlink:href="#MicrosoftYaHei-48"/>
      </g>
     </g>
    </g>
    <g id="ytick_4">
     <g id="line2d_56">
      <path clip-path="url(#p78d41806a2)" d="M 65.144625 257.073691 
L 816.824625 257.073691 
" style="fill:none;stroke:#cbcbcb;"/>
     </g>
     <g id="line2d_57"/>
     <g id="text_54">
      <!-- 750 -->
      <g transform="translate(37.015563 262.669316)scale(0.14 -0.14)">
       <use xlink:href="#MicrosoftYaHei-55"/>
       <use x="58.642578" xlink:href="#MicrosoftYaHei-53"/>
       <use x="117.285156" xlink:href="#MicrosoftYaHei-48"/>
      </g>
     </g>
    </g>
    <g id="ytick_5">
     <g id="line2d_58">
      <path clip-path="url(#p78d41806a2)" d="M 65.144625 216.353121 
L 816.824625 216.353121 
" style="fill:none;stroke:#cbcbcb;"/>
     </g>
     <g id="line2d_59"/>
     <g id="text_55">
      <!-- 1000 -->
      <g transform="translate(28.805875 221.948746)scale(0.14 -0.14)">
       <use xlink:href="#MicrosoftYaHei-49"/>
       <use x="58.642578" xlink:href="#MicrosoftYaHei-48"/>
       <use x="117.285156" xlink:href="#MicrosoftYaHei-48"/>
       <use x="175.927734" xlink:href="#MicrosoftYaHei-48"/>
      </g>
     </g>
    </g>
    <g id="ytick_6">
     <g id="line2d_60">
      <path clip-path="url(#p78d41806a2)" d="M 65.144625 175.632551 
L 816.824625 175.632551 
" style="fill:none;stroke:#cbcbcb;"/>
     </g>
     <g id="line2d_61"/>
     <g id="text_56">
      <!-- 1250 -->
      <g transform="translate(28.805875 181.228176)scale(0.14 -0.14)">
       <use xlink:href="#MicrosoftYaHei-49"/>
       <use x="58.642578" xlink:href="#MicrosoftYaHei-50"/>
       <use x="117.285156" xlink:href="#MicrosoftYaHei-53"/>
       <use x="175.927734" xlink:href="#MicrosoftYaHei-48"/>
      </g>
     </g>
    </g>
    <g id="ytick_7">
     <g id="line2d_62">
      <path clip-path="url(#p78d41806a2)" d="M 65.144625 134.911981 
L 816.824625 134.911981 
" style="fill:none;stroke:#cbcbcb;"/>
     </g>
     <g id="line2d_63"/>
     <g id="text_57">
      <!-- 1500 -->
      <g transform="translate(28.805875 140.507606)scale(0.14 -0.14)">
       <use xlink:href="#MicrosoftYaHei-49"/>
       <use x="58.642578" xlink:href="#MicrosoftYaHei-53"/>
       <use x="117.285156" xlink:href="#MicrosoftYaHei-48"/>
       <use x="175.927734" xlink:href="#MicrosoftYaHei-48"/>
      </g>
     </g>
    </g>
    <g id="ytick_8">
     <g id="line2d_64">
      <path clip-path="url(#p78d41806a2)" d="M 65.144625 94.191412 
L 816.824625 94.191412 
" style="fill:none;stroke:#cbcbcb;"/>
     </g>
     <g id="line2d_65"/>
     <g id="text_58">
      <!-- 1750 -->
      <g transform="translate(28.805875 99.787037)scale(0.14 -0.14)">
       <use xlink:href="#MicrosoftYaHei-49"/>
       <use x="58.642578" xlink:href="#MicrosoftYaHei-55"/>
       <use x="117.285156" xlink:href="#MicrosoftYaHei-53"/>
       <use x="175.927734" xlink:href="#MicrosoftYaHei-48"/>
      </g>
     </g>
    </g>
    <g id="ytick_9">
     <g id="line2d_66">
      <path clip-path="url(#p78d41806a2)" d="M 65.144625 53.470842 
L 816.824625 53.470842 
" style="fill:none;stroke:#cbcbcb;"/>
     </g>
     <g id="line2d_67"/>
     <g id="text_59">
      <!-- 2000 -->
      <g transform="translate(28.805875 59.066467)scale(0.14 -0.14)">
       <use xlink:href="#MicrosoftYaHei-50"/>
       <use x="58.642578" xlink:href="#MicrosoftYaHei-48"/>
       <use x="117.285156" xlink:href="#MicrosoftYaHei-48"/>
       <use x="175.927734" xlink:href="#MicrosoftYaHei-48"/>
      </g>
     </g>
    </g>
    <g id="text_60">
     <!-- 出现n次的商品的数量 -->
     <defs>
      <path d="M 54.203125 0 
L 44.671875 0 
L 44.671875 30.71875 
Q 44.671875 47.359375 32.515625 47.359375 
Q 26.21875 47.359375 22.15625 42.671875 
Q 18.109375 37.984375 18.109375 30.8125 
L 18.109375 0 
L 8.546875 0 
L 8.546875 54 
L 18.109375 54 
L 18.109375 45.0625 
L 18.3125 45.0625 
Q 24.421875 55.28125 36.03125 55.28125 
Q 44.921875 55.28125 49.5625 49.578125 
Q 54.203125 43.890625 54.203125 33.015625 
z
" id="MicrosoftYaHei-110"/>
      <path d="M 9.375 51.703125 
L 33.109375 51.703125 
Q 29.734375 56.640625 25.78125 61.46875 
L 31.734375 65.484375 
Q 36.421875 60.015625 40.234375 55.328125 
L 34.96875 51.703125 
L 57.125 51.703125 
Q 62.0625 58.0625 66.21875 65.09375 
L 73.640625 60.796875 
Q 69 55.28125 65.828125 51.703125 
L 90.140625 51.703125 
L 90.140625 0.53125 
Q 90.140625 -11.765625 78.90625 -11.859375 
Q 72.859375 -11.96875 65.234375 -11.765625 
Q 64.453125 -6.109375 63.765625 -3.5625 
Q 71.484375 -4.34375 76.46875 -4.34375 
Q 82.8125 -4.34375 82.8125 2.6875 
L 82.8125 44.96875 
L 16.703125 44.96875 
L 16.703125 -13.03125 
L 9.375 -13.03125 
z
M 30.46875 -3.375 
L 30.46875 28.078125 
L 69.625 28.078125 
L 69.625 1.8125 
L 37.5 1.8125 
L 37.5 -3.375 
z
M 2.25 72.609375 
L 46.828125 72.609375 
Q 44.96875 76.078125 42.28125 80.328125 
L 49.8125 83.734375 
Q 52.734375 78.71875 55.953125 72.609375 
L 98.046875 72.609375 
L 98.046875 65.671875 
L 2.25 65.671875 
z
M 62.59375 8.0625 
L 62.59375 21.828125 
L 37.5 21.828125 
L 37.5 8.0625 
z
M 37.984375 43.890625 
L 43.265625 38.8125 
Q 31.84375 29.046875 21.875 21.625 
Q 18.953125 25.640625 17.28125 27.390625 
Q 28.03125 34.515625 37.984375 43.890625 
z
M 55.171875 38.53125 
L 59.46875 43.890625 
Q 73.921875 34.8125 81.34375 29.34375 
L 76.46875 23.1875 
Q 66.796875 31 55.171875 38.53125 
z
" id="MicrosoftYaHei-21830"/>
      <path d="M 16.3125 78.859375 
L 83.6875 78.859375 
L 83.6875 40.1875 
L 75.875 40.1875 
L 75.875 43.3125 
L 24.125 43.3125 
L 24.125 40.1875 
L 16.3125 40.1875 
z
M 56.0625 32.171875 
L 93.359375 32.171875 
L 93.359375 -12.9375 
L 85.9375 -12.9375 
L 85.9375 -6.296875 
L 63.484375 -6.296875 
L 63.484375 -12.9375 
L 56.0625 -12.9375 
z
M 6.734375 32.171875 
L 43.953125 32.171875 
L 43.953125 -12.9375 
L 36.53125 -12.9375 
L 36.53125 -6.390625 
L 14.15625 -6.390625 
L 14.15625 -12.9375 
L 6.734375 -12.9375 
z
M 75.875 72.015625 
L 24.125 72.015625 
L 24.125 50.140625 
L 75.875 50.140625 
z
M 85.9375 25.34375 
L 63.484375 25.34375 
L 63.484375 0.046875 
L 85.9375 0.046875 
z
M 36.53125 25.34375 
L 14.15625 25.34375 
L 14.15625 0.25 
L 36.53125 0.25 
z
" id="MicrosoftYaHei-21697"/>
      <path d="M 1.765625 -4.34375 
L 46.578125 -4.34375 
L 46.578125 1.21875 
L 7.421875 1.21875 
L 7.421875 6.296875 
L 46.578125 6.296875 
L 46.578125 11.859375 
L 23.34375 11.859375 
L 23.34375 9.328125 
L 16.703125 9.328125 
L 16.703125 39.3125 
L 83.59375 39.3125 
L 83.59375 9.328125 
L 76.953125 9.328125 
L 76.953125 11.859375 
L 53.421875 11.859375 
L 53.421875 6.296875 
L 92.671875 6.296875 
L 92.671875 1.21875 
L 53.421875 1.21875 
L 53.421875 -4.34375 
L 98.25 -4.34375 
L 98.25 -9.625 
L 1.765625 -9.625 
z
M 17.484375 79.25 
L 82.90625 79.25 
L 82.90625 51.3125 
L 76.265625 51.3125 
L 76.265625 53.953125 
L 24.125 53.953125 
L 24.125 51.3125 
L 17.484375 51.3125 
z
M 2.546875 49.265625 
L 97.859375 49.265625 
L 97.859375 44 
L 2.546875 44 
z
M 24.125 59.03125 
L 76.265625 59.03125 
L 76.265625 64.3125 
L 24.125 64.3125 
z
M 76.265625 74.171875 
L 24.125 74.171875 
L 24.125 69 
L 76.265625 69 
z
M 53.421875 16.9375 
L 76.953125 16.9375 
L 76.953125 23.296875 
L 53.421875 23.296875 
z
M 23.34375 16.9375 
L 46.578125 16.9375 
L 46.578125 23.296875 
L 23.34375 23.296875 
z
M 76.953125 34.234375 
L 53.421875 34.234375 
L 53.421875 27.984375 
L 76.953125 27.984375 
z
M 23.34375 27.984375 
L 46.578125 27.984375 
L 46.578125 34.234375 
L 23.34375 34.234375 
z
" id="MicrosoftYaHei-37327"/>
     </defs>
     <g transform="translate(20.6295 285.0519)rotate(-90)scale(0.168 -0.168)">
      <use xlink:href="#MicrosoftYaHei-20986"/>
      <use x="100" xlink:href="#MicrosoftYaHei-29616"/>
      <use x="200" xlink:href="#MicrosoftYaHei-110"/>
      <use x="261.621094" xlink:href="#MicrosoftYaHei-27425"/>
      <use x="361.621094" xlink:href="#MicrosoftYaHei-30340"/>
      <use x="461.621094" xlink:href="#MicrosoftYaHei-21830"/>
      <use x="561.621094" xlink:href="#MicrosoftYaHei-21697"/>
      <use x="661.621094" xlink:href="#MicrosoftYaHei-30340"/>
      <use x="761.621094" xlink:href="#MicrosoftYaHei-25968"/>
      <use x="861.621094" xlink:href="#MicrosoftYaHei-37327"/>
     </g>
    </g>
   </g>
   <g id="patch_3">
    <path clip-path="url(#p78d41806a2)" d="M 66.678666 379.2354 
L 78.950992 379.2354 
L 78.950992 45.978257 
L 66.678666 45.978257 
z
" style="fill:#ea96a3;"/>
   </g>
   <g id="patch_4">
    <path clip-path="url(#p78d41806a2)" d="M 82.019074 379.2354 
L 94.291401 379.2354 
L 94.291401 206.743067 
L 82.019074 206.743067 
z
" style="fill:#ea9799;"/>
   </g>
   <g id="patch_5">
    <path clip-path="url(#p78d41806a2)" d="M 97.359482 379.2354 
L 109.631809 379.2354 
L 109.631809 266.846627 
L 97.359482 266.846627 
z
" style="fill:#e8968b;"/>
   </g>
   <g id="patch_6">
    <path clip-path="url(#p78d41806a2)" d="M 112.69989 379.2354 
L 124.972217 379.2354 
L 124.972217 293.233557 
L 112.69989 293.233557 
z
" style="fill:#e69577;"/>
   </g>
   <g id="patch_7">
    <path clip-path="url(#p78d41806a2)" d="M 128.040298 379.2354 
L 140.312625 379.2354 
L 140.312625 317.503016 
L 128.040298 317.503016 
z
" style="fill:#e19257;"/>
   </g>
   <g id="patch_8">
    <path clip-path="url(#p78d41806a2)" d="M 143.380707 379.2354 
L 155.653033 379.2354 
L 155.653033 330.696481 
L 143.380707 330.696481 
z
" style="fill:#d6944e;"/>
   </g>
   <g id="patch_9">
    <path clip-path="url(#p78d41806a2)" d="M 158.721115 379.2354 
L 170.993441 379.2354 
L 170.993441 332.976833 
L 158.721115 332.976833 
z
" style="fill:#cb974c;"/>
   </g>
   <g id="patch_10">
    <path clip-path="url(#p78d41806a2)" d="M 174.061523 379.2354 
L 186.333849 379.2354 
L 186.333849 346.007415 
L 174.061523 346.007415 
z
" style="fill:#c29a4b;"/>
   </g>
   <g id="patch_11">
    <path clip-path="url(#p78d41806a2)" d="M 189.401931 379.2354 
L 201.674258 379.2354 
L 201.674258 345.844533 
L 189.401931 345.844533 
z
" style="fill:#ba9b49;"/>
   </g>
   <g id="patch_12">
    <path clip-path="url(#p78d41806a2)" d="M 204.742339 379.2354 
L 217.014666 379.2354 
L 217.014666 353.011353 
L 204.742339 353.011353 
z
" style="fill:#b29d48;"/>
   </g>
   <g id="patch_13">
    <path clip-path="url(#p78d41806a2)" d="M 220.082747 379.2354 
L 232.355074 379.2354 
L 232.355074 351.219648 
L 220.082747 351.219648 
z
" style="fill:#aa9e47;"/>
   </g>
   <g id="patch_14">
    <path clip-path="url(#p78d41806a2)" d="M 235.423156 379.2354 
L 247.695482 379.2354 
L 247.695482 352.685589 
L 235.423156 352.685589 
z
" style="fill:#a19f46;"/>
   </g>
   <g id="patch_15">
    <path clip-path="url(#p78d41806a2)" d="M 250.763564 379.2354 
L 263.03589 379.2354 
L 263.03589 358.875115 
L 250.763564 358.875115 
z
" style="fill:#9aa146;"/>
   </g>
   <g id="patch_16">
    <path clip-path="url(#p78d41806a2)" d="M 266.103972 379.2354 
L 278.376298 379.2354 
L 278.376298 360.66682 
L 266.103972 360.66682 
z
" style="fill:#92a446;"/>
   </g>
   <g id="patch_17">
    <path clip-path="url(#p78d41806a2)" d="M 281.44438 379.2354 
L 293.716707 379.2354 
L 293.716707 361.481232 
L 281.44438 361.481232 
z
" style="fill:#88a746;"/>
   </g>
   <g id="patch_18">
    <path clip-path="url(#p78d41806a2)" d="M 296.784788 379.2354 
L 309.057115 379.2354 
L 309.057115 362.295643 
L 296.784788 362.295643 
z
" style="fill:#7baa47;"/>
   </g>
   <g id="patch_19">
    <path clip-path="url(#p78d41806a2)" d="M 312.125196 379.2354 
L 324.397523 379.2354 
L 324.397523 364.901759 
L 312.125196 364.901759 
z
" style="fill:#69ad47;"/>
   </g>
   <g id="patch_20">
    <path clip-path="url(#p78d41806a2)" d="M 327.465605 379.2354 
L 339.737931 379.2354 
L 339.737931 364.25023 
L 327.465605 364.25023 
z
" style="fill:#48b14b;"/>
   </g>
   <g id="patch_21">
    <path clip-path="url(#p78d41806a2)" d="M 342.806013 379.2354 
L 355.078339 379.2354 
L 355.078339 364.901759 
L 342.806013 364.901759 
z
" style="fill:#48af6b;"/>
   </g>
   <g id="patch_22">
    <path clip-path="url(#p78d41806a2)" d="M 358.146421 379.2354 
L 370.418747 379.2354 
L 370.418747 364.901759 
L 358.146421 364.901759 
z
" style="fill:#49af7b;"/>
   </g>
   <g id="patch_23">
    <path clip-path="url(#p78d41806a2)" d="M 373.486829 379.2354 
L 385.759156 379.2354 
L 385.759156 365.553289 
L 373.486829 365.553289 
z
" style="fill:#49ae87;"/>
   </g>
   <g id="patch_24">
    <path clip-path="url(#p78d41806a2)" d="M 388.827237 379.2354 
L 401.099564 379.2354 
L 401.099564 368.48517 
L 388.827237 368.48517 
z
" style="fill:#4aad8f;"/>
   </g>
   <g id="patch_25">
    <path clip-path="url(#p78d41806a2)" d="M 404.167645 379.2354 
L 416.439972 379.2354 
L 416.439972 367.019229 
L 404.167645 367.019229 
z
" style="fill:#4aad96;"/>
   </g>
   <g id="patch_26">
    <path clip-path="url(#p78d41806a2)" d="M 419.508054 379.2354 
L 431.78038 379.2354 
L 431.78038 369.136699 
L 419.508054 369.136699 
z
" style="fill:#4aac9c;"/>
   </g>
   <g id="patch_27">
    <path clip-path="url(#p78d41806a2)" d="M 434.848462 379.2354 
L 447.120788 379.2354 
L 447.120788 368.648052 
L 434.848462 368.648052 
z
" style="fill:#4baba2;"/>
   </g>
   <g id="patch_28">
    <path clip-path="url(#p78d41806a2)" d="M 450.18887 379.2354 
L 462.461196 379.2354 
L 462.461196 368.322287 
L 450.18887 368.322287 
z
" style="fill:#4baba7;"/>
   </g>
   <g id="patch_29">
    <path clip-path="url(#p78d41806a2)" d="M 465.529278 379.2354 
L 477.801605 379.2354 
L 477.801605 370.765521 
L 465.529278 370.765521 
z
" style="fill:#4cabac;"/>
   </g>
   <g id="patch_30">
    <path clip-path="url(#p78d41806a2)" d="M 480.869686 379.2354 
L 493.142013 379.2354 
L 493.142013 372.557227 
L 480.869686 372.557227 
z
" style="fill:#4dabb2;"/>
   </g>
   <g id="patch_31">
    <path clip-path="url(#p78d41806a2)" d="M 496.210094 379.2354 
L 508.482421 379.2354 
L 508.482421 371.417051 
L 496.210094 371.417051 
z
" style="fill:#4eabb8;"/>
   </g>
   <g id="patch_32">
    <path clip-path="url(#p78d41806a2)" d="M 511.550503 379.2354 
L 523.822829 379.2354 
L 523.822829 371.091286 
L 511.550503 371.091286 
z
" style="fill:#50acbf;"/>
   </g>
   <g id="patch_33">
    <path clip-path="url(#p78d41806a2)" d="M 526.890911 379.2354 
L 539.163237 379.2354 
L 539.163237 370.602639 
L 526.890911 370.602639 
z
" style="fill:#52acc7;"/>
   </g>
   <g id="patch_34">
    <path clip-path="url(#p78d41806a2)" d="M 542.231319 379.2354 
L 554.503645 379.2354 
L 554.503645 372.720109 
L 542.231319 372.720109 
z
" style="fill:#54acd1;"/>
   </g>
   <g id="patch_35">
    <path clip-path="url(#p78d41806a2)" d="M 557.571727 379.2354 
L 569.844054 379.2354 
L 569.844054 370.765521 
L 557.571727 370.765521 
z
" style="fill:#56addd;"/>
   </g>
   <g id="patch_36">
    <path clip-path="url(#p78d41806a2)" d="M 572.912135 379.2354 
L 585.184462 379.2354 
L 585.184462 373.697403 
L 572.912135 373.697403 
z
" style="fill:#77aee4;"/>
   </g>
   <g id="patch_37">
    <path clip-path="url(#p78d41806a2)" d="M 588.252543 379.2354 
L 600.52487 379.2354 
L 600.52487 371.579933 
L 588.252543 371.579933 
z
" style="fill:#8eaee7;"/>
   </g>
   <g id="patch_38">
    <path clip-path="url(#p78d41806a2)" d="M 603.592952 379.2354 
L 615.865278 379.2354 
L 615.865278 373.53452 
L 603.592952 373.53452 
z
" style="fill:#a0adea;"/>
   </g>
   <g id="patch_39">
    <path clip-path="url(#p78d41806a2)" d="M 618.93336 379.2354 
L 631.205686 379.2354 
L 631.205686 372.394344 
L 618.93336 372.394344 
z
" style="fill:#aeabeb;"/>
   </g>
   <g id="patch_40">
    <path clip-path="url(#p78d41806a2)" d="M 634.273768 379.2354 
L 646.546094 379.2354 
L 646.546094 374.511814 
L 634.273768 374.511814 
z
" style="fill:#b9a7eb;"/>
   </g>
   <g id="patch_41">
    <path clip-path="url(#p78d41806a2)" d="M 649.614176 379.2354 
L 661.886503 379.2354 
L 661.886503 373.208756 
L 649.614176 373.208756 
z
" style="fill:#c2a2ea;"/>
   </g>
   <g id="patch_42">
    <path clip-path="url(#p78d41806a2)" d="M 664.954584 379.2354 
L 677.226911 379.2354 
L 677.226911 375.163343 
L 664.954584 375.163343 
z
" style="fill:#cc9ce9;"/>
   </g>
   <g id="patch_43">
    <path clip-path="url(#p78d41806a2)" d="M 680.294992 379.2354 
L 692.567319 379.2354 
L 692.567319 375.000461 
L 680.294992 375.000461 
z
" style="fill:#d696e8;"/>
   </g>
   <g id="patch_44">
    <path clip-path="url(#p78d41806a2)" d="M 695.635401 379.2354 
L 707.907727 379.2354 
L 707.907727 374.186049 
L 695.635401 374.186049 
z
" style="fill:#e08ee7;"/>
   </g>
   <g id="patch_45">
    <path clip-path="url(#p78d41806a2)" d="M 710.975809 379.2354 
L 723.248135 379.2354 
L 723.248135 374.511814 
L 710.975809 374.511814 
z
" style="fill:#e78ae0;"/>
   </g>
   <g id="patch_46">
    <path clip-path="url(#p78d41806a2)" d="M 726.316217 379.2354 
L 738.588543 379.2354 
L 738.588543 371.742815 
L 726.316217 371.742815 
z
" style="fill:#e78cd6;"/>
   </g>
   <g id="patch_47">
    <path clip-path="url(#p78d41806a2)" d="M 741.656625 379.2354 
L 753.928952 379.2354 
L 753.928952 374.511814 
L 741.656625 374.511814 
z
" style="fill:#e88fcd;"/>
   </g>
   <g id="patch_48">
    <path clip-path="url(#p78d41806a2)" d="M 756.997033 379.2354 
L 769.26936 379.2354 
L 769.26936 373.53452 
L 756.997033 373.53452 
z
" style="fill:#e890c5;"/>
   </g>
   <g id="patch_49">
    <path clip-path="url(#p78d41806a2)" d="M 772.337441 379.2354 
L 784.609768 379.2354 
L 784.609768 374.023167 
L 772.337441 374.023167 
z
" style="fill:#e992bd;"/>
   </g>
   <g id="patch_50">
    <path clip-path="url(#p78d41806a2)" d="M 787.677849 379.2354 
L 799.950176 379.2354 
L 799.950176 375.000461 
L 787.677849 375.000461 
z
" style="fill:#e993b5;"/>
   </g>
   <g id="patch_51">
    <path clip-path="url(#p78d41806a2)" d="M 803.018258 379.2354 
L 815.290584 379.2354 
L 815.290584 374.837578 
L 803.018258 374.837578 
z
" style="fill:#e994ad;"/>
   </g>
   <g id="patch_52">
    <path d="M 65.144625 379.2354 
L 65.144625 29.3154 
" style="fill:none;stroke:#f0f0f0;stroke-linecap:square;stroke-linejoin:miter;stroke-width:3;"/>
   </g>
   <g id="patch_53">
    <path d="M 816.824625 379.2354 
L 816.824625 29.3154 
" style="fill:none;stroke:#f0f0f0;stroke-linecap:square;stroke-linejoin:miter;stroke-width:3;"/>
   </g>
   <g id="patch_54">
    <path d="M 65.144625 379.2354 
L 816.824625 379.2354 
" style="fill:none;stroke:#f0f0f0;stroke-linecap:square;stroke-linejoin:miter;stroke-width:3;"/>
   </g>
   <g id="patch_55">
    <path d="M 65.144625 29.3154 
L 816.824625 29.3154 
" style="fill:none;stroke:#f0f0f0;stroke-linecap:square;stroke-linejoin:miter;stroke-width:3;"/>
   </g>
   <g id="text_61">
    <!-- 商品分布 -->
    <defs>
     <path d="M 14.0625 39.984375 
L 79 39.984375 
Q 78.515625 23.390625 77.546875 7.5625 
Q 76.375 -10.6875 60.25 -10.59375 
Q 52.34375 -10.6875 43.5625 -10.109375 
Q 42.96875 -6 42.1875 -1.8125 
Q 49.703125 -2.875 58.984375 -2.984375 
Q 68.75 -3.171875 69.734375 8.453125 
Q 70.515625 19 70.90625 32.765625 
L 40.875 32.765625 
Q 39.703125 16.453125 34.078125 6.5 
Q 26.65625 -6.59375 9.1875 -13.71875 
Q 6.640625 -10.40625 3.609375 -7.171875 
Q 19.828125 -1.125 26.953125 10.40625 
Q 32.078125 19.140625 32.859375 32.765625 
L 14.0625 32.765625 
z
M 54.5 80.609375 
L 61.53125 83.640625 
Q 72.265625 57.46875 99.21875 44.484375 
Q 94.828125 39.890625 92.875 37.0625 
Q 66.015625 52.59375 54.5 80.609375 
z
M 0.78125 43.21875 
Q 20.90625 57.46875 35.15625 82.078125 
L 42.09375 78.265625 
Q 27.25 52.296875 6.453125 36.578125 
Q 4.390625 39.59375 0.78125 43.21875 
z
" id="MicrosoftYaHei-20998"/>
     <path d="M 50.78125 57.28125 
L 58.59375 57.28125 
L 58.59375 42.234375 
L 88.765625 42.234375 
L 88.765625 8.453125 
Q 88.765625 -3.078125 78.90625 -3.078125 
Q 76.375 -3.078125 64.359375 -2.984375 
Q 63.765625 0.25 62.796875 4.9375 
Q 72.5625 4.34375 74.515625 4.34375 
Q 81.0625 4.15625 81.0625 10.40625 
L 81.0625 35.203125 
L 58.59375 35.203125 
L 58.59375 -12.9375 
L 50.78125 -12.9375 
L 50.78125 35.203125 
L 28.8125 35.203125 
L 28.8125 -5.515625 
L 21.09375 -5.515625 
L 21.09375 33.015625 
Q 14.5 24.265625 7.03125 16.0625 
Q 4.59375 19.578125 1.46875 22.609375 
Q 19.390625 41.359375 30.765625 62.25 
L 3.125 62.25 
L 3.125 69.28125 
L 34.375 69.28125 
Q 37.796875 76.3125 40.53125 83.640625 
L 48.25 80.515625 
Q 45.84375 74.8125 43.21875 69.28125 
L 97.65625 69.28125 
L 97.65625 62.25 
L 39.65625 62.25 
Q 34.1875 51.953125 27.6875 42.234375 
L 50.78125 42.234375 
z
" id="MicrosoftYaHei-24067"/>
    </defs>
    <g transform="translate(400.664625 23.3154)scale(0.2016 -0.2016)">
     <use xlink:href="#MicrosoftYaHei-21830"/>
     <use x="100" xlink:href="#MicrosoftYaHei-21697"/>
     <use x="200" xlink:href="#MicrosoftYaHei-20998"/>
     <use x="300" xlink:href="#MicrosoftYaHei-24067"/>
    </g>
   </g>
  </g>
 </g>
 <defs>
  <clipPath id="p78d41806a2">
   <rect height="349.92" width="751.68" x="65.144625" y="29.3154"/>
  </clipPath>
 </defs>
</svg>
