<?xml version="1.0" encoding="utf-8" standalone="no"?>
<!DOCTYPE svg PUBLIC "-//W3C//DTD SVG 1.1//EN"
  "http://www.w3.org/Graphics/SVG/1.1/DTD/svg11.dtd">
<!-- Created with matplotlib (https://matplotlib.org/) -->
<svg height="269.7954pt" version="1.1" viewBox="0 0 260.343517 269.7954" width="260.343517pt" xmlns="http://www.w3.org/2000/svg" xmlns:xlink="http://www.w3.org/1999/xlink">
 <defs>
  <style type="text/css">
*{stroke-linecap:butt;stroke-linejoin:round;}
  </style>
 </defs>
 <g id="figure_1">
  <g id="patch_1">
   <path d="M 0 269.7954 
L 260.343517 269.7954 
L 260.343517 0 
L 0 0 
z
" style="fill:#f0f0f0;"/>
  </g>
  <g id="axes_1">
   <g id="matplotlib.axis_1"/>
   <g id="matplotlib.axis_2"/>
   <g id="patch_2">
    <path d="M 215.28576 147.82164 
C 215.28576 135.799953 212.962571 123.890768 208.444241 112.750495 
C 203.925912 101.610223 197.297011 91.447371 188.922909 82.822095 
C 180.548807 74.19682 170.586239 67.270555 159.584321 62.425065 
C 148.582404 57.579575 136.747055 54.905548 124.730616 54.550374 
C 112.714176 54.195199 100.741552 56.165524 89.472652 60.352747 
C 78.203751 64.53997 67.849487 70.865721 58.980568 78.981338 
C 50.111649 87.096955 42.89407 96.850541 37.725648 107.704499 
C 32.557227 118.558456 29.534699 130.309635 28.82466 142.310336 
C 28.114621 154.311036 29.73036 166.336646 33.582821 177.724337 
C 37.435282 189.112028 43.452361 199.648662 51.302407 208.753481 
C 59.152454 217.858301 68.688543 225.360894 79.385063 230.847734 
C 90.081584 236.334574 101.738335 239.702965 113.712819 240.767249 
C 125.687303 241.831533 137.755399 240.571789 149.251938 237.057453 
C 160.748477 233.543117 171.458283 227.839965 180.791053 220.262342 
C 190.123824 212.68472 197.904881 203.374454 203.705349 192.844709 
C 209.505817 182.314964 213.21713 170.762819 214.63473 158.825006 
L 121.97376 147.82164 
L 215.28576 147.82164 
z
" style="fill:#002b40;opacity:0.5;stroke:#002b40;stroke-linejoin:miter;stroke-width:0.5;"/>
   </g>
   <g id="patch_3">
    <path d="M 233.26455 159.927268 
C 233.481323 158.10179 233.644104 156.270305 233.75268 154.435211 
C 233.861256 152.600117 233.91558 150.762215 233.91558 148.923912 
L 140.60358 148.923902 
L 233.26455 159.927268 
z
" style="fill:#4c180e;opacity:0.5;stroke:#4c180e;stroke-linejoin:miter;stroke-width:0.5;"/>
   </g>
   <g id="patch_4">
    <path d="M 217.152 145.9554 
C 217.152 133.933713 214.828811 122.024528 210.310481 110.884255 
C 205.792152 99.743983 199.163251 89.581131 190.789149 80.955855 
C 182.415047 72.33058 172.452479 65.404315 161.450561 60.558825 
C 150.448644 55.713335 138.613295 53.039308 126.596856 52.684134 
C 114.580416 52.328959 102.607792 54.299284 91.338892 58.486507 
C 80.069991 62.67373 69.715727 68.999481 60.846808 77.115098 
C 51.977889 85.230715 44.76031 94.984301 39.591888 105.838259 
C 34.423467 116.692216 31.400939 128.443395 30.6909 140.444096 
C 29.980861 152.444796 31.5966 164.470406 35.449061 175.858097 
C 39.301522 187.245788 45.318601 197.782422 53.168647 206.887241 
C 61.018694 215.992061 70.554783 223.494654 81.251303 228.981494 
C 91.947824 234.468334 103.604575 237.836725 115.579059 238.901009 
C 127.553543 239.965293 139.621639 238.705549 151.118178 235.191213 
C 162.614717 231.676877 173.324523 225.973725 182.657293 218.396102 
C 191.990064 210.81848 199.771121 201.508214 205.571589 190.978469 
C 211.372057 180.448724 215.08337 168.896579 216.50097 156.958766 
L 123.84 145.9554 
L 217.152 145.9554 
z
" style="fill:#008fd5;"/>
   </g>
   <g id="patch_5">
    <path d="M 235.13079 158.061028 
C 235.347563 156.23555 235.510344 154.404065 235.61892 152.568971 
C 235.727496 150.733877 235.78182 148.895975 235.78182 147.057672 
L 142.46982 147.057662 
L 235.13079 158.061028 
z
" style="fill:#fc4f30;"/>
   </g>
   <g id="text_1">
    <!-- 0 -->
    <defs>
     <path d="M 4.4375 36.328125 
Q 4.4375 56.34375 11.078125 66.625 
Q 17.71875 76.90625 30.328125 76.90625 
Q 54.34375 76.90625 54.34375 38.140625 
Q 54.34375 19 47.578125 8.859375 
Q 40.828125 -1.265625 28.609375 -1.265625 
Q 17.09375 -1.265625 10.765625 8.34375 
Q 4.4375 17.96875 4.4375 36.328125 
z
M 14.203125 36.765625 
Q 14.203125 6.640625 29.5 6.640625 
Q 44.53125 6.640625 44.53125 37.25 
Q 44.53125 68.953125 29.78125 68.953125 
Q 14.203125 68.953125 14.203125 36.765625 
z
" id="MicrosoftYaHei-48"/>
    </defs>
    <g transform="translate(13.166302 143.748434)scale(0.14 -0.14)">
     <use xlink:href="#MicrosoftYaHei-48"/>
    </g>
   </g>
   <g id="text_2">
    <!-- 98.1% -->
    <defs>
     <path d="M 9.03125 10.25 
Q 15.28125 6.640625 22.515625 6.640625 
Q 32.671875 6.640625 38.25 14.640625 
Q 43.84375 22.65625 43.84375 37.40625 
Q 43.75 37.3125 43.65625 37.40625 
Q 38.671875 27.9375 26.90625 27.9375 
Q 17.390625 27.9375 11.140625 34.46875 
Q 4.890625 41.015625 4.890625 51.46875 
Q 4.890625 62.59375 11.71875 69.75 
Q 18.5625 76.90625 29.4375 76.90625 
Q 40.71875 76.90625 47.0625 68.046875 
Q 53.421875 59.1875 53.421875 42.234375 
Q 53.421875 21.296875 45.21875 10.015625 
Q 37.015625 -1.265625 22.515625 -1.265625 
Q 14.546875 -1.265625 9.03125 1.3125 
z
M 14.546875 52.6875 
Q 14.546875 45.0625 18.453125 40.59375 
Q 22.359375 36.140625 29.25 36.140625 
Q 35.203125 36.140625 39.25 40.203125 
Q 43.3125 44.28125 43.3125 50.09375 
Q 43.3125 58.25 39.28125 63.59375 
Q 35.25 68.953125 28.65625 68.953125 
Q 22.5625 68.953125 18.546875 64.3125 
Q 14.546875 59.671875 14.546875 52.6875 
z
" id="MicrosoftYaHei-57"/>
     <path d="M 21.390625 39.796875 
Q 7.859375 46.09375 7.859375 58.0625 
Q 7.859375 66.40625 14.203125 71.65625 
Q 20.5625 76.90625 30.421875 76.90625 
Q 39.453125 76.90625 45.3125 71.96875 
Q 51.171875 67.046875 51.171875 59.234375 
Q 51.171875 46.625 37.0625 39.84375 
L 37.0625 39.65625 
Q 53.609375 33.6875 53.609375 19.34375 
Q 53.609375 9.90625 46.796875 4.3125 
Q 39.984375 -1.265625 27.78125 -1.265625 
Q 17.78125 -1.265625 11.46875 4.25 
Q 5.171875 9.765625 5.171875 18.5625 
Q 5.171875 33.015625 21.390625 39.59375 
z
M 41.5 58.109375 
Q 41.5 63.1875 38.328125 66.109375 
Q 35.15625 69.046875 29.734375 69.046875 
Q 24.65625 69.046875 21.09375 65.984375 
Q 17.53125 62.9375 17.53125 58.203125 
Q 17.53125 48.734375 29.390625 43.796875 
Q 41.5 48.828125 41.5 58.109375 
z
M 28.8125 35.25 
Q 14.796875 29.59375 14.796875 19.046875 
Q 14.796875 13.578125 18.890625 10.0625 
Q 23 6.546875 29.59375 6.546875 
Q 35.984375 6.546875 39.984375 10.03125 
Q 44 13.53125 44 18.75 
Q 44 29.734375 28.8125 35.25 
z
" id="MicrosoftYaHei-56"/>
     <path d="M 5.8125 5.03125 
Q 5.8125 7.671875 7.609375 9.46875 
Q 9.421875 11.28125 12.109375 11.28125 
Q 14.84375 11.28125 16.640625 9.453125 
Q 18.453125 7.625 18.453125 5.03125 
Q 18.453125 2.484375 16.640625 0.65625 
Q 14.84375 -1.171875 12.0625 -1.171875 
Q 9.375 -1.171875 7.59375 0.65625 
Q 5.8125 2.484375 5.8125 5.03125 
z
" id="MicrosoftYaHei-46"/>
     <path d="M 52.59375 0 
L 9.234375 0 
L 9.234375 8.25 
L 26.171875 8.25 
L 26.171875 65.671875 
L 8.796875 60.640625 
L 8.796875 69.4375 
L 35.6875 77.25 
L 35.6875 8.25 
L 52.59375 8.25 
z
" id="MicrosoftYaHei-49"/>
     <path d="M 4.25 56.546875 
Q 4.25 65.828125 9.203125 71.296875 
Q 14.15625 76.765625 22.5625 76.765625 
Q 30.609375 76.765625 35.125 71.734375 
Q 39.65625 66.703125 39.65625 57.71875 
Q 39.65625 48.78125 34.671875 43.203125 
Q 29.6875 37.640625 21.4375 37.640625 
Q 13.625 37.640625 8.9375 42.8125 
Q 4.25 48 4.25 56.546875 
z
M 11.765625 57.03125 
Q 11.765625 50.734375 14.5 47.3125 
Q 17.234375 43.890625 21.96875 43.890625 
Q 26.859375 43.890625 29.515625 47.4375 
Q 32.171875 50.984375 32.171875 57.421875 
Q 32.171875 63.71875 29.5625 67.15625 
Q 26.953125 70.609375 22.21875 70.609375 
Q 17.390625 70.609375 14.578125 67.015625 
Q 11.765625 63.421875 11.765625 57.03125 
z
M 72.609375 75.640625 
L 24.03125 -0.484375 
L 15.875 -0.484375 
L 64.453125 75.640625 
z
M 49.5625 17.71875 
Q 49.5625 27 54.515625 32.546875 
Q 59.46875 38.09375 67.828125 38.09375 
Q 75.828125 38.09375 80.359375 33.03125 
Q 84.90625 27.984375 84.90625 18.796875 
Q 84.90625 9.90625 79.875 4.359375 
Q 74.859375 -1.171875 66.75 -1.171875 
Q 58.890625 -1.171875 54.21875 4.078125 
Q 49.5625 9.328125 49.5625 17.71875 
z
M 57.03125 18.171875 
Q 57.03125 12.015625 59.765625 8.5625 
Q 62.5 5.125 67.234375 5.125 
Q 72.125 5.125 74.78125 8.6875 
Q 77.4375 12.25 77.4375 18.65625 
Q 77.4375 25 74.78125 28.359375 
Q 72.125 31.734375 67.484375 31.734375 
Q 62.5 31.734375 59.765625 28.140625 
Q 57.03125 24.5625 57.03125 18.171875 
z
" id="MicrosoftYaHei-37"/>
    </defs>
    <g transform="translate(47.722727 146.504086)scale(0.14 -0.14)">
     <use xlink:href="#MicrosoftYaHei-57"/>
     <use x="58.642578" xlink:href="#MicrosoftYaHei-56"/>
     <use x="117.285156" xlink:href="#MicrosoftYaHei-46"/>
     <use x="141.357422" xlink:href="#MicrosoftYaHei-49"/>
     <use x="200" xlink:href="#MicrosoftYaHei-37"/>
    </g>
   </g>
   <g id="text_3">
    <!-- 1 -->
    <g transform="translate(244.93383 156.975571)scale(0.14 -0.14)">
     <use xlink:href="#MicrosoftYaHei-49"/>
    </g>
   </g>
   <g id="text_4">
    <!-- 1.9% -->
    <g transform="translate(182.236311 154.219916)scale(0.14 -0.14)">
     <use xlink:href="#MicrosoftYaHei-49"/>
     <use x="58.642578" xlink:href="#MicrosoftYaHei-46"/>
     <use x="82.714844" xlink:href="#MicrosoftYaHei-57"/>
     <use x="141.357422" xlink:href="#MicrosoftYaHei-37"/>
    </g>
   </g>
   <g id="text_5">
    <!-- 标签比例 -->
    <defs>
     <path d="M 1.171875 22.015625 
Q 12.015625 38.71875 16.015625 56.984375 
L 1.859375 56.984375 
L 1.859375 63.625 
L 16.703125 63.625 
L 16.703125 82.765625 
L 23.53125 82.765625 
L 23.53125 63.625 
L 36.8125 63.625 
L 36.8125 56.984375 
L 23.53125 56.984375 
L 23.53125 39.703125 
L 27.734375 44.09375 
Q 33.984375 38.71875 38.765625 33.734375 
L 33.59375 28.375 
Q 28.90625 33.6875 23.53125 39.109375 
L 23.53125 -12.453125 
L 16.703125 -12.453125 
L 16.703125 40.4375 
Q 11.53125 23.640625 4.390625 13.421875 
Q 3.03125 17.625 1.171875 22.015625 
z
M 36.71875 48.390625 
L 97.65625 48.390625 
L 97.65625 41.546875 
L 70.703125 41.546875 
L 70.703125 0.734375 
Q 70.703125 -11.46875 59.46875 -11.46875 
Q 54.203125 -11.578125 46.484375 -11.375 
Q 46 -7.859375 45.125 -3.265625 
Q 51.859375 -4.046875 57.421875 -4.046875 
Q 63.28125 -4.046875 63.28125 3.171875 
L 63.28125 41.546875 
L 36.71875 41.546875 
z
M 41.21875 77 
L 93.171875 77 
L 93.171875 70.171875 
L 41.21875 70.171875 
z
M 77.15625 28.953125 
L 84.078125 32.28125 
Q 93.359375 14.5 99.515625 1.125 
L 91.703125 -2.296875 
Q 85.359375 12.84375 77.15625 28.953125 
z
M 45.796875 32.28125 
L 53.125 29.34375 
Q 45.125 11.46875 37.203125 -2.390625 
Q 34.1875 -0.640625 30.078125 1.03125 
Q 37.890625 13.625 45.796875 32.28125 
z
" id="MicrosoftYaHei-26631"/>
     <path d="M 56.9375 59.90625 
L 55.171875 57.765625 
Q 72.5625 39.796875 98.734375 33.15625 
Q 95.703125 29.046875 93.453125 25.34375 
Q 82.421875 29.15625 72.859375 34.8125 
L 72.859375 29.640625 
L 27.25 29.640625 
L 27.25 35.296875 
Q 17.390625 29.34375 5.859375 24.078125 
Q 3.421875 27.984375 0.984375 30.8125 
Q 29 41.84375 47.359375 59.90625 
z
M 5.28125 -1.8125 
L 62.796875 -1.8125 
Q 71.1875 12.25 76.765625 25.046875 
L 84.1875 21.140625 
Q 77.4375 9.328125 70.703125 -1.8125 
L 94.921875 -1.8125 
L 94.921875 -8.734375 
L 5.28125 -8.734375 
z
M 20.21875 83.15625 
L 28.609375 83.15625 
Q 26.171875 78.265625 23.640625 73.875 
L 51.953125 73.875 
L 51.953125 67.328125 
L 19.625 67.328125 
Q 13.28125 57.765625 6.15625 50.921875 
Q 4 53.765625 1.171875 56.6875 
Q 12.59375 67.4375 20.21875 83.15625 
z
M 62.796875 83.15625 
L 70.90625 83.15625 
Q 68.75 78.265625 66.40625 73.875 
L 97.65625 73.875 
L 97.65625 67.328125 
L 62.59375 67.328125 
Q 59.96875 63.234375 57.71875 60.203125 
Q 54.109375 62.25 50.6875 63.71875 
Q 57.90625 71.828125 62.796875 83.15625 
z
M 50.296875 52.6875 
Q 40.921875 43.890625 28.71875 36.28125 
L 70.40625 36.28125 
Q 59.28125 43.21875 50.296875 52.6875 
z
M 15.046875 20.171875 
L 21.296875 23.390625 
Q 27.15625 13.8125 31.9375 3.65625 
L 25.296875 -0.046875 
Q 20.703125 10.5 15.046875 20.171875 
z
M 42.875 24.75 
L 49.609375 26.609375 
Q 53.421875 15.96875 56.25 5.03125 
L 49.03125 2.875 
Q 46.296875 14.984375 42.875 24.75 
z
M 78.609375 49.265625 
Q 74.3125 54.15625 67.671875 60.109375 
L 72.359375 64.59375 
Q 78.90625 59.125 83.796875 54.25 
z
M 30.078125 50.640625 
Q 25.984375 56 21.78125 60.890625 
L 26.859375 64.703125 
Q 31.25 60.5 35.84375 55.21875 
z
" id="MicrosoftYaHei-31614"/>
     <path d="M 50.390625 83.0625 
L 58.5 83.0625 
L 58.5 41.75 
Q 77.484375 55.46875 89.75 70.453125 
L 96.6875 65.28125 
Q 80.859375 47.859375 58.5 32.125 
L 58.5 3.859375 
Q 58.5 -2.59375 64.15625 -2.59375 
L 80.859375 -2.59375 
Q 87.3125 -2.59375 88.28125 3.171875 
Q 89.453125 10.59375 90.046875 19.484375 
Q 94.140625 17.921875 98.4375 16.65625 
Q 97.5625 7.5625 96.09375 0.34375 
Q 94.046875 -9.71875 83.109375 -9.71875 
L 61.625 -9.71875 
Q 50.390625 -9.71875 50.390625 2.484375 
z
M 16.609375 80.515625 
L 16.609375 51.21875 
L 44.140625 51.21875 
L 44.140625 43.890625 
L 16.609375 43.890625 
L 16.609375 2.390625 
Q 26.765625 6.6875 43.171875 14.5 
Q 43.171875 9.90625 43.5625 5.71875 
Q 29.203125 -0.046875 19.234375 -5.125 
Q 14.9375 -7.375 11.328125 -10.5 
L 5.375 -2.875 
Q 8.5 -0.53125 8.5 4.25 
L 8.5 80.515625 
z
" id="MicrosoftYaHei-27604"/>
     <path d="M 37.203125 28.765625 
L 41.109375 34.234375 
Q 45.5625 31.203125 50.734375 27.15625 
Q 54.5 37.15625 55.953125 48.875 
L 42.234375 48.875 
Q 36.71875 31 28.609375 20.171875 
Q 26.5625 23.296875 23.921875 26.21875 
Q 34.96875 42.09375 40.28125 70.65625 
L 29.6875 70.65625 
L 29.6875 77.484375 
L 67.484375 77.484375 
L 67.484375 70.65625 
L 47.5625 70.65625 
Q 46.046875 62.640625 44.1875 55.609375 
L 63.1875 55.609375 
L 63.1875 48.875 
Q 59.1875 10.40625 31.84375 -12.84375 
Q 29.6875 -9.90625 26.46875 -6.5 
Q 40.28125 4.640625 47.859375 20.359375 
Q 43.015625 24.3125 37.203125 28.765625 
z
M 1.375 35.796875 
Q 13.96875 57.171875 20.015625 83.15625 
L 27.25 81.78125 
Q 24.65625 70.84375 20.703125 60.203125 
L 20.703125 -12.640625 
L 14.0625 -12.640625 
L 14.0625 44.484375 
Q 9.765625 35.546875 4.5 26.8125 
Q 3.328125 30.71875 1.375 35.796875 
z
M 87.109375 82.859375 
L 94.234375 82.859375 
L 94.234375 1.3125 
Q 94.234375 -6.109375 91.890625 -8.84375 
Q 89.84375 -11.375 83.6875 -11.46875 
Q 79.5 -11.578125 70.125 -11.28125 
Q 69.734375 -7.28125 68.75 -3.171875 
Q 76.265625 -3.953125 81.0625 -3.953125 
Q 84.859375 -4.046875 85.9375 -2.59375 
Q 87.109375 -1.3125 87.109375 3.65625 
z
M 76.765625 10.203125 
L 69.828125 10.203125 
L 69.828125 67.53125 
L 76.765625 67.53125 
z
" id="MicrosoftYaHei-20363"/>
    </defs>
    <g transform="translate(83.52 23.3154)scale(0.2016 -0.2016)">
     <use xlink:href="#MicrosoftYaHei-26631"/>
     <use x="100" xlink:href="#MicrosoftYaHei-31614"/>
     <use x="200" xlink:href="#MicrosoftYaHei-27604"/>
     <use x="300" xlink:href="#MicrosoftYaHei-20363"/>
    </g>
   </g>
  </g>
 </g>
</svg>
