<?xml version="1.0" encoding="utf-8" standalone="no"?>
<!DOCTYPE svg PUBLIC "-//W3C//DTD SVG 1.1//EN"
  "http://www.w3.org/Graphics/SVG/1.1/DTD/svg11.dtd">
<!-- Created with matplotlib (https://matplotlib.org/) -->
<svg height="776.229963pt" version="1.1" viewBox="0 0 832.234312 776.229963" width="832.234312pt" xmlns="http://www.w3.org/2000/svg" xmlns:xlink="http://www.w3.org/1999/xlink">
 <defs>
  <style type="text/css">
*{stroke-linecap:butt;stroke-linejoin:round;}
  </style>
 </defs>
 <g id="figure_1">
  <g id="patch_1">
   <path d="M 0 776.229963 
L 832.234312 776.229963 
L 832.234312 0 
L 0 0 
z
" style="fill:#f0f0f0;"/>
  </g>
  <g id="axes_1">
   <g id="patch_2">
    <path d="M 73.354313 347.424491 
L 825.034312 347.424491 
L 825.034312 29.3154 
L 73.354313 29.3154 
z
" style="fill:#f0f0f0;"/>
   </g>
   <g id="matplotlib.axis_1">
    <g id="xtick_1">
     <g id="line2d_1"/>
     <g id="text_1">
      <!-- 0 -->
      <defs>
       <path d="M 4.4375 36.328125 
Q 4.4375 56.34375 11.078125 66.625 
Q 17.71875 76.90625 30.328125 76.90625 
Q 54.34375 76.90625 54.34375 38.140625 
Q 54.34375 19 47.578125 8.859375 
Q 40.828125 -1.265625 28.609375 -1.265625 
Q 17.09375 -1.265625 10.765625 8.34375 
Q 4.4375 17.96875 4.4375 36.328125 
z
M 14.203125 36.765625 
Q 14.203125 6.640625 29.5 6.640625 
Q 44.53125 6.640625 44.53125 37.25 
Q 44.53125 68.953125 29.78125 68.953125 
Q 14.203125 68.953125 14.203125 36.765625 
z
" id="MicrosoftYaHei-48"/>
      </defs>
      <g transform="translate(84.909469 362.115741)scale(0.14 -0.14)">
       <use xlink:href="#MicrosoftYaHei-48"/>
      </g>
     </g>
    </g>
    <g id="xtick_2">
     <g id="line2d_2"/>
     <g id="text_2">
      <!-- 1 -->
      <defs>
       <path d="M 52.59375 0 
L 9.234375 0 
L 9.234375 8.25 
L 26.171875 8.25 
L 26.171875 65.671875 
L 8.796875 60.640625 
L 8.796875 69.4375 
L 35.6875 77.25 
L 35.6875 8.25 
L 52.59375 8.25 
z
" id="MicrosoftYaHei-49"/>
      </defs>
      <g transform="translate(116.229469 362.115741)scale(0.14 -0.14)">
       <use xlink:href="#MicrosoftYaHei-49"/>
      </g>
     </g>
    </g>
    <g id="xtick_3">
     <g id="line2d_3"/>
     <g id="text_3">
      <!-- 2 -->
      <defs>
       <path d="M 51.171875 0 
L 5.171875 0 
L 5.171875 8.296875 
L 27.15625 30.21875 
Q 36.234375 39.3125 39.3125 44.609375 
Q 42.390625 49.90625 42.390625 55.5625 
Q 42.390625 62.015625 38.765625 65.453125 
Q 35.15625 68.890625 28.328125 68.890625 
Q 18.21875 68.890625 9.03125 60.296875 
L 9.03125 70.015625 
Q 17.96875 76.90625 29.828125 76.90625 
Q 40.046875 76.90625 45.953125 71.390625 
Q 51.859375 65.875 51.859375 56.546875 
Q 51.859375 49.515625 48.0625 42.75 
Q 44.28125 35.984375 33.734375 25.53125 
L 16.5 8.6875 
L 16.5 8.5 
L 51.171875 8.5 
z
" id="MicrosoftYaHei-50"/>
      </defs>
      <g transform="translate(147.549469 362.115741)scale(0.14 -0.14)">
       <use xlink:href="#MicrosoftYaHei-50"/>
      </g>
     </g>
    </g>
    <g id="xtick_4">
     <g id="line2d_4"/>
     <g id="text_4">
      <!-- 3 -->
      <defs>
       <path d="M 6.984375 12.640625 
Q 14.75 6.640625 24.515625 6.640625 
Q 32.328125 6.640625 36.890625 10.46875 
Q 41.453125 14.3125 41.453125 20.75 
Q 41.453125 35.109375 20.90625 35.109375 
L 14.59375 35.109375 
L 14.59375 43.015625 
L 20.609375 43.015625 
Q 38.8125 43.015625 38.8125 56.5 
Q 38.8125 68.953125 24.90625 68.953125 
Q 16.9375 68.953125 9.90625 63.578125 
L 9.90625 72.609375 
Q 17.328125 76.90625 27.25 76.90625 
Q 36.921875 76.90625 42.78125 71.84375 
Q 48.640625 66.796875 48.640625 58.734375 
Q 48.640625 43.890625 33.5 39.65625 
L 33.5 39.453125 
Q 41.703125 38.578125 46.453125 33.671875 
Q 51.21875 28.765625 51.21875 21.4375 
Q 51.21875 11.234375 43.875 4.984375 
Q 36.53125 -1.265625 24.3125 -1.265625 
Q 13.578125 -1.265625 6.984375 2.734375 
z
" id="MicrosoftYaHei-51"/>
      </defs>
      <g transform="translate(178.869469 362.115741)scale(0.14 -0.14)">
       <use xlink:href="#MicrosoftYaHei-51"/>
      </g>
     </g>
    </g>
    <g id="xtick_5">
     <g id="line2d_5"/>
     <g id="text_5">
      <!-- 4 -->
      <defs>
       <path d="M 55.078125 19.625 
L 45.40625 19.625 
L 45.40625 0 
L 36.140625 0 
L 36.140625 19.625 
L 0.875 19.625 
L 0.875 25.828125 
L 34.328125 75.640625 
L 45.40625 75.640625 
L 45.40625 27.203125 
L 55.078125 27.203125 
z
M 36.140625 27.203125 
L 36.140625 58.890625 
Q 36.140625 62.25 36.328125 66.65625 
L 36.140625 66.65625 
Q 35.453125 64.796875 33.25 60.84375 
L 10.75 27.203125 
z
" id="MicrosoftYaHei-52"/>
      </defs>
      <g transform="translate(210.189469 362.115741)scale(0.14 -0.14)">
       <use xlink:href="#MicrosoftYaHei-52"/>
      </g>
     </g>
    </g>
    <g id="xtick_6">
     <g id="line2d_6"/>
     <g id="text_6">
      <!-- 5 -->
      <defs>
       <path d="M 8.640625 11.625 
Q 16.265625 6.640625 24.515625 6.640625 
Q 32.328125 6.640625 37.109375 11 
Q 41.890625 15.375 41.890625 22.609375 
Q 41.890625 29.890625 37.03125 33.890625 
Q 32.171875 37.890625 22.953125 37.890625 
Q 18.5 37.890625 10.984375 37.203125 
L 10.984375 75.640625 
L 48.1875 75.640625 
L 48.1875 67.1875 
L 19.875 67.1875 
L 19.875 45.796875 
Q 24.125 46.046875 26.265625 46.046875 
Q 38.234375 46.046875 44.921875 39.984375 
Q 51.609375 33.9375 51.609375 23.296875 
Q 51.609375 12.3125 44.421875 5.515625 
Q 37.25 -1.265625 24.609375 -1.265625 
Q 14.015625 -1.265625 8.640625 1.859375 
z
" id="MicrosoftYaHei-53"/>
      </defs>
      <g transform="translate(241.509469 362.115741)scale(0.14 -0.14)">
       <use xlink:href="#MicrosoftYaHei-53"/>
      </g>
     </g>
    </g>
    <g id="xtick_7">
     <g id="line2d_7"/>
     <g id="text_7">
      <!-- 6 -->
      <defs>
       <path d="M 49.703125 65.921875 
Q 43.796875 68.953125 37.359375 68.953125 
Q 27.546875 68.953125 21.578125 60.40625 
Q 15.625 51.859375 15.53125 37.0625 
L 15.765625 37.0625 
Q 21.140625 47.46875 32.90625 47.46875 
Q 42.71875 47.46875 48.578125 41.0625 
Q 54.4375 34.671875 54.4375 24.078125 
Q 54.4375 12.984375 47.671875 5.859375 
Q 40.921875 -1.265625 30.421875 -1.265625 
Q 18.890625 -1.265625 12.328125 7.734375 
Q 5.765625 16.75 5.765625 33.296875 
Q 5.765625 53.328125 14.375 65.109375 
Q 23 76.90625 37.0625 76.90625 
Q 45.125 76.90625 49.703125 74.703125 
z
M 16.109375 24.75 
Q 16.109375 17.28125 20.09375 11.953125 
Q 24.078125 6.640625 30.671875 6.640625 
Q 36.921875 6.640625 40.828125 11.234375 
Q 44.734375 15.828125 44.734375 23.046875 
Q 44.734375 30.859375 41.046875 35.203125 
Q 37.359375 39.546875 30.5625 39.546875 
Q 24.125 39.546875 20.109375 35.15625 
Q 16.109375 30.765625 16.109375 24.75 
z
" id="MicrosoftYaHei-54"/>
      </defs>
      <g transform="translate(272.829469 362.115741)scale(0.14 -0.14)">
       <use xlink:href="#MicrosoftYaHei-54"/>
      </g>
     </g>
    </g>
    <g id="xtick_8">
     <g id="line2d_8"/>
     <g id="text_8">
      <!-- 7 -->
      <defs>
       <path d="M 53.765625 72.3125 
L 24.171875 0 
L 14.265625 0 
L 42.390625 67.1875 
L 4.59375 67.1875 
L 4.59375 75.640625 
L 53.765625 75.640625 
z
" id="MicrosoftYaHei-55"/>
      </defs>
      <g transform="translate(304.149469 362.115741)scale(0.14 -0.14)">
       <use xlink:href="#MicrosoftYaHei-55"/>
      </g>
     </g>
    </g>
    <g id="xtick_9">
     <g id="line2d_9"/>
     <g id="text_9">
      <!-- 8 -->
      <defs>
       <path d="M 21.390625 39.796875 
Q 7.859375 46.09375 7.859375 58.0625 
Q 7.859375 66.40625 14.203125 71.65625 
Q 20.5625 76.90625 30.421875 76.90625 
Q 39.453125 76.90625 45.3125 71.96875 
Q 51.171875 67.046875 51.171875 59.234375 
Q 51.171875 46.625 37.0625 39.84375 
L 37.0625 39.65625 
Q 53.609375 33.6875 53.609375 19.34375 
Q 53.609375 9.90625 46.796875 4.3125 
Q 39.984375 -1.265625 27.78125 -1.265625 
Q 17.78125 -1.265625 11.46875 4.25 
Q 5.171875 9.765625 5.171875 18.5625 
Q 5.171875 33.015625 21.390625 39.59375 
z
M 41.5 58.109375 
Q 41.5 63.1875 38.328125 66.109375 
Q 35.15625 69.046875 29.734375 69.046875 
Q 24.65625 69.046875 21.09375 65.984375 
Q 17.53125 62.9375 17.53125 58.203125 
Q 17.53125 48.734375 29.390625 43.796875 
Q 41.5 48.828125 41.5 58.109375 
z
M 28.8125 35.25 
Q 14.796875 29.59375 14.796875 19.046875 
Q 14.796875 13.578125 18.890625 10.0625 
Q 23 6.546875 29.59375 6.546875 
Q 35.984375 6.546875 39.984375 10.03125 
Q 44 13.53125 44 18.75 
Q 44 29.734375 28.8125 35.25 
z
" id="MicrosoftYaHei-56"/>
      </defs>
      <g transform="translate(335.469469 362.115741)scale(0.14 -0.14)">
       <use xlink:href="#MicrosoftYaHei-56"/>
      </g>
     </g>
    </g>
    <g id="xtick_10">
     <g id="line2d_10"/>
     <g id="text_10">
      <!-- 9 -->
      <defs>
       <path d="M 9.03125 10.25 
Q 15.28125 6.640625 22.515625 6.640625 
Q 32.671875 6.640625 38.25 14.640625 
Q 43.84375 22.65625 43.84375 37.40625 
Q 43.75 37.3125 43.65625 37.40625 
Q 38.671875 27.9375 26.90625 27.9375 
Q 17.390625 27.9375 11.140625 34.46875 
Q 4.890625 41.015625 4.890625 51.46875 
Q 4.890625 62.59375 11.71875 69.75 
Q 18.5625 76.90625 29.4375 76.90625 
Q 40.71875 76.90625 47.0625 68.046875 
Q 53.421875 59.1875 53.421875 42.234375 
Q 53.421875 21.296875 45.21875 10.015625 
Q 37.015625 -1.265625 22.515625 -1.265625 
Q 14.546875 -1.265625 9.03125 1.3125 
z
M 14.546875 52.6875 
Q 14.546875 45.0625 18.453125 40.59375 
Q 22.359375 36.140625 29.25 36.140625 
Q 35.203125 36.140625 39.25 40.203125 
Q 43.3125 44.28125 43.3125 50.09375 
Q 43.3125 58.25 39.28125 63.59375 
Q 35.25 68.953125 28.65625 68.953125 
Q 22.5625 68.953125 18.546875 64.3125 
Q 14.546875 59.671875 14.546875 52.6875 
z
" id="MicrosoftYaHei-57"/>
      </defs>
      <g transform="translate(366.789469 362.115741)scale(0.14 -0.14)">
       <use xlink:href="#MicrosoftYaHei-57"/>
      </g>
     </g>
    </g>
    <g id="xtick_11">
     <g id="line2d_11"/>
     <g id="text_11">
      <!-- 10 -->
      <g transform="translate(394.004625 362.115741)scale(0.14 -0.14)">
       <use xlink:href="#MicrosoftYaHei-49"/>
       <use x="58.642578" xlink:href="#MicrosoftYaHei-48"/>
      </g>
     </g>
    </g>
    <g id="xtick_12">
     <g id="line2d_12"/>
     <g id="text_12">
      <!-- 11 -->
      <g transform="translate(425.324625 362.115741)scale(0.14 -0.14)">
       <use xlink:href="#MicrosoftYaHei-49"/>
       <use x="58.642578" xlink:href="#MicrosoftYaHei-49"/>
      </g>
     </g>
    </g>
    <g id="xtick_13">
     <g id="line2d_13"/>
     <g id="text_13">
      <!-- 12 -->
      <g transform="translate(456.644625 362.115741)scale(0.14 -0.14)">
       <use xlink:href="#MicrosoftYaHei-49"/>
       <use x="58.642578" xlink:href="#MicrosoftYaHei-50"/>
      </g>
     </g>
    </g>
    <g id="xtick_14">
     <g id="line2d_14"/>
     <g id="text_14">
      <!-- 13 -->
      <g transform="translate(487.964625 362.115741)scale(0.14 -0.14)">
       <use xlink:href="#MicrosoftYaHei-49"/>
       <use x="58.642578" xlink:href="#MicrosoftYaHei-51"/>
      </g>
     </g>
    </g>
    <g id="xtick_15">
     <g id="line2d_15"/>
     <g id="text_15">
      <!-- 14 -->
      <g transform="translate(519.284625 362.115741)scale(0.14 -0.14)">
       <use xlink:href="#MicrosoftYaHei-49"/>
       <use x="58.642578" xlink:href="#MicrosoftYaHei-52"/>
      </g>
     </g>
    </g>
    <g id="xtick_16">
     <g id="line2d_16"/>
     <g id="text_16">
      <!-- 15 -->
      <g transform="translate(550.604625 362.115741)scale(0.14 -0.14)">
       <use xlink:href="#MicrosoftYaHei-49"/>
       <use x="58.642578" xlink:href="#MicrosoftYaHei-53"/>
      </g>
     </g>
    </g>
    <g id="xtick_17">
     <g id="line2d_17"/>
     <g id="text_17">
      <!-- 16 -->
      <g transform="translate(581.924625 362.115741)scale(0.14 -0.14)">
       <use xlink:href="#MicrosoftYaHei-49"/>
       <use x="58.642578" xlink:href="#MicrosoftYaHei-54"/>
      </g>
     </g>
    </g>
    <g id="xtick_18">
     <g id="line2d_18"/>
     <g id="text_18">
      <!-- 17 -->
      <g transform="translate(613.244625 362.115741)scale(0.14 -0.14)">
       <use xlink:href="#MicrosoftYaHei-49"/>
       <use x="58.642578" xlink:href="#MicrosoftYaHei-55"/>
      </g>
     </g>
    </g>
    <g id="xtick_19">
     <g id="line2d_19"/>
     <g id="text_19">
      <!-- 18 -->
      <g transform="translate(644.564625 362.115741)scale(0.14 -0.14)">
       <use xlink:href="#MicrosoftYaHei-49"/>
       <use x="58.642578" xlink:href="#MicrosoftYaHei-56"/>
      </g>
     </g>
    </g>
    <g id="xtick_20">
     <g id="line2d_20"/>
     <g id="text_20">
      <!-- 19 -->
      <g transform="translate(675.884625 362.115741)scale(0.14 -0.14)">
       <use xlink:href="#MicrosoftYaHei-49"/>
       <use x="58.642578" xlink:href="#MicrosoftYaHei-57"/>
      </g>
     </g>
    </g>
    <g id="xtick_21">
     <g id="line2d_21"/>
     <g id="text_21">
      <!-- 20 -->
      <g transform="translate(707.204625 362.115741)scale(0.14 -0.14)">
       <use xlink:href="#MicrosoftYaHei-50"/>
       <use x="58.642578" xlink:href="#MicrosoftYaHei-48"/>
      </g>
     </g>
    </g>
    <g id="xtick_22">
     <g id="line2d_22"/>
     <g id="text_22">
      <!-- 21 -->
      <g transform="translate(738.524625 362.115741)scale(0.14 -0.14)">
       <use xlink:href="#MicrosoftYaHei-50"/>
       <use x="58.642578" xlink:href="#MicrosoftYaHei-49"/>
      </g>
     </g>
    </g>
    <g id="xtick_23">
     <g id="line2d_23"/>
     <g id="text_23">
      <!-- 22 -->
      <g transform="translate(769.844625 362.115741)scale(0.14 -0.14)">
       <use xlink:href="#MicrosoftYaHei-50"/>
       <use x="58.642578" xlink:href="#MicrosoftYaHei-50"/>
      </g>
     </g>
    </g>
    <g id="xtick_24">
     <g id="line2d_24"/>
     <g id="text_24">
      <!-- 23 -->
      <g transform="translate(801.164625 362.115741)scale(0.14 -0.14)">
       <use xlink:href="#MicrosoftYaHei-50"/>
       <use x="58.642578" xlink:href="#MicrosoftYaHei-51"/>
      </g>
     </g>
    </g>
    <g id="text_25">
     <!-- hour -->
     <defs>
      <path d="M 54.15625 0 
L 44.625 0 
L 44.625 31.0625 
Q 44.625 47.359375 32.515625 47.359375 
Q 26.3125 47.359375 22.203125 42.59375 
Q 18.109375 37.84375 18.109375 30.609375 
L 18.109375 0 
L 8.546875 0 
L 8.546875 79.9375 
L 18.109375 79.9375 
L 18.109375 45.125 
L 18.3125 45.125 
Q 24.515625 55.28125 35.9375 55.28125 
Q 54.15625 55.28125 54.15625 33.25 
z
" id="MicrosoftYaHei-104"/>
      <path d="M 4.9375 26.421875 
Q 4.9375 39.796875 12.40625 47.53125 
Q 19.875 55.28125 32.671875 55.28125 
Q 44.828125 55.28125 51.734375 47.828125 
Q 58.640625 40.375 58.640625 27.25 
Q 58.640625 14.453125 51.265625 6.59375 
Q 43.890625 -1.265625 31.5 -1.265625 
Q 19.390625 -1.265625 12.15625 6.34375 
Q 4.9375 13.96875 4.9375 26.421875 
z
M 14.703125 26.703125 
Q 14.703125 17.390625 19.40625 12.015625 
Q 24.125 6.640625 32.078125 6.640625 
Q 40.28125 6.640625 44.578125 11.890625 
Q 48.875 17.140625 48.875 26.953125 
Q 48.875 36.8125 44.578125 42.078125 
Q 40.28125 47.359375 32.078125 47.359375 
Q 24.03125 47.359375 19.359375 41.84375 
Q 14.703125 36.328125 14.703125 26.703125 
z
" id="MicrosoftYaHei-111"/>
      <path d="M 53.125 0 
L 43.5 0 
L 43.5 8.5 
L 43.3125 8.5 
Q 37.890625 -1.265625 26.65625 -1.265625 
Q 7.46875 -1.265625 7.46875 21.6875 
L 7.46875 54 
L 16.9375 54 
L 16.9375 23.09375 
Q 16.9375 6.640625 29.546875 6.640625 
Q 35.796875 6.640625 39.640625 11.25 
Q 43.5 15.875 43.5 22.90625 
L 43.5 54 
L 53.125 54 
z
" id="MicrosoftYaHei-117"/>
      <path d="M 37.5 44.53125 
Q 35.109375 46.234375 30.90625 46.234375 
Q 25.34375 46.234375 21.71875 41.03125 
Q 18.109375 35.84375 18.109375 27.34375 
L 18.109375 0 
L 8.546875 0 
L 8.546875 54 
L 18.109375 54 
L 18.109375 43.015625 
L 18.3125 43.015625 
Q 22.40625 54.9375 32.46875 54.9375 
Q 35.75 54.9375 37.5 54.203125 
z
" id="MicrosoftYaHei-114"/>
     </defs>
     <g transform="translate(430.296937 383.025553)scale(0.168 -0.168)">
      <use xlink:href="#MicrosoftYaHei-104"/>
      <use x="61.572266" xlink:href="#MicrosoftYaHei-111"/>
      <use x="125.146484" xlink:href="#MicrosoftYaHei-117"/>
      <use x="186.767578" xlink:href="#MicrosoftYaHei-114"/>
     </g>
    </g>
   </g>
   <g id="matplotlib.axis_2">
    <g id="ytick_1">
     <g id="line2d_25">
      <path clip-path="url(#pb2e25c6040)" d="M 73.354313 347.424491 
L 825.034312 347.424491 
" style="fill:none;stroke:#cbcbcb;"/>
     </g>
     <g id="line2d_26"/>
     <g id="text_26">
      <!-- 0 -->
      <g transform="translate(61.644625 353.020116)scale(0.14 -0.14)">
       <use xlink:href="#MicrosoftYaHei-48"/>
      </g>
     </g>
    </g>
    <g id="ytick_2">
     <g id="line2d_27">
      <path clip-path="url(#pb2e25c6040)" d="M 73.354313 311.988793 
L 825.034312 311.988793 
" style="fill:none;stroke:#cbcbcb;"/>
     </g>
     <g id="line2d_28"/>
     <g id="text_27">
      <!-- 5000 -->
      <g transform="translate(37.015563 317.584418)scale(0.14 -0.14)">
       <use xlink:href="#MicrosoftYaHei-53"/>
       <use x="58.642578" xlink:href="#MicrosoftYaHei-48"/>
       <use x="117.285156" xlink:href="#MicrosoftYaHei-48"/>
       <use x="175.927734" xlink:href="#MicrosoftYaHei-48"/>
      </g>
     </g>
    </g>
    <g id="ytick_3">
     <g id="line2d_29">
      <path clip-path="url(#pb2e25c6040)" d="M 73.354313 276.553096 
L 825.034312 276.553096 
" style="fill:none;stroke:#cbcbcb;"/>
     </g>
     <g id="line2d_30"/>
     <g id="text_28">
      <!-- 10000 -->
      <g transform="translate(28.805875 282.148721)scale(0.14 -0.14)">
       <use xlink:href="#MicrosoftYaHei-49"/>
       <use x="58.642578" xlink:href="#MicrosoftYaHei-48"/>
       <use x="117.285156" xlink:href="#MicrosoftYaHei-48"/>
       <use x="175.927734" xlink:href="#MicrosoftYaHei-48"/>
       <use x="234.570312" xlink:href="#MicrosoftYaHei-48"/>
      </g>
     </g>
    </g>
    <g id="ytick_4">
     <g id="line2d_31">
      <path clip-path="url(#pb2e25c6040)" d="M 73.354313 241.117399 
L 825.034312 241.117399 
" style="fill:none;stroke:#cbcbcb;"/>
     </g>
     <g id="line2d_32"/>
     <g id="text_29">
      <!-- 15000 -->
      <g transform="translate(28.805875 246.713024)scale(0.14 -0.14)">
       <use xlink:href="#MicrosoftYaHei-49"/>
       <use x="58.642578" xlink:href="#MicrosoftYaHei-53"/>
       <use x="117.285156" xlink:href="#MicrosoftYaHei-48"/>
       <use x="175.927734" xlink:href="#MicrosoftYaHei-48"/>
       <use x="234.570312" xlink:href="#MicrosoftYaHei-48"/>
      </g>
     </g>
    </g>
    <g id="ytick_5">
     <g id="line2d_33">
      <path clip-path="url(#pb2e25c6040)" d="M 73.354313 205.681701 
L 825.034312 205.681701 
" style="fill:none;stroke:#cbcbcb;"/>
     </g>
     <g id="line2d_34"/>
     <g id="text_30">
      <!-- 20000 -->
      <g transform="translate(28.805875 211.277326)scale(0.14 -0.14)">
       <use xlink:href="#MicrosoftYaHei-50"/>
       <use x="58.642578" xlink:href="#MicrosoftYaHei-48"/>
       <use x="117.285156" xlink:href="#MicrosoftYaHei-48"/>
       <use x="175.927734" xlink:href="#MicrosoftYaHei-48"/>
       <use x="234.570312" xlink:href="#MicrosoftYaHei-48"/>
      </g>
     </g>
    </g>
    <g id="ytick_6">
     <g id="line2d_35">
      <path clip-path="url(#pb2e25c6040)" d="M 73.354313 170.246004 
L 825.034312 170.246004 
" style="fill:none;stroke:#cbcbcb;"/>
     </g>
     <g id="line2d_36"/>
     <g id="text_31">
      <!-- 25000 -->
      <g transform="translate(28.805875 175.841629)scale(0.14 -0.14)">
       <use xlink:href="#MicrosoftYaHei-50"/>
       <use x="58.642578" xlink:href="#MicrosoftYaHei-53"/>
       <use x="117.285156" xlink:href="#MicrosoftYaHei-48"/>
       <use x="175.927734" xlink:href="#MicrosoftYaHei-48"/>
       <use x="234.570312" xlink:href="#MicrosoftYaHei-48"/>
      </g>
     </g>
    </g>
    <g id="ytick_7">
     <g id="line2d_37">
      <path clip-path="url(#pb2e25c6040)" d="M 73.354313 134.810306 
L 825.034312 134.810306 
" style="fill:none;stroke:#cbcbcb;"/>
     </g>
     <g id="line2d_38"/>
     <g id="text_32">
      <!-- 30000 -->
      <g transform="translate(28.805875 140.405931)scale(0.14 -0.14)">
       <use xlink:href="#MicrosoftYaHei-51"/>
       <use x="58.642578" xlink:href="#MicrosoftYaHei-48"/>
       <use x="117.285156" xlink:href="#MicrosoftYaHei-48"/>
       <use x="175.927734" xlink:href="#MicrosoftYaHei-48"/>
       <use x="234.570312" xlink:href="#MicrosoftYaHei-48"/>
      </g>
     </g>
    </g>
    <g id="ytick_8">
     <g id="line2d_39">
      <path clip-path="url(#pb2e25c6040)" d="M 73.354313 99.374609 
L 825.034312 99.374609 
" style="fill:none;stroke:#cbcbcb;"/>
     </g>
     <g id="line2d_40"/>
     <g id="text_33">
      <!-- 35000 -->
      <g transform="translate(28.805875 104.970234)scale(0.14 -0.14)">
       <use xlink:href="#MicrosoftYaHei-51"/>
       <use x="58.642578" xlink:href="#MicrosoftYaHei-53"/>
       <use x="117.285156" xlink:href="#MicrosoftYaHei-48"/>
       <use x="175.927734" xlink:href="#MicrosoftYaHei-48"/>
       <use x="234.570312" xlink:href="#MicrosoftYaHei-48"/>
      </g>
     </g>
    </g>
    <g id="ytick_9">
     <g id="line2d_41">
      <path clip-path="url(#pb2e25c6040)" d="M 73.354313 63.938911 
L 825.034312 63.938911 
" style="fill:none;stroke:#cbcbcb;"/>
     </g>
     <g id="line2d_42"/>
     <g id="text_34">
      <!-- 40000 -->
      <g transform="translate(28.805875 69.534536)scale(0.14 -0.14)">
       <use xlink:href="#MicrosoftYaHei-52"/>
       <use x="58.642578" xlink:href="#MicrosoftYaHei-48"/>
       <use x="117.285156" xlink:href="#MicrosoftYaHei-48"/>
       <use x="175.927734" xlink:href="#MicrosoftYaHei-48"/>
       <use x="234.570312" xlink:href="#MicrosoftYaHei-48"/>
      </g>
     </g>
    </g>
    <g id="text_35">
     <!-- count -->
     <defs>
      <path d="M 45.84375 2.4375 
Q 39.65625 -1.265625 30.90625 -1.265625 
Q 19.1875 -1.265625 12.0625 6.25 
Q 4.9375 13.765625 4.9375 25.734375 
Q 4.9375 39.015625 12.625 47.140625 
Q 20.3125 55.28125 33.203125 55.28125 
Q 40.625 55.28125 45.90625 52.640625 
L 45.90625 43.171875 
Q 40.1875 47.359375 33.203125 47.359375 
Q 25 47.359375 19.84375 41.671875 
Q 14.703125 35.984375 14.703125 26.515625 
Q 14.703125 17.1875 19.5625 11.90625 
Q 24.421875 6.640625 32.671875 6.640625 
Q 39.65625 6.640625 45.84375 11.234375 
z
" id="MicrosoftYaHei-99"/>
      <path d="M 54.203125 0 
L 44.671875 0 
L 44.671875 30.71875 
Q 44.671875 47.359375 32.515625 47.359375 
Q 26.21875 47.359375 22.15625 42.671875 
Q 18.109375 37.984375 18.109375 30.8125 
L 18.109375 0 
L 8.546875 0 
L 8.546875 54 
L 18.109375 54 
L 18.109375 45.0625 
L 18.3125 45.0625 
Q 24.421875 55.28125 36.03125 55.28125 
Q 44.921875 55.28125 49.5625 49.578125 
Q 54.203125 43.890625 54.203125 33.015625 
z
" id="MicrosoftYaHei-110"/>
      <path d="M 34.46875 0.53125 
Q 31.34375 -1.171875 26.03125 -1.171875 
Q 11.53125 -1.171875 11.53125 14.890625 
L 11.53125 46.09375 
L 2.25 46.09375 
L 2.25 54 
L 11.53125 54 
L 11.53125 67 
L 21.046875 70.015625 
L 21.046875 54 
L 34.46875 54 
L 34.46875 46.09375 
L 21.046875 46.09375 
L 21.046875 16.609375 
Q 21.046875 11.28125 22.84375 8.984375 
Q 24.65625 6.6875 28.859375 6.6875 
Q 32.078125 6.6875 34.46875 8.5 
z
" id="MicrosoftYaHei-116"/>
     </defs>
     <g transform="translate(20.6295 211.40432)rotate(-90)scale(0.168 -0.168)">
      <use xlink:href="#MicrosoftYaHei-99"/>
      <use x="50.146484" xlink:href="#MicrosoftYaHei-111"/>
      <use x="113.720703" xlink:href="#MicrosoftYaHei-117"/>
      <use x="175.341797" xlink:href="#MicrosoftYaHei-110"/>
      <use x="236.962891" xlink:href="#MicrosoftYaHei-116"/>
     </g>
    </g>
   </g>
   <g id="patch_3">
    <path clip-path="url(#pb2e25c6040)" d="M 76.486312 347.424491 
L 101.542312 347.424491 
L 101.542312 270.932994 
L 76.486312 270.932994 
z
" style="fill:#ea96a3;"/>
   </g>
   <g id="patch_4">
    <path clip-path="url(#pb2e25c6040)" d="M 107.806313 347.424491 
L 132.862313 347.424491 
L 132.862313 315.63867 
L 107.806313 315.63867 
z
" style="fill:#e8968a;"/>
   </g>
   <g id="patch_5">
    <path clip-path="url(#pb2e25c6040)" d="M 139.126312 347.424491 
L 164.182312 347.424491 
L 164.182312 329.961779 
L 139.126312 329.961779 
z
" style="fill:#e19153;"/>
   </g>
   <g id="patch_6">
    <path clip-path="url(#pb2e25c6040)" d="M 170.446312 347.424491 
L 195.502312 347.424491 
L 195.502312 334.036884 
L 170.446312 334.036884 
z
" style="fill:#ca984c;"/>
   </g>
   <g id="patch_7">
    <path clip-path="url(#pb2e25c6040)" d="M 201.766312 347.424491 
L 226.822313 347.424491 
L 226.822313 336.340205 
L 201.766312 336.340205 
z
" style="fill:#b89c49;"/>
   </g>
   <g id="patch_8">
    <path clip-path="url(#pb2e25c6040)" d="M 233.086312 347.424491 
L 258.142312 347.424491 
L 258.142312 330.868933 
L 233.086312 330.868933 
z
" style="fill:#a89e47;"/>
   </g>
   <g id="patch_9">
    <path clip-path="url(#pb2e25c6040)" d="M 264.406312 347.424491 
L 289.462312 347.424491 
L 289.462312 309.253158 
L 264.406312 309.253158 
z
" style="fill:#98a246;"/>
   </g>
   <g id="patch_10">
    <path clip-path="url(#pb2e25c6040)" d="M 295.726312 347.424491 
L 320.782312 347.424491 
L 320.782312 269.366737 
L 295.726312 269.366737 
z
" style="fill:#84a846;"/>
   </g>
   <g id="patch_11">
    <path clip-path="url(#pb2e25c6040)" d="M 327.046312 347.424491 
L 352.102312 347.424491 
L 352.102312 237.715572 
L 327.046312 237.715572 
z
" style="fill:#60ae47;"/>
   </g>
   <g id="patch_12">
    <path clip-path="url(#pb2e25c6040)" d="M 358.366312 347.424491 
L 383.422313 347.424491 
L 383.422313 206.220324 
L 358.366312 206.220324 
z
" style="fill:#49af72;"/>
   </g>
   <g id="patch_13">
    <path clip-path="url(#pb2e25c6040)" d="M 389.686312 347.424491 
L 414.742313 347.424491 
L 414.742313 175.058171 
L 389.686312 175.058171 
z
" style="fill:#4aae8a;"/>
   </g>
   <g id="patch_14">
    <path clip-path="url(#pb2e25c6040)" d="M 421.006312 347.424491 
L 446.062313 347.424491 
L 446.062313 176.766172 
L 421.006312 176.766172 
z
" style="fill:#4aac99;"/>
   </g>
   <g id="patch_15">
    <path clip-path="url(#pb2e25c6040)" d="M 452.326312 347.424491 
L 477.382313 347.424491 
L 477.382313 172.620195 
L 452.326312 172.620195 
z
" style="fill:#4baba4;"/>
   </g>
   <g id="patch_16">
    <path clip-path="url(#pb2e25c6040)" d="M 483.646312 347.424491 
L 508.702313 347.424491 
L 508.702313 152.563591 
L 483.646312 152.563591 
z
" style="fill:#4cabaf;"/>
   </g>
   <g id="patch_17">
    <path clip-path="url(#pb2e25c6040)" d="M 514.966312 347.424491 
L 540.022312 347.424491 
L 540.022312 154.540903 
L 514.966312 154.540903 
z
" style="fill:#4fabbc;"/>
   </g>
   <g id="patch_18">
    <path clip-path="url(#pb2e25c6040)" d="M 546.286312 347.424491 
L 571.342312 347.424491 
L 571.342312 157.021401 
L 546.286312 157.021401 
z
" style="fill:#53accd;"/>
   </g>
   <g id="patch_19">
    <path clip-path="url(#pb2e25c6040)" d="M 577.606312 347.424491 
L 602.662312 347.424491 
L 602.662312 173.385606 
L 577.606312 173.385606 
z
" style="fill:#6daee2;"/>
   </g>
   <g id="patch_20">
    <path clip-path="url(#pb2e25c6040)" d="M 608.926312 347.424491 
L 633.982313 347.424491 
L 633.982313 181.245244 
L 608.926312 181.245244 
z
" style="fill:#9bade9;"/>
   </g>
   <g id="patch_21">
    <path clip-path="url(#pb2e25c6040)" d="M 640.246312 347.424491 
L 665.302312 347.424491 
L 665.302312 167.715895 
L 640.246312 167.715895 
z
" style="fill:#b6a8eb;"/>
   </g>
   <g id="patch_22">
    <path clip-path="url(#pb2e25c6040)" d="M 671.566312 347.424491 
L 696.622313 347.424491 
L 696.622313 108.382363 
L 671.566312 108.382363 
z
" style="fill:#ca9ee9;"/>
   </g>
   <g id="patch_23">
    <path clip-path="url(#pb2e25c6040)" d="M 702.886312 347.424491 
L 727.942312 347.424491 
L 727.942312 56.058012 
L 702.886312 56.058012 
z
" style="fill:#df8fe7;"/>
   </g>
   <g id="patch_24">
    <path clip-path="url(#pb2e25c6040)" d="M 734.206312 347.424491 
L 759.262313 347.424491 
L 759.262313 44.463452 
L 734.206312 44.463452 
z
" style="fill:#e78cd7;"/>
   </g>
   <g id="patch_25">
    <path clip-path="url(#pb2e25c6040)" d="M 765.526312 347.424491 
L 790.582312 347.424491 
L 790.582312 92.514258 
L 765.526312 92.514258 
z
" style="fill:#e890c6;"/>
   </g>
   <g id="patch_26">
    <path clip-path="url(#pb2e25c6040)" d="M 796.846312 347.424491 
L 821.902312 347.424491 
L 821.902312 197.418096 
L 796.846312 197.418096 
z
" style="fill:#e993b6;"/>
   </g>
   <g id="patch_27">
    <path d="M 73.354313 347.424491 
L 73.354313 29.3154 
" style="fill:none;stroke:#f0f0f0;stroke-linecap:square;stroke-linejoin:miter;stroke-width:3;"/>
   </g>
   <g id="patch_28">
    <path d="M 825.034312 347.424491 
L 825.034312 29.3154 
" style="fill:none;stroke:#f0f0f0;stroke-linecap:square;stroke-linejoin:miter;stroke-width:3;"/>
   </g>
   <g id="patch_29">
    <path d="M 73.354313 347.424491 
L 825.034312 347.424491 
" style="fill:none;stroke:#f0f0f0;stroke-linecap:square;stroke-linejoin:miter;stroke-width:3;"/>
   </g>
   <g id="patch_30">
    <path d="M 73.354313 29.3154 
L 825.034312 29.3154 
" style="fill:none;stroke:#f0f0f0;stroke-linecap:square;stroke-linejoin:miter;stroke-width:3;"/>
   </g>
   <g id="text_36">
    <!-- 时间分布 -->
    <defs>
     <path d="M 5.375 73.875 
L 39.0625 73.875 
L 39.0625 -5.71875 
L 31.34375 -5.71875 
L 31.34375 2.390625 
L 13.09375 2.390625 
L 13.09375 -6.890625 
L 5.375 -6.890625 
z
M 42.28125 61.578125 
L 76.953125 61.578125 
L 76.953125 83.15625 
L 84.765625 83.15625 
L 84.765625 61.578125 
L 98.640625 61.578125 
L 98.640625 54.34375 
L 84.765625 54.34375 
L 84.765625 1.8125 
Q 84.765625 -11.28125 72.265625 -11.28125 
Q 66.609375 -11.28125 55.671875 -10.984375 
Q 55.171875 -7.46875 54.109375 -2.78125 
Q 64.359375 -3.5625 70.125 -3.5625 
Q 76.953125 -3.5625 76.953125 3.375 
L 76.953125 54.34375 
L 42.28125 54.34375 
z
M 13.09375 9.625 
L 31.34375 9.625 
L 31.34375 34.90625 
L 13.09375 34.90625 
z
M 31.34375 66.65625 
L 13.09375 66.65625 
L 13.09375 41.9375 
L 31.34375 41.9375 
z
M 53.21875 44.96875 
Q 61.03125 30.71875 65.046875 22.21875 
Q 62.5 21.046875 57.234375 18.3125 
Q 53.421875 27.59375 46.296875 41.453125 
z
" id="MicrosoftYaHei-26102"/>
     <path d="M 29.109375 56.984375 
L 70.515625 56.984375 
L 70.515625 8.640625 
L 36.140625 8.640625 
L 36.140625 2.59375 
L 29.109375 2.59375 
z
M 37.3125 69.578125 
L 37.3125 76.90625 
L 93.953125 76.90625 
L 93.953125 -0.4375 
Q 93.953125 -12.75 79.984375 -12.75 
Q 74.3125 -12.75 65.140625 -12.546875 
Q 64.75 -9.625 63.578125 -4.640625 
Q 71.6875 -5.21875 79 -5.21875 
Q 86.328125 -5.21875 86.328125 1.90625 
L 86.328125 69.578125 
z
M 6.546875 63.8125 
L 14.15625 63.8125 
L 14.15625 -12.75 
L 6.546875 -12.75 
z
M 36.140625 15.578125 
L 63.484375 15.578125 
L 63.484375 29.4375 
L 36.140625 29.4375 
z
M 63.484375 50.046875 
L 36.140625 50.046875 
L 36.140625 36.375 
L 63.484375 36.375 
z
M 11.625 78.171875 
L 17.1875 83.15625 
Q 24.609375 76.125 30.953125 69.484375 
L 24.609375 63.921875 
Q 18.65625 70.953125 11.625 78.171875 
z
" id="MicrosoftYaHei-38388"/>
     <path d="M 14.0625 39.984375 
L 79 39.984375 
Q 78.515625 23.390625 77.546875 7.5625 
Q 76.375 -10.6875 60.25 -10.59375 
Q 52.34375 -10.6875 43.5625 -10.109375 
Q 42.96875 -6 42.1875 -1.8125 
Q 49.703125 -2.875 58.984375 -2.984375 
Q 68.75 -3.171875 69.734375 8.453125 
Q 70.515625 19 70.90625 32.765625 
L 40.875 32.765625 
Q 39.703125 16.453125 34.078125 6.5 
Q 26.65625 -6.59375 9.1875 -13.71875 
Q 6.640625 -10.40625 3.609375 -7.171875 
Q 19.828125 -1.125 26.953125 10.40625 
Q 32.078125 19.140625 32.859375 32.765625 
L 14.0625 32.765625 
z
M 54.5 80.609375 
L 61.53125 83.640625 
Q 72.265625 57.46875 99.21875 44.484375 
Q 94.828125 39.890625 92.875 37.0625 
Q 66.015625 52.59375 54.5 80.609375 
z
M 0.78125 43.21875 
Q 20.90625 57.46875 35.15625 82.078125 
L 42.09375 78.265625 
Q 27.25 52.296875 6.453125 36.578125 
Q 4.390625 39.59375 0.78125 43.21875 
z
" id="MicrosoftYaHei-20998"/>
     <path d="M 50.78125 57.28125 
L 58.59375 57.28125 
L 58.59375 42.234375 
L 88.765625 42.234375 
L 88.765625 8.453125 
Q 88.765625 -3.078125 78.90625 -3.078125 
Q 76.375 -3.078125 64.359375 -2.984375 
Q 63.765625 0.25 62.796875 4.9375 
Q 72.5625 4.34375 74.515625 4.34375 
Q 81.0625 4.15625 81.0625 10.40625 
L 81.0625 35.203125 
L 58.59375 35.203125 
L 58.59375 -12.9375 
L 50.78125 -12.9375 
L 50.78125 35.203125 
L 28.8125 35.203125 
L 28.8125 -5.515625 
L 21.09375 -5.515625 
L 21.09375 33.015625 
Q 14.5 24.265625 7.03125 16.0625 
Q 4.59375 19.578125 1.46875 22.609375 
Q 19.390625 41.359375 30.765625 62.25 
L 3.125 62.25 
L 3.125 69.28125 
L 34.375 69.28125 
Q 37.796875 76.3125 40.53125 83.640625 
L 48.25 80.515625 
Q 45.84375 74.8125 43.21875 69.28125 
L 97.65625 69.28125 
L 97.65625 62.25 
L 39.65625 62.25 
Q 34.1875 51.953125 27.6875 42.234375 
L 50.78125 42.234375 
z
" id="MicrosoftYaHei-24067"/>
    </defs>
    <g transform="translate(408.874312 23.3154)scale(0.2016 -0.2016)">
     <use xlink:href="#MicrosoftYaHei-26102"/>
     <use x="100" xlink:href="#MicrosoftYaHei-38388"/>
     <use x="200" xlink:href="#MicrosoftYaHei-20998"/>
     <use x="300" xlink:href="#MicrosoftYaHei-24067"/>
    </g>
   </g>
  </g>
  <g id="axes_2">
   <g id="patch_31">
    <path d="M 73.354313 729.1554 
L 825.034312 729.1554 
L 825.034312 411.046309 
L 73.354313 411.046309 
z
" style="fill:#f0f0f0;"/>
   </g>
   <g id="matplotlib.axis_3">
    <g id="xtick_25">
     <g id="line2d_43"/>
     <g id="text_37">
      <!-- 18 -->
      <g transform="translate(118.836054 743.84665)scale(0.14 -0.14)">
       <use xlink:href="#MicrosoftYaHei-49"/>
       <use x="58.642578" xlink:href="#MicrosoftYaHei-56"/>
      </g>
     </g>
    </g>
    <g id="xtick_26">
     <g id="line2d_44"/>
     <g id="text_38">
      <!-- 19 -->
      <g transform="translate(226.218911 743.84665)scale(0.14 -0.14)">
       <use xlink:href="#MicrosoftYaHei-49"/>
       <use x="58.642578" xlink:href="#MicrosoftYaHei-57"/>
      </g>
     </g>
    </g>
    <g id="xtick_27">
     <g id="line2d_45"/>
     <g id="text_39">
      <!-- 20 -->
      <g transform="translate(333.601768 743.84665)scale(0.14 -0.14)">
       <use xlink:href="#MicrosoftYaHei-50"/>
       <use x="58.642578" xlink:href="#MicrosoftYaHei-48"/>
      </g>
     </g>
    </g>
    <g id="xtick_28">
     <g id="line2d_46"/>
     <g id="text_40">
      <!-- 21 -->
      <g transform="translate(440.984625 743.84665)scale(0.14 -0.14)">
       <use xlink:href="#MicrosoftYaHei-50"/>
       <use x="58.642578" xlink:href="#MicrosoftYaHei-49"/>
      </g>
     </g>
    </g>
    <g id="xtick_29">
     <g id="line2d_47"/>
     <g id="text_41">
      <!-- 22 -->
      <g transform="translate(548.367482 743.84665)scale(0.14 -0.14)">
       <use xlink:href="#MicrosoftYaHei-50"/>
       <use x="58.642578" xlink:href="#MicrosoftYaHei-50"/>
      </g>
     </g>
    </g>
    <g id="xtick_30">
     <g id="line2d_48"/>
     <g id="text_42">
      <!-- 23 -->
      <g transform="translate(655.750339 743.84665)scale(0.14 -0.14)">
       <use xlink:href="#MicrosoftYaHei-50"/>
       <use x="58.642578" xlink:href="#MicrosoftYaHei-51"/>
      </g>
     </g>
    </g>
    <g id="xtick_31">
     <g id="line2d_49"/>
     <g id="text_43">
      <!-- 24 -->
      <g transform="translate(763.133196 743.84665)scale(0.14 -0.14)">
       <use xlink:href="#MicrosoftYaHei-50"/>
       <use x="58.642578" xlink:href="#MicrosoftYaHei-52"/>
      </g>
     </g>
    </g>
    <g id="text_44">
     <!-- day -->
     <defs>
      <path d="M 55.421875 0 
L 45.84375 0 
L 45.84375 8.984375 
L 45.65625 8.984375 
Q 39.75 -1.265625 27.296875 -1.265625 
Q 17.046875 -1.265625 10.984375 6.03125 
Q 4.9375 13.328125 4.9375 25.734375 
Q 4.9375 39.109375 11.765625 47.1875 
Q 18.609375 55.28125 29.640625 55.28125 
Q 40.671875 55.28125 45.65625 46.6875 
L 45.84375 46.6875 
L 45.84375 79.9375 
L 55.421875 79.9375 
z
M 45.90625 32.125 
Q 45.90625 38.625 41.625 42.984375 
Q 37.359375 47.359375 31.109375 47.359375 
Q 23.484375 47.359375 19.09375 41.671875 
Q 14.703125 35.984375 14.703125 26.171875 
Q 14.703125 17.140625 18.921875 11.890625 
Q 23.140625 6.640625 30.171875 6.640625 
Q 37.109375 6.640625 41.5 11.78125 
Q 45.90625 16.9375 45.90625 24.609375 
z
" id="MicrosoftYaHei-100"/>
      <path d="M 9.8125 50.25 
Q 17.875 55.28125 28.421875 55.28125 
Q 47.953125 55.28125 47.953125 34.765625 
L 47.953125 0 
L 38.484375 0 
L 38.484375 8.34375 
L 38.234375 8.34375 
Q 32.625 -1.265625 21.6875 -1.265625 
Q 13.8125 -1.265625 9.171875 2.984375 
Q 4.546875 7.234375 4.546875 14.453125 
Q 4.546875 29.59375 22.46875 32.078125 
L 38.484375 34.328125 
Q 38.484375 47.5625 27.546875 47.5625 
Q 17.828125 47.5625 9.8125 41.015625 
z
M 25.828125 25.390625 
Q 19.1875 24.515625 16.671875 22.0625 
Q 14.15625 19.625 14.15625 15.234375 
Q 14.15625 11.375 16.890625 8.9375 
Q 19.625 6.5 24.125 6.5 
Q 30.375 6.5 34.421875 10.890625 
Q 38.484375 15.28125 38.484375 21.921875 
L 38.484375 27.09375 
z
" id="MicrosoftYaHei-97"/>
      <path d="M 52.484375 54 
L 27.984375 -8.15625 
Q 21.140625 -25.4375 8.6875 -25.4375 
Q 5.125 -25.4375 2.59375 -24.65625 
L 2.59375 -16.265625 
Q 5.375 -17.328125 7.953125 -17.328125 
Q 14.453125 -17.328125 17.671875 -9.71875 
L 21.828125 0.09375 
L 0.640625 54 
L 11.234375 54 
L 25.34375 13.421875 
L 26.515625 8.984375 
L 26.765625 8.984375 
Q 27.046875 10.5 27.9375 13.328125 
L 42.671875 54 
z
" id="MicrosoftYaHei-121"/>
     </defs>
     <g transform="translate(434.730562 764.756463)scale(0.168 -0.168)">
      <use xlink:href="#MicrosoftYaHei-100"/>
      <use x="63.964844" xlink:href="#MicrosoftYaHei-97"/>
      <use x="119.238281" xlink:href="#MicrosoftYaHei-121"/>
     </g>
    </g>
   </g>
   <g id="matplotlib.axis_4">
    <g id="ytick_10">
     <g id="line2d_50">
      <path clip-path="url(#p2507720eec)" d="M 73.354313 729.1554 
L 825.034312 729.1554 
" style="fill:none;stroke:#cbcbcb;"/>
     </g>
     <g id="line2d_51"/>
     <g id="text_45">
      <!-- 0 -->
      <g transform="translate(61.644625 734.751025)scale(0.14 -0.14)">
       <use xlink:href="#MicrosoftYaHei-48"/>
      </g>
     </g>
    </g>
    <g id="ytick_11">
     <g id="line2d_52">
      <path clip-path="url(#p2507720eec)" d="M 73.354313 690.443282 
L 825.034312 690.443282 
" style="fill:none;stroke:#cbcbcb;"/>
     </g>
     <g id="line2d_53"/>
     <g id="text_46">
      <!-- 10000 -->
      <g transform="translate(28.805875 696.038907)scale(0.14 -0.14)">
       <use xlink:href="#MicrosoftYaHei-49"/>
       <use x="58.642578" xlink:href="#MicrosoftYaHei-48"/>
       <use x="117.285156" xlink:href="#MicrosoftYaHei-48"/>
       <use x="175.927734" xlink:href="#MicrosoftYaHei-48"/>
       <use x="234.570312" xlink:href="#MicrosoftYaHei-48"/>
      </g>
     </g>
    </g>
    <g id="ytick_12">
     <g id="line2d_54">
      <path clip-path="url(#p2507720eec)" d="M 73.354313 651.731163 
L 825.034312 651.731163 
" style="fill:none;stroke:#cbcbcb;"/>
     </g>
     <g id="line2d_55"/>
     <g id="text_47">
      <!-- 20000 -->
      <g transform="translate(28.805875 657.326788)scale(0.14 -0.14)">
       <use xlink:href="#MicrosoftYaHei-50"/>
       <use x="58.642578" xlink:href="#MicrosoftYaHei-48"/>
       <use x="117.285156" xlink:href="#MicrosoftYaHei-48"/>
       <use x="175.927734" xlink:href="#MicrosoftYaHei-48"/>
       <use x="234.570312" xlink:href="#MicrosoftYaHei-48"/>
      </g>
     </g>
    </g>
    <g id="ytick_13">
     <g id="line2d_56">
      <path clip-path="url(#p2507720eec)" d="M 73.354313 613.019045 
L 825.034312 613.019045 
" style="fill:none;stroke:#cbcbcb;"/>
     </g>
     <g id="line2d_57"/>
     <g id="text_48">
      <!-- 30000 -->
      <g transform="translate(28.805875 618.61467)scale(0.14 -0.14)">
       <use xlink:href="#MicrosoftYaHei-51"/>
       <use x="58.642578" xlink:href="#MicrosoftYaHei-48"/>
       <use x="117.285156" xlink:href="#MicrosoftYaHei-48"/>
       <use x="175.927734" xlink:href="#MicrosoftYaHei-48"/>
       <use x="234.570312" xlink:href="#MicrosoftYaHei-48"/>
      </g>
     </g>
    </g>
    <g id="ytick_14">
     <g id="line2d_58">
      <path clip-path="url(#p2507720eec)" d="M 73.354313 574.306926 
L 825.034312 574.306926 
" style="fill:none;stroke:#cbcbcb;"/>
     </g>
     <g id="line2d_59"/>
     <g id="text_49">
      <!-- 40000 -->
      <g transform="translate(28.805875 579.902551)scale(0.14 -0.14)">
       <use xlink:href="#MicrosoftYaHei-52"/>
       <use x="58.642578" xlink:href="#MicrosoftYaHei-48"/>
       <use x="117.285156" xlink:href="#MicrosoftYaHei-48"/>
       <use x="175.927734" xlink:href="#MicrosoftYaHei-48"/>
       <use x="234.570312" xlink:href="#MicrosoftYaHei-48"/>
      </g>
     </g>
    </g>
    <g id="ytick_15">
     <g id="line2d_60">
      <path clip-path="url(#p2507720eec)" d="M 73.354313 535.594808 
L 825.034312 535.594808 
" style="fill:none;stroke:#cbcbcb;"/>
     </g>
     <g id="line2d_61"/>
     <g id="text_50">
      <!-- 50000 -->
      <g transform="translate(28.805875 541.190433)scale(0.14 -0.14)">
       <use xlink:href="#MicrosoftYaHei-53"/>
       <use x="58.642578" xlink:href="#MicrosoftYaHei-48"/>
       <use x="117.285156" xlink:href="#MicrosoftYaHei-48"/>
       <use x="175.927734" xlink:href="#MicrosoftYaHei-48"/>
       <use x="234.570312" xlink:href="#MicrosoftYaHei-48"/>
      </g>
     </g>
    </g>
    <g id="ytick_16">
     <g id="line2d_62">
      <path clip-path="url(#p2507720eec)" d="M 73.354313 496.882689 
L 825.034312 496.882689 
" style="fill:none;stroke:#cbcbcb;"/>
     </g>
     <g id="line2d_63"/>
     <g id="text_51">
      <!-- 60000 -->
      <g transform="translate(28.805875 502.478314)scale(0.14 -0.14)">
       <use xlink:href="#MicrosoftYaHei-54"/>
       <use x="58.642578" xlink:href="#MicrosoftYaHei-48"/>
       <use x="117.285156" xlink:href="#MicrosoftYaHei-48"/>
       <use x="175.927734" xlink:href="#MicrosoftYaHei-48"/>
       <use x="234.570312" xlink:href="#MicrosoftYaHei-48"/>
      </g>
     </g>
    </g>
    <g id="ytick_17">
     <g id="line2d_64">
      <path clip-path="url(#p2507720eec)" d="M 73.354313 458.170571 
L 825.034312 458.170571 
" style="fill:none;stroke:#cbcbcb;"/>
     </g>
     <g id="line2d_65"/>
     <g id="text_52">
      <!-- 70000 -->
      <g transform="translate(28.805875 463.766196)scale(0.14 -0.14)">
       <use xlink:href="#MicrosoftYaHei-55"/>
       <use x="58.642578" xlink:href="#MicrosoftYaHei-48"/>
       <use x="117.285156" xlink:href="#MicrosoftYaHei-48"/>
       <use x="175.927734" xlink:href="#MicrosoftYaHei-48"/>
       <use x="234.570312" xlink:href="#MicrosoftYaHei-48"/>
      </g>
     </g>
    </g>
    <g id="ytick_18">
     <g id="line2d_66">
      <path clip-path="url(#p2507720eec)" d="M 73.354313 419.458452 
L 825.034312 419.458452 
" style="fill:none;stroke:#cbcbcb;"/>
     </g>
     <g id="line2d_67"/>
     <g id="text_53">
      <!-- 80000 -->
      <g transform="translate(28.805875 425.054077)scale(0.14 -0.14)">
       <use xlink:href="#MicrosoftYaHei-56"/>
       <use x="58.642578" xlink:href="#MicrosoftYaHei-48"/>
       <use x="117.285156" xlink:href="#MicrosoftYaHei-48"/>
       <use x="175.927734" xlink:href="#MicrosoftYaHei-48"/>
       <use x="234.570312" xlink:href="#MicrosoftYaHei-48"/>
      </g>
     </g>
    </g>
    <g id="text_54">
     <!-- count -->
     <g transform="translate(20.6295 593.13523)rotate(-90)scale(0.168 -0.168)">
      <use xlink:href="#MicrosoftYaHei-99"/>
      <use x="50.146484" xlink:href="#MicrosoftYaHei-111"/>
      <use x="113.720703" xlink:href="#MicrosoftYaHei-117"/>
      <use x="175.341797" xlink:href="#MicrosoftYaHei-110"/>
      <use x="236.962891" xlink:href="#MicrosoftYaHei-116"/>
     </g>
    </g>
   </g>
   <g id="patch_32">
    <path clip-path="url(#p2507720eec)" d="M 84.092598 729.1554 
L 169.998884 729.1554 
L 169.998884 426.194361 
L 84.092598 426.194361 
z
" style="fill:#ea96a3;"/>
   </g>
   <g id="patch_33">
    <path clip-path="url(#p2507720eec)" d="M 191.475455 729.1554 
L 277.381741 729.1554 
L 277.381741 454.601314 
L 191.475455 454.601314 
z
" style="fill:#c29a4b;"/>
   </g>
   <g id="patch_34">
    <path clip-path="url(#p2507720eec)" d="M 298.858313 729.1554 
L 384.764598 729.1554 
L 384.764598 464.472904 
L 298.858313 464.472904 
z
" style="fill:#88a746;"/>
   </g>
   <g id="patch_35">
    <path clip-path="url(#p2507720eec)" d="M 406.24117 729.1554 
L 492.147455 729.1554 
L 492.147455 453.563829 
L 406.24117 453.563829 
z
" style="fill:#4aad8f;"/>
   </g>
   <g id="patch_36">
    <path clip-path="url(#p2507720eec)" d="M 513.624027 729.1554 
L 599.530313 729.1554 
L 599.530313 464.736146 
L 513.624027 464.736146 
z
" style="fill:#4eabb8;"/>
   </g>
   <g id="patch_37">
    <path clip-path="url(#p2507720eec)" d="M 621.006884 729.1554 
L 706.91317 729.1554 
L 706.91317 482.923099 
L 621.006884 482.923099 
z
" style="fill:#a0adea;"/>
   </g>
   <g id="patch_38">
    <path clip-path="url(#p2507720eec)" d="M 728.389741 729.1554 
L 814.296027 729.1554 
L 814.296027 506.912999 
L 728.389741 506.912999 
z
" style="fill:#e78ae0;"/>
   </g>
   <g id="patch_39">
    <path d="M 73.354313 729.1554 
L 73.354313 411.046309 
" style="fill:none;stroke:#f0f0f0;stroke-linecap:square;stroke-linejoin:miter;stroke-width:3;"/>
   </g>
   <g id="patch_40">
    <path d="M 825.034312 729.1554 
L 825.034312 411.046309 
" style="fill:none;stroke:#f0f0f0;stroke-linecap:square;stroke-linejoin:miter;stroke-width:3;"/>
   </g>
   <g id="patch_41">
    <path d="M 73.354313 729.1554 
L 825.034312 729.1554 
" style="fill:none;stroke:#f0f0f0;stroke-linecap:square;stroke-linejoin:miter;stroke-width:3;"/>
   </g>
   <g id="patch_42">
    <path d="M 73.354313 411.046309 
L 825.034312 411.046309 
" style="fill:none;stroke:#f0f0f0;stroke-linecap:square;stroke-linejoin:miter;stroke-width:3;"/>
   </g>
   <g id="text_55">
    <!-- 日期分布 -->
    <defs>
     <path d="M 15.234375 76.703125 
L 84.859375 76.703125 
L 84.859375 -11.96875 
L 76.5625 -11.96875 
L 76.5625 -5.03125 
L 23.53125 -5.03125 
L 23.53125 -11.96875 
L 15.234375 -11.96875 
z
M 23.53125 32.859375 
L 23.53125 2.09375 
L 76.5625 2.09375 
L 76.5625 32.859375 
z
M 23.53125 69.390625 
L 23.53125 40.1875 
L 76.5625 40.1875 
L 76.5625 69.390625 
z
" id="MicrosoftYaHei-26085"/>
     <path d="M 58.890625 79.15625 
L 93.453125 79.15625 
L 93.453125 -0.046875 
Q 93.453125 -11.578125 82.515625 -11.578125 
Q 77.046875 -11.578125 71.78125 -11.28125 
Q 71.390625 -8.0625 70.609375 -3.765625 
Q 77.734375 -4.4375 80.859375 -4.4375 
Q 86.234375 -4.4375 86.234375 0.921875 
L 86.234375 21.4375 
L 65.328125 21.4375 
Q 64.265625 0.046875 52.34375 -14.109375 
Q 49.703125 -11.375 46.484375 -8.640625 
Q 54.390625 0.4375 56.546875 10.203125 
Q 58.890625 19.578125 58.890625 42.828125 
z
M 1.953125 17.828125 
L 11.140625 17.828125 
L 11.140625 62.9375 
L 3.125 62.9375 
L 3.125 69.578125 
L 11.140625 69.578125 
L 11.140625 81.5 
L 18.359375 81.5 
L 18.359375 69.578125 
L 38.671875 69.578125 
L 38.671875 81.890625 
L 45.90625 81.890625 
L 45.90625 69.578125 
L 53.8125 69.578125 
L 53.8125 62.9375 
L 45.90625 62.9375 
L 45.90625 17.828125 
L 53.71875 17.828125 
L 53.71875 11.1875 
L 1.953125 11.1875 
z
M 65.765625 27.875 
L 86.234375 27.875 
L 86.234375 47.015625 
L 66.109375 47.015625 
Q 66.21875 34.421875 65.765625 27.875 
z
M 86.234375 72.515625 
L 66.109375 72.515625 
L 66.109375 53.46875 
L 86.234375 53.46875 
z
M 18.359375 17.828125 
L 38.671875 17.828125 
L 38.671875 28.765625 
L 18.359375 28.765625 
z
M 18.359375 35.015625 
L 38.671875 35.015625 
L 38.671875 45.84375 
L 18.359375 45.84375 
z
M 18.359375 52.09375 
L 38.671875 52.09375 
L 38.671875 62.9375 
L 18.359375 62.9375 
z
M 18.359375 9.328125 
L 24.3125 4.640625 
Q 14.453125 -6 6.34375 -13.234375 
Q 4.296875 -10.890625 1.171875 -8.0625 
Q 10.453125 -0.140625 18.359375 9.328125 
z
M 31.15625 4.734375 
L 35.84375 9.515625 
Q 42.671875 4.4375 48.734375 -0.734375 
L 43.5625 -6.296875 
Q 38.09375 -0.828125 31.15625 4.734375 
z
" id="MicrosoftYaHei-26399"/>
    </defs>
    <g transform="translate(408.874312 405.046309)scale(0.2016 -0.2016)">
     <use xlink:href="#MicrosoftYaHei-26085"/>
     <use x="100" xlink:href="#MicrosoftYaHei-26399"/>
     <use x="200" xlink:href="#MicrosoftYaHei-20998"/>
     <use x="300" xlink:href="#MicrosoftYaHei-24067"/>
    </g>
   </g>
  </g>
 </g>
 <defs>
  <clipPath id="pb2e25c6040">
   <rect height="318.109091" width="751.68" x="73.354313" y="29.3154"/>
  </clipPath>
  <clipPath id="p2507720eec">
   <rect height="318.109091" width="751.68" x="73.354313" y="411.046309"/>
  </clipPath>
 </defs>
</svg>
