<?xml version="1.0" encoding="utf-8" standalone="no"?>
<!DOCTYPE svg PUBLIC "-//W3C//DTD SVG 1.1//EN"
  "http://www.w3.org/Graphics/SVG/1.1/DTD/svg11.dtd">
<!-- Created with matplotlib (https://matplotlib.org/) -->
<svg height="776.132837pt" version="1.1" viewBox="0 0 832.234312 776.132837" width="832.234312pt" xmlns="http://www.w3.org/2000/svg" xmlns:xlink="http://www.w3.org/1999/xlink">
 <defs>
  <style type="text/css">
*{stroke-linecap:butt;stroke-linejoin:round;}
  </style>
 </defs>
 <g id="figure_1">
  <g id="patch_1">
   <path d="M 0 776.132837 
L 832.234312 776.132837 
L 832.234312 0 
L 0 0 
z
" style="fill:#f0f0f0;"/>
  </g>
  <g id="axes_1">
   <g id="patch_2">
    <path d="M 73.354313 347.424491 
L 825.034312 347.424491 
L 825.034312 29.3154 
L 73.354313 29.3154 
z
" style="fill:#f0f0f0;"/>
   </g>
   <g id="matplotlib.axis_1">
    <g id="xtick_1">
     <g id="line2d_1"/>
     <g id="text_1">
      <!-- 0 -->
      <defs>
       <path d="M 4.4375 36.328125 
Q 4.4375 56.34375 11.078125 66.625 
Q 17.71875 76.90625 30.328125 76.90625 
Q 54.34375 76.90625 54.34375 38.140625 
Q 54.34375 19 47.578125 8.859375 
Q 40.828125 -1.265625 28.609375 -1.265625 
Q 17.09375 -1.265625 10.765625 8.34375 
Q 4.4375 17.96875 4.4375 36.328125 
z
M 14.203125 36.765625 
Q 14.203125 6.640625 29.5 6.640625 
Q 44.53125 6.640625 44.53125 37.25 
Q 44.53125 68.953125 29.78125 68.953125 
Q 14.203125 68.953125 14.203125 36.765625 
z
" id="MicrosoftYaHei-48"/>
      </defs>
      <g transform="translate(84.283069 362.115741)scale(0.14 -0.14)">
       <use xlink:href="#MicrosoftYaHei-48"/>
      </g>
     </g>
    </g>
    <g id="xtick_2">
     <g id="line2d_2"/>
     <g id="text_2">
      <!-- 1 -->
      <defs>
       <path d="M 52.59375 0 
L 9.234375 0 
L 9.234375 8.25 
L 26.171875 8.25 
L 26.171875 65.671875 
L 8.796875 60.640625 
L 8.796875 69.4375 
L 35.6875 77.25 
L 35.6875 8.25 
L 52.59375 8.25 
z
" id="MicrosoftYaHei-49"/>
      </defs>
      <g transform="translate(114.350269 362.115741)scale(0.14 -0.14)">
       <use xlink:href="#MicrosoftYaHei-49"/>
      </g>
     </g>
    </g>
    <g id="xtick_3">
     <g id="line2d_3"/>
     <g id="text_3">
      <!-- 2 -->
      <defs>
       <path d="M 51.171875 0 
L 5.171875 0 
L 5.171875 8.296875 
L 27.15625 30.21875 
Q 36.234375 39.3125 39.3125 44.609375 
Q 42.390625 49.90625 42.390625 55.5625 
Q 42.390625 62.015625 38.765625 65.453125 
Q 35.15625 68.890625 28.328125 68.890625 
Q 18.21875 68.890625 9.03125 60.296875 
L 9.03125 70.015625 
Q 17.96875 76.90625 29.828125 76.90625 
Q 40.046875 76.90625 45.953125 71.390625 
Q 51.859375 65.875 51.859375 56.546875 
Q 51.859375 49.515625 48.0625 42.75 
Q 44.28125 35.984375 33.734375 25.53125 
L 16.5 8.6875 
L 16.5 8.5 
L 51.171875 8.5 
z
" id="MicrosoftYaHei-50"/>
      </defs>
      <g transform="translate(144.417469 362.115741)scale(0.14 -0.14)">
       <use xlink:href="#MicrosoftYaHei-50"/>
      </g>
     </g>
    </g>
    <g id="xtick_4">
     <g id="line2d_4"/>
     <g id="text_4">
      <!-- 3 -->
      <defs>
       <path d="M 6.984375 12.640625 
Q 14.75 6.640625 24.515625 6.640625 
Q 32.328125 6.640625 36.890625 10.46875 
Q 41.453125 14.3125 41.453125 20.75 
Q 41.453125 35.109375 20.90625 35.109375 
L 14.59375 35.109375 
L 14.59375 43.015625 
L 20.609375 43.015625 
Q 38.8125 43.015625 38.8125 56.5 
Q 38.8125 68.953125 24.90625 68.953125 
Q 16.9375 68.953125 9.90625 63.578125 
L 9.90625 72.609375 
Q 17.328125 76.90625 27.25 76.90625 
Q 36.921875 76.90625 42.78125 71.84375 
Q 48.640625 66.796875 48.640625 58.734375 
Q 48.640625 43.890625 33.5 39.65625 
L 33.5 39.453125 
Q 41.703125 38.578125 46.453125 33.671875 
Q 51.21875 28.765625 51.21875 21.4375 
Q 51.21875 11.234375 43.875 4.984375 
Q 36.53125 -1.265625 24.3125 -1.265625 
Q 13.578125 -1.265625 6.984375 2.734375 
z
" id="MicrosoftYaHei-51"/>
      </defs>
      <g transform="translate(174.484669 362.115741)scale(0.14 -0.14)">
       <use xlink:href="#MicrosoftYaHei-51"/>
      </g>
     </g>
    </g>
    <g id="xtick_5">
     <g id="line2d_5"/>
     <g id="text_5">
      <!-- 4 -->
      <defs>
       <path d="M 55.078125 19.625 
L 45.40625 19.625 
L 45.40625 0 
L 36.140625 0 
L 36.140625 19.625 
L 0.875 19.625 
L 0.875 25.828125 
L 34.328125 75.640625 
L 45.40625 75.640625 
L 45.40625 27.203125 
L 55.078125 27.203125 
z
M 36.140625 27.203125 
L 36.140625 58.890625 
Q 36.140625 62.25 36.328125 66.65625 
L 36.140625 66.65625 
Q 35.453125 64.796875 33.25 60.84375 
L 10.75 27.203125 
z
" id="MicrosoftYaHei-52"/>
      </defs>
      <g transform="translate(204.551869 362.115741)scale(0.14 -0.14)">
       <use xlink:href="#MicrosoftYaHei-52"/>
      </g>
     </g>
    </g>
    <g id="xtick_6">
     <g id="line2d_6"/>
     <g id="text_6">
      <!-- 5 -->
      <defs>
       <path d="M 8.640625 11.625 
Q 16.265625 6.640625 24.515625 6.640625 
Q 32.328125 6.640625 37.109375 11 
Q 41.890625 15.375 41.890625 22.609375 
Q 41.890625 29.890625 37.03125 33.890625 
Q 32.171875 37.890625 22.953125 37.890625 
Q 18.5 37.890625 10.984375 37.203125 
L 10.984375 75.640625 
L 48.1875 75.640625 
L 48.1875 67.1875 
L 19.875 67.1875 
L 19.875 45.796875 
Q 24.125 46.046875 26.265625 46.046875 
Q 38.234375 46.046875 44.921875 39.984375 
Q 51.609375 33.9375 51.609375 23.296875 
Q 51.609375 12.3125 44.421875 5.515625 
Q 37.25 -1.265625 24.609375 -1.265625 
Q 14.015625 -1.265625 8.640625 1.859375 
z
" id="MicrosoftYaHei-53"/>
      </defs>
      <g transform="translate(234.619069 362.115741)scale(0.14 -0.14)">
       <use xlink:href="#MicrosoftYaHei-53"/>
      </g>
     </g>
    </g>
    <g id="xtick_7">
     <g id="line2d_7"/>
     <g id="text_7">
      <!-- 6 -->
      <defs>
       <path d="M 49.703125 65.921875 
Q 43.796875 68.953125 37.359375 68.953125 
Q 27.546875 68.953125 21.578125 60.40625 
Q 15.625 51.859375 15.53125 37.0625 
L 15.765625 37.0625 
Q 21.140625 47.46875 32.90625 47.46875 
Q 42.71875 47.46875 48.578125 41.0625 
Q 54.4375 34.671875 54.4375 24.078125 
Q 54.4375 12.984375 47.671875 5.859375 
Q 40.921875 -1.265625 30.421875 -1.265625 
Q 18.890625 -1.265625 12.328125 7.734375 
Q 5.765625 16.75 5.765625 33.296875 
Q 5.765625 53.328125 14.375 65.109375 
Q 23 76.90625 37.0625 76.90625 
Q 45.125 76.90625 49.703125 74.703125 
z
M 16.109375 24.75 
Q 16.109375 17.28125 20.09375 11.953125 
Q 24.078125 6.640625 30.671875 6.640625 
Q 36.921875 6.640625 40.828125 11.234375 
Q 44.734375 15.828125 44.734375 23.046875 
Q 44.734375 30.859375 41.046875 35.203125 
Q 37.359375 39.546875 30.5625 39.546875 
Q 24.125 39.546875 20.109375 35.15625 
Q 16.109375 30.765625 16.109375 24.75 
z
" id="MicrosoftYaHei-54"/>
      </defs>
      <g transform="translate(264.686269 362.115741)scale(0.14 -0.14)">
       <use xlink:href="#MicrosoftYaHei-54"/>
      </g>
     </g>
    </g>
    <g id="xtick_8">
     <g id="line2d_8"/>
     <g id="text_8">
      <!-- 7 -->
      <defs>
       <path d="M 53.765625 72.3125 
L 24.171875 0 
L 14.265625 0 
L 42.390625 67.1875 
L 4.59375 67.1875 
L 4.59375 75.640625 
L 53.765625 75.640625 
z
" id="MicrosoftYaHei-55"/>
      </defs>
      <g transform="translate(294.753469 362.115741)scale(0.14 -0.14)">
       <use xlink:href="#MicrosoftYaHei-55"/>
      </g>
     </g>
    </g>
    <g id="xtick_9">
     <g id="line2d_9"/>
     <g id="text_9">
      <!-- 8 -->
      <defs>
       <path d="M 21.390625 39.796875 
Q 7.859375 46.09375 7.859375 58.0625 
Q 7.859375 66.40625 14.203125 71.65625 
Q 20.5625 76.90625 30.421875 76.90625 
Q 39.453125 76.90625 45.3125 71.96875 
Q 51.171875 67.046875 51.171875 59.234375 
Q 51.171875 46.625 37.0625 39.84375 
L 37.0625 39.65625 
Q 53.609375 33.6875 53.609375 19.34375 
Q 53.609375 9.90625 46.796875 4.3125 
Q 39.984375 -1.265625 27.78125 -1.265625 
Q 17.78125 -1.265625 11.46875 4.25 
Q 5.171875 9.765625 5.171875 18.5625 
Q 5.171875 33.015625 21.390625 39.59375 
z
M 41.5 58.109375 
Q 41.5 63.1875 38.328125 66.109375 
Q 35.15625 69.046875 29.734375 69.046875 
Q 24.65625 69.046875 21.09375 65.984375 
Q 17.53125 62.9375 17.53125 58.203125 
Q 17.53125 48.734375 29.390625 43.796875 
Q 41.5 48.828125 41.5 58.109375 
z
M 28.8125 35.25 
Q 14.796875 29.59375 14.796875 19.046875 
Q 14.796875 13.578125 18.890625 10.0625 
Q 23 6.546875 29.59375 6.546875 
Q 35.984375 6.546875 39.984375 10.03125 
Q 44 13.53125 44 18.75 
Q 44 29.734375 28.8125 35.25 
z
" id="MicrosoftYaHei-56"/>
      </defs>
      <g transform="translate(324.820669 362.115741)scale(0.14 -0.14)">
       <use xlink:href="#MicrosoftYaHei-56"/>
      </g>
     </g>
    </g>
    <g id="xtick_10">
     <g id="line2d_10"/>
     <g id="text_10">
      <!-- 9 -->
      <defs>
       <path d="M 9.03125 10.25 
Q 15.28125 6.640625 22.515625 6.640625 
Q 32.671875 6.640625 38.25 14.640625 
Q 43.84375 22.65625 43.84375 37.40625 
Q 43.75 37.3125 43.65625 37.40625 
Q 38.671875 27.9375 26.90625 27.9375 
Q 17.390625 27.9375 11.140625 34.46875 
Q 4.890625 41.015625 4.890625 51.46875 
Q 4.890625 62.59375 11.71875 69.75 
Q 18.5625 76.90625 29.4375 76.90625 
Q 40.71875 76.90625 47.0625 68.046875 
Q 53.421875 59.1875 53.421875 42.234375 
Q 53.421875 21.296875 45.21875 10.015625 
Q 37.015625 -1.265625 22.515625 -1.265625 
Q 14.546875 -1.265625 9.03125 1.3125 
z
M 14.546875 52.6875 
Q 14.546875 45.0625 18.453125 40.59375 
Q 22.359375 36.140625 29.25 36.140625 
Q 35.203125 36.140625 39.25 40.203125 
Q 43.3125 44.28125 43.3125 50.09375 
Q 43.3125 58.25 39.28125 63.59375 
Q 35.25 68.953125 28.65625 68.953125 
Q 22.5625 68.953125 18.546875 64.3125 
Q 14.546875 59.671875 14.546875 52.6875 
z
" id="MicrosoftYaHei-57"/>
      </defs>
      <g transform="translate(354.887869 362.115741)scale(0.14 -0.14)">
       <use xlink:href="#MicrosoftYaHei-57"/>
      </g>
     </g>
    </g>
    <g id="xtick_11">
     <g id="line2d_11"/>
     <g id="text_11">
      <!-- 10 -->
      <g transform="translate(380.850225 362.115741)scale(0.14 -0.14)">
       <use xlink:href="#MicrosoftYaHei-49"/>
       <use x="58.642578" xlink:href="#MicrosoftYaHei-48"/>
      </g>
     </g>
    </g>
    <g id="xtick_12">
     <g id="line2d_12"/>
     <g id="text_12">
      <!-- 11 -->
      <g transform="translate(410.917425 362.115741)scale(0.14 -0.14)">
       <use xlink:href="#MicrosoftYaHei-49"/>
       <use x="58.642578" xlink:href="#MicrosoftYaHei-49"/>
      </g>
     </g>
    </g>
    <g id="xtick_13">
     <g id="line2d_13"/>
     <g id="text_13">
      <!-- 12 -->
      <g transform="translate(440.984625 362.115741)scale(0.14 -0.14)">
       <use xlink:href="#MicrosoftYaHei-49"/>
       <use x="58.642578" xlink:href="#MicrosoftYaHei-50"/>
      </g>
     </g>
    </g>
    <g id="xtick_14">
     <g id="line2d_14"/>
     <g id="text_14">
      <!-- 13 -->
      <g transform="translate(471.051825 362.115741)scale(0.14 -0.14)">
       <use xlink:href="#MicrosoftYaHei-49"/>
       <use x="58.642578" xlink:href="#MicrosoftYaHei-51"/>
      </g>
     </g>
    </g>
    <g id="xtick_15">
     <g id="line2d_15"/>
     <g id="text_15">
      <!-- 14 -->
      <g transform="translate(501.119025 362.115741)scale(0.14 -0.14)">
       <use xlink:href="#MicrosoftYaHei-49"/>
       <use x="58.642578" xlink:href="#MicrosoftYaHei-52"/>
      </g>
     </g>
    </g>
    <g id="xtick_16">
     <g id="line2d_16"/>
     <g id="text_16">
      <!-- 15 -->
      <g transform="translate(531.186225 362.115741)scale(0.14 -0.14)">
       <use xlink:href="#MicrosoftYaHei-49"/>
       <use x="58.642578" xlink:href="#MicrosoftYaHei-53"/>
      </g>
     </g>
    </g>
    <g id="xtick_17">
     <g id="line2d_17"/>
     <g id="text_17">
      <!-- 16 -->
      <g transform="translate(561.253425 362.115741)scale(0.14 -0.14)">
       <use xlink:href="#MicrosoftYaHei-49"/>
       <use x="58.642578" xlink:href="#MicrosoftYaHei-54"/>
      </g>
     </g>
    </g>
    <g id="xtick_18">
     <g id="line2d_18"/>
     <g id="text_18">
      <!-- 17 -->
      <g transform="translate(591.320625 362.115741)scale(0.14 -0.14)">
       <use xlink:href="#MicrosoftYaHei-49"/>
       <use x="58.642578" xlink:href="#MicrosoftYaHei-55"/>
      </g>
     </g>
    </g>
    <g id="xtick_19">
     <g id="line2d_19"/>
     <g id="text_19">
      <!-- 18 -->
      <g transform="translate(621.387825 362.115741)scale(0.14 -0.14)">
       <use xlink:href="#MicrosoftYaHei-49"/>
       <use x="58.642578" xlink:href="#MicrosoftYaHei-56"/>
      </g>
     </g>
    </g>
    <g id="xtick_20">
     <g id="line2d_20"/>
     <g id="text_20">
      <!-- 19 -->
      <g transform="translate(651.455025 362.115741)scale(0.14 -0.14)">
       <use xlink:href="#MicrosoftYaHei-49"/>
       <use x="58.642578" xlink:href="#MicrosoftYaHei-57"/>
      </g>
     </g>
    </g>
    <g id="xtick_21">
     <g id="line2d_21"/>
     <g id="text_21">
      <!-- 20 -->
      <g transform="translate(681.522225 362.115741)scale(0.14 -0.14)">
       <use xlink:href="#MicrosoftYaHei-50"/>
       <use x="58.642578" xlink:href="#MicrosoftYaHei-48"/>
      </g>
     </g>
    </g>
    <g id="xtick_22">
     <g id="line2d_22"/>
     <g id="text_22">
      <!-- 21 -->
      <g transform="translate(711.589425 362.115741)scale(0.14 -0.14)">
       <use xlink:href="#MicrosoftYaHei-50"/>
       <use x="58.642578" xlink:href="#MicrosoftYaHei-49"/>
      </g>
     </g>
    </g>
    <g id="xtick_23">
     <g id="line2d_23"/>
     <g id="text_23">
      <!-- 22 -->
      <g transform="translate(741.656625 362.115741)scale(0.14 -0.14)">
       <use xlink:href="#MicrosoftYaHei-50"/>
       <use x="58.642578" xlink:href="#MicrosoftYaHei-50"/>
      </g>
     </g>
    </g>
    <g id="xtick_24">
     <g id="line2d_24"/>
     <g id="text_24">
      <!-- 23 -->
      <g transform="translate(771.723825 362.115741)scale(0.14 -0.14)">
       <use xlink:href="#MicrosoftYaHei-50"/>
       <use x="58.642578" xlink:href="#MicrosoftYaHei-51"/>
      </g>
     </g>
    </g>
    <g id="xtick_25">
     <g id="line2d_25"/>
     <g id="text_25">
      <!-- 25 -->
      <g transform="translate(801.791025 362.115741)scale(0.14 -0.14)">
       <use xlink:href="#MicrosoftYaHei-50"/>
       <use x="58.642578" xlink:href="#MicrosoftYaHei-53"/>
      </g>
     </g>
    </g>
    <g id="text_26">
     <!-- shop_review_num_level -->
     <defs>
      <path d="M 5.515625 11.671875 
Q 12.75 6.453125 21.09375 6.453125 
Q 32.28125 6.453125 32.28125 13.765625 
Q 32.28125 16.890625 29.828125 18.921875 
Q 27.390625 20.953125 19.921875 23.734375 
Q 10.9375 27.34375 8.25 30.875 
Q 5.5625 34.421875 5.5625 39.453125 
Q 5.5625 46.625 11.640625 50.953125 
Q 17.71875 55.28125 26.609375 55.28125 
Q 33.5 55.28125 39.40625 52.875 
L 39.40625 43.65625 
Q 33.34375 47.5625 25.6875 47.5625 
Q 21.09375 47.5625 18.203125 45.5625 
Q 15.328125 43.5625 15.328125 40.28125 
Q 15.328125 37.0625 17.40625 35.25 
Q 19.484375 33.453125 26.609375 30.609375 
Q 35.640625 27.25 38.8125 23.625 
Q 42 20.015625 42 14.703125 
Q 42 7.28125 35.90625 3 
Q 29.828125 -1.265625 20.171875 -1.265625 
Q 11.765625 -1.265625 5.515625 1.90625 
z
" id="MicrosoftYaHei-115"/>
      <path d="M 54.15625 0 
L 44.625 0 
L 44.625 31.0625 
Q 44.625 47.359375 32.515625 47.359375 
Q 26.3125 47.359375 22.203125 42.59375 
Q 18.109375 37.84375 18.109375 30.609375 
L 18.109375 0 
L 8.546875 0 
L 8.546875 79.9375 
L 18.109375 79.9375 
L 18.109375 45.125 
L 18.3125 45.125 
Q 24.515625 55.28125 35.9375 55.28125 
Q 54.15625 55.28125 54.15625 33.25 
z
" id="MicrosoftYaHei-104"/>
      <path d="M 4.9375 26.421875 
Q 4.9375 39.796875 12.40625 47.53125 
Q 19.875 55.28125 32.671875 55.28125 
Q 44.828125 55.28125 51.734375 47.828125 
Q 58.640625 40.375 58.640625 27.25 
Q 58.640625 14.453125 51.265625 6.59375 
Q 43.890625 -1.265625 31.5 -1.265625 
Q 19.390625 -1.265625 12.15625 6.34375 
Q 4.9375 13.96875 4.9375 26.421875 
z
M 14.703125 26.703125 
Q 14.703125 17.390625 19.40625 12.015625 
Q 24.125 6.640625 32.078125 6.640625 
Q 40.28125 6.640625 44.578125 11.890625 
Q 48.875 17.140625 48.875 26.953125 
Q 48.875 36.8125 44.578125 42.078125 
Q 40.28125 47.359375 32.078125 47.359375 
Q 24.03125 47.359375 19.359375 41.84375 
Q 14.703125 36.328125 14.703125 26.703125 
z
" id="MicrosoftYaHei-111"/>
      <path d="M 18.109375 7.625 
L 18.109375 -24.859375 
L 8.546875 -24.859375 
L 8.546875 54 
L 18.109375 54 
L 18.109375 44.671875 
L 18.3125 44.671875 
Q 24.65625 55.28125 36.859375 55.28125 
Q 47.21875 55.28125 53.09375 48.015625 
Q 58.984375 40.765625 58.984375 28.5625 
Q 58.984375 15.09375 52.3125 6.90625 
Q 45.65625 -1.265625 34.375 -1.265625 
Q 23.96875 -1.265625 18.3125 7.625 
z
M 18.0625 22.265625 
Q 18.0625 15.671875 22.3125 11.15625 
Q 26.5625 6.640625 32.953125 6.640625 
Q 40.578125 6.640625 44.875 12.5 
Q 49.171875 18.359375 49.171875 28.71875 
Q 49.171875 37.453125 45.15625 42.40625 
Q 41.15625 47.359375 34.234375 47.359375 
Q 27.15625 47.359375 22.609375 42.328125 
Q 18.0625 37.3125 18.0625 29.4375 
z
" id="MicrosoftYaHei-112"/>
      <path d="M 44.828125 -15.671875 
L 0 -15.671875 
L 0 -9.375 
L 44.828125 -9.375 
z
" id="MicrosoftYaHei-95"/>
      <path d="M 37.5 44.53125 
Q 35.109375 46.234375 30.90625 46.234375 
Q 25.34375 46.234375 21.71875 41.03125 
Q 18.109375 35.84375 18.109375 27.34375 
L 18.109375 0 
L 8.546875 0 
L 8.546875 54 
L 18.109375 54 
L 18.109375 43.015625 
L 18.3125 43.015625 
Q 22.40625 54.9375 32.46875 54.9375 
Q 35.75 54.9375 37.5 54.203125 
z
" id="MicrosoftYaHei-114"/>
      <path d="M 52.546875 24.5625 
L 14.75 24.5625 
Q 14.984375 15.921875 19.46875 11.203125 
Q 23.96875 6.5 32.03125 6.5 
Q 41.109375 6.5 48.6875 12.3125 
L 48.6875 3.765625 
Q 41.546875 -1.265625 29.78125 -1.265625 
Q 18.0625 -1.265625 11.5 6.15625 
Q 4.9375 13.578125 4.9375 26.765625 
Q 4.9375 39.15625 12.140625 47.21875 
Q 19.34375 55.28125 30.03125 55.28125 
Q 40.625 55.28125 46.578125 48.46875 
Q 52.546875 41.65625 52.546875 29.390625 
z
M 42.96875 32.234375 
Q 42.921875 39.546875 39.5 43.546875 
Q 36.078125 47.5625 29.890625 47.5625 
Q 24.171875 47.5625 20 43.3125 
Q 15.828125 39.0625 14.75 32.234375 
z
" id="MicrosoftYaHei-101"/>
      <path d="M 52.046875 54 
L 30.671875 0 
L 21 0 
L 0.6875 54 
L 11.140625 54 
L 24.3125 15.4375 
Q 25.921875 10.796875 26.21875 7.671875 
L 26.46875 7.671875 
Q 26.953125 11.765625 28.171875 15.234375 
L 42 54 
z
" id="MicrosoftYaHei-118"/>
      <path d="M 7.375 73.046875 
Q 7.375 75.59375 9.109375 77.3125 
Q 10.84375 79.046875 13.375 79.046875 
Q 15.96875 79.046875 17.75 77.34375 
Q 19.53125 75.640625 19.53125 73.046875 
Q 19.53125 70.515625 17.75 68.828125 
Q 15.96875 67.140625 13.375 67.140625 
Q 10.796875 67.140625 9.078125 68.828125 
Q 7.375 70.515625 7.375 73.046875 
z
M 8.5 0 
L 8.5 54 
L 18.0625 54 
L 18.0625 0 
z
" id="MicrosoftYaHei-105"/>
      <path d="M 77.734375 54 
L 61.625 0 
L 51.65625 0 
L 40.921875 37.890625 
Q 40.234375 40.328125 40.046875 43.0625 
L 39.84375 43.0625 
Q 39.703125 41.015625 38.71875 37.984375 
L 27.09375 0 
L 17.4375 0 
L 1.21875 54 
L 11.1875 54 
L 21.96875 13.96875 
Q 22.46875 12.15625 22.703125 9.03125 
L 23.09375 9.03125 
Q 23.296875 11.71875 24.03125 14.109375 
L 35.640625 54 
L 44.484375 54 
L 55.8125 13.921875 
Q 56.296875 12.15625 56.59375 8.9375 
L 57.03125 8.9375 
Q 57.125 11.078125 57.90625 13.921875 
L 68.453125 54 
z
" id="MicrosoftYaHei-119"/>
      <path d="M 54.203125 0 
L 44.671875 0 
L 44.671875 30.71875 
Q 44.671875 47.359375 32.515625 47.359375 
Q 26.21875 47.359375 22.15625 42.671875 
Q 18.109375 37.984375 18.109375 30.8125 
L 18.109375 0 
L 8.546875 0 
L 8.546875 54 
L 18.109375 54 
L 18.109375 45.0625 
L 18.3125 45.0625 
Q 24.421875 55.28125 36.03125 55.28125 
Q 44.921875 55.28125 49.5625 49.578125 
Q 54.203125 43.890625 54.203125 33.015625 
z
" id="MicrosoftYaHei-110"/>
      <path d="M 53.125 0 
L 43.5 0 
L 43.5 8.5 
L 43.3125 8.5 
Q 37.890625 -1.265625 26.65625 -1.265625 
Q 7.46875 -1.265625 7.46875 21.6875 
L 7.46875 54 
L 16.9375 54 
L 16.9375 23.09375 
Q 16.9375 6.640625 29.546875 6.640625 
Q 35.796875 6.640625 39.640625 11.25 
Q 43.5 15.875 43.5 22.90625 
L 43.5 54 
L 53.125 54 
z
" id="MicrosoftYaHei-117"/>
      <path d="M 86.28125 0 
L 76.703125 0 
L 76.703125 31 
Q 76.703125 39.796875 73.96875 43.578125 
Q 71.234375 47.359375 64.984375 47.359375 
Q 59.71875 47.359375 55.953125 42.421875 
Q 52.203125 37.5 52.203125 30.765625 
L 52.203125 0 
L 42.625 0 
L 42.625 31.984375 
Q 42.625 47.359375 30.765625 47.359375 
Q 25.296875 47.359375 21.703125 42.671875 
Q 18.109375 37.984375 18.109375 30.71875 
L 18.109375 0 
L 8.546875 0 
L 8.546875 54 
L 18.109375 54 
L 18.109375 45.453125 
L 18.3125 45.453125 
Q 24.078125 55.28125 35.15625 55.28125 
Q 40.578125 55.28125 44.71875 52.296875 
Q 48.875 49.3125 50.484375 44.234375 
Q 56.5 55.28125 68.453125 55.28125 
Q 86.28125 55.28125 86.28125 33.296875 
z
" id="MicrosoftYaHei-109"/>
      <path d="M 8.5 0 
L 8.5 79.9375 
L 18.0625 79.9375 
L 18.0625 0 
z
" id="MicrosoftYaHei-108"/>
     </defs>
     <g transform="translate(355.481812 383.025553)scale(0.168 -0.168)">
      <use xlink:href="#MicrosoftYaHei-115"/>
      <use x="46.289062" xlink:href="#MicrosoftYaHei-104"/>
      <use x="107.861328" xlink:href="#MicrosoftYaHei-111"/>
      <use x="171.435547" xlink:href="#MicrosoftYaHei-112"/>
      <use x="235.302734" xlink:href="#MicrosoftYaHei-95"/>
      <use x="280.126953" xlink:href="#MicrosoftYaHei-114"/>
      <use x="318.294922" xlink:href="#MicrosoftYaHei-101"/>
      <use x="375.033203" xlink:href="#MicrosoftYaHei-118"/>
      <use x="427.523438" xlink:href="#MicrosoftYaHei-105"/>
      <use x="454.134766" xlink:href="#MicrosoftYaHei-101"/>
      <use x="510.873047" xlink:href="#MicrosoftYaHei-119"/>
      <use x="589.828125" xlink:href="#MicrosoftYaHei-95"/>
      <use x="634.652344" xlink:href="#MicrosoftYaHei-110"/>
      <use x="696.273438" xlink:href="#MicrosoftYaHei-117"/>
      <use x="757.894531" xlink:href="#MicrosoftYaHei-109"/>
      <use x="851.595703" xlink:href="#MicrosoftYaHei-95"/>
      <use x="896.419922" xlink:href="#MicrosoftYaHei-108"/>
      <use x="923.03125" xlink:href="#MicrosoftYaHei-101"/>
      <use x="979.769531" xlink:href="#MicrosoftYaHei-118"/>
      <use x="1032.259766" xlink:href="#MicrosoftYaHei-101"/>
      <use x="1088.998047" xlink:href="#MicrosoftYaHei-108"/>
     </g>
    </g>
   </g>
   <g id="matplotlib.axis_2">
    <g id="ytick_1">
     <g id="line2d_26">
      <path clip-path="url(#p6f81c605c9)" d="M 73.354313 347.424491 
L 825.034312 347.424491 
" style="fill:none;stroke:#cbcbcb;"/>
     </g>
     <g id="line2d_27"/>
     <g id="text_27">
      <!-- 0 -->
      <g transform="translate(61.644625 353.020116)scale(0.14 -0.14)">
       <use xlink:href="#MicrosoftYaHei-48"/>
      </g>
     </g>
    </g>
    <g id="ytick_2">
     <g id="line2d_28">
      <path clip-path="url(#p6f81c605c9)" d="M 73.354313 310.218945 
L 825.034312 310.218945 
" style="fill:none;stroke:#cbcbcb;"/>
     </g>
     <g id="line2d_29"/>
     <g id="text_28">
      <!-- 10000 -->
      <g transform="translate(28.805875 315.81457)scale(0.14 -0.14)">
       <use xlink:href="#MicrosoftYaHei-49"/>
       <use x="58.642578" xlink:href="#MicrosoftYaHei-48"/>
       <use x="117.285156" xlink:href="#MicrosoftYaHei-48"/>
       <use x="175.927734" xlink:href="#MicrosoftYaHei-48"/>
       <use x="234.570312" xlink:href="#MicrosoftYaHei-48"/>
      </g>
     </g>
    </g>
    <g id="ytick_3">
     <g id="line2d_30">
      <path clip-path="url(#p6f81c605c9)" d="M 73.354313 273.013399 
L 825.034312 273.013399 
" style="fill:none;stroke:#cbcbcb;"/>
     </g>
     <g id="line2d_31"/>
     <g id="text_29">
      <!-- 20000 -->
      <g transform="translate(28.805875 278.609024)scale(0.14 -0.14)">
       <use xlink:href="#MicrosoftYaHei-50"/>
       <use x="58.642578" xlink:href="#MicrosoftYaHei-48"/>
       <use x="117.285156" xlink:href="#MicrosoftYaHei-48"/>
       <use x="175.927734" xlink:href="#MicrosoftYaHei-48"/>
       <use x="234.570312" xlink:href="#MicrosoftYaHei-48"/>
      </g>
     </g>
    </g>
    <g id="ytick_4">
     <g id="line2d_32">
      <path clip-path="url(#p6f81c605c9)" d="M 73.354313 235.807853 
L 825.034312 235.807853 
" style="fill:none;stroke:#cbcbcb;"/>
     </g>
     <g id="line2d_33"/>
     <g id="text_30">
      <!-- 30000 -->
      <g transform="translate(28.805875 241.403478)scale(0.14 -0.14)">
       <use xlink:href="#MicrosoftYaHei-51"/>
       <use x="58.642578" xlink:href="#MicrosoftYaHei-48"/>
       <use x="117.285156" xlink:href="#MicrosoftYaHei-48"/>
       <use x="175.927734" xlink:href="#MicrosoftYaHei-48"/>
       <use x="234.570312" xlink:href="#MicrosoftYaHei-48"/>
      </g>
     </g>
    </g>
    <g id="ytick_5">
     <g id="line2d_34">
      <path clip-path="url(#p6f81c605c9)" d="M 73.354313 198.602308 
L 825.034312 198.602308 
" style="fill:none;stroke:#cbcbcb;"/>
     </g>
     <g id="line2d_35"/>
     <g id="text_31">
      <!-- 40000 -->
      <g transform="translate(28.805875 204.197933)scale(0.14 -0.14)">
       <use xlink:href="#MicrosoftYaHei-52"/>
       <use x="58.642578" xlink:href="#MicrosoftYaHei-48"/>
       <use x="117.285156" xlink:href="#MicrosoftYaHei-48"/>
       <use x="175.927734" xlink:href="#MicrosoftYaHei-48"/>
       <use x="234.570312" xlink:href="#MicrosoftYaHei-48"/>
      </g>
     </g>
    </g>
    <g id="ytick_6">
     <g id="line2d_36">
      <path clip-path="url(#p6f81c605c9)" d="M 73.354313 161.396762 
L 825.034312 161.396762 
" style="fill:none;stroke:#cbcbcb;"/>
     </g>
     <g id="line2d_37"/>
     <g id="text_32">
      <!-- 50000 -->
      <g transform="translate(28.805875 166.992387)scale(0.14 -0.14)">
       <use xlink:href="#MicrosoftYaHei-53"/>
       <use x="58.642578" xlink:href="#MicrosoftYaHei-48"/>
       <use x="117.285156" xlink:href="#MicrosoftYaHei-48"/>
       <use x="175.927734" xlink:href="#MicrosoftYaHei-48"/>
       <use x="234.570312" xlink:href="#MicrosoftYaHei-48"/>
      </g>
     </g>
    </g>
    <g id="ytick_7">
     <g id="line2d_38">
      <path clip-path="url(#p6f81c605c9)" d="M 73.354313 124.191216 
L 825.034312 124.191216 
" style="fill:none;stroke:#cbcbcb;"/>
     </g>
     <g id="line2d_39"/>
     <g id="text_33">
      <!-- 60000 -->
      <g transform="translate(28.805875 129.786841)scale(0.14 -0.14)">
       <use xlink:href="#MicrosoftYaHei-54"/>
       <use x="58.642578" xlink:href="#MicrosoftYaHei-48"/>
       <use x="117.285156" xlink:href="#MicrosoftYaHei-48"/>
       <use x="175.927734" xlink:href="#MicrosoftYaHei-48"/>
       <use x="234.570312" xlink:href="#MicrosoftYaHei-48"/>
      </g>
     </g>
    </g>
    <g id="ytick_8">
     <g id="line2d_40">
      <path clip-path="url(#p6f81c605c9)" d="M 73.354313 86.98567 
L 825.034312 86.98567 
" style="fill:none;stroke:#cbcbcb;"/>
     </g>
     <g id="line2d_41"/>
     <g id="text_34">
      <!-- 70000 -->
      <g transform="translate(28.805875 92.581295)scale(0.14 -0.14)">
       <use xlink:href="#MicrosoftYaHei-55"/>
       <use x="58.642578" xlink:href="#MicrosoftYaHei-48"/>
       <use x="117.285156" xlink:href="#MicrosoftYaHei-48"/>
       <use x="175.927734" xlink:href="#MicrosoftYaHei-48"/>
       <use x="234.570312" xlink:href="#MicrosoftYaHei-48"/>
      </g>
     </g>
    </g>
    <g id="ytick_9">
     <g id="line2d_42">
      <path clip-path="url(#p6f81c605c9)" d="M 73.354313 49.780124 
L 825.034312 49.780124 
" style="fill:none;stroke:#cbcbcb;"/>
     </g>
     <g id="line2d_43"/>
     <g id="text_35">
      <!-- 80000 -->
      <g transform="translate(28.805875 55.375749)scale(0.14 -0.14)">
       <use xlink:href="#MicrosoftYaHei-56"/>
       <use x="58.642578" xlink:href="#MicrosoftYaHei-48"/>
       <use x="117.285156" xlink:href="#MicrosoftYaHei-48"/>
       <use x="175.927734" xlink:href="#MicrosoftYaHei-48"/>
       <use x="234.570312" xlink:href="#MicrosoftYaHei-48"/>
      </g>
     </g>
    </g>
    <g id="text_36">
     <!-- count -->
     <defs>
      <path d="M 45.84375 2.4375 
Q 39.65625 -1.265625 30.90625 -1.265625 
Q 19.1875 -1.265625 12.0625 6.25 
Q 4.9375 13.765625 4.9375 25.734375 
Q 4.9375 39.015625 12.625 47.140625 
Q 20.3125 55.28125 33.203125 55.28125 
Q 40.625 55.28125 45.90625 52.640625 
L 45.90625 43.171875 
Q 40.1875 47.359375 33.203125 47.359375 
Q 25 47.359375 19.84375 41.671875 
Q 14.703125 35.984375 14.703125 26.515625 
Q 14.703125 17.1875 19.5625 11.90625 
Q 24.421875 6.640625 32.671875 6.640625 
Q 39.65625 6.640625 45.84375 11.234375 
z
" id="MicrosoftYaHei-99"/>
      <path d="M 34.46875 0.53125 
Q 31.34375 -1.171875 26.03125 -1.171875 
Q 11.53125 -1.171875 11.53125 14.890625 
L 11.53125 46.09375 
L 2.25 46.09375 
L 2.25 54 
L 11.53125 54 
L 11.53125 67 
L 21.046875 70.015625 
L 21.046875 54 
L 34.46875 54 
L 34.46875 46.09375 
L 21.046875 46.09375 
L 21.046875 16.609375 
Q 21.046875 11.28125 22.84375 8.984375 
Q 24.65625 6.6875 28.859375 6.6875 
Q 32.078125 6.6875 34.46875 8.5 
z
" id="MicrosoftYaHei-116"/>
     </defs>
     <g transform="translate(20.6295 211.40432)rotate(-90)scale(0.168 -0.168)">
      <use xlink:href="#MicrosoftYaHei-99"/>
      <use x="50.146484" xlink:href="#MicrosoftYaHei-111"/>
      <use x="113.720703" xlink:href="#MicrosoftYaHei-117"/>
      <use x="175.341797" xlink:href="#MicrosoftYaHei-110"/>
      <use x="236.962891" xlink:href="#MicrosoftYaHei-116"/>
     </g>
    </g>
   </g>
   <g id="patch_3">
    <path clip-path="url(#p6f81c605c9)" d="M 76.361032 347.424491 
L 100.414792 347.424491 
L 100.414792 347.398447 
L 76.361032 347.398447 
z
" style="fill:#ea96a3;"/>
   </g>
   <g id="patch_4">
    <path clip-path="url(#p6f81c605c9)" d="M 106.428232 347.424491 
L 130.481992 347.424491 
L 130.481992 347.35008 
L 106.428232 347.35008 
z
" style="fill:#e8968c;"/>
   </g>
   <g id="patch_5">
    <path clip-path="url(#p6f81c605c9)" d="M 136.495432 347.424491 
L 160.549193 347.424491 
L 160.549193 347.100803 
L 136.495432 347.100803 
z
" style="fill:#e2925a;"/>
   </g>
   <g id="patch_6">
    <path clip-path="url(#p6f81c605c9)" d="M 166.562633 347.424491 
L 190.616393 347.424491 
L 190.616393 347.126847 
L 166.562633 347.126847 
z
" style="fill:#cd974c;"/>
   </g>
   <g id="patch_7">
    <path clip-path="url(#p6f81c605c9)" d="M 196.629833 347.424491 
L 220.683593 347.424491 
L 220.683593 346.434823 
L 196.629833 346.434823 
z
" style="fill:#bb9b49;"/>
   </g>
   <g id="patch_8">
    <path clip-path="url(#p6f81c605c9)" d="M 226.697032 347.424491 
L 250.750792 347.424491 
L 250.750792 345.277731 
L 226.697032 345.277731 
z
" style="fill:#ab9e47;"/>
   </g>
   <g id="patch_9">
    <path clip-path="url(#p6f81c605c9)" d="M 256.764232 347.424491 
L 280.817993 347.424491 
L 280.817993 342.427786 
L 256.764232 342.427786 
z
" style="fill:#9ca146;"/>
   </g>
   <g id="patch_10">
    <path clip-path="url(#p6f81c605c9)" d="M 286.831433 347.424491 
L 310.885193 347.424491 
L 310.885193 340.545185 
L 286.831433 340.545185 
z
" style="fill:#8ba646;"/>
   </g>
   <g id="patch_11">
    <path clip-path="url(#p6f81c605c9)" d="M 316.898632 347.424491 
L 340.952392 347.424491 
L 340.952392 335.939139 
L 316.898632 335.939139 
z
" style="fill:#6fac47;"/>
   </g>
   <g id="patch_12">
    <path clip-path="url(#p6f81c605c9)" d="M 346.965833 347.424491 
L 371.019593 347.424491 
L 371.019593 327.02469 
L 346.965833 327.02469 
z
" style="fill:#48b062;"/>
   </g>
   <g id="patch_13">
    <path clip-path="url(#p6f81c605c9)" d="M 377.033032 347.424491 
L 401.086793 347.424491 
L 401.086793 315.438883 
L 377.033032 315.438883 
z
" style="fill:#49ae83;"/>
   </g>
   <g id="patch_14">
    <path clip-path="url(#p6f81c605c9)" d="M 407.100232 347.424491 
L 431.153992 347.424491 
L 431.153992 295.325565 
L 407.100232 295.325565 
z
" style="fill:#4aad93;"/>
   </g>
   <g id="patch_15">
    <path clip-path="url(#p6f81c605c9)" d="M 437.167433 347.424491 
L 461.221193 347.424491 
L 461.221193 277.961737 
L 437.167433 277.961737 
z
" style="fill:#4bac9f;"/>
   </g>
   <g id="patch_16">
    <path clip-path="url(#p6f81c605c9)" d="M 467.234632 347.424491 
L 491.288392 347.424491 
L 491.288392 231.916153 
L 467.234632 231.916153 
z
" style="fill:#4baba9;"/>
   </g>
   <g id="patch_17">
    <path clip-path="url(#p6f81c605c9)" d="M 497.301832 347.424491 
L 521.355592 347.424491 
L 521.355592 158.736565 
L 497.301832 158.736565 
z
" style="fill:#4eabb5;"/>
   </g>
   <g id="patch_18">
    <path clip-path="url(#p6f81c605c9)" d="M 527.369033 347.424491 
L 551.422793 347.424491 
L 551.422793 102.065078 
L 527.369033 102.065078 
z
" style="fill:#50acc3;"/>
   </g>
   <g id="patch_19">
    <path clip-path="url(#p6f81c605c9)" d="M 557.436232 347.424491 
L 581.489992 347.424491 
L 581.489992 52.429159 
L 557.436232 52.429159 
z
" style="fill:#55acd5;"/>
   </g>
   <g id="patch_20">
    <path clip-path="url(#p6f81c605c9)" d="M 587.503433 347.424491 
L 611.557193 347.424491 
L 611.557193 44.463452 
L 587.503433 44.463452 
z
" style="fill:#7faee5;"/>
   </g>
   <g id="patch_21">
    <path clip-path="url(#p6f81c605c9)" d="M 617.570632 347.424491 
L 641.624392 347.424491 
L 641.624392 159.138385 
L 617.570632 159.138385 
z
" style="fill:#a4acea;"/>
   </g>
   <g id="patch_22">
    <path clip-path="url(#p6f81c605c9)" d="M 647.637833 347.424491 
L 671.691593 347.424491 
L 671.691593 287.054772 
L 647.637833 287.054772 
z
" style="fill:#bba5ea;"/>
   </g>
   <g id="patch_23">
    <path clip-path="url(#p6f81c605c9)" d="M 677.705033 347.424491 
L 701.758793 347.424491 
L 701.758793 254.752917 
L 677.705033 254.752917 
z
" style="fill:#ce9be9;"/>
   </g>
   <g id="patch_24">
    <path clip-path="url(#p6f81c605c9)" d="M 707.772232 347.424491 
L 731.825992 347.424491 
L 731.825992 262.402378 
L 707.772232 262.402378 
z
" style="fill:#e28ce7;"/>
   </g>
   <g id="patch_25">
    <path clip-path="url(#p6f81c605c9)" d="M 737.839433 347.424491 
L 761.893193 347.424491 
L 761.893193 345.121468 
L 737.839433 345.121468 
z
" style="fill:#e78dd5;"/>
   </g>
   <g id="patch_26">
    <path clip-path="url(#p6f81c605c9)" d="M 767.906633 347.424491 
L 791.960393 347.424491 
L 791.960393 346.111135 
L 767.906633 346.111135 
z
" style="fill:#e890c4;"/>
   </g>
   <g id="patch_27">
    <path clip-path="url(#p6f81c605c9)" d="M 797.973832 347.424491 
L 822.027592 347.424491 
L 822.027592 347.409609 
L 797.973832 347.409609 
z
" style="fill:#e993b5;"/>
   </g>
   <g id="patch_28">
    <path d="M 73.354313 347.424491 
L 73.354313 29.3154 
" style="fill:none;stroke:#f0f0f0;stroke-linecap:square;stroke-linejoin:miter;stroke-width:3;"/>
   </g>
   <g id="patch_29">
    <path d="M 825.034312 347.424491 
L 825.034312 29.3154 
" style="fill:none;stroke:#f0f0f0;stroke-linecap:square;stroke-linejoin:miter;stroke-width:3;"/>
   </g>
   <g id="patch_30">
    <path d="M 73.354312 347.424491 
L 825.034312 347.424491 
" style="fill:none;stroke:#f0f0f0;stroke-linecap:square;stroke-linejoin:miter;stroke-width:3;"/>
   </g>
   <g id="patch_31">
    <path d="M 73.354312 29.3154 
L 825.034312 29.3154 
" style="fill:none;stroke:#f0f0f0;stroke-linecap:square;stroke-linejoin:miter;stroke-width:3;"/>
   </g>
   <g id="text_37">
    <!-- 店铺的评价数量等级分布 -->
    <defs>
     <path d="M 51.171875 62.0625 
L 59.1875 62.0625 
L 59.1875 49.859375 
L 95.796875 49.859375 
L 95.796875 42.828125 
L 59.1875 42.828125 
L 59.1875 28.953125 
L 88.1875 28.953125 
L 88.1875 -12.9375 
L 80.375 -12.9375 
L 80.375 -6.59375 
L 36.03125 -6.59375 
L 36.03125 -12.9375 
L 28.21875 -12.9375 
L 28.21875 28.953125 
L 51.171875 28.953125 
z
M 46.390625 80.8125 
L 53.328125 84.234375 
Q 57.28125 78.375 60.6875 72.015625 
L 98.25 72.015625 
L 98.25 64.796875 
L 18.953125 64.796875 
L 18.953125 32.078125 
Q 17.96875 1.609375 5.765625 -13.71875 
Q 3.515625 -10.6875 0.203125 -7.078125 
Q 10.75 6.890625 10.84375 33.84375 
L 10.84375 72.015625 
L 51.609375 72.015625 
Q 49.265625 76.421875 46.390625 80.8125 
z
M 80.375 21.921875 
L 36.03125 21.921875 
L 36.03125 0.25 
L 80.375 0.25 
z
" id="MicrosoftYaHei-24215"/>
     <path d="M 34.578125 69.578125 
L 61.234375 69.578125 
L 61.234375 82.671875 
L 68.453125 82.671875 
L 68.453125 69.578125 
L 81.640625 69.578125 
Q 78.328125 74.46875 74.21875 79.34375 
L 80.28125 83.546875 
Q 84.96875 78.171875 89.0625 72.796875 
L 84.46875 69.578125 
L 98.046875 69.578125 
L 98.046875 62.546875 
L 68.453125 62.546875 
L 68.453125 53.265625 
L 93.5625 53.265625 
L 93.5625 -1.90625 
Q 93.5625 -11.96875 83.5 -12.0625 
Q 78.515625 -12.0625 73.140625 -11.859375 
Q 72.65625 -8.640625 71.6875 -4.34375 
Q 77.640625 -4.9375 81.25 -4.9375 
Q 86.328125 -4.9375 86.328125 0.140625 
L 86.328125 10.015625 
L 68.453125 10.015625 
L 68.453125 -11.671875 
L 61.234375 -11.671875 
L 61.234375 10.015625 
L 44.828125 10.015625 
L 44.828125 -12.75 
L 37.59375 -12.75 
L 37.59375 53.265625 
L 61.234375 53.265625 
L 61.234375 62.546875 
L 34.578125 62.546875 
z
M 8.796875 49.078125 
L 30.953125 49.078125 
L 30.953125 42.328125 
L 21 42.328125 
L 21 30.328125 
L 33.796875 30.328125 
L 33.796875 23.578125 
L 21 23.578125 
L 21 0.640625 
Q 26.765625 4.4375 31.9375 8.15625 
Q 32.71875 3.65625 33.5 0.4375 
Q 29.296875 -2.203125 21.09375 -8.0625 
Q 19.34375 -9.328125 15.921875 -12.453125 
L 10.75 -6 
Q 14.0625 -3.375 14.0625 1.609375 
L 14.0625 23.578125 
L 2.25 23.578125 
L 2.25 30.328125 
L 14.0625 30.328125 
L 14.0625 42.328125 
L 8.796875 42.328125 
z
M 14.0625 61.375 
Q 10.15625 52.203125 5.953125 45.359375 
Q 3.8125 48.390625 0.875 51.90625 
Q 9.96875 66.0625 13.28125 82.375 
L 20.609375 80.71875 
Q 18.84375 74.171875 16.703125 68.109375 
L 32.03125 68.109375 
L 32.03125 61.375 
z
M 68.453125 16.84375 
L 86.328125 16.84375 
L 86.328125 28.265625 
L 68.453125 28.265625 
z
M 86.328125 46.4375 
L 68.453125 46.4375 
L 68.453125 35.109375 
L 86.328125 35.109375 
z
M 44.828125 16.84375 
L 61.234375 16.84375 
L 61.234375 28.265625 
L 44.828125 28.265625 
z
M 44.828125 35.109375 
L 61.234375 35.109375 
L 61.234375 46.4375 
L 44.828125 46.4375 
z
" id="MicrosoftYaHei-38138"/>
     <path d="M 5.5625 66.9375 
L 15.4375 66.9375 
Q 19.046875 75.828125 21.390625 83.15625 
L 29.59375 80.8125 
Q 26.515625 73.34375 23.640625 66.9375 
L 43.171875 66.9375 
L 43.171875 -10.796875 
L 35.359375 -10.796875 
L 35.359375 -3.171875 
L 13.375 -3.171875 
L 13.375 -11.46875 
L 5.5625 -11.46875 
z
M 44.625 46.921875 
Q 53.8125 61.46875 60.15625 83.15625 
L 68.359375 81.109375 
Q 65.875 73.734375 63.28125 67.234375 
L 94.734375 67.234375 
Q 93.5625 17.046875 92.78125 4.046875 
Q 92.09375 -11.28125 76.65625 -11.28125 
Q 67.78125 -11.28125 58.59375 -10.6875 
Q 58.015625 -5.8125 57.03125 -2 
L 57.328125 -2 
Q 67.09375 -3.375 75.203125 -3.375 
Q 84.078125 -3.375 84.765625 6 
Q 85.84375 20.5625 86.328125 59.90625 
L 60.15625 59.90625 
Q 55.90625 50.484375 51.375 43.3125 
Q 48.734375 45.171875 44.625 46.921875 
z
M 13.375 4.15625 
L 35.359375 4.15625 
L 35.359375 28.859375 
L 13.375 28.859375 
z
M 35.359375 59.625 
L 13.375 59.625 
L 13.375 35.890625 
L 35.359375 35.890625 
z
M 53.21875 40.28125 
L 59.1875 44.671875 
Q 70.015625 31.890625 76.46875 22.515625 
L 69.234375 17.4375 
Q 62.3125 28.765625 53.21875 40.28125 
z
" id="MicrosoftYaHei-30340"/>
     <path d="M 27.34375 31.6875 
L 58.984375 31.6875 
L 58.984375 69.484375 
L 32.625 69.484375 
L 32.625 76.8125 
L 93.359375 76.8125 
L 93.359375 69.484375 
L 66.890625 69.484375 
L 66.890625 31.6875 
L 98.734375 31.6875 
L 98.734375 24.265625 
L 66.890625 24.265625 
L 66.890625 -12.453125 
L 58.984375 -12.453125 
L 58.984375 24.265625 
L 27.34375 24.265625 
z
M 34.671875 13.53125 
Q 34.96875 8.640625 35.359375 5.125 
Q 22.75 -3.5625 15.046875 -9.8125 
L 10.453125 -3.265625 
Q 13.765625 -0.4375 13.765625 4.734375 
L 13.765625 42.4375 
L 1.5625 42.4375 
L 1.5625 49.46875 
L 21.296875 49.46875 
L 21.296875 3.765625 
Q 27.734375 8.34375 34.671875 13.53125 
z
M 73.828125 42.140625 
Q 80.859375 51.703125 86.921875 62.9375 
L 94.046875 58.640625 
Q 87.703125 48.296875 80.078125 37.546875 
z
M 32.125 59.234375 
L 38.28125 62.9375 
Q 45.609375 52.390625 51.375 42.4375 
L 44.53125 38.03125 
Q 37.984375 50.140625 32.125 59.234375 
z
M 11.53125 81.59375 
Q 22.171875 70.65625 26.953125 65.375 
L 20.125 59.625 
Q 13.96875 67.71875 5.5625 76.421875 
z
" id="MicrosoftYaHei-35780"/>
     <path d="M 1.078125 33.84375 
Q 14.265625 54.4375 21.6875 82.171875 
L 29.296875 79.828125 
Q 25.78125 68.609375 21.875 58.84375 
L 21.875 -13.328125 
L 14.546875 -13.328125 
L 14.546875 42.53125 
Q 9.671875 32.953125 4.390625 25.34375 
Q 2.546875 30.609375 1.078125 33.84375 
z
M 67.484375 82.375 
L 66.109375 79.9375 
Q 78.21875 58.546875 98.734375 49.078125 
Q 96.1875 46.140625 93.359375 42.234375 
Q 73.53125 53.65625 62.109375 73.484375 
Q 51.171875 54.640625 31.25 40.671875 
Q 28.90625 44.09375 26.171875 46.828125 
Q 48.25 60.6875 58.6875 82.375 
z
M 51.765625 44.1875 
L 51.765625 30.328125 
Q 51.765625 2.09375 35.546875 -13.921875 
Q 32.71875 -11.078125 29 -8.453125 
Q 44.140625 5.421875 44.140625 29.640625 
L 44.140625 44.1875 
z
M 72.359375 44.1875 
L 79.984375 44.1875 
L 79.984375 -12.9375 
L 72.359375 -12.9375 
z
" id="MicrosoftYaHei-20215"/>
     <path d="M 65.234375 82.859375 
L 73.046875 81.6875 
Q 71 72.21875 68.265625 64.015625 
L 98.140625 64.015625 
L 98.140625 57.375 
L 92 57.375 
Q 89.546875 28.65625 79.5 11.765625 
Q 87.40625 1.03125 99.609375 -5.8125 
Q 96.484375 -10.109375 94.34375 -13.53125 
Q 82.421875 -5.8125 74.515625 4.828125 
Q 65.53125 -6.296875 53.125 -14.5 
Q 50.984375 -11.671875 47.5625 -8.34375 
Q 61.234375 0.640625 69.734375 12.0625 
Q 61.8125 25.734375 59.28125 43.609375 
Q 57.234375 39.984375 54.984375 36.859375 
Q 53.03125 39.703125 50.09375 43.109375 
Q 61.421875 59.421875 65.234375 82.859375 
z
M 2.34375 26.515625 
L 17.1875 26.515625 
Q 19.34375 30.21875 21.390625 34.125 
L 28.421875 31.890625 
Q 26.859375 29.15625 25.296875 26.515625 
L 49.21875 26.515625 
L 49.21875 20.171875 
Q 45.515625 10.59375 37.984375 3.375 
Q 43.359375 0.828125 48.921875 -1.703125 
L 44.625 -8.453125 
Q 38.578125 -5.03125 32.03125 -1.609375 
Q 21 -9.515625 4.203125 -14.109375 
Q 2.640625 -10.984375 0.875 -7.28125 
Q 15.140625 -4.046875 25 2 
Q 16.609375 6.296875 7.421875 10.796875 
Q 10.546875 15.28125 13.484375 20.0625 
L 2.34375 20.0625 
z
M 3.421875 60.109375 
L 25.875 60.109375 
L 25.875 81.984375 
L 33.109375 81.984375 
L 33.109375 60.109375 
L 51.859375 60.109375 
L 51.859375 53.65625 
L 33.109375 53.65625 
L 33.109375 47.703125 
L 36.03125 51.03125 
Q 45.125 44.390625 51.265625 39.3125 
L 46.578125 33.84375 
Q 41.21875 38.921875 33.109375 45.265625 
L 33.109375 34.125 
L 25.875 34.125 
L 25.875 47.796875 
Q 17 38.53125 5.171875 31.5 
Q 3.328125 34.328125 0.984375 37.453125 
Q 13.28125 44.09375 23.53125 53.65625 
L 3.421875 53.65625 
z
M 84.1875 57.375 
L 65.921875 57.375 
Q 65.4375 56.109375 64.84375 54.9375 
Q 66.609375 34.234375 74.609375 19.484375 
Q 82.421875 33.734375 84.1875 57.375 
z
M 17 13.03125 
Q 23.921875 9.90625 31.25 6.5 
Q 37.984375 12.25 41.796875 20.0625 
L 21.484375 20.0625 
Q 19.234375 16.453125 17 13.03125 
z
M 47.46875 79.546875 
L 53.515625 75.53125 
Q 48.140625 68.5 42.78125 62.546875 
Q 40.53125 64.5 37.5 66.65625 
Q 42.578125 72.609375 47.46875 79.546875 
z
M 5.953125 75.25 
L 11.53125 79.046875 
Q 15.921875 73.6875 20.609375 67.53125 
L 14.546875 63.234375 
Q 10.25 69.578125 5.953125 75.25 
z
" id="MicrosoftYaHei-25968"/>
     <path d="M 1.765625 -4.34375 
L 46.578125 -4.34375 
L 46.578125 1.21875 
L 7.421875 1.21875 
L 7.421875 6.296875 
L 46.578125 6.296875 
L 46.578125 11.859375 
L 23.34375 11.859375 
L 23.34375 9.328125 
L 16.703125 9.328125 
L 16.703125 39.3125 
L 83.59375 39.3125 
L 83.59375 9.328125 
L 76.953125 9.328125 
L 76.953125 11.859375 
L 53.421875 11.859375 
L 53.421875 6.296875 
L 92.671875 6.296875 
L 92.671875 1.21875 
L 53.421875 1.21875 
L 53.421875 -4.34375 
L 98.25 -4.34375 
L 98.25 -9.625 
L 1.765625 -9.625 
z
M 17.484375 79.25 
L 82.90625 79.25 
L 82.90625 51.3125 
L 76.265625 51.3125 
L 76.265625 53.953125 
L 24.125 53.953125 
L 24.125 51.3125 
L 17.484375 51.3125 
z
M 2.546875 49.265625 
L 97.859375 49.265625 
L 97.859375 44 
L 2.546875 44 
z
M 24.125 59.03125 
L 76.265625 59.03125 
L 76.265625 64.3125 
L 24.125 64.3125 
z
M 76.265625 74.171875 
L 24.125 74.171875 
L 24.125 69 
L 76.265625 69 
z
M 53.421875 16.9375 
L 76.953125 16.9375 
L 76.953125 23.296875 
L 53.421875 23.296875 
z
M 23.34375 16.9375 
L 46.578125 16.9375 
L 46.578125 23.296875 
L 23.34375 23.296875 
z
M 76.953125 34.234375 
L 53.421875 34.234375 
L 53.421875 27.984375 
L 76.953125 27.984375 
z
M 23.34375 27.984375 
L 46.578125 27.984375 
L 46.578125 34.234375 
L 23.34375 34.234375 
z
" id="MicrosoftYaHei-37327"/>
     <path d="M 1.953125 35.984375 
L 45.515625 35.984375 
L 45.515625 45.65625 
L 8.796875 45.65625 
L 8.796875 52 
L 45.515625 52 
L 45.515625 59.71875 
L 53.125 59.71875 
L 53.125 52 
L 91.40625 52 
L 91.40625 45.65625 
L 53.125 45.65625 
L 53.125 35.984375 
L 98.25 35.984375 
L 98.25 29.4375 
L 1.953125 29.4375 
z
M 5.28125 19.875 
L 66.40625 19.875 
L 66.40625 27.59375 
L 74.03125 27.59375 
L 74.03125 19.875 
L 94.921875 19.875 
L 94.921875 13.328125 
L 74.03125 13.328125 
L 74.03125 0.34375 
Q 74.03125 -11.96875 61.328125 -11.96875 
Q 53.90625 -11.96875 46.390625 -11.859375 
Q 45.90625 -8.34375 44.921875 -3.5625 
Q 52.734375 -4.34375 59.28125 -4.34375 
Q 66.40625 -4.34375 66.40625 1.421875 
L 66.40625 13.328125 
L 5.28125 13.328125 
z
M 20.21875 83.546875 
L 28.609375 83.546875 
Q 26.375 78.765625 23.640625 74.359375 
L 51.953125 74.359375 
L 51.953125 68.3125 
L 19.4375 68.3125 
Q 13.671875 60.59375 6.0625 54.046875 
Q 4.109375 56.390625 1.171875 59.328125 
Q 13.375 69.1875 20.21875 83.546875 
z
M 62.015625 83.546875 
L 70.40625 83.546875 
Q 68.21875 78.71875 65.828125 74.359375 
L 97.265625 74.359375 
L 97.265625 68.3125 
L 62.25 68.3125 
Q 58.9375 63.09375 55.28125 58.734375 
Q 51.171875 61.671875 48.734375 62.640625 
Q 57.234375 71.828125 62.015625 83.546875 
z
M 23.4375 7.671875 
L 28.609375 12.640625 
Q 35.25 6.984375 42.1875 0.4375 
L 36.53125 -4.9375 
Q 31.25 0.640625 23.4375 7.671875 
z
M 31.546875 53.765625 
Q 27.828125 58.640625 23.4375 63.71875 
L 28.515625 67.328125 
Q 33.203125 62.84375 37.3125 58.15625 
z
M 74.125 53.765625 
Q 72.265625 56.6875 66.21875 63.71875 
L 71.296875 67.328125 
Q 76.5625 62.25 79.890625 58.15625 
z
" id="MicrosoftYaHei-31561"/>
     <path d="M 51.125 39.40625 
Q 49.609375 7.28125 31.15625 -12.546875 
Q 27.640625 -9.03125 24.90625 -7.078125 
Q 37.40625 6.109375 41.109375 22.3125 
Q 44.671875 36.28125 44.4375 70.265625 
L 35.75 70.265625 
L 35.75 77.203125 
L 84.46875 77.203125 
L 84.46875 69.875 
L 75 50.25 
L 91.21875 50.25 
L 91.21875 43.015625 
Q 85.546875 25.34375 75.828125 12.109375 
Q 85.25 2.546875 98.921875 -4.546875 
Q 96 -7.375 92.390625 -11.765625 
Q 79.5 -3.609375 70.65625 5.609375 
Q 60.640625 -5.71875 47.078125 -13.234375 
Q 44.34375 -9.625 41.609375 -6.984375 
Q 55.671875 0.984375 65.4375 11.8125 
Q 56.640625 23.4375 51.125 39.40625 
z
M 66.890625 50.4375 
L 76.265625 70.265625 
L 51.859375 70.265625 
Q 51.90625 63.28125 51.8125 57.078125 
Q 59.28125 31.78125 70.515625 18.015625 
Q 78.8125 29.34375 83.109375 43.3125 
L 66.890625 43.3125 
z
M 14.65625 29.640625 
Q 24.8125 30.71875 35.359375 32.078125 
Q 34.96875 28.859375 34.578125 25.734375 
Q 18.65625 23.78125 6.453125 21.734375 
L 4.6875 28.65625 
Q 10.5 33.796875 19.28125 47.3125 
Q 11.765625 46.78125 3.8125 45.953125 
L 1.953125 52.09375 
Q 10.0625 61.078125 20.796875 83.34375 
L 28.21875 80.125 
Q 18.171875 63.140625 10.640625 52.59375 
Q 16.109375 52.78125 22.953125 53.078125 
Q 26.46875 58.84375 30.46875 65.765625 
L 37.5 62.453125 
Q 22.75 40.09375 14.65625 29.640625 
z
M 1.5625 6.890625 
Q 17.1875 10.59375 33.296875 14.984375 
Q 33.40625 11.578125 33.59375 8.25 
Q 17.09375 3.765625 4.296875 -0.046875 
z
" id="MicrosoftYaHei-32423"/>
     <path d="M 14.0625 39.984375 
L 79 39.984375 
Q 78.515625 23.390625 77.546875 7.5625 
Q 76.375 -10.6875 60.25 -10.59375 
Q 52.34375 -10.6875 43.5625 -10.109375 
Q 42.96875 -6 42.1875 -1.8125 
Q 49.703125 -2.875 58.984375 -2.984375 
Q 68.75 -3.171875 69.734375 8.453125 
Q 70.515625 19 70.90625 32.765625 
L 40.875 32.765625 
Q 39.703125 16.453125 34.078125 6.5 
Q 26.65625 -6.59375 9.1875 -13.71875 
Q 6.640625 -10.40625 3.609375 -7.171875 
Q 19.828125 -1.125 26.953125 10.40625 
Q 32.078125 19.140625 32.859375 32.765625 
L 14.0625 32.765625 
z
M 54.5 80.609375 
L 61.53125 83.640625 
Q 72.265625 57.46875 99.21875 44.484375 
Q 94.828125 39.890625 92.875 37.0625 
Q 66.015625 52.59375 54.5 80.609375 
z
M 0.78125 43.21875 
Q 20.90625 57.46875 35.15625 82.078125 
L 42.09375 78.265625 
Q 27.25 52.296875 6.453125 36.578125 
Q 4.390625 39.59375 0.78125 43.21875 
z
" id="MicrosoftYaHei-20998"/>
     <path d="M 50.78125 57.28125 
L 58.59375 57.28125 
L 58.59375 42.234375 
L 88.765625 42.234375 
L 88.765625 8.453125 
Q 88.765625 -3.078125 78.90625 -3.078125 
Q 76.375 -3.078125 64.359375 -2.984375 
Q 63.765625 0.25 62.796875 4.9375 
Q 72.5625 4.34375 74.515625 4.34375 
Q 81.0625 4.15625 81.0625 10.40625 
L 81.0625 35.203125 
L 58.59375 35.203125 
L 58.59375 -12.9375 
L 50.78125 -12.9375 
L 50.78125 35.203125 
L 28.8125 35.203125 
L 28.8125 -5.515625 
L 21.09375 -5.515625 
L 21.09375 33.015625 
Q 14.5 24.265625 7.03125 16.0625 
Q 4.59375 19.578125 1.46875 22.609375 
Q 19.390625 41.359375 30.765625 62.25 
L 3.125 62.25 
L 3.125 69.28125 
L 34.375 69.28125 
Q 37.796875 76.3125 40.53125 83.640625 
L 48.25 80.515625 
Q 45.84375 74.8125 43.21875 69.28125 
L 97.65625 69.28125 
L 97.65625 62.25 
L 39.65625 62.25 
Q 34.1875 51.953125 27.6875 42.234375 
L 50.78125 42.234375 
z
" id="MicrosoftYaHei-24067"/>
    </defs>
    <g transform="translate(338.314312 23.3154)scale(0.2016 -0.2016)">
     <use xlink:href="#MicrosoftYaHei-24215"/>
     <use x="100" xlink:href="#MicrosoftYaHei-38138"/>
     <use x="200" xlink:href="#MicrosoftYaHei-30340"/>
     <use x="300" xlink:href="#MicrosoftYaHei-35780"/>
     <use x="400" xlink:href="#MicrosoftYaHei-20215"/>
     <use x="500" xlink:href="#MicrosoftYaHei-25968"/>
     <use x="600" xlink:href="#MicrosoftYaHei-37327"/>
     <use x="700" xlink:href="#MicrosoftYaHei-31561"/>
     <use x="800" xlink:href="#MicrosoftYaHei-32423"/>
     <use x="900" xlink:href="#MicrosoftYaHei-20998"/>
     <use x="1000" xlink:href="#MicrosoftYaHei-24067"/>
    </g>
   </g>
  </g>
  <g id="axes_2">
   <g id="patch_32">
    <path d="M 73.354313 729.1554 
L 825.034312 729.1554 
L 825.034312 411.046309 
L 73.354313 411.046309 
z
" style="fill:#f0f0f0;"/>
   </g>
   <g id="matplotlib.axis_3">
    <g id="xtick_26">
     <g id="line2d_44"/>
     <g id="text_38">
      <!-- 4999 -->
      <g transform="translate(74.018574 743.84665)scale(0.14 -0.14)">
       <use xlink:href="#MicrosoftYaHei-52"/>
       <use x="58.642578" xlink:href="#MicrosoftYaHei-57"/>
       <use x="117.285156" xlink:href="#MicrosoftYaHei-57"/>
       <use x="175.927734" xlink:href="#MicrosoftYaHei-57"/>
      </g>
     </g>
    </g>
    <g id="xtick_27">
     <g id="line2d_45"/>
     <g id="text_39">
      <!-- 5000 -->
      <g transform="translate(108.185847 743.84665)scale(0.14 -0.14)">
       <use xlink:href="#MicrosoftYaHei-53"/>
       <use x="58.642578" xlink:href="#MicrosoftYaHei-48"/>
       <use x="117.285156" xlink:href="#MicrosoftYaHei-48"/>
       <use x="175.927734" xlink:href="#MicrosoftYaHei-48"/>
      </g>
     </g>
    </g>
    <g id="xtick_28">
     <g id="line2d_46"/>
     <g id="text_40">
      <!-- 5001 -->
      <g transform="translate(142.353119 743.84665)scale(0.14 -0.14)">
       <use xlink:href="#MicrosoftYaHei-53"/>
       <use x="58.642578" xlink:href="#MicrosoftYaHei-48"/>
       <use x="117.285156" xlink:href="#MicrosoftYaHei-48"/>
       <use x="175.927734" xlink:href="#MicrosoftYaHei-49"/>
      </g>
     </g>
    </g>
    <g id="xtick_29">
     <g id="line2d_47"/>
     <g id="text_41">
      <!-- 5002 -->
      <g transform="translate(176.520392 743.84665)scale(0.14 -0.14)">
       <use xlink:href="#MicrosoftYaHei-53"/>
       <use x="58.642578" xlink:href="#MicrosoftYaHei-48"/>
       <use x="117.285156" xlink:href="#MicrosoftYaHei-48"/>
       <use x="175.927734" xlink:href="#MicrosoftYaHei-50"/>
      </g>
     </g>
    </g>
    <g id="xtick_30">
     <g id="line2d_48"/>
     <g id="text_42">
      <!-- 5003 -->
      <g transform="translate(210.687665 743.84665)scale(0.14 -0.14)">
       <use xlink:href="#MicrosoftYaHei-53"/>
       <use x="58.642578" xlink:href="#MicrosoftYaHei-48"/>
       <use x="117.285156" xlink:href="#MicrosoftYaHei-48"/>
       <use x="175.927734" xlink:href="#MicrosoftYaHei-51"/>
      </g>
     </g>
    </g>
    <g id="xtick_31">
     <g id="line2d_49"/>
     <g id="text_43">
      <!-- 5004 -->
      <g transform="translate(244.854937 743.84665)scale(0.14 -0.14)">
       <use xlink:href="#MicrosoftYaHei-53"/>
       <use x="58.642578" xlink:href="#MicrosoftYaHei-48"/>
       <use x="117.285156" xlink:href="#MicrosoftYaHei-48"/>
       <use x="175.927734" xlink:href="#MicrosoftYaHei-52"/>
      </g>
     </g>
    </g>
    <g id="xtick_32">
     <g id="line2d_50"/>
     <g id="text_44">
      <!-- 5005 -->
      <g transform="translate(279.02221 743.84665)scale(0.14 -0.14)">
       <use xlink:href="#MicrosoftYaHei-53"/>
       <use x="58.642578" xlink:href="#MicrosoftYaHei-48"/>
       <use x="117.285156" xlink:href="#MicrosoftYaHei-48"/>
       <use x="175.927734" xlink:href="#MicrosoftYaHei-53"/>
      </g>
     </g>
    </g>
    <g id="xtick_33">
     <g id="line2d_51"/>
     <g id="text_45">
      <!-- 5006 -->
      <g transform="translate(313.189483 743.84665)scale(0.14 -0.14)">
       <use xlink:href="#MicrosoftYaHei-53"/>
       <use x="58.642578" xlink:href="#MicrosoftYaHei-48"/>
       <use x="117.285156" xlink:href="#MicrosoftYaHei-48"/>
       <use x="175.927734" xlink:href="#MicrosoftYaHei-54"/>
      </g>
     </g>
    </g>
    <g id="xtick_34">
     <g id="line2d_52"/>
     <g id="text_46">
      <!-- 5007 -->
      <g transform="translate(347.356756 743.84665)scale(0.14 -0.14)">
       <use xlink:href="#MicrosoftYaHei-53"/>
       <use x="58.642578" xlink:href="#MicrosoftYaHei-48"/>
       <use x="117.285156" xlink:href="#MicrosoftYaHei-48"/>
       <use x="175.927734" xlink:href="#MicrosoftYaHei-55"/>
      </g>
     </g>
    </g>
    <g id="xtick_35">
     <g id="line2d_53"/>
     <g id="text_47">
      <!-- 5008 -->
      <g transform="translate(381.524028 743.84665)scale(0.14 -0.14)">
       <use xlink:href="#MicrosoftYaHei-53"/>
       <use x="58.642578" xlink:href="#MicrosoftYaHei-48"/>
       <use x="117.285156" xlink:href="#MicrosoftYaHei-48"/>
       <use x="175.927734" xlink:href="#MicrosoftYaHei-56"/>
      </g>
     </g>
    </g>
    <g id="xtick_36">
     <g id="line2d_54"/>
     <g id="text_48">
      <!-- 5009 -->
      <g transform="translate(415.691301 743.84665)scale(0.14 -0.14)">
       <use xlink:href="#MicrosoftYaHei-53"/>
       <use x="58.642578" xlink:href="#MicrosoftYaHei-48"/>
       <use x="117.285156" xlink:href="#MicrosoftYaHei-48"/>
       <use x="175.927734" xlink:href="#MicrosoftYaHei-57"/>
      </g>
     </g>
    </g>
    <g id="xtick_37">
     <g id="line2d_55"/>
     <g id="text_49">
      <!-- 5010 -->
      <g transform="translate(449.858574 743.84665)scale(0.14 -0.14)">
       <use xlink:href="#MicrosoftYaHei-53"/>
       <use x="58.642578" xlink:href="#MicrosoftYaHei-48"/>
       <use x="117.285156" xlink:href="#MicrosoftYaHei-49"/>
       <use x="175.927734" xlink:href="#MicrosoftYaHei-48"/>
      </g>
     </g>
    </g>
    <g id="xtick_38">
     <g id="line2d_56"/>
     <g id="text_50">
      <!-- 5011 -->
      <g transform="translate(484.025847 743.84665)scale(0.14 -0.14)">
       <use xlink:href="#MicrosoftYaHei-53"/>
       <use x="58.642578" xlink:href="#MicrosoftYaHei-48"/>
       <use x="117.285156" xlink:href="#MicrosoftYaHei-49"/>
       <use x="175.927734" xlink:href="#MicrosoftYaHei-49"/>
      </g>
     </g>
    </g>
    <g id="xtick_39">
     <g id="line2d_57"/>
     <g id="text_51">
      <!-- 5012 -->
      <g transform="translate(518.193119 743.84665)scale(0.14 -0.14)">
       <use xlink:href="#MicrosoftYaHei-53"/>
       <use x="58.642578" xlink:href="#MicrosoftYaHei-48"/>
       <use x="117.285156" xlink:href="#MicrosoftYaHei-49"/>
       <use x="175.927734" xlink:href="#MicrosoftYaHei-50"/>
      </g>
     </g>
    </g>
    <g id="xtick_40">
     <g id="line2d_58"/>
     <g id="text_52">
      <!-- 5013 -->
      <g transform="translate(552.360392 743.84665)scale(0.14 -0.14)">
       <use xlink:href="#MicrosoftYaHei-53"/>
       <use x="58.642578" xlink:href="#MicrosoftYaHei-48"/>
       <use x="117.285156" xlink:href="#MicrosoftYaHei-49"/>
       <use x="175.927734" xlink:href="#MicrosoftYaHei-51"/>
      </g>
     </g>
    </g>
    <g id="xtick_41">
     <g id="line2d_59"/>
     <g id="text_53">
      <!-- 5014 -->
      <g transform="translate(586.527665 743.84665)scale(0.14 -0.14)">
       <use xlink:href="#MicrosoftYaHei-53"/>
       <use x="58.642578" xlink:href="#MicrosoftYaHei-48"/>
       <use x="117.285156" xlink:href="#MicrosoftYaHei-49"/>
       <use x="175.927734" xlink:href="#MicrosoftYaHei-52"/>
      </g>
     </g>
    </g>
    <g id="xtick_42">
     <g id="line2d_60"/>
     <g id="text_54">
      <!-- 5015 -->
      <g transform="translate(620.694937 743.84665)scale(0.14 -0.14)">
       <use xlink:href="#MicrosoftYaHei-53"/>
       <use x="58.642578" xlink:href="#MicrosoftYaHei-48"/>
       <use x="117.285156" xlink:href="#MicrosoftYaHei-49"/>
       <use x="175.927734" xlink:href="#MicrosoftYaHei-53"/>
      </g>
     </g>
    </g>
    <g id="xtick_43">
     <g id="line2d_61"/>
     <g id="text_55">
      <!-- 5016 -->
      <g transform="translate(654.86221 743.84665)scale(0.14 -0.14)">
       <use xlink:href="#MicrosoftYaHei-53"/>
       <use x="58.642578" xlink:href="#MicrosoftYaHei-48"/>
       <use x="117.285156" xlink:href="#MicrosoftYaHei-49"/>
       <use x="175.927734" xlink:href="#MicrosoftYaHei-54"/>
      </g>
     </g>
    </g>
    <g id="xtick_44">
     <g id="line2d_62"/>
     <g id="text_56">
      <!-- 5017 -->
      <g transform="translate(689.029483 743.84665)scale(0.14 -0.14)">
       <use xlink:href="#MicrosoftYaHei-53"/>
       <use x="58.642578" xlink:href="#MicrosoftYaHei-48"/>
       <use x="117.285156" xlink:href="#MicrosoftYaHei-49"/>
       <use x="175.927734" xlink:href="#MicrosoftYaHei-55"/>
      </g>
     </g>
    </g>
    <g id="xtick_45">
     <g id="line2d_63"/>
     <g id="text_57">
      <!-- 5018 -->
      <g transform="translate(723.196756 743.84665)scale(0.14 -0.14)">
       <use xlink:href="#MicrosoftYaHei-53"/>
       <use x="58.642578" xlink:href="#MicrosoftYaHei-48"/>
       <use x="117.285156" xlink:href="#MicrosoftYaHei-49"/>
       <use x="175.927734" xlink:href="#MicrosoftYaHei-56"/>
      </g>
     </g>
    </g>
    <g id="xtick_46">
     <g id="line2d_64"/>
     <g id="text_58">
      <!-- 5019 -->
      <g transform="translate(757.364028 743.84665)scale(0.14 -0.14)">
       <use xlink:href="#MicrosoftYaHei-53"/>
       <use x="58.642578" xlink:href="#MicrosoftYaHei-48"/>
       <use x="117.285156" xlink:href="#MicrosoftYaHei-49"/>
       <use x="175.927734" xlink:href="#MicrosoftYaHei-57"/>
      </g>
     </g>
    </g>
    <g id="xtick_47">
     <g id="line2d_65"/>
     <g id="text_59">
      <!-- 5020 -->
      <g transform="translate(791.531301 743.84665)scale(0.14 -0.14)">
       <use xlink:href="#MicrosoftYaHei-53"/>
       <use x="58.642578" xlink:href="#MicrosoftYaHei-48"/>
       <use x="117.285156" xlink:href="#MicrosoftYaHei-50"/>
       <use x="175.927734" xlink:href="#MicrosoftYaHei-48"/>
      </g>
     </g>
    </g>
    <g id="text_60">
     <!-- shop_star_level -->
     <defs>
      <path d="M 9.8125 50.25 
Q 17.875 55.28125 28.421875 55.28125 
Q 47.953125 55.28125 47.953125 34.765625 
L 47.953125 0 
L 38.484375 0 
L 38.484375 8.34375 
L 38.234375 8.34375 
Q 32.625 -1.265625 21.6875 -1.265625 
Q 13.8125 -1.265625 9.171875 2.984375 
Q 4.546875 7.234375 4.546875 14.453125 
Q 4.546875 29.59375 22.46875 32.078125 
L 38.484375 34.328125 
Q 38.484375 47.5625 27.546875 47.5625 
Q 17.828125 47.5625 9.8125 41.015625 
z
M 25.828125 25.390625 
Q 19.1875 24.515625 16.671875 22.0625 
Q 14.15625 19.625 14.15625 15.234375 
Q 14.15625 11.375 16.890625 8.9375 
Q 19.625 6.5 24.125 6.5 
Q 30.375 6.5 34.421875 10.890625 
Q 38.484375 15.28125 38.484375 21.921875 
L 38.484375 27.09375 
z
" id="MicrosoftYaHei-97"/>
     </defs>
     <g transform="translate(388.615875 764.756462)scale(0.168 -0.168)">
      <use xlink:href="#MicrosoftYaHei-115"/>
      <use x="46.289062" xlink:href="#MicrosoftYaHei-104"/>
      <use x="107.861328" xlink:href="#MicrosoftYaHei-111"/>
      <use x="171.435547" xlink:href="#MicrosoftYaHei-112"/>
      <use x="235.302734" xlink:href="#MicrosoftYaHei-95"/>
      <use x="280.126953" xlink:href="#MicrosoftYaHei-115"/>
      <use x="326.416016" xlink:href="#MicrosoftYaHei-116"/>
      <use x="363.671875" xlink:href="#MicrosoftYaHei-97"/>
      <use x="418.945312" xlink:href="#MicrosoftYaHei-114"/>
      <use x="457.128906" xlink:href="#MicrosoftYaHei-95"/>
      <use x="501.953125" xlink:href="#MicrosoftYaHei-108"/>
      <use x="528.564453" xlink:href="#MicrosoftYaHei-101"/>
      <use x="585.302734" xlink:href="#MicrosoftYaHei-118"/>
      <use x="637.792969" xlink:href="#MicrosoftYaHei-101"/>
      <use x="694.53125" xlink:href="#MicrosoftYaHei-108"/>
     </g>
    </g>
   </g>
   <g id="matplotlib.axis_4">
    <g id="ytick_10">
     <g id="line2d_66">
      <path clip-path="url(#pdab0e294d8)" d="M 73.354313 729.1554 
L 825.034312 729.1554 
" style="fill:none;stroke:#cbcbcb;"/>
     </g>
     <g id="line2d_67"/>
     <g id="text_61">
      <!-- 0 -->
      <g transform="translate(61.644625 734.751025)scale(0.14 -0.14)">
       <use xlink:href="#MicrosoftYaHei-48"/>
      </g>
     </g>
    </g>
    <g id="ytick_11">
     <g id="line2d_68">
      <path clip-path="url(#pdab0e294d8)" d="M 73.354313 692.492399 
L 825.034312 692.492399 
" style="fill:none;stroke:#cbcbcb;"/>
     </g>
     <g id="line2d_69"/>
     <g id="text_62">
      <!-- 10000 -->
      <g transform="translate(28.805875 698.088024)scale(0.14 -0.14)">
       <use xlink:href="#MicrosoftYaHei-49"/>
       <use x="58.642578" xlink:href="#MicrosoftYaHei-48"/>
       <use x="117.285156" xlink:href="#MicrosoftYaHei-48"/>
       <use x="175.927734" xlink:href="#MicrosoftYaHei-48"/>
       <use x="234.570312" xlink:href="#MicrosoftYaHei-48"/>
      </g>
     </g>
    </g>
    <g id="ytick_12">
     <g id="line2d_70">
      <path clip-path="url(#pdab0e294d8)" d="M 73.354313 655.829399 
L 825.034312 655.829399 
" style="fill:none;stroke:#cbcbcb;"/>
     </g>
     <g id="line2d_71"/>
     <g id="text_63">
      <!-- 20000 -->
      <g transform="translate(28.805875 661.425024)scale(0.14 -0.14)">
       <use xlink:href="#MicrosoftYaHei-50"/>
       <use x="58.642578" xlink:href="#MicrosoftYaHei-48"/>
       <use x="117.285156" xlink:href="#MicrosoftYaHei-48"/>
       <use x="175.927734" xlink:href="#MicrosoftYaHei-48"/>
       <use x="234.570312" xlink:href="#MicrosoftYaHei-48"/>
      </g>
     </g>
    </g>
    <g id="ytick_13">
     <g id="line2d_72">
      <path clip-path="url(#pdab0e294d8)" d="M 73.354313 619.166398 
L 825.034312 619.166398 
" style="fill:none;stroke:#cbcbcb;"/>
     </g>
     <g id="line2d_73"/>
     <g id="text_64">
      <!-- 30000 -->
      <g transform="translate(28.805875 624.762023)scale(0.14 -0.14)">
       <use xlink:href="#MicrosoftYaHei-51"/>
       <use x="58.642578" xlink:href="#MicrosoftYaHei-48"/>
       <use x="117.285156" xlink:href="#MicrosoftYaHei-48"/>
       <use x="175.927734" xlink:href="#MicrosoftYaHei-48"/>
       <use x="234.570312" xlink:href="#MicrosoftYaHei-48"/>
      </g>
     </g>
    </g>
    <g id="ytick_14">
     <g id="line2d_74">
      <path clip-path="url(#pdab0e294d8)" d="M 73.354313 582.503398 
L 825.034312 582.503398 
" style="fill:none;stroke:#cbcbcb;"/>
     </g>
     <g id="line2d_75"/>
     <g id="text_65">
      <!-- 40000 -->
      <g transform="translate(28.805875 588.099023)scale(0.14 -0.14)">
       <use xlink:href="#MicrosoftYaHei-52"/>
       <use x="58.642578" xlink:href="#MicrosoftYaHei-48"/>
       <use x="117.285156" xlink:href="#MicrosoftYaHei-48"/>
       <use x="175.927734" xlink:href="#MicrosoftYaHei-48"/>
       <use x="234.570312" xlink:href="#MicrosoftYaHei-48"/>
      </g>
     </g>
    </g>
    <g id="ytick_15">
     <g id="line2d_76">
      <path clip-path="url(#pdab0e294d8)" d="M 73.354313 545.840397 
L 825.034312 545.840397 
" style="fill:none;stroke:#cbcbcb;"/>
     </g>
     <g id="line2d_77"/>
     <g id="text_66">
      <!-- 50000 -->
      <g transform="translate(28.805875 551.436022)scale(0.14 -0.14)">
       <use xlink:href="#MicrosoftYaHei-53"/>
       <use x="58.642578" xlink:href="#MicrosoftYaHei-48"/>
       <use x="117.285156" xlink:href="#MicrosoftYaHei-48"/>
       <use x="175.927734" xlink:href="#MicrosoftYaHei-48"/>
       <use x="234.570312" xlink:href="#MicrosoftYaHei-48"/>
      </g>
     </g>
    </g>
    <g id="ytick_16">
     <g id="line2d_78">
      <path clip-path="url(#pdab0e294d8)" d="M 73.354313 509.177397 
L 825.034312 509.177397 
" style="fill:none;stroke:#cbcbcb;"/>
     </g>
     <g id="line2d_79"/>
     <g id="text_67">
      <!-- 60000 -->
      <g transform="translate(28.805875 514.773022)scale(0.14 -0.14)">
       <use xlink:href="#MicrosoftYaHei-54"/>
       <use x="58.642578" xlink:href="#MicrosoftYaHei-48"/>
       <use x="117.285156" xlink:href="#MicrosoftYaHei-48"/>
       <use x="175.927734" xlink:href="#MicrosoftYaHei-48"/>
       <use x="234.570312" xlink:href="#MicrosoftYaHei-48"/>
      </g>
     </g>
    </g>
    <g id="ytick_17">
     <g id="line2d_80">
      <path clip-path="url(#pdab0e294d8)" d="M 73.354313 472.514396 
L 825.034312 472.514396 
" style="fill:none;stroke:#cbcbcb;"/>
     </g>
     <g id="line2d_81"/>
     <g id="text_68">
      <!-- 70000 -->
      <g transform="translate(28.805875 478.110021)scale(0.14 -0.14)">
       <use xlink:href="#MicrosoftYaHei-55"/>
       <use x="58.642578" xlink:href="#MicrosoftYaHei-48"/>
       <use x="117.285156" xlink:href="#MicrosoftYaHei-48"/>
       <use x="175.927734" xlink:href="#MicrosoftYaHei-48"/>
       <use x="234.570312" xlink:href="#MicrosoftYaHei-48"/>
      </g>
     </g>
    </g>
    <g id="ytick_18">
     <g id="line2d_82">
      <path clip-path="url(#pdab0e294d8)" d="M 73.354313 435.851395 
L 825.034312 435.851395 
" style="fill:none;stroke:#cbcbcb;"/>
     </g>
     <g id="line2d_83"/>
     <g id="text_69">
      <!-- 80000 -->
      <g transform="translate(28.805875 441.44702)scale(0.14 -0.14)">
       <use xlink:href="#MicrosoftYaHei-56"/>
       <use x="58.642578" xlink:href="#MicrosoftYaHei-48"/>
       <use x="117.285156" xlink:href="#MicrosoftYaHei-48"/>
       <use x="175.927734" xlink:href="#MicrosoftYaHei-48"/>
       <use x="234.570312" xlink:href="#MicrosoftYaHei-48"/>
      </g>
     </g>
    </g>
    <g id="text_70">
     <!-- count -->
     <g transform="translate(20.6295 593.13523)rotate(-90)scale(0.168 -0.168)">
      <use xlink:href="#MicrosoftYaHei-99"/>
      <use x="50.146484" xlink:href="#MicrosoftYaHei-111"/>
      <use x="113.720703" xlink:href="#MicrosoftYaHei-117"/>
      <use x="175.341797" xlink:href="#MicrosoftYaHei-110"/>
      <use x="236.962891" xlink:href="#MicrosoftYaHei-116"/>
     </g>
    </g>
   </g>
   <g id="patch_33">
    <path clip-path="url(#pdab0e294d8)" d="M 76.77104 729.1554 
L 104.104858 729.1554 
L 104.104858 729.129736 
L 76.77104 729.129736 
z
" style="fill:#ea96a3;"/>
   </g>
   <g id="patch_34">
    <path clip-path="url(#pdab0e294d8)" d="M 110.938312 729.1554 
L 138.272131 729.1554 
L 138.272131 728.85843 
L 110.938312 728.85843 
z
" style="fill:#e89687;"/>
   </g>
   <g id="patch_35">
    <path clip-path="url(#pdab0e294d8)" d="M 145.105585 729.1554 
L 172.439403 729.1554 
L 172.439403 728.935422 
L 145.105585 728.935422 
z
" style="fill:#dc924e;"/>
   </g>
   <g id="patch_36">
    <path clip-path="url(#pdab0e294d8)" d="M 179.272858 729.1554 
L 206.606676 729.1554 
L 206.606676 727.406575 
L 179.272858 727.406575 
z
" style="fill:#c5994b;"/>
   </g>
   <g id="patch_37">
    <path clip-path="url(#pdab0e294d8)" d="M 213.440131 729.1554 
L 240.773949 729.1554 
L 240.773949 724.51753 
L 213.440131 724.51753 
z
" style="fill:#b39d48;"/>
   </g>
   <g id="patch_38">
    <path clip-path="url(#pdab0e294d8)" d="M 247.607403 729.1554 
L 274.941222 729.1554 
L 274.941222 725.991383 
L 247.607403 725.991383 
z
" style="fill:#a09f45;"/>
   </g>
   <g id="patch_39">
    <path clip-path="url(#pdab0e294d8)" d="M 281.774676 729.1554 
L 309.108494 729.1554 
L 309.108494 723.806268 
L 281.774676 723.806268 
z
" style="fill:#8ea546;"/>
   </g>
   <g id="patch_40">
    <path clip-path="url(#pdab0e294d8)" d="M 315.941949 729.1554 
L 343.275767 729.1554 
L 343.275767 717.844864 
L 315.941949 717.844864 
z
" style="fill:#71ac47;"/>
   </g>
   <g id="patch_41">
    <path clip-path="url(#pdab0e294d8)" d="M 350.109222 729.1554 
L 377.44304 729.1554 
L 377.44304 708.994416 
L 350.109222 708.994416 
z
" style="fill:#48b067;"/>
   </g>
   <g id="patch_42">
    <path clip-path="url(#pdab0e294d8)" d="M 384.276494 729.1554 
L 411.610312 729.1554 
L 411.610312 698.068842 
L 384.276494 698.068842 
z
" style="fill:#49ae87;"/>
   </g>
   <g id="patch_43">
    <path clip-path="url(#pdab0e294d8)" d="M 418.443767 729.1554 
L 445.777585 729.1554 
L 445.777585 662.483733 
L 418.443767 662.483733 
z
" style="fill:#4aac98;"/>
   </g>
   <g id="patch_44">
    <path clip-path="url(#pdab0e294d8)" d="M 452.61104 729.1554 
L 479.944858 729.1554 
L 479.944858 639.397042 
L 452.61104 639.397042 
z
" style="fill:#4baba4;"/>
   </g>
   <g id="patch_45">
    <path clip-path="url(#pdab0e294d8)" d="M 486.778312 729.1554 
L 514.112131 729.1554 
L 514.112131 603.217993 
L 486.778312 603.217993 
z
" style="fill:#4dabb0;"/>
   </g>
   <g id="patch_46">
    <path clip-path="url(#pdab0e294d8)" d="M 520.945585 729.1554 
L 548.279403 729.1554 
L 548.279403 459.319382 
L 520.945585 459.319382 
z
" style="fill:#50acbf;"/>
   </g>
   <g id="patch_47">
    <path clip-path="url(#pdab0e294d8)" d="M 555.112858 729.1554 
L 582.446676 729.1554 
L 582.446676 426.194361 
L 555.112858 426.194361 
z
" style="fill:#54acd3;"/>
   </g>
   <g id="patch_48">
    <path clip-path="url(#pdab0e294d8)" d="M 589.280131 729.1554 
L 616.613949 729.1554 
L 616.613949 430.036643 
L 589.280131 430.036643 
z
" style="fill:#82aee5;"/>
   </g>
   <g id="patch_49">
    <path clip-path="url(#pdab0e294d8)" d="M 623.447403 729.1554 
L 650.781222 729.1554 
L 650.781222 457.911523 
L 623.447403 457.911523 
z
" style="fill:#a9aceb;"/>
   </g>
   <g id="patch_50">
    <path clip-path="url(#pdab0e294d8)" d="M 657.614676 729.1554 
L 684.948494 729.1554 
L 684.948494 658.641451 
L 657.614676 658.641451 
z
" style="fill:#c1a2ea;"/>
   </g>
   <g id="patch_51">
    <path clip-path="url(#pdab0e294d8)" d="M 691.781949 729.1554 
L 719.115767 729.1554 
L 719.115767 643.961586 
L 691.781949 643.961586 
z
" style="fill:#d795e8;"/>
   </g>
   <g id="patch_52">
    <path clip-path="url(#pdab0e294d8)" d="M 725.949222 729.1554 
L 753.28304 729.1554 
L 753.28304 637.233925 
L 725.949222 637.233925 
z
" style="fill:#e78bdd;"/>
   </g>
   <g id="patch_53">
    <path clip-path="url(#pdab0e294d8)" d="M 760.116494 729.1554 
L 787.450312 729.1554 
L 787.450312 728.898759 
L 760.116494 728.898759 
z
" style="fill:#e88fc9;"/>
   </g>
   <g id="patch_54">
    <path clip-path="url(#pdab0e294d8)" d="M 794.283767 729.1554 
L 821.617585 729.1554 
L 821.617585 727.846531 
L 794.283767 727.846531 
z
" style="fill:#e993b7;"/>
   </g>
   <g id="patch_55">
    <path d="M 73.354313 729.1554 
L 73.354313 411.046309 
" style="fill:none;stroke:#f0f0f0;stroke-linecap:square;stroke-linejoin:miter;stroke-width:3;"/>
   </g>
   <g id="patch_56">
    <path d="M 825.034312 729.1554 
L 825.034312 411.046309 
" style="fill:none;stroke:#f0f0f0;stroke-linecap:square;stroke-linejoin:miter;stroke-width:3;"/>
   </g>
   <g id="patch_57">
    <path d="M 73.354313 729.1554 
L 825.034312 729.1554 
" style="fill:none;stroke:#f0f0f0;stroke-linecap:square;stroke-linejoin:miter;stroke-width:3;"/>
   </g>
   <g id="patch_58">
    <path d="M 73.354313 411.046309 
L 825.034312 411.046309 
" style="fill:none;stroke:#f0f0f0;stroke-linecap:square;stroke-linejoin:miter;stroke-width:3;"/>
   </g>
   <g id="text_71">
    <!-- 店铺的星级编号分布 -->
    <defs>
     <path d="M 14.0625 78.859375 
L 87.5 78.859375 
L 87.5 37.84375 
L 80.078125 37.84375 
L 80.078125 41.265625 
L 14.0625 41.265625 
z
M 4.296875 -2.203125 
L 48.640625 -2.203125 
L 48.640625 7.375 
L 16.796875 7.375 
L 16.796875 14.40625 
L 48.640625 14.40625 
L 48.640625 23.390625 
L 20.21875 23.390625 
Q 14.5 15.046875 7.90625 8.0625 
Q 5.5625 10.6875 2.25 13.8125 
Q 13.484375 24.953125 20.90625 39.796875 
L 28.328125 36.671875 
Q 26.5625 33.453125 24.75 30.421875 
L 48.640625 30.421875 
L 48.640625 39.109375 
L 56.453125 39.109375 
L 56.453125 30.421875 
L 93.171875 30.421875 
L 93.171875 23.390625 
L 56.453125 23.390625 
L 56.453125 14.40625 
L 90.53125 14.40625 
L 90.53125 7.375 
L 56.453125 7.375 
L 56.453125 -2.203125 
L 97.65625 -2.203125 
L 97.65625 -9.234375 
L 4.296875 -9.234375 
z
M 21.484375 48.09375 
L 80.078125 48.09375 
L 80.078125 56.78125 
L 21.484375 56.78125 
z
M 80.078125 72.015625 
L 21.484375 72.015625 
L 21.484375 63.421875 
L 80.078125 63.421875 
z
" id="MicrosoftYaHei-26143"/>
     <path d="M 49.125 -12.453125 
L 42.875 -12.453125 
L 42.875 39.59375 
L 94.53125 39.59375 
L 94.53125 -3.5625 
Q 94.53125 -12.0625 86.921875 -12.0625 
Q 81.546875 -12.25 78.421875 -12.25 
Q 78.03125 -9.515625 77.390625 -7.171875 
L 72.859375 -7.171875 
L 72.859375 12.546875 
L 63.96875 12.546875 
L 63.96875 -7.5625 
L 58.015625 -7.5625 
L 58.015625 12.546875 
L 49.125 12.546875 
z
M 1.171875 5.515625 
Q 13.09375 7.125 29.296875 9.625 
Q 33.203125 22.5625 33.203125 41.546875 
L 33.203125 73.1875 
L 60.6875 73.1875 
Q 58.40625 77.296875 56.34375 80.421875 
L 63.765625 83.84375 
Q 66.546875 79.390625 70.015625 73.1875 
L 93.0625 73.1875 
L 93.0625 46.4375 
L 86.421875 46.4375 
L 86.421875 49.5625 
L 39.84375 49.5625 
L 39.84375 41.453125 
Q 39.84375 3.765625 25.484375 -13.03125 
Q 23.4375 -10.015625 20.703125 -6.984375 
Q 24.3125 -2.734375 26.859375 3.078125 
Q 11.859375 0.046875 2.9375 -1.90625 
z
M 12.703125 25.53125 
Q 17.28125 25.734375 29.59375 26.90625 
Q 29.109375 22.796875 28.8125 20.5625 
Q 9.671875 18.890625 4.5 18.109375 
L 3.125 24.265625 
Q 8.109375 29.25 16.109375 44.234375 
Q 8.640625 43.65625 3.125 43.109375 
L 1.265625 49.265625 
Q 10.640625 64.203125 17.78125 82.859375 
L 25.390625 80.125 
Q 17.1875 62.640625 9.578125 49.859375 
Q 12.75 49.859375 19.09375 50 
Q 21.6875 55.03125 24.515625 60.984375 
L 31.546875 57.859375 
Q 19.046875 35.296875 12.703125 25.53125 
z
M 86.421875 66.9375 
L 39.84375 66.9375 
L 39.84375 55.8125 
L 86.421875 55.8125 
z
M 84.1875 -5.90625 
Q 87.984375 -5.90625 87.984375 -1.703125 
L 87.984375 12.546875 
L 78.8125 12.546875 
L 78.8125 -5.765625 
Q 81.296875 -5.90625 84.1875 -5.90625 
z
M 87.984375 33.34375 
L 78.8125 33.34375 
L 78.8125 18.5 
L 87.984375 18.5 
z
M 63.96875 18.5 
L 72.859375 18.5 
L 72.859375 33.34375 
L 63.96875 33.34375 
z
M 49.125 18.5 
L 58.015625 18.5 
L 58.015625 33.34375 
L 49.125 33.34375 
z
" id="MicrosoftYaHei-32534"/>
     <path d="M 16.796875 78.5625 
L 83.109375 78.5625 
L 83.109375 46.34375 
L 75.390625 46.34375 
L 75.390625 50.34375 
L 24.515625 50.34375 
L 24.515625 45.84375 
L 16.796875 45.84375 
z
M 18.65625 16.453125 
L 18.65625 23.578125 
L 22.90625 33.640625 
L 1.65625 33.640625 
L 1.65625 40.765625 
L 98.4375 40.765625 
L 98.4375 33.640625 
L 30.953125 33.640625 
L 26.765625 23.484375 
L 85.0625 23.484375 
Q 83.890625 12.15625 82.8125 4.9375 
Q 80.46875 -10.984375 64.453125 -10.984375 
Q 53.21875 -10.984375 40.4375 -10.59375 
Q 39.84375 -7.28125 38.765625 -2.09375 
Q 52.734375 -3.265625 63.09375 -3.265625 
Q 73.640625 -3.265625 75 6.203125 
Q 75.6875 10.109375 76.375 16.453125 
z
M 75.390625 71.53125 
L 24.515625 71.53125 
L 24.515625 57.375 
L 75.390625 57.375 
z
" id="MicrosoftYaHei-21495"/>
    </defs>
    <g transform="translate(358.474312 405.046309)scale(0.2016 -0.2016)">
     <use xlink:href="#MicrosoftYaHei-24215"/>
     <use x="100" xlink:href="#MicrosoftYaHei-38138"/>
     <use x="200" xlink:href="#MicrosoftYaHei-30340"/>
     <use x="300" xlink:href="#MicrosoftYaHei-26143"/>
     <use x="400" xlink:href="#MicrosoftYaHei-32423"/>
     <use x="500" xlink:href="#MicrosoftYaHei-32534"/>
     <use x="600" xlink:href="#MicrosoftYaHei-21495"/>
     <use x="700" xlink:href="#MicrosoftYaHei-20998"/>
     <use x="800" xlink:href="#MicrosoftYaHei-24067"/>
    </g>
   </g>
  </g>
 </g>
 <defs>
  <clipPath id="p6f81c605c9">
   <rect height="318.109091" width="751.68" x="73.354313" y="29.3154"/>
  </clipPath>
  <clipPath id="pdab0e294d8">
   <rect height="318.109091" width="751.68" x="73.354313" y="411.046309"/>
  </clipPath>
 </defs>
</svg>
