<?xml version="1.0" encoding="utf-8" standalone="no"?>
<!DOCTYPE svg PUBLIC "-//W3C//DTD SVG 1.1//EN"
  "http://www.w3.org/Graphics/SVG/1.1/DTD/svg11.dtd">
<!-- Created with matplotlib (https://matplotlib.org/) -->
<svg height="776.132837pt" version="1.1" viewBox="0 0 842.41429 776.132837" width="842.41429pt" xmlns="http://www.w3.org/2000/svg" xmlns:xlink="http://www.w3.org/1999/xlink">
 <defs>
  <style type="text/css">
*{stroke-linecap:butt;stroke-linejoin:round;}
  </style>
 </defs>
 <g id="figure_1">
  <g id="patch_1">
   <path d="M 0 776.132837 
L 842.41429 776.132837 
L 842.41429 0 
L 0 0 
z
" style="fill:#f0f0f0;"/>
  </g>
  <g id="axes_1">
   <g id="matplotlib.axis_1"/>
   <g id="matplotlib.axis_2">
    <g id="text_1">
     <!-- user_gender_id -->
     <defs>
      <path d="M 53.125 0 
L 43.5 0 
L 43.5 8.5 
L 43.3125 8.5 
Q 37.890625 -1.265625 26.65625 -1.265625 
Q 7.46875 -1.265625 7.46875 21.6875 
L 7.46875 54 
L 16.9375 54 
L 16.9375 23.09375 
Q 16.9375 6.640625 29.546875 6.640625 
Q 35.796875 6.640625 39.640625 11.25 
Q 43.5 15.875 43.5 22.90625 
L 43.5 54 
L 53.125 54 
z
" id="MicrosoftYaHei-117"/>
      <path d="M 5.515625 11.671875 
Q 12.75 6.453125 21.09375 6.453125 
Q 32.28125 6.453125 32.28125 13.765625 
Q 32.28125 16.890625 29.828125 18.921875 
Q 27.390625 20.953125 19.921875 23.734375 
Q 10.9375 27.34375 8.25 30.875 
Q 5.5625 34.421875 5.5625 39.453125 
Q 5.5625 46.625 11.640625 50.953125 
Q 17.71875 55.28125 26.609375 55.28125 
Q 33.5 55.28125 39.40625 52.875 
L 39.40625 43.65625 
Q 33.34375 47.5625 25.6875 47.5625 
Q 21.09375 47.5625 18.203125 45.5625 
Q 15.328125 43.5625 15.328125 40.28125 
Q 15.328125 37.0625 17.40625 35.25 
Q 19.484375 33.453125 26.609375 30.609375 
Q 35.640625 27.25 38.8125 23.625 
Q 42 20.015625 42 14.703125 
Q 42 7.28125 35.90625 3 
Q 29.828125 -1.265625 20.171875 -1.265625 
Q 11.765625 -1.265625 5.515625 1.90625 
z
" id="MicrosoftYaHei-115"/>
      <path d="M 52.546875 24.5625 
L 14.75 24.5625 
Q 14.984375 15.921875 19.46875 11.203125 
Q 23.96875 6.5 32.03125 6.5 
Q 41.109375 6.5 48.6875 12.3125 
L 48.6875 3.765625 
Q 41.546875 -1.265625 29.78125 -1.265625 
Q 18.0625 -1.265625 11.5 6.15625 
Q 4.9375 13.578125 4.9375 26.765625 
Q 4.9375 39.15625 12.140625 47.21875 
Q 19.34375 55.28125 30.03125 55.28125 
Q 40.625 55.28125 46.578125 48.46875 
Q 52.546875 41.65625 52.546875 29.390625 
z
M 42.96875 32.234375 
Q 42.921875 39.546875 39.5 43.546875 
Q 36.078125 47.5625 29.890625 47.5625 
Q 24.171875 47.5625 20 43.3125 
Q 15.828125 39.0625 14.75 32.234375 
z
" id="MicrosoftYaHei-101"/>
      <path d="M 37.5 44.53125 
Q 35.109375 46.234375 30.90625 46.234375 
Q 25.34375 46.234375 21.71875 41.03125 
Q 18.109375 35.84375 18.109375 27.34375 
L 18.109375 0 
L 8.546875 0 
L 8.546875 54 
L 18.109375 54 
L 18.109375 43.015625 
L 18.3125 43.015625 
Q 22.40625 54.9375 32.46875 54.9375 
Q 35.75 54.9375 37.5 54.203125 
z
" id="MicrosoftYaHei-114"/>
      <path d="M 44.828125 -15.671875 
L 0 -15.671875 
L 0 -9.375 
L 44.828125 -9.375 
z
" id="MicrosoftYaHei-95"/>
      <path d="M 55.421875 4.546875 
Q 55.421875 -25.4375 26.3125 -25.4375 
Q 16.265625 -25.4375 8.84375 -21.6875 
L 8.84375 -12.453125 
Q 17.875 -17.484375 26.171875 -17.484375 
Q 45.84375 -17.484375 45.84375 3.21875 
L 45.84375 8.9375 
L 45.65625 8.9375 
Q 39.5 -1.265625 27.296875 -1.265625 
Q 17.140625 -1.265625 11.03125 6 
Q 4.9375 13.28125 4.9375 25.296875 
Q 4.9375 39.109375 11.671875 47.1875 
Q 18.40625 55.28125 29.640625 55.28125 
Q 40.4375 55.28125 45.65625 46.6875 
L 45.84375 46.6875 
L 45.84375 54 
L 55.421875 54 
z
M 45.84375 32.125 
Q 45.90625 38.375 41.65625 42.859375 
Q 37.40625 47.359375 31.203125 47.359375 
Q 23.390625 47.359375 19.046875 41.625 
Q 14.703125 35.890625 14.703125 25.875 
Q 14.703125 17.28125 18.890625 11.953125 
Q 23.09375 6.640625 30.03125 6.640625 
Q 37.015625 6.640625 41.453125 11.71875 
Q 45.90625 16.796875 45.84375 24.609375 
z
" id="MicrosoftYaHei-103"/>
      <path d="M 54.203125 0 
L 44.671875 0 
L 44.671875 30.71875 
Q 44.671875 47.359375 32.515625 47.359375 
Q 26.21875 47.359375 22.15625 42.671875 
Q 18.109375 37.984375 18.109375 30.8125 
L 18.109375 0 
L 8.546875 0 
L 8.546875 54 
L 18.109375 54 
L 18.109375 45.0625 
L 18.3125 45.0625 
Q 24.421875 55.28125 36.03125 55.28125 
Q 44.921875 55.28125 49.5625 49.578125 
Q 54.203125 43.890625 54.203125 33.015625 
z
" id="MicrosoftYaHei-110"/>
      <path d="M 55.421875 0 
L 45.84375 0 
L 45.84375 8.984375 
L 45.65625 8.984375 
Q 39.75 -1.265625 27.296875 -1.265625 
Q 17.046875 -1.265625 10.984375 6.03125 
Q 4.9375 13.328125 4.9375 25.734375 
Q 4.9375 39.109375 11.765625 47.1875 
Q 18.609375 55.28125 29.640625 55.28125 
Q 40.671875 55.28125 45.65625 46.6875 
L 45.84375 46.6875 
L 45.84375 79.9375 
L 55.421875 79.9375 
z
M 45.90625 32.125 
Q 45.90625 38.625 41.625 42.984375 
Q 37.359375 47.359375 31.109375 47.359375 
Q 23.484375 47.359375 19.09375 41.671875 
Q 14.703125 35.984375 14.703125 26.171875 
Q 14.703125 17.140625 18.921875 11.890625 
Q 23.140625 6.640625 30.171875 6.640625 
Q 37.109375 6.640625 41.5 11.78125 
Q 45.90625 16.9375 45.90625 24.609375 
z
" id="MicrosoftYaHei-100"/>
      <path d="M 7.375 73.046875 
Q 7.375 75.59375 9.109375 77.3125 
Q 10.84375 79.046875 13.375 79.046875 
Q 15.96875 79.046875 17.75 77.34375 
Q 19.53125 75.640625 19.53125 73.046875 
Q 19.53125 70.515625 17.75 68.828125 
Q 15.96875 67.140625 13.375 67.140625 
Q 10.796875 67.140625 9.078125 68.828125 
Q 7.375 70.515625 7.375 73.046875 
z
M 8.5 0 
L 8.5 54 
L 18.0625 54 
L 18.0625 0 
z
" id="MicrosoftYaHei-105"/>
     </defs>
     <g transform="translate(85.072318 249.210883)rotate(-90)scale(0.168 -0.168)">
      <use xlink:href="#MicrosoftYaHei-117"/>
      <use x="61.621094" xlink:href="#MicrosoftYaHei-115"/>
      <use x="107.910156" xlink:href="#MicrosoftYaHei-101"/>
      <use x="164.648438" xlink:href="#MicrosoftYaHei-114"/>
      <use x="202.832031" xlink:href="#MicrosoftYaHei-95"/>
      <use x="247.65625" xlink:href="#MicrosoftYaHei-103"/>
      <use x="311.621094" xlink:href="#MicrosoftYaHei-101"/>
      <use x="368.359375" xlink:href="#MicrosoftYaHei-110"/>
      <use x="429.980469" xlink:href="#MicrosoftYaHei-100"/>
      <use x="493.945312" xlink:href="#MicrosoftYaHei-101"/>
      <use x="550.683594" xlink:href="#MicrosoftYaHei-114"/>
      <use x="588.867188" xlink:href="#MicrosoftYaHei-95"/>
      <use x="633.691406" xlink:href="#MicrosoftYaHei-105"/>
      <use x="660.302734" xlink:href="#MicrosoftYaHei-100"/>
     </g>
    </g>
   </g>
   <g id="patch_2">
    <path d="M 377.099127 190.914818 
C 377.099127 178.322448 375.229865 165.799543 371.552537 153.756078 
C 367.875209 141.712613 362.430386 130.281464 355.396322 119.836861 
C 348.362257 109.392258 339.816557 100.049438 330.03899 92.114264 
C 320.261423 84.179091 309.359865 77.739113 297.691211 73.005162 
C 286.022556 68.271212 273.715545 65.295518 261.173083 64.175499 
C 248.630621 63.05548 235.99109 63.803492 223.66828 66.395049 
C 211.345471 68.986605 199.475342 73.393112 188.446495 79.470311 
C 177.417649 85.547509 167.351767 93.228349 158.578385 102.261375 
C 149.805004 111.294401 142.420919 121.579953 136.667871 132.781302 
C 130.914823 143.982652 126.856285 155.976214 124.625124 168.369346 
C 122.393964 180.762478 122.014798 193.418446 123.50004 205.922919 
C 124.985282 218.427392 128.318545 230.642409 133.390704 242.168075 
C 138.462863 253.693742 145.217958 264.402896 153.434841 273.944941 
C 161.651724 283.486986 171.239738 291.756646 181.884991 298.483188 
C 192.530245 305.20973 204.115288 310.318941 216.260852 313.643557 
C 228.406417 316.968172 240.978499 318.471511 253.565515 318.104357 
L 249.855491 190.914818 
L 377.099127 190.914818 
z
" style="fill:#4a4b4c;opacity:0.5;stroke:#4a4b4c;stroke-linejoin:miter;stroke-width:0.5;"/>
   </g>
   <g id="patch_3">
    <path d="M 253.565515 318.104357 
C 279.97566 317.333992 305.501411 308.356564 326.579452 292.425295 
C 347.657493 276.494025 363.259147 254.386411 371.206469 229.188609 
L 249.855491 190.914818 
L 253.565515 318.104357 
z
" style="fill:#43464a;opacity:0.5;stroke:#43464a;stroke-linejoin:miter;stroke-width:0.5;"/>
   </g>
   <g id="patch_4">
    <path d="M 371.206469 229.188609 
C 372.287984 225.759556 373.223669 222.286203 374.011004 218.777902 
C 374.79834 215.269601 375.43662 211.729504 375.924124 208.167143 
L 249.855491 190.914818 
L 371.206469 229.188609 
z
" style="fill:#3b4248;opacity:0.5;stroke:#3b4248;stroke-linejoin:miter;stroke-width:0.5;"/>
   </g>
   <g id="patch_5">
    <path d="M 375.924124 208.167143 
C 376.315225 205.309232 376.609033 202.438848 376.805036 199.560966 
C 377.00104 196.683085 377.099127 193.799371 377.099127 190.914823 
L 249.855491 190.914818 
L 375.924124 208.167143 
z
" style="fill:#2f3d44;opacity:0.5;stroke:#2f3d44;stroke-linejoin:miter;stroke-width:0.5;"/>
   </g>
   <g id="patch_6">
    <path d="M 379.644 188.369945 
C 379.644 175.777575 377.774738 163.254671 374.09741 151.211206 
C 370.420082 139.167741 364.975259 127.736591 357.941194 117.291988 
C 350.90713 106.847385 342.36143 97.504565 332.583863 89.569392 
C 322.806296 81.634218 311.904738 75.19424 300.236083 70.46029 
C 288.567429 65.726339 276.260418 62.750645 263.717956 61.630626 
C 251.175494 60.510607 238.535962 61.25862 226.213153 63.850176 
C 213.890344 66.441732 202.020215 70.84824 190.991368 76.925438 
C 179.962522 83.002636 169.89664 90.683476 161.123258 99.716502 
C 152.349876 108.749529 144.965792 119.03508 139.212744 130.23643 
C 133.459695 141.437779 129.401157 153.431342 127.169997 165.824474 
C 124.938837 178.217605 124.559671 190.873573 126.044913 203.378046 
C 127.530155 215.882519 130.863417 228.097536 135.935577 239.623203 
C 141.007736 251.148869 147.762831 261.858023 155.979714 271.400068 
C 164.196597 280.942113 173.784611 289.211773 184.429864 295.938315 
C 195.075117 302.664858 206.660161 307.774069 218.805725 311.098684 
C 230.951289 314.423299 243.523371 315.926638 256.110388 315.559484 
L 252.400364 188.369945 
L 379.644 188.369945 
z
" style="fill:#f7fbff;"/>
   </g>
   <g id="patch_7">
    <path d="M 256.110388 315.559484 
C 282.520532 314.78912 308.046284 305.811692 329.124325 289.880422 
C 350.202366 273.949152 365.804019 251.841538 373.751342 226.643736 
L 252.400364 188.369945 
L 256.110388 315.559484 
z
" style="fill:#deebf7;"/>
   </g>
   <g id="patch_8">
    <path d="M 373.751342 226.643736 
C 374.832856 223.214683 375.768541 219.74133 376.555877 216.233029 
C 377.343213 212.724728 377.981492 209.184631 378.468997 205.622271 
L 252.400364 188.369945 
L 373.751342 226.643736 
z
" style="fill:#c6dbef;"/>
   </g>
   <g id="patch_9">
    <path d="M 378.468997 205.622271 
C 378.860098 202.764359 379.153905 199.893975 379.349909 197.016094 
C 379.545913 194.138212 379.644 191.254498 379.644 188.36995 
L 252.400364 188.369945 
L 378.468997 205.622271 
z
" style="fill:#9ecae1;"/>
   </g>
   <g id="text_2">
    <!-- 0 -->
    <defs>
     <path d="M 4.4375 36.328125 
Q 4.4375 56.34375 11.078125 66.625 
Q 17.71875 76.90625 30.328125 76.90625 
Q 54.34375 76.90625 54.34375 38.140625 
Q 54.34375 19 47.578125 8.859375 
Q 40.828125 -1.265625 28.609375 -1.265625 
Q 17.09375 -1.265625 10.765625 8.34375 
Q 4.4375 17.96875 4.4375 36.328125 
z
M 14.203125 36.765625 
Q 14.203125 6.640625 29.5 6.640625 
Q 44.53125 6.640625 44.53125 37.25 
Q 44.53125 68.953125 29.78125 68.953125 
Q 14.203125 68.953125 14.203125 36.765625 
z
" id="MicrosoftYaHei-48"/>
    </defs>
    <g transform="translate(143.78586 94.706627)scale(0.14 -0.14)">
     <use xlink:href="#MicrosoftYaHei-48"/>
    </g>
   </g>
   <g id="text_3">
    <!-- 75.5% -->
    <defs>
     <path d="M 53.765625 72.3125 
L 24.171875 0 
L 14.265625 0 
L 42.390625 67.1875 
L 4.59375 67.1875 
L 4.59375 75.640625 
L 53.765625 75.640625 
z
" id="MicrosoftYaHei-55"/>
     <path d="M 8.640625 11.625 
Q 16.265625 6.640625 24.515625 6.640625 
Q 32.328125 6.640625 37.109375 11 
Q 41.890625 15.375 41.890625 22.609375 
Q 41.890625 29.890625 37.03125 33.890625 
Q 32.171875 37.890625 22.953125 37.890625 
Q 18.5 37.890625 10.984375 37.203125 
L 10.984375 75.640625 
L 48.1875 75.640625 
L 48.1875 67.1875 
L 19.875 67.1875 
L 19.875 45.796875 
Q 24.125 46.046875 26.265625 46.046875 
Q 38.234375 46.046875 44.921875 39.984375 
Q 51.609375 33.9375 51.609375 23.296875 
Q 51.609375 12.3125 44.421875 5.515625 
Q 37.25 -1.265625 24.609375 -1.265625 
Q 14.015625 -1.265625 8.640625 1.859375 
z
" id="MicrosoftYaHei-53"/>
     <path d="M 5.8125 5.03125 
Q 5.8125 7.671875 7.609375 9.46875 
Q 9.421875 11.28125 12.109375 11.28125 
Q 14.84375 11.28125 16.640625 9.453125 
Q 18.453125 7.625 18.453125 5.03125 
Q 18.453125 2.484375 16.640625 0.65625 
Q 14.84375 -1.171875 12.0625 -1.171875 
Q 9.375 -1.171875 7.59375 0.65625 
Q 5.8125 2.484375 5.8125 5.03125 
z
" id="MicrosoftYaHei-46"/>
     <path d="M 4.25 56.546875 
Q 4.25 65.828125 9.203125 71.296875 
Q 14.15625 76.765625 22.5625 76.765625 
Q 30.609375 76.765625 35.125 71.734375 
Q 39.65625 66.703125 39.65625 57.71875 
Q 39.65625 48.78125 34.671875 43.203125 
Q 29.6875 37.640625 21.4375 37.640625 
Q 13.625 37.640625 8.9375 42.8125 
Q 4.25 48 4.25 56.546875 
z
M 11.765625 57.03125 
Q 11.765625 50.734375 14.5 47.3125 
Q 17.234375 43.890625 21.96875 43.890625 
Q 26.859375 43.890625 29.515625 47.4375 
Q 32.171875 50.984375 32.171875 57.421875 
Q 32.171875 63.71875 29.5625 67.15625 
Q 26.953125 70.609375 22.21875 70.609375 
Q 17.390625 70.609375 14.578125 67.015625 
Q 11.765625 63.421875 11.765625 57.03125 
z
M 72.609375 75.640625 
L 24.03125 -0.484375 
L 15.875 -0.484375 
L 64.453125 75.640625 
z
M 49.5625 17.71875 
Q 49.5625 27 54.515625 32.546875 
Q 59.46875 38.09375 67.828125 38.09375 
Q 75.828125 38.09375 80.359375 33.03125 
Q 84.90625 27.984375 84.90625 18.796875 
Q 84.90625 9.90625 79.875 4.359375 
Q 74.859375 -1.171875 66.75 -1.171875 
Q 58.890625 -1.171875 54.21875 4.078125 
Q 49.5625 9.328125 49.5625 17.71875 
z
M 57.03125 18.171875 
Q 57.03125 12.015625 59.765625 8.5625 
Q 62.5 5.125 67.234375 5.125 
Q 72.125 5.125 74.78125 8.6875 
Q 77.4375 12.25 77.4375 18.65625 
Q 77.4375 25 74.78125 28.359375 
Q 72.125 31.734375 67.484375 31.734375 
Q 62.5 31.734375 59.765625 28.140625 
Q 57.03125 24.5625 57.03125 18.171875 
z
" id="MicrosoftYaHei-37"/>
    </defs>
    <g transform="translate(177.406288 139.033348)scale(0.14 -0.14)">
     <use xlink:href="#MicrosoftYaHei-55"/>
     <use x="58.642578" xlink:href="#MicrosoftYaHei-53"/>
     <use x="117.285156" xlink:href="#MicrosoftYaHei-46"/>
     <use x="141.357422" xlink:href="#MicrosoftYaHei-53"/>
     <use x="200" xlink:href="#MicrosoftYaHei-37"/>
    </g>
   </g>
   <g id="text_4">
    <!-- 1 -->
    <defs>
     <path d="M 52.59375 0 
L 9.234375 0 
L 9.234375 8.25 
L 26.171875 8.25 
L 26.171875 65.671875 
L 8.796875 60.640625 
L 8.796875 69.4375 
L 35.6875 77.25 
L 35.6875 8.25 
L 52.59375 8.25 
z
" id="MicrosoftYaHei-49"/>
    </defs>
    <g transform="translate(336.796721 303.886938)scale(0.14 -0.14)">
     <use xlink:href="#MicrosoftYaHei-49"/>
    </g>
   </g>
   <g id="text_5">
    <!-- 19.7% -->
    <defs>
     <path d="M 9.03125 10.25 
Q 15.28125 6.640625 22.515625 6.640625 
Q 32.671875 6.640625 38.25 14.640625 
Q 43.84375 22.65625 43.84375 37.40625 
Q 43.75 37.3125 43.65625 37.40625 
Q 38.671875 27.9375 26.90625 27.9375 
Q 17.390625 27.9375 11.140625 34.46875 
Q 4.890625 41.015625 4.890625 51.46875 
Q 4.890625 62.59375 11.71875 69.75 
Q 18.5625 76.90625 29.4375 76.90625 
Q 40.71875 76.90625 47.0625 68.046875 
Q 53.421875 59.1875 53.421875 42.234375 
Q 53.421875 21.296875 45.21875 10.015625 
Q 37.015625 -1.265625 22.515625 -1.265625 
Q 14.546875 -1.265625 9.03125 1.3125 
z
M 14.546875 52.6875 
Q 14.546875 45.0625 18.453125 40.59375 
Q 22.359375 36.140625 29.25 36.140625 
Q 35.203125 36.140625 39.25 40.203125 
Q 43.3125 44.28125 43.3125 50.09375 
Q 43.3125 58.25 39.28125 63.59375 
Q 35.25 68.953125 28.65625 68.953125 
Q 22.5625 68.953125 18.546875 64.3125 
Q 14.546875 59.671875 14.546875 52.6875 
z
" id="MicrosoftYaHei-57"/>
    </defs>
    <g transform="translate(278.206928 253.1317)scale(0.14 -0.14)">
     <use xlink:href="#MicrosoftYaHei-49"/>
     <use x="58.642578" xlink:href="#MicrosoftYaHei-57"/>
     <use x="117.285156" xlink:href="#MicrosoftYaHei-46"/>
     <use x="141.357422" xlink:href="#MicrosoftYaHei-55"/>
     <use x="200" xlink:href="#MicrosoftYaHei-37"/>
    </g>
   </g>
   <g id="text_6">
    <!-- -1 -->
    <defs>
     <path d="M 36.375 26.265625 
L 7.625 26.265625 
L 7.625 33.640625 
L 36.375 33.640625 
z
" id="MicrosoftYaHei-45"/>
    </defs>
    <g transform="translate(388.971429 222.874807)scale(0.14 -0.14)">
     <use xlink:href="#MicrosoftYaHei-45"/>
     <use x="43.261719" xlink:href="#MicrosoftYaHei-49"/>
    </g>
   </g>
   <g id="text_7">
    <!-- 2.7% -->
    <defs>
     <path d="M 51.171875 0 
L 5.171875 0 
L 5.171875 8.296875 
L 27.15625 30.21875 
Q 36.234375 39.3125 39.3125 44.609375 
Q 42.390625 49.90625 42.390625 55.5625 
Q 42.390625 62.015625 38.765625 65.453125 
Q 35.15625 68.890625 28.328125 68.890625 
Q 18.21875 68.890625 9.03125 60.296875 
L 9.03125 70.015625 
Q 17.96875 76.90625 29.828125 76.90625 
Q 40.046875 76.90625 45.953125 71.390625 
Q 51.859375 65.875 51.859375 56.546875 
Q 51.859375 49.515625 48.0625 42.75 
Q 44.28125 35.984375 33.734375 25.53125 
L 16.5 8.6875 
L 16.5 8.5 
L 51.171875 8.5 
z
" id="MicrosoftYaHei-50"/>
    </defs>
    <g transform="translate(310.770703 208.943265)scale(0.14 -0.14)">
     <use xlink:href="#MicrosoftYaHei-50"/>
     <use x="58.642578" xlink:href="#MicrosoftYaHei-46"/>
     <use x="82.714844" xlink:href="#MicrosoftYaHei-55"/>
     <use x="141.357422" xlink:href="#MicrosoftYaHei-37"/>
    </g>
   </g>
   <g id="text_8">
    <!-- 2 -->
    <g transform="translate(392.044864 201.736177)scale(0.14 -0.14)">
     <use xlink:href="#MicrosoftYaHei-50"/>
    </g>
   </g>
   <g id="text_9">
    <!-- 2.2% -->
    <g transform="translate(312.447122 197.413103)scale(0.14 -0.14)">
     <use xlink:href="#MicrosoftYaHei-50"/>
     <use x="58.642578" xlink:href="#MicrosoftYaHei-46"/>
     <use x="82.714844" xlink:href="#MicrosoftYaHei-50"/>
     <use x="141.357422" xlink:href="#MicrosoftYaHei-37"/>
    </g>
   </g>
   <g id="text_10">
    <!-- user_gender_id -->
    <g transform="translate(179.391239 23.3154)scale(0.2016 -0.2016)">
     <use xlink:href="#MicrosoftYaHei-117"/>
     <use x="61.621094" xlink:href="#MicrosoftYaHei-115"/>
     <use x="107.910156" xlink:href="#MicrosoftYaHei-101"/>
     <use x="164.648438" xlink:href="#MicrosoftYaHei-114"/>
     <use x="202.832031" xlink:href="#MicrosoftYaHei-95"/>
     <use x="247.65625" xlink:href="#MicrosoftYaHei-103"/>
     <use x="311.621094" xlink:href="#MicrosoftYaHei-101"/>
     <use x="368.359375" xlink:href="#MicrosoftYaHei-110"/>
     <use x="429.980469" xlink:href="#MicrosoftYaHei-100"/>
     <use x="493.945312" xlink:href="#MicrosoftYaHei-101"/>
     <use x="550.683594" xlink:href="#MicrosoftYaHei-114"/>
     <use x="588.867188" xlink:href="#MicrosoftYaHei-95"/>
     <use x="633.691406" xlink:href="#MicrosoftYaHei-105"/>
     <use x="660.302734" xlink:href="#MicrosoftYaHei-100"/>
    </g>
   </g>
  </g>
  <g id="axes_2">
   <g id="patch_10">
    <path d="M 491.571273 347.424491 
L 833.244 347.424491 
L 833.244 29.3154 
L 491.571273 29.3154 
z
" style="fill:#f0f0f0;"/>
   </g>
   <g id="matplotlib.axis_3">
    <g id="xtick_1">
     <g id="line2d_1"/>
     <g id="text_11">
      <!-- -1 -->
      <g transform="translate(503.419653 362.115741)scale(0.14 -0.14)">
       <use xlink:href="#MicrosoftYaHei-45"/>
       <use x="43.261719" xlink:href="#MicrosoftYaHei-49"/>
      </g>
     </g>
    </g>
    <g id="xtick_2">
     <g id="line2d_2"/>
     <g id="text_12">
      <!-- 1000 -->
      <g transform="translate(532.097352 362.115741)scale(0.14 -0.14)">
       <use xlink:href="#MicrosoftYaHei-49"/>
       <use x="58.642578" xlink:href="#MicrosoftYaHei-48"/>
       <use x="117.285156" xlink:href="#MicrosoftYaHei-48"/>
       <use x="175.927734" xlink:href="#MicrosoftYaHei-48"/>
      </g>
     </g>
    </g>
    <g id="xtick_3">
     <g id="line2d_3"/>
     <g id="text_13">
      <!-- 1001 -->
      <g transform="translate(570.060989 362.115741)scale(0.14 -0.14)">
       <use xlink:href="#MicrosoftYaHei-49"/>
       <use x="58.642578" xlink:href="#MicrosoftYaHei-48"/>
       <use x="117.285156" xlink:href="#MicrosoftYaHei-48"/>
       <use x="175.927734" xlink:href="#MicrosoftYaHei-49"/>
      </g>
     </g>
    </g>
    <g id="xtick_4">
     <g id="line2d_4"/>
     <g id="text_14">
      <!-- 1002 -->
      <g transform="translate(608.024625 362.115741)scale(0.14 -0.14)">
       <use xlink:href="#MicrosoftYaHei-49"/>
       <use x="58.642578" xlink:href="#MicrosoftYaHei-48"/>
       <use x="117.285156" xlink:href="#MicrosoftYaHei-48"/>
       <use x="175.927734" xlink:href="#MicrosoftYaHei-50"/>
      </g>
     </g>
    </g>
    <g id="xtick_5">
     <g id="line2d_5"/>
     <g id="text_15">
      <!-- 1003 -->
      <defs>
       <path d="M 6.984375 12.640625 
Q 14.75 6.640625 24.515625 6.640625 
Q 32.328125 6.640625 36.890625 10.46875 
Q 41.453125 14.3125 41.453125 20.75 
Q 41.453125 35.109375 20.90625 35.109375 
L 14.59375 35.109375 
L 14.59375 43.015625 
L 20.609375 43.015625 
Q 38.8125 43.015625 38.8125 56.5 
Q 38.8125 68.953125 24.90625 68.953125 
Q 16.9375 68.953125 9.90625 63.578125 
L 9.90625 72.609375 
Q 17.328125 76.90625 27.25 76.90625 
Q 36.921875 76.90625 42.78125 71.84375 
Q 48.640625 66.796875 48.640625 58.734375 
Q 48.640625 43.890625 33.5 39.65625 
L 33.5 39.453125 
Q 41.703125 38.578125 46.453125 33.671875 
Q 51.21875 28.765625 51.21875 21.4375 
Q 51.21875 11.234375 43.875 4.984375 
Q 36.53125 -1.265625 24.3125 -1.265625 
Q 13.578125 -1.265625 6.984375 2.734375 
z
" id="MicrosoftYaHei-51"/>
      </defs>
      <g transform="translate(645.988261 362.115741)scale(0.14 -0.14)">
       <use xlink:href="#MicrosoftYaHei-49"/>
       <use x="58.642578" xlink:href="#MicrosoftYaHei-48"/>
       <use x="117.285156" xlink:href="#MicrosoftYaHei-48"/>
       <use x="175.927734" xlink:href="#MicrosoftYaHei-51"/>
      </g>
     </g>
    </g>
    <g id="xtick_6">
     <g id="line2d_6"/>
     <g id="text_16">
      <!-- 1004 -->
      <defs>
       <path d="M 55.078125 19.625 
L 45.40625 19.625 
L 45.40625 0 
L 36.140625 0 
L 36.140625 19.625 
L 0.875 19.625 
L 0.875 25.828125 
L 34.328125 75.640625 
L 45.40625 75.640625 
L 45.40625 27.203125 
L 55.078125 27.203125 
z
M 36.140625 27.203125 
L 36.140625 58.890625 
Q 36.140625 62.25 36.328125 66.65625 
L 36.140625 66.65625 
Q 35.453125 64.796875 33.25 60.84375 
L 10.75 27.203125 
z
" id="MicrosoftYaHei-52"/>
      </defs>
      <g transform="translate(683.951898 362.115741)scale(0.14 -0.14)">
       <use xlink:href="#MicrosoftYaHei-49"/>
       <use x="58.642578" xlink:href="#MicrosoftYaHei-48"/>
       <use x="117.285156" xlink:href="#MicrosoftYaHei-48"/>
       <use x="175.927734" xlink:href="#MicrosoftYaHei-52"/>
      </g>
     </g>
    </g>
    <g id="xtick_7">
     <g id="line2d_7"/>
     <g id="text_17">
      <!-- 1005 -->
      <g transform="translate(721.915534 362.115741)scale(0.14 -0.14)">
       <use xlink:href="#MicrosoftYaHei-49"/>
       <use x="58.642578" xlink:href="#MicrosoftYaHei-48"/>
       <use x="117.285156" xlink:href="#MicrosoftYaHei-48"/>
       <use x="175.927734" xlink:href="#MicrosoftYaHei-53"/>
      </g>
     </g>
    </g>
    <g id="xtick_8">
     <g id="line2d_8"/>
     <g id="text_18">
      <!-- 1006 -->
      <defs>
       <path d="M 49.703125 65.921875 
Q 43.796875 68.953125 37.359375 68.953125 
Q 27.546875 68.953125 21.578125 60.40625 
Q 15.625 51.859375 15.53125 37.0625 
L 15.765625 37.0625 
Q 21.140625 47.46875 32.90625 47.46875 
Q 42.71875 47.46875 48.578125 41.0625 
Q 54.4375 34.671875 54.4375 24.078125 
Q 54.4375 12.984375 47.671875 5.859375 
Q 40.921875 -1.265625 30.421875 -1.265625 
Q 18.890625 -1.265625 12.328125 7.734375 
Q 5.765625 16.75 5.765625 33.296875 
Q 5.765625 53.328125 14.375 65.109375 
Q 23 76.90625 37.0625 76.90625 
Q 45.125 76.90625 49.703125 74.703125 
z
M 16.109375 24.75 
Q 16.109375 17.28125 20.09375 11.953125 
Q 24.078125 6.640625 30.671875 6.640625 
Q 36.921875 6.640625 40.828125 11.234375 
Q 44.734375 15.828125 44.734375 23.046875 
Q 44.734375 30.859375 41.046875 35.203125 
Q 37.359375 39.546875 30.5625 39.546875 
Q 24.125 39.546875 20.109375 35.15625 
Q 16.109375 30.765625 16.109375 24.75 
z
" id="MicrosoftYaHei-54"/>
      </defs>
      <g transform="translate(759.87917 362.115741)scale(0.14 -0.14)">
       <use xlink:href="#MicrosoftYaHei-49"/>
       <use x="58.642578" xlink:href="#MicrosoftYaHei-48"/>
       <use x="117.285156" xlink:href="#MicrosoftYaHei-48"/>
       <use x="175.927734" xlink:href="#MicrosoftYaHei-54"/>
      </g>
     </g>
    </g>
    <g id="xtick_9">
     <g id="line2d_9"/>
     <g id="text_19">
      <!-- 1007 -->
      <g transform="translate(797.842807 362.115741)scale(0.14 -0.14)">
       <use xlink:href="#MicrosoftYaHei-49"/>
       <use x="58.642578" xlink:href="#MicrosoftYaHei-48"/>
       <use x="117.285156" xlink:href="#MicrosoftYaHei-48"/>
       <use x="175.927734" xlink:href="#MicrosoftYaHei-55"/>
      </g>
     </g>
    </g>
    <g id="text_20">
     <!-- user_age_level -->
     <defs>
      <path d="M 9.8125 50.25 
Q 17.875 55.28125 28.421875 55.28125 
Q 47.953125 55.28125 47.953125 34.765625 
L 47.953125 0 
L 38.484375 0 
L 38.484375 8.34375 
L 38.234375 8.34375 
Q 32.625 -1.265625 21.6875 -1.265625 
Q 13.8125 -1.265625 9.171875 2.984375 
Q 4.546875 7.234375 4.546875 14.453125 
Q 4.546875 29.59375 22.46875 32.078125 
L 38.484375 34.328125 
Q 38.484375 47.5625 27.546875 47.5625 
Q 17.828125 47.5625 9.8125 41.015625 
z
M 25.828125 25.390625 
Q 19.1875 24.515625 16.671875 22.0625 
Q 14.15625 19.625 14.15625 15.234375 
Q 14.15625 11.375 16.890625 8.9375 
Q 19.625 6.5 24.125 6.5 
Q 30.375 6.5 34.421875 10.890625 
Q 38.484375 15.28125 38.484375 21.921875 
L 38.484375 27.09375 
z
" id="MicrosoftYaHei-97"/>
      <path d="M 8.5 0 
L 8.5 79.9375 
L 18.0625 79.9375 
L 18.0625 0 
z
" id="MicrosoftYaHei-108"/>
      <path d="M 52.046875 54 
L 30.671875 0 
L 21 0 
L 0.6875 54 
L 11.140625 54 
L 24.3125 15.4375 
Q 25.921875 10.796875 26.21875 7.671875 
L 26.46875 7.671875 
Q 26.953125 11.765625 28.171875 15.234375 
L 42 54 
z
" id="MicrosoftYaHei-118"/>
     </defs>
     <g transform="translate(604.644511 383.025553)scale(0.168 -0.168)">
      <use xlink:href="#MicrosoftYaHei-117"/>
      <use x="61.621094" xlink:href="#MicrosoftYaHei-115"/>
      <use x="107.910156" xlink:href="#MicrosoftYaHei-101"/>
      <use x="164.648438" xlink:href="#MicrosoftYaHei-114"/>
      <use x="202.832031" xlink:href="#MicrosoftYaHei-95"/>
      <use x="247.65625" xlink:href="#MicrosoftYaHei-97"/>
      <use x="302.929688" xlink:href="#MicrosoftYaHei-103"/>
      <use x="366.894531" xlink:href="#MicrosoftYaHei-101"/>
      <use x="423.632812" xlink:href="#MicrosoftYaHei-95"/>
      <use x="468.457031" xlink:href="#MicrosoftYaHei-108"/>
      <use x="495.068359" xlink:href="#MicrosoftYaHei-101"/>
      <use x="551.806641" xlink:href="#MicrosoftYaHei-118"/>
      <use x="604.296875" xlink:href="#MicrosoftYaHei-101"/>
      <use x="661.035156" xlink:href="#MicrosoftYaHei-108"/>
     </g>
    </g>
   </g>
   <g id="matplotlib.axis_4">
    <g id="ytick_1">
     <g id="line2d_10">
      <path clip-path="url(#pf8374aeb22)" d="M 491.571273 347.424491 
L 833.244 347.424491 
" style="fill:none;stroke:#cbcbcb;"/>
     </g>
     <g id="line2d_11"/>
     <g id="text_21">
      <!-- 0 -->
      <g transform="translate(479.861585 353.020116)scale(0.14 -0.14)">
       <use xlink:href="#MicrosoftYaHei-48"/>
      </g>
     </g>
    </g>
    <g id="ytick_2">
     <g id="line2d_12">
      <path clip-path="url(#pf8374aeb22)" d="M 491.571273 311.659573 
L 833.244 311.659573 
" style="fill:none;stroke:#cbcbcb;"/>
     </g>
     <g id="line2d_13"/>
     <g id="text_22">
      <!-- 20000 -->
      <g transform="translate(447.022835 317.255198)scale(0.14 -0.14)">
       <use xlink:href="#MicrosoftYaHei-50"/>
       <use x="58.642578" xlink:href="#MicrosoftYaHei-48"/>
       <use x="117.285156" xlink:href="#MicrosoftYaHei-48"/>
       <use x="175.927734" xlink:href="#MicrosoftYaHei-48"/>
       <use x="234.570312" xlink:href="#MicrosoftYaHei-48"/>
      </g>
     </g>
    </g>
    <g id="ytick_3">
     <g id="line2d_14">
      <path clip-path="url(#pf8374aeb22)" d="M 491.571273 275.894656 
L 833.244 275.894656 
" style="fill:none;stroke:#cbcbcb;"/>
     </g>
     <g id="line2d_15"/>
     <g id="text_23">
      <!-- 40000 -->
      <g transform="translate(447.022835 281.490281)scale(0.14 -0.14)">
       <use xlink:href="#MicrosoftYaHei-52"/>
       <use x="58.642578" xlink:href="#MicrosoftYaHei-48"/>
       <use x="117.285156" xlink:href="#MicrosoftYaHei-48"/>
       <use x="175.927734" xlink:href="#MicrosoftYaHei-48"/>
       <use x="234.570312" xlink:href="#MicrosoftYaHei-48"/>
      </g>
     </g>
    </g>
    <g id="ytick_4">
     <g id="line2d_16">
      <path clip-path="url(#pf8374aeb22)" d="M 491.571273 240.129739 
L 833.244 240.129739 
" style="fill:none;stroke:#cbcbcb;"/>
     </g>
     <g id="line2d_17"/>
     <g id="text_24">
      <!-- 60000 -->
      <g transform="translate(447.022835 245.725364)scale(0.14 -0.14)">
       <use xlink:href="#MicrosoftYaHei-54"/>
       <use x="58.642578" xlink:href="#MicrosoftYaHei-48"/>
       <use x="117.285156" xlink:href="#MicrosoftYaHei-48"/>
       <use x="175.927734" xlink:href="#MicrosoftYaHei-48"/>
       <use x="234.570312" xlink:href="#MicrosoftYaHei-48"/>
      </g>
     </g>
    </g>
    <g id="ytick_5">
     <g id="line2d_18">
      <path clip-path="url(#pf8374aeb22)" d="M 491.571273 204.364821 
L 833.244 204.364821 
" style="fill:none;stroke:#cbcbcb;"/>
     </g>
     <g id="line2d_19"/>
     <g id="text_25">
      <!-- 80000 -->
      <defs>
       <path d="M 21.390625 39.796875 
Q 7.859375 46.09375 7.859375 58.0625 
Q 7.859375 66.40625 14.203125 71.65625 
Q 20.5625 76.90625 30.421875 76.90625 
Q 39.453125 76.90625 45.3125 71.96875 
Q 51.171875 67.046875 51.171875 59.234375 
Q 51.171875 46.625 37.0625 39.84375 
L 37.0625 39.65625 
Q 53.609375 33.6875 53.609375 19.34375 
Q 53.609375 9.90625 46.796875 4.3125 
Q 39.984375 -1.265625 27.78125 -1.265625 
Q 17.78125 -1.265625 11.46875 4.25 
Q 5.171875 9.765625 5.171875 18.5625 
Q 5.171875 33.015625 21.390625 39.59375 
z
M 41.5 58.109375 
Q 41.5 63.1875 38.328125 66.109375 
Q 35.15625 69.046875 29.734375 69.046875 
Q 24.65625 69.046875 21.09375 65.984375 
Q 17.53125 62.9375 17.53125 58.203125 
Q 17.53125 48.734375 29.390625 43.796875 
Q 41.5 48.828125 41.5 58.109375 
z
M 28.8125 35.25 
Q 14.796875 29.59375 14.796875 19.046875 
Q 14.796875 13.578125 18.890625 10.0625 
Q 23 6.546875 29.59375 6.546875 
Q 35.984375 6.546875 39.984375 10.03125 
Q 44 13.53125 44 18.75 
Q 44 29.734375 28.8125 35.25 
z
" id="MicrosoftYaHei-56"/>
      </defs>
      <g transform="translate(447.022835 209.960446)scale(0.14 -0.14)">
       <use xlink:href="#MicrosoftYaHei-56"/>
       <use x="58.642578" xlink:href="#MicrosoftYaHei-48"/>
       <use x="117.285156" xlink:href="#MicrosoftYaHei-48"/>
       <use x="175.927734" xlink:href="#MicrosoftYaHei-48"/>
       <use x="234.570312" xlink:href="#MicrosoftYaHei-48"/>
      </g>
     </g>
    </g>
    <g id="ytick_6">
     <g id="line2d_20">
      <path clip-path="url(#pf8374aeb22)" d="M 491.571273 168.599904 
L 833.244 168.599904 
" style="fill:none;stroke:#cbcbcb;"/>
     </g>
     <g id="line2d_21"/>
     <g id="text_26">
      <!-- 100000 -->
      <g transform="translate(438.813148 174.195529)scale(0.14 -0.14)">
       <use xlink:href="#MicrosoftYaHei-49"/>
       <use x="58.642578" xlink:href="#MicrosoftYaHei-48"/>
       <use x="117.285156" xlink:href="#MicrosoftYaHei-48"/>
       <use x="175.927734" xlink:href="#MicrosoftYaHei-48"/>
       <use x="234.570312" xlink:href="#MicrosoftYaHei-48"/>
       <use x="293.212891" xlink:href="#MicrosoftYaHei-48"/>
      </g>
     </g>
    </g>
    <g id="ytick_7">
     <g id="line2d_22">
      <path clip-path="url(#pf8374aeb22)" d="M 491.571273 132.834986 
L 833.244 132.834986 
" style="fill:none;stroke:#cbcbcb;"/>
     </g>
     <g id="line2d_23"/>
     <g id="text_27">
      <!-- 120000 -->
      <g transform="translate(438.813148 138.430611)scale(0.14 -0.14)">
       <use xlink:href="#MicrosoftYaHei-49"/>
       <use x="58.642578" xlink:href="#MicrosoftYaHei-50"/>
       <use x="117.285156" xlink:href="#MicrosoftYaHei-48"/>
       <use x="175.927734" xlink:href="#MicrosoftYaHei-48"/>
       <use x="234.570312" xlink:href="#MicrosoftYaHei-48"/>
       <use x="293.212891" xlink:href="#MicrosoftYaHei-48"/>
      </g>
     </g>
    </g>
    <g id="ytick_8">
     <g id="line2d_24">
      <path clip-path="url(#pf8374aeb22)" d="M 491.571273 97.070069 
L 833.244 97.070069 
" style="fill:none;stroke:#cbcbcb;"/>
     </g>
     <g id="line2d_25"/>
     <g id="text_28">
      <!-- 140000 -->
      <g transform="translate(438.813148 102.665694)scale(0.14 -0.14)">
       <use xlink:href="#MicrosoftYaHei-49"/>
       <use x="58.642578" xlink:href="#MicrosoftYaHei-52"/>
       <use x="117.285156" xlink:href="#MicrosoftYaHei-48"/>
       <use x="175.927734" xlink:href="#MicrosoftYaHei-48"/>
       <use x="234.570312" xlink:href="#MicrosoftYaHei-48"/>
       <use x="293.212891" xlink:href="#MicrosoftYaHei-48"/>
      </g>
     </g>
    </g>
    <g id="ytick_9">
     <g id="line2d_26">
      <path clip-path="url(#pf8374aeb22)" d="M 491.571273 61.305152 
L 833.244 61.305152 
" style="fill:none;stroke:#cbcbcb;"/>
     </g>
     <g id="line2d_27"/>
     <g id="text_29">
      <!-- 160000 -->
      <g transform="translate(438.813148 66.900777)scale(0.14 -0.14)">
       <use xlink:href="#MicrosoftYaHei-49"/>
       <use x="58.642578" xlink:href="#MicrosoftYaHei-54"/>
       <use x="117.285156" xlink:href="#MicrosoftYaHei-48"/>
       <use x="175.927734" xlink:href="#MicrosoftYaHei-48"/>
       <use x="234.570312" xlink:href="#MicrosoftYaHei-48"/>
       <use x="293.212891" xlink:href="#MicrosoftYaHei-48"/>
      </g>
     </g>
    </g>
    <g id="text_30">
     <!-- count -->
     <defs>
      <path d="M 45.84375 2.4375 
Q 39.65625 -1.265625 30.90625 -1.265625 
Q 19.1875 -1.265625 12.0625 6.25 
Q 4.9375 13.765625 4.9375 25.734375 
Q 4.9375 39.015625 12.625 47.140625 
Q 20.3125 55.28125 33.203125 55.28125 
Q 40.625 55.28125 45.90625 52.640625 
L 45.90625 43.171875 
Q 40.1875 47.359375 33.203125 47.359375 
Q 25 47.359375 19.84375 41.671875 
Q 14.703125 35.984375 14.703125 26.515625 
Q 14.703125 17.1875 19.5625 11.90625 
Q 24.421875 6.640625 32.671875 6.640625 
Q 39.65625 6.640625 45.84375 11.234375 
z
" id="MicrosoftYaHei-99"/>
      <path d="M 4.9375 26.421875 
Q 4.9375 39.796875 12.40625 47.53125 
Q 19.875 55.28125 32.671875 55.28125 
Q 44.828125 55.28125 51.734375 47.828125 
Q 58.640625 40.375 58.640625 27.25 
Q 58.640625 14.453125 51.265625 6.59375 
Q 43.890625 -1.265625 31.5 -1.265625 
Q 19.390625 -1.265625 12.15625 6.34375 
Q 4.9375 13.96875 4.9375 26.421875 
z
M 14.703125 26.703125 
Q 14.703125 17.390625 19.40625 12.015625 
Q 24.125 6.640625 32.078125 6.640625 
Q 40.28125 6.640625 44.578125 11.890625 
Q 48.875 17.140625 48.875 26.953125 
Q 48.875 36.8125 44.578125 42.078125 
Q 40.28125 47.359375 32.078125 47.359375 
Q 24.03125 47.359375 19.359375 41.84375 
Q 14.703125 36.328125 14.703125 26.703125 
z
" id="MicrosoftYaHei-111"/>
      <path d="M 34.46875 0.53125 
Q 31.34375 -1.171875 26.03125 -1.171875 
Q 11.53125 -1.171875 11.53125 14.890625 
L 11.53125 46.09375 
L 2.25 46.09375 
L 2.25 54 
L 11.53125 54 
L 11.53125 67 
L 21.046875 70.015625 
L 21.046875 54 
L 34.46875 54 
L 34.46875 46.09375 
L 21.046875 46.09375 
L 21.046875 16.609375 
Q 21.046875 11.28125 22.84375 8.984375 
Q 24.65625 6.6875 28.859375 6.6875 
Q 32.078125 6.6875 34.46875 8.5 
z
" id="MicrosoftYaHei-116"/>
     </defs>
     <g transform="translate(430.636773 211.40432)rotate(-90)scale(0.168 -0.168)">
      <use xlink:href="#MicrosoftYaHei-99"/>
      <use x="50.146484" xlink:href="#MicrosoftYaHei-111"/>
      <use x="113.720703" xlink:href="#MicrosoftYaHei-117"/>
      <use x="175.341797" xlink:href="#MicrosoftYaHei-110"/>
      <use x="236.962891" xlink:href="#MicrosoftYaHei-116"/>
     </g>
    </g>
   </g>
   <g id="patch_11">
    <path clip-path="url(#pf8374aeb22)" d="M 495.367636 347.424491 
L 525.738545 347.424491 
L 525.738545 345.700622 
L 495.367636 345.700622 
z
" style="fill:#ea96a3;"/>
   </g>
   <g id="patch_12">
    <path clip-path="url(#pf8374aeb22)" d="M 533.331273 347.424491 
L 563.702182 347.424491 
L 563.702182 324.259554 
L 533.331273 324.259554 
z
" style="fill:#d1964d;"/>
   </g>
   <g id="patch_13">
    <path clip-path="url(#pf8374aeb22)" d="M 571.294909 347.424491 
L 601.665818 347.424491 
L 601.665818 335.899246 
L 571.294909 335.899246 
z
" style="fill:#a29f46;"/>
   </g>
   <g id="patch_14">
    <path clip-path="url(#pf8374aeb22)" d="M 609.258545 347.424491 
L 639.629455 347.424491 
L 639.629455 221.954008 
L 609.258545 221.954008 
z
" style="fill:#60ae47;"/>
   </g>
   <g id="patch_15">
    <path clip-path="url(#pf8374aeb22)" d="M 647.222182 347.424491 
L 677.593091 347.424491 
L 677.593091 44.463452 
L 647.222182 44.463452 
z
" style="fill:#4aad95;"/>
   </g>
   <g id="patch_16">
    <path clip-path="url(#pf8374aeb22)" d="M 685.185818 347.424491 
L 715.556727 347.424491 
L 715.556727 121.898075 
L 685.185818 121.898075 
z
" style="fill:#4dabb3;"/>
   </g>
   <g id="patch_17">
    <path clip-path="url(#pf8374aeb22)" d="M 723.149455 347.424491 
L 753.520364 347.424491 
L 753.520364 246.207986 
L 723.149455 246.207986 
z
" style="fill:#6daee2;"/>
   </g>
   <g id="patch_18">
    <path clip-path="url(#pf8374aeb22)" d="M 761.113091 347.424491 
L 791.484 347.424491 
L 791.484 293.448078 
L 761.113091 293.448078 
z
" style="fill:#c4a1ea;"/>
   </g>
   <g id="patch_19">
    <path clip-path="url(#pf8374aeb22)" d="M 799.076727 347.424491 
L 829.447636 347.424491 
L 829.447636 338.095212 
L 799.076727 338.095212 
z
" style="fill:#e88ed1;"/>
   </g>
   <g id="patch_20">
    <path d="M 491.571273 347.424491 
L 491.571273 29.3154 
" style="fill:none;stroke:#f0f0f0;stroke-linecap:square;stroke-linejoin:miter;stroke-width:3;"/>
   </g>
   <g id="patch_21">
    <path d="M 833.244 347.424491 
L 833.244 29.3154 
" style="fill:none;stroke:#f0f0f0;stroke-linecap:square;stroke-linejoin:miter;stroke-width:3;"/>
   </g>
   <g id="patch_22">
    <path d="M 491.571273 347.424491 
L 833.244 347.424491 
" style="fill:none;stroke:#f0f0f0;stroke-linecap:square;stroke-linejoin:miter;stroke-width:3;"/>
   </g>
   <g id="patch_23">
    <path d="M 491.571273 29.3154 
L 833.244 29.3154 
" style="fill:none;stroke:#f0f0f0;stroke-linecap:square;stroke-linejoin:miter;stroke-width:3;"/>
   </g>
   <g id="text_31">
    <!-- user_age_level -->
    <g transform="translate(593.091886 23.3154)scale(0.2016 -0.2016)">
     <use xlink:href="#MicrosoftYaHei-117"/>
     <use x="61.621094" xlink:href="#MicrosoftYaHei-115"/>
     <use x="107.910156" xlink:href="#MicrosoftYaHei-101"/>
     <use x="164.648438" xlink:href="#MicrosoftYaHei-114"/>
     <use x="202.832031" xlink:href="#MicrosoftYaHei-95"/>
     <use x="247.65625" xlink:href="#MicrosoftYaHei-97"/>
     <use x="302.929688" xlink:href="#MicrosoftYaHei-103"/>
     <use x="366.894531" xlink:href="#MicrosoftYaHei-101"/>
     <use x="423.632812" xlink:href="#MicrosoftYaHei-95"/>
     <use x="468.457031" xlink:href="#MicrosoftYaHei-108"/>
     <use x="495.068359" xlink:href="#MicrosoftYaHei-101"/>
     <use x="551.806641" xlink:href="#MicrosoftYaHei-118"/>
     <use x="604.296875" xlink:href="#MicrosoftYaHei-101"/>
     <use x="661.035156" xlink:href="#MicrosoftYaHei-108"/>
    </g>
   </g>
  </g>
  <g id="axes_3">
   <g id="patch_24">
    <path d="M 81.564 729.1554 
L 423.236727 729.1554 
L 423.236727 411.046309 
L 81.564 411.046309 
z
" style="fill:#f0f0f0;"/>
   </g>
   <g id="matplotlib.axis_5">
    <g id="xtick_10">
     <g id="line2d_28"/>
     <g id="text_32">
      <!-- -1 -->
      <g transform="translate(108.597835 743.84665)scale(0.14 -0.14)">
       <use xlink:href="#MicrosoftYaHei-45"/>
       <use x="43.261719" xlink:href="#MicrosoftYaHei-49"/>
      </g>
     </g>
    </g>
    <g id="xtick_11">
     <g id="line2d_29"/>
     <g id="text_33">
      <!-- 2002 -->
      <g transform="translate(167.646443 743.84665)scale(0.14 -0.14)">
       <use xlink:href="#MicrosoftYaHei-50"/>
       <use x="58.642578" xlink:href="#MicrosoftYaHei-48"/>
       <use x="117.285156" xlink:href="#MicrosoftYaHei-48"/>
       <use x="175.927734" xlink:href="#MicrosoftYaHei-50"/>
      </g>
     </g>
    </g>
    <g id="xtick_12">
     <g id="line2d_30"/>
     <g id="text_34">
      <!-- 2003 -->
      <g transform="translate(235.980989 743.84665)scale(0.14 -0.14)">
       <use xlink:href="#MicrosoftYaHei-50"/>
       <use x="58.642578" xlink:href="#MicrosoftYaHei-48"/>
       <use x="117.285156" xlink:href="#MicrosoftYaHei-48"/>
       <use x="175.927734" xlink:href="#MicrosoftYaHei-51"/>
      </g>
     </g>
    </g>
    <g id="xtick_13">
     <g id="line2d_31"/>
     <g id="text_35">
      <!-- 2004 -->
      <g transform="translate(304.315534 743.84665)scale(0.14 -0.14)">
       <use xlink:href="#MicrosoftYaHei-50"/>
       <use x="58.642578" xlink:href="#MicrosoftYaHei-48"/>
       <use x="117.285156" xlink:href="#MicrosoftYaHei-48"/>
       <use x="175.927734" xlink:href="#MicrosoftYaHei-52"/>
      </g>
     </g>
    </g>
    <g id="xtick_14">
     <g id="line2d_32"/>
     <g id="text_36">
      <!-- 2005 -->
      <g transform="translate(372.65008 743.84665)scale(0.14 -0.14)">
       <use xlink:href="#MicrosoftYaHei-50"/>
       <use x="58.642578" xlink:href="#MicrosoftYaHei-48"/>
       <use x="117.285156" xlink:href="#MicrosoftYaHei-48"/>
       <use x="175.927734" xlink:href="#MicrosoftYaHei-53"/>
      </g>
     </g>
    </g>
    <g id="text_37">
     <!-- user_occupation_id -->
     <defs>
      <path d="M 18.109375 7.625 
L 18.109375 -24.859375 
L 8.546875 -24.859375 
L 8.546875 54 
L 18.109375 54 
L 18.109375 44.671875 
L 18.3125 44.671875 
Q 24.65625 55.28125 36.859375 55.28125 
Q 47.21875 55.28125 53.09375 48.015625 
Q 58.984375 40.765625 58.984375 28.5625 
Q 58.984375 15.09375 52.3125 6.90625 
Q 45.65625 -1.265625 34.375 -1.265625 
Q 23.96875 -1.265625 18.3125 7.625 
z
M 18.0625 22.265625 
Q 18.0625 15.671875 22.3125 11.15625 
Q 26.5625 6.640625 32.953125 6.640625 
Q 40.578125 6.640625 44.875 12.5 
Q 49.171875 18.359375 49.171875 28.71875 
Q 49.171875 37.453125 45.15625 42.40625 
Q 41.15625 47.359375 34.234375 47.359375 
Q 27.15625 47.359375 22.609375 42.328125 
Q 18.0625 37.3125 18.0625 29.4375 
z
" id="MicrosoftYaHei-112"/>
     </defs>
     <g transform="translate(175.392051 764.756462)scale(0.168 -0.168)">
      <use xlink:href="#MicrosoftYaHei-117"/>
      <use x="61.621094" xlink:href="#MicrosoftYaHei-115"/>
      <use x="107.910156" xlink:href="#MicrosoftYaHei-101"/>
      <use x="164.648438" xlink:href="#MicrosoftYaHei-114"/>
      <use x="202.832031" xlink:href="#MicrosoftYaHei-95"/>
      <use x="247.65625" xlink:href="#MicrosoftYaHei-111"/>
      <use x="311.230469" xlink:href="#MicrosoftYaHei-99"/>
      <use x="361.376953" xlink:href="#MicrosoftYaHei-99"/>
      <use x="411.523438" xlink:href="#MicrosoftYaHei-117"/>
      <use x="473.144531" xlink:href="#MicrosoftYaHei-112"/>
      <use x="536.996094" xlink:href="#MicrosoftYaHei-97"/>
      <use x="592.269531" xlink:href="#MicrosoftYaHei-116"/>
      <use x="629.525391" xlink:href="#MicrosoftYaHei-105"/>
      <use x="656.136719" xlink:href="#MicrosoftYaHei-111"/>
      <use x="719.710938" xlink:href="#MicrosoftYaHei-110"/>
      <use x="781.332031" xlink:href="#MicrosoftYaHei-95"/>
      <use x="826.15625" xlink:href="#MicrosoftYaHei-105"/>
      <use x="852.767578" xlink:href="#MicrosoftYaHei-100"/>
     </g>
    </g>
   </g>
   <g id="matplotlib.axis_6">
    <g id="ytick_10">
     <g id="line2d_33">
      <path clip-path="url(#p2ef1ef1128)" d="M 81.564 729.1554 
L 423.236727 729.1554 
" style="fill:none;stroke:#cbcbcb;"/>
     </g>
     <g id="line2d_34"/>
     <g id="text_38">
      <!-- 0 -->
      <g transform="translate(69.854313 734.751025)scale(0.14 -0.14)">
       <use xlink:href="#MicrosoftYaHei-48"/>
      </g>
     </g>
    </g>
    <g id="ytick_11">
     <g id="line2d_35">
      <path clip-path="url(#p2ef1ef1128)" d="M 81.564 678.659369 
L 423.236727 678.659369 
" style="fill:none;stroke:#cbcbcb;"/>
     </g>
     <g id="line2d_36"/>
     <g id="text_39">
      <!-- 50000 -->
      <g transform="translate(37.015563 684.254994)scale(0.14 -0.14)">
       <use xlink:href="#MicrosoftYaHei-53"/>
       <use x="58.642578" xlink:href="#MicrosoftYaHei-48"/>
       <use x="117.285156" xlink:href="#MicrosoftYaHei-48"/>
       <use x="175.927734" xlink:href="#MicrosoftYaHei-48"/>
       <use x="234.570312" xlink:href="#MicrosoftYaHei-48"/>
      </g>
     </g>
    </g>
    <g id="ytick_12">
     <g id="line2d_37">
      <path clip-path="url(#p2ef1ef1128)" d="M 81.564 628.163337 
L 423.236727 628.163337 
" style="fill:none;stroke:#cbcbcb;"/>
     </g>
     <g id="line2d_38"/>
     <g id="text_40">
      <!-- 100000 -->
      <g transform="translate(28.805875 633.758962)scale(0.14 -0.14)">
       <use xlink:href="#MicrosoftYaHei-49"/>
       <use x="58.642578" xlink:href="#MicrosoftYaHei-48"/>
       <use x="117.285156" xlink:href="#MicrosoftYaHei-48"/>
       <use x="175.927734" xlink:href="#MicrosoftYaHei-48"/>
       <use x="234.570312" xlink:href="#MicrosoftYaHei-48"/>
       <use x="293.212891" xlink:href="#MicrosoftYaHei-48"/>
      </g>
     </g>
    </g>
    <g id="ytick_13">
     <g id="line2d_39">
      <path clip-path="url(#p2ef1ef1128)" d="M 81.564 577.667306 
L 423.236727 577.667306 
" style="fill:none;stroke:#cbcbcb;"/>
     </g>
     <g id="line2d_40"/>
     <g id="text_41">
      <!-- 150000 -->
      <g transform="translate(28.805875 583.262931)scale(0.14 -0.14)">
       <use xlink:href="#MicrosoftYaHei-49"/>
       <use x="58.642578" xlink:href="#MicrosoftYaHei-53"/>
       <use x="117.285156" xlink:href="#MicrosoftYaHei-48"/>
       <use x="175.927734" xlink:href="#MicrosoftYaHei-48"/>
       <use x="234.570312" xlink:href="#MicrosoftYaHei-48"/>
       <use x="293.212891" xlink:href="#MicrosoftYaHei-48"/>
      </g>
     </g>
    </g>
    <g id="ytick_14">
     <g id="line2d_41">
      <path clip-path="url(#p2ef1ef1128)" d="M 81.564 527.171275 
L 423.236727 527.171275 
" style="fill:none;stroke:#cbcbcb;"/>
     </g>
     <g id="line2d_42"/>
     <g id="text_42">
      <!-- 200000 -->
      <g transform="translate(28.805875 532.7669)scale(0.14 -0.14)">
       <use xlink:href="#MicrosoftYaHei-50"/>
       <use x="58.642578" xlink:href="#MicrosoftYaHei-48"/>
       <use x="117.285156" xlink:href="#MicrosoftYaHei-48"/>
       <use x="175.927734" xlink:href="#MicrosoftYaHei-48"/>
       <use x="234.570312" xlink:href="#MicrosoftYaHei-48"/>
       <use x="293.212891" xlink:href="#MicrosoftYaHei-48"/>
      </g>
     </g>
    </g>
    <g id="ytick_15">
     <g id="line2d_43">
      <path clip-path="url(#p2ef1ef1128)" d="M 81.564 476.675244 
L 423.236727 476.675244 
" style="fill:none;stroke:#cbcbcb;"/>
     </g>
     <g id="line2d_44"/>
     <g id="text_43">
      <!-- 250000 -->
      <g transform="translate(28.805875 482.270869)scale(0.14 -0.14)">
       <use xlink:href="#MicrosoftYaHei-50"/>
       <use x="58.642578" xlink:href="#MicrosoftYaHei-53"/>
       <use x="117.285156" xlink:href="#MicrosoftYaHei-48"/>
       <use x="175.927734" xlink:href="#MicrosoftYaHei-48"/>
       <use x="234.570312" xlink:href="#MicrosoftYaHei-48"/>
       <use x="293.212891" xlink:href="#MicrosoftYaHei-48"/>
      </g>
     </g>
    </g>
    <g id="ytick_16">
     <g id="line2d_45">
      <path clip-path="url(#p2ef1ef1128)" d="M 81.564 426.179212 
L 423.236727 426.179212 
" style="fill:none;stroke:#cbcbcb;"/>
     </g>
     <g id="line2d_46"/>
     <g id="text_44">
      <!-- 300000 -->
      <g transform="translate(28.805875 431.774837)scale(0.14 -0.14)">
       <use xlink:href="#MicrosoftYaHei-51"/>
       <use x="58.642578" xlink:href="#MicrosoftYaHei-48"/>
       <use x="117.285156" xlink:href="#MicrosoftYaHei-48"/>
       <use x="175.927734" xlink:href="#MicrosoftYaHei-48"/>
       <use x="234.570312" xlink:href="#MicrosoftYaHei-48"/>
       <use x="293.212891" xlink:href="#MicrosoftYaHei-48"/>
      </g>
     </g>
    </g>
    <g id="text_45">
     <!-- count -->
     <g transform="translate(20.6295 593.13523)rotate(-90)scale(0.168 -0.168)">
      <use xlink:href="#MicrosoftYaHei-99"/>
      <use x="50.146484" xlink:href="#MicrosoftYaHei-111"/>
      <use x="113.720703" xlink:href="#MicrosoftYaHei-117"/>
      <use x="175.341797" xlink:href="#MicrosoftYaHei-110"/>
      <use x="236.962891" xlink:href="#MicrosoftYaHei-116"/>
     </g>
    </g>
   </g>
   <g id="patch_25">
    <path clip-path="url(#p2ef1ef1128)" d="M 88.397455 729.1554 
L 143.065091 729.1554 
L 143.065091 728.181837 
L 88.397455 728.181837 
z
" style="fill:#1b86ba;"/>
   </g>
   <g id="patch_26">
    <path clip-path="url(#p2ef1ef1128)" d="M 156.732 729.1554 
L 211.399636 729.1554 
L 211.399636 580.80008 
L 156.732 580.80008 
z
" style="fill:#e36149;"/>
   </g>
   <g id="patch_27">
    <path clip-path="url(#p2ef1ef1128)" d="M 225.066545 729.1554 
L 279.734182 729.1554 
L 279.734182 722.674739 
L 225.066545 722.674739 
z
" style="fill:#cfa64e;"/>
   </g>
   <g id="patch_28">
    <path clip-path="url(#p2ef1ef1128)" d="M 293.401091 729.1554 
L 348.068727 729.1554 
L 348.068727 705.120299 
L 293.401091 705.120299 
z
" style="fill:#6e8857;"/>
   </g>
   <g id="patch_29">
    <path clip-path="url(#p2ef1ef1128)" d="M 361.735636 729.1554 
L 416.403273 729.1554 
L 416.403273 426.194361 
L 361.735636 426.194361 
z
" style="fill:#8b8b8b;"/>
   </g>
   <g id="patch_30">
    <path d="M 81.564 729.1554 
L 81.564 411.046309 
" style="fill:none;stroke:#f0f0f0;stroke-linecap:square;stroke-linejoin:miter;stroke-width:3;"/>
   </g>
   <g id="patch_31">
    <path d="M 423.236727 729.1554 
L 423.236727 411.046309 
" style="fill:none;stroke:#f0f0f0;stroke-linecap:square;stroke-linejoin:miter;stroke-width:3;"/>
   </g>
   <g id="patch_32">
    <path d="M 81.564 729.1554 
L 423.236727 729.1554 
" style="fill:none;stroke:#f0f0f0;stroke-linecap:square;stroke-linejoin:miter;stroke-width:3;"/>
   </g>
   <g id="patch_33">
    <path d="M 81.564 411.046309 
L 423.236727 411.046309 
" style="fill:none;stroke:#f0f0f0;stroke-linecap:square;stroke-linejoin:miter;stroke-width:3;"/>
   </g>
   <g id="text_46">
    <!-- user_occupation_id -->
    <g transform="translate(159.990389 405.046309)scale(0.2016 -0.2016)">
     <use xlink:href="#MicrosoftYaHei-117"/>
     <use x="61.621094" xlink:href="#MicrosoftYaHei-115"/>
     <use x="107.910156" xlink:href="#MicrosoftYaHei-101"/>
     <use x="164.648438" xlink:href="#MicrosoftYaHei-114"/>
     <use x="202.832031" xlink:href="#MicrosoftYaHei-95"/>
     <use x="247.65625" xlink:href="#MicrosoftYaHei-111"/>
     <use x="311.230469" xlink:href="#MicrosoftYaHei-99"/>
     <use x="361.376953" xlink:href="#MicrosoftYaHei-99"/>
     <use x="411.523438" xlink:href="#MicrosoftYaHei-117"/>
     <use x="473.144531" xlink:href="#MicrosoftYaHei-112"/>
     <use x="536.996094" xlink:href="#MicrosoftYaHei-97"/>
     <use x="592.269531" xlink:href="#MicrosoftYaHei-116"/>
     <use x="629.525391" xlink:href="#MicrosoftYaHei-105"/>
     <use x="656.136719" xlink:href="#MicrosoftYaHei-111"/>
     <use x="719.710938" xlink:href="#MicrosoftYaHei-110"/>
     <use x="781.332031" xlink:href="#MicrosoftYaHei-95"/>
     <use x="826.15625" xlink:href="#MicrosoftYaHei-105"/>
     <use x="852.767578" xlink:href="#MicrosoftYaHei-100"/>
    </g>
   </g>
  </g>
  <g id="axes_4">
   <g id="matplotlib.axis_7"/>
   <g id="matplotlib.axis_8">
    <g id="text_47">
     <!-- user_star_level -->
     <g transform="translate(495.176716 627.950605)rotate(-90)scale(0.168 -0.168)">
      <use xlink:href="#MicrosoftYaHei-117"/>
      <use x="61.621094" xlink:href="#MicrosoftYaHei-115"/>
      <use x="107.910156" xlink:href="#MicrosoftYaHei-101"/>
      <use x="164.648438" xlink:href="#MicrosoftYaHei-114"/>
      <use x="202.832031" xlink:href="#MicrosoftYaHei-95"/>
      <use x="247.65625" xlink:href="#MicrosoftYaHei-115"/>
      <use x="293.945312" xlink:href="#MicrosoftYaHei-116"/>
      <use x="331.201172" xlink:href="#MicrosoftYaHei-97"/>
      <use x="386.474609" xlink:href="#MicrosoftYaHei-114"/>
      <use x="424.658203" xlink:href="#MicrosoftYaHei-95"/>
      <use x="469.482422" xlink:href="#MicrosoftYaHei-108"/>
      <use x="496.09375" xlink:href="#MicrosoftYaHei-101"/>
      <use x="552.832031" xlink:href="#MicrosoftYaHei-118"/>
      <use x="605.322266" xlink:href="#MicrosoftYaHei-101"/>
      <use x="662.060547" xlink:href="#MicrosoftYaHei-108"/>
     </g>
    </g>
   </g>
   <g id="patch_34">
    <path d="M 787.1064 572.645727 
C 787.1064 572.377034 787.105549 572.108341 787.103847 571.839653 
C 787.102145 571.570965 787.099591 571.302283 787.096187 571.033612 
L 659.862764 572.645727 
L 787.1064 572.645727 
z
" style="fill:#48474a;opacity:0.5;stroke:#48474a;stroke-linejoin:miter;stroke-width:0.5;"/>
   </g>
   <g id="patch_35">
    <path d="M 787.096187 571.033612 
C 786.98546 562.29464 785.974678 553.590282 784.07986 545.058486 
C 782.185043 536.526689 779.416253 528.212765 775.817371 520.248474 
L 659.862764 572.645727 
L 787.096187 571.033612 
z
" style="fill:#403641;opacity:0.5;stroke:#403641;stroke-linejoin:miter;stroke-width:0.5;"/>
   </g>
   <g id="patch_36">
    <path d="M 775.817371 520.248474 
C 773.599034 515.339318 771.071178 510.575988 768.249066 505.98725 
C 765.426954 501.398512 762.316278 496.993621 758.935824 492.799177 
L 659.862764 572.645727 
L 775.817371 520.248474 
z
" style="fill:#431e35;opacity:0.5;stroke:#431e35;stroke-linejoin:miter;stroke-width:0.5;"/>
   </g>
   <g id="patch_37">
    <path d="M 758.935824 492.799177 
C 747.894295 479.098921 734.130057 467.836737 718.51503 459.726045 
C 702.900003 451.615353 685.77102 446.831111 668.213144 445.676384 
L 659.862764 572.645727 
L 758.935824 492.799177 
z
" style="fill:#420824;opacity:0.5;stroke:#420824;stroke-linejoin:miter;stroke-width:0.5;"/>
   </g>
   <g id="patch_38">
    <path d="M 668.213144 445.676384 
C 647.372032 444.305728 626.510505 448.087305 607.476563 456.686127 
C 588.442621 465.284948 571.8154 478.439383 559.067806 494.984156 
L 659.862764 572.645727 
L 668.213144 445.676384 
z
" style="fill:#2e0014;opacity:0.5;stroke:#2e0014;stroke-linejoin:miter;stroke-width:0.5;"/>
   </g>
   <g id="patch_39">
    <path d="M 559.067806 494.984156 
C 548.524724 508.667752 540.877686 524.356064 536.593871 541.090648 
C 532.310056 557.825232 531.478515 575.258214 534.15005 592.324563 
L 659.862764 572.645727 
L 559.067806 494.984156 
z
" style="fill:#48474a;opacity:0.5;stroke:#48474a;stroke-linejoin:miter;stroke-width:0.5;"/>
   </g>
   <g id="patch_40">
    <path d="M 534.15005 592.324563 
C 537.06856 610.968645 544.098422 628.732087 554.728843 644.324188 
C 565.359264 659.91629 579.326382 672.950033 595.615339 682.478379 
L 659.862764 572.645727 
L 534.15005 592.324563 
z
" style="fill:#403641;opacity:0.5;stroke:#403641;stroke-linejoin:miter;stroke-width:0.5;"/>
   </g>
   <g id="patch_41">
    <path d="M 595.615339 682.478379 
C 615.46118 694.087351 638.087322 700.103166 661.078134 699.883559 
C 684.068945 699.663952 706.576044 693.217026 726.196508 681.231073 
L 659.862764 572.645727 
L 595.615339 682.478379 
z
" style="fill:#431e35;opacity:0.5;stroke:#431e35;stroke-linejoin:miter;stroke-width:0.5;"/>
   </g>
   <g id="patch_42">
    <path d="M 726.196508 681.231073 
C 738.909201 673.465011 750.159865 663.526423 759.43497 651.868948 
C 768.710075 640.211474 775.866322 627.01522 780.577068 612.882522 
L 659.862764 572.645727 
L 726.196508 681.231073 
z
" style="fill:#420824;opacity:0.5;stroke:#420824;stroke-linejoin:miter;stroke-width:0.5;"/>
   </g>
   <g id="patch_43">
    <path d="M 780.577068 612.882522 
C 782.356095 607.545268 783.779193 602.095899 784.836993 596.570298 
C 785.894792 591.044697 786.584965 585.455019 786.902967 579.838073 
L 659.862764 572.645727 
L 780.577068 612.882522 
z
" style="fill:#2e0014;opacity:0.5;stroke:#2e0014;stroke-linejoin:miter;stroke-width:0.5;"/>
   </g>
   <g id="patch_44">
    <path d="M 786.902967 579.838073 
C 786.967941 578.690422 787.01736 577.541942 787.051212 576.392952 
C 787.085063 575.243961 787.103344 574.094565 787.106048 572.945079 
L 659.862764 572.645727 
L 786.902967 579.838073 
z
" style="fill:#48474a;opacity:0.5;stroke:#48474a;stroke-linejoin:miter;stroke-width:0.5;"/>
   </g>
   <g id="patch_45">
    <path d="M 787.106048 572.945079 
C 787.106165 572.895187 787.106253 572.845295 787.106312 572.795403 
C 787.106371 572.745511 787.1064 572.695618 787.1064 572.645726 
L 659.862764 572.645727 
L 787.106048 572.945079 
z
" style="fill:#403641;opacity:0.5;stroke:#403641;stroke-linejoin:miter;stroke-width:0.5;"/>
   </g>
   <g id="patch_46">
    <path d="M 789.651273 570.100855 
C 789.651273 569.832161 789.650422 569.563469 789.64872 569.294781 
C 789.647017 569.026093 789.644464 568.757411 789.64106 568.488739 
L 662.407636 570.100855 
L 789.651273 570.100855 
z
" style="fill:#f1eef6;"/>
   </g>
   <g id="patch_47">
    <path d="M 789.64106 568.488739 
C 789.530332 559.749767 788.51955 551.045409 786.624733 542.513613 
C 784.729916 533.981817 781.961126 525.667893 778.362243 517.703602 
L 662.407636 570.100855 
L 789.64106 568.488739 
z
" style="fill:#d7b5d8;"/>
   </g>
   <g id="patch_48">
    <path d="M 778.362243 517.703602 
C 776.143907 512.794445 773.61605 508.031116 770.793938 503.442378 
C 767.971826 498.85364 764.861151 494.448748 761.480697 490.254304 
L 662.407636 570.100855 
L 778.362243 517.703602 
z
" style="fill:#df65b0;"/>
   </g>
   <g id="patch_49">
    <path d="M 761.480697 490.254304 
C 750.439167 476.554048 736.67493 465.291864 721.059903 457.181172 
C 705.444876 449.070481 688.315893 444.286238 670.758017 443.131511 
L 662.407636 570.100855 
L 761.480697 490.254304 
z
" style="fill:#dd1c77;"/>
   </g>
   <g id="patch_50">
    <path d="M 670.758017 443.131511 
C 649.916905 441.760856 629.055378 445.542433 610.021436 454.141254 
C 590.987494 462.740075 574.360272 475.89451 561.612679 492.439284 
L 662.407636 570.100855 
L 670.758017 443.131511 
z
" style="fill:#980043;"/>
   </g>
   <g id="patch_51">
    <path d="M 561.612679 492.439284 
C 551.069597 506.122879 543.422558 521.811191 539.138743 538.545775 
C 534.854929 555.280359 534.023388 572.713342 536.694923 589.779691 
L 662.407636 570.100855 
L 561.612679 492.439284 
z
" style="fill:#f1eef6;"/>
   </g>
   <g id="patch_52">
    <path d="M 536.694923 589.779691 
C 539.613433 608.423772 546.643295 626.187214 557.273716 641.779316 
C 567.904137 657.371417 581.871255 670.40516 598.160211 679.933506 
L 662.407636 570.100855 
L 536.694923 589.779691 
z
" style="fill:#d7b5d8;"/>
   </g>
   <g id="patch_53">
    <path d="M 598.160211 679.933506 
C 618.006052 691.542478 640.632195 697.558294 663.623007 697.338686 
C 686.613818 697.119079 709.120917 690.672153 728.74138 678.686201 
L 662.407636 570.100855 
L 598.160211 679.933506 
z
" style="fill:#df65b0;"/>
   </g>
   <g id="patch_54">
    <path d="M 728.74138 678.686201 
C 741.454074 670.920139 752.704738 660.98155 761.979843 649.324075 
C 771.254948 637.666601 778.411195 624.470347 783.121941 610.337649 
L 662.407636 570.100855 
L 728.74138 678.686201 
z
" style="fill:#dd1c77;"/>
   </g>
   <g id="patch_55">
    <path d="M 783.121941 610.337649 
C 784.900968 605.000396 786.324066 599.551026 787.381865 594.025425 
C 788.439665 588.499824 789.129837 582.910146 789.447839 577.2932 
L 662.407636 570.100855 
L 783.121941 610.337649 
z
" style="fill:#980043;"/>
   </g>
   <g id="patch_56">
    <path d="M 789.447839 577.2932 
C 789.512813 576.145549 789.562233 574.99707 789.596084 573.848079 
C 789.629936 572.699089 789.648216 571.549692 789.650921 570.400206 
L 662.407636 570.100855 
L 789.447839 577.2932 
z
" style="fill:#f1eef6;"/>
   </g>
   <g id="patch_57">
    <path d="M 789.650921 570.400206 
C 789.651038 570.350314 789.651126 570.300422 789.651185 570.25053 
C 789.651243 570.200638 789.651273 570.150746 789.651273 570.100854 
L 662.407636 570.100855 
L 789.650921 570.400206 
z
" style="fill:#d7b5d8;"/>
   </g>
   <g id="text_48">
    <!-- -1 -->
    <g transform="translate(802.372828 573.069642)scale(0.14 -0.14)">
     <use xlink:href="#MicrosoftYaHei-45"/>
     <use x="43.261719" xlink:href="#MicrosoftYaHei-49"/>
    </g>
   </g>
   <g id="text_49">
    <!-- 0.2% -->
    <g transform="translate(722.629318 573.472679)scale(0.14 -0.14)">
     <use xlink:href="#MicrosoftYaHei-48"/>
     <use x="58.642578" xlink:href="#MicrosoftYaHei-46"/>
     <use x="82.714844" xlink:href="#MicrosoftYaHei-50"/>
     <use x="141.357422" xlink:href="#MicrosoftYaHei-37"/>
    </g>
   </g>
   <g id="text_50">
    <!-- 3000 -->
    <g transform="translate(799.046443 543.610358)scale(0.14 -0.14)">
     <use xlink:href="#MicrosoftYaHei-51"/>
     <use x="58.642578" xlink:href="#MicrosoftYaHei-48"/>
     <use x="117.285156" xlink:href="#MicrosoftYaHei-48"/>
     <use x="175.927734" xlink:href="#MicrosoftYaHei-48"/>
    </g>
   </g>
   <g id="text_51">
    <!-- 6.6% -->
    <g transform="translate(720.814926 557.403978)scale(0.14 -0.14)">
     <use xlink:href="#MicrosoftYaHei-54"/>
     <use x="58.642578" xlink:href="#MicrosoftYaHei-46"/>
     <use x="82.714844" xlink:href="#MicrosoftYaHei-54"/>
     <use x="141.357422" xlink:href="#MicrosoftYaHei-37"/>
    </g>
   </g>
   <g id="text_52">
    <!-- 3001 -->
    <g transform="translate(781.632569 500.631999)scale(0.14 -0.14)">
     <use xlink:href="#MicrosoftYaHei-51"/>
     <use x="58.642578" xlink:href="#MicrosoftYaHei-48"/>
     <use x="117.285156" xlink:href="#MicrosoftYaHei-48"/>
     <use x="175.927734" xlink:href="#MicrosoftYaHei-49"/>
    </g>
   </g>
   <g id="text_53">
    <!-- 4.0% -->
    <g transform="translate(711.316449 533.961237)scale(0.14 -0.14)">
     <use xlink:href="#MicrosoftYaHei-52"/>
     <use x="58.642578" xlink:href="#MicrosoftYaHei-46"/>
     <use x="82.714844" xlink:href="#MicrosoftYaHei-48"/>
     <use x="141.357422" xlink:href="#MicrosoftYaHei-37"/>
    </g>
   </g>
   <g id="text_54">
    <!-- 3002 -->
    <g transform="translate(726.925129 449.744673)scale(0.14 -0.14)">
     <use xlink:href="#MicrosoftYaHei-51"/>
     <use x="58.642578" xlink:href="#MicrosoftYaHei-48"/>
     <use x="117.285156" xlink:href="#MicrosoftYaHei-48"/>
     <use x="175.927734" xlink:href="#MicrosoftYaHei-50"/>
    </g>
   </g>
   <g id="text_55">
    <!-- 13.2% -->
    <g transform="translate(677.371184 506.204514)scale(0.14 -0.14)">
     <use xlink:href="#MicrosoftYaHei-49"/>
     <use x="58.642578" xlink:href="#MicrosoftYaHei-51"/>
     <use x="117.285156" xlink:href="#MicrosoftYaHei-46"/>
     <use x="141.357422" xlink:href="#MicrosoftYaHei-50"/>
     <use x="200" xlink:href="#MicrosoftYaHei-37"/>
    </g>
   </g>
   <g id="text_56">
    <!-- 3003 -->
    <g transform="translate(571.944066 446.400763)scale(0.14 -0.14)">
     <use xlink:href="#MicrosoftYaHei-51"/>
     <use x="58.642578" xlink:href="#MicrosoftYaHei-48"/>
     <use x="117.285156" xlink:href="#MicrosoftYaHei-48"/>
     <use x="175.927734" xlink:href="#MicrosoftYaHei-51"/>
    </g>
   </g>
   <g id="text_57">
    <!-- 15.6% -->
    <g transform="translate(610.748103 504.380563)scale(0.14 -0.14)">
     <use xlink:href="#MicrosoftYaHei-49"/>
     <use x="58.642578" xlink:href="#MicrosoftYaHei-53"/>
     <use x="117.285156" xlink:href="#MicrosoftYaHei-46"/>
     <use x="141.357422" xlink:href="#MicrosoftYaHei-54"/>
     <use x="200" xlink:href="#MicrosoftYaHei-37"/>
    </g>
   </g>
   <g id="text_58">
    <!-- 3004 -->
    <g transform="translate(493.973104 539.245736)scale(0.14 -0.14)">
     <use xlink:href="#MicrosoftYaHei-51"/>
     <use x="58.642578" xlink:href="#MicrosoftYaHei-48"/>
     <use x="117.285156" xlink:href="#MicrosoftYaHei-48"/>
     <use x="175.927734" xlink:href="#MicrosoftYaHei-52"/>
    </g>
   </g>
   <g id="text_59">
    <!-- 12.9% -->
    <g transform="translate(568.218488 555.023276)scale(0.14 -0.14)">
     <use xlink:href="#MicrosoftYaHei-49"/>
     <use x="58.642578" xlink:href="#MicrosoftYaHei-50"/>
     <use x="117.285156" xlink:href="#MicrosoftYaHei-46"/>
     <use x="141.357422" xlink:href="#MicrosoftYaHei-57"/>
     <use x="200" xlink:href="#MicrosoftYaHei-37"/>
    </g>
   </g>
   <g id="text_60">
    <!-- 3005 -->
    <g transform="translate(513.921574 652.802631)scale(0.14 -0.14)">
     <use xlink:href="#MicrosoftYaHei-51"/>
     <use x="58.642578" xlink:href="#MicrosoftYaHei-48"/>
     <use x="117.285156" xlink:href="#MicrosoftYaHei-48"/>
     <use x="175.927734" xlink:href="#MicrosoftYaHei-53"/>
    </g>
   </g>
   <g id="text_61">
    <!-- 14.1% -->
    <g transform="translate(579.099472 616.9634)scale(0.14 -0.14)">
     <use xlink:href="#MicrosoftYaHei-49"/>
     <use x="58.642578" xlink:href="#MicrosoftYaHei-52"/>
     <use x="117.285156" xlink:href="#MicrosoftYaHei-46"/>
     <use x="141.357422" xlink:href="#MicrosoftYaHei-49"/>
     <use x="200" xlink:href="#MicrosoftYaHei-37"/>
    </g>
   </g>
   <g id="text_62">
    <!-- 3006 -->
    <g transform="translate(663.744544 713.917938)scale(0.14 -0.14)">
     <use xlink:href="#MicrosoftYaHei-51"/>
     <use x="58.642578" xlink:href="#MicrosoftYaHei-48"/>
     <use x="117.285156" xlink:href="#MicrosoftYaHei-48"/>
     <use x="175.927734" xlink:href="#MicrosoftYaHei-54"/>
    </g>
   </g>
   <g id="text_63">
    <!-- 17.2% -->
    <g transform="translate(642.909046 650.299022)scale(0.14 -0.14)">
     <use xlink:href="#MicrosoftYaHei-49"/>
     <use x="58.642578" xlink:href="#MicrosoftYaHei-55"/>
     <use x="117.285156" xlink:href="#MicrosoftYaHei-46"/>
     <use x="141.357422" xlink:href="#MicrosoftYaHei-50"/>
     <use x="200" xlink:href="#MicrosoftYaHei-37"/>
    </g>
   </g>
   <g id="text_64">
    <!-- 3007 -->
    <g transform="translate(771.937063 661.101866)scale(0.14 -0.14)">
     <use xlink:href="#MicrosoftYaHei-51"/>
     <use x="58.642578" xlink:href="#MicrosoftYaHei-48"/>
     <use x="117.285156" xlink:href="#MicrosoftYaHei-48"/>
     <use x="175.927734" xlink:href="#MicrosoftYaHei-55"/>
    </g>
   </g>
   <g id="text_65">
    <!-- 11.2% -->
    <g transform="translate(701.923148 621.490256)scale(0.14 -0.14)">
     <use xlink:href="#MicrosoftYaHei-49"/>
     <use x="58.642578" xlink:href="#MicrosoftYaHei-49"/>
     <use x="117.285156" xlink:href="#MicrosoftYaHei-46"/>
     <use x="141.357422" xlink:href="#MicrosoftYaHei-50"/>
     <use x="200" xlink:href="#MicrosoftYaHei-37"/>
    </g>
   </g>
   <g id="text_66">
    <!-- 3008 -->
    <g transform="translate(799.879288 600.273351)scale(0.14 -0.14)">
     <use xlink:href="#MicrosoftYaHei-51"/>
     <use x="58.642578" xlink:href="#MicrosoftYaHei-48"/>
     <use x="117.285156" xlink:href="#MicrosoftYaHei-48"/>
     <use x="175.927734" xlink:href="#MicrosoftYaHei-56"/>
    </g>
   </g>
   <g id="text_67">
    <!-- 4.2% -->
    <g transform="translate(721.269205 588.311066)scale(0.14 -0.14)">
     <use xlink:href="#MicrosoftYaHei-52"/>
     <use x="58.642578" xlink:href="#MicrosoftYaHei-46"/>
     <use x="82.714844" xlink:href="#MicrosoftYaHei-50"/>
     <use x="141.357422" xlink:href="#MicrosoftYaHei-37"/>
    </g>
   </g>
   <g id="text_68">
    <!-- 3009 -->
    <g transform="translate(802.314929 578.07827)scale(0.14 -0.14)">
     <use xlink:href="#MicrosoftYaHei-51"/>
     <use x="58.642578" xlink:href="#MicrosoftYaHei-48"/>
     <use x="117.285156" xlink:href="#MicrosoftYaHei-48"/>
     <use x="175.927734" xlink:href="#MicrosoftYaHei-57"/>
    </g>
   </g>
   <g id="text_69">
    <!-- 0.9% -->
    <g transform="translate(722.597736 576.204658)scale(0.14 -0.14)">
     <use xlink:href="#MicrosoftYaHei-48"/>
     <use x="58.642578" xlink:href="#MicrosoftYaHei-46"/>
     <use x="82.714844" xlink:href="#MicrosoftYaHei-57"/>
     <use x="141.357422" xlink:href="#MicrosoftYaHei-37"/>
    </g>
   </g>
   <g id="text_70">
    <!-- 3010 -->
    <g transform="translate(802.37554 574.120966)scale(0.14 -0.14)">
     <use xlink:href="#MicrosoftYaHei-51"/>
     <use x="58.642578" xlink:href="#MicrosoftYaHei-48"/>
     <use x="117.285156" xlink:href="#MicrosoftYaHei-49"/>
     <use x="175.927734" xlink:href="#MicrosoftYaHei-48"/>
    </g>
   </g>
   <g id="text_71">
    <!-- 0.0% -->
    <g transform="translate(722.630797 574.046129)scale(0.14 -0.14)">
     <use xlink:href="#MicrosoftYaHei-48"/>
     <use x="58.642578" xlink:href="#MicrosoftYaHei-46"/>
     <use x="82.714844" xlink:href="#MicrosoftYaHei-48"/>
     <use x="141.357422" xlink:href="#MicrosoftYaHei-37"/>
    </g>
   </g>
   <g id="text_72">
    <!-- user_star_level -->
    <g transform="translate(592.987936 405.046309)scale(0.2016 -0.2016)">
     <use xlink:href="#MicrosoftYaHei-117"/>
     <use x="61.621094" xlink:href="#MicrosoftYaHei-115"/>
     <use x="107.910156" xlink:href="#MicrosoftYaHei-101"/>
     <use x="164.648438" xlink:href="#MicrosoftYaHei-114"/>
     <use x="202.832031" xlink:href="#MicrosoftYaHei-95"/>
     <use x="247.65625" xlink:href="#MicrosoftYaHei-115"/>
     <use x="293.945312" xlink:href="#MicrosoftYaHei-116"/>
     <use x="331.201172" xlink:href="#MicrosoftYaHei-97"/>
     <use x="386.474609" xlink:href="#MicrosoftYaHei-114"/>
     <use x="424.658203" xlink:href="#MicrosoftYaHei-95"/>
     <use x="469.482422" xlink:href="#MicrosoftYaHei-108"/>
     <use x="496.09375" xlink:href="#MicrosoftYaHei-101"/>
     <use x="552.832031" xlink:href="#MicrosoftYaHei-118"/>
     <use x="605.322266" xlink:href="#MicrosoftYaHei-101"/>
     <use x="662.060547" xlink:href="#MicrosoftYaHei-108"/>
    </g>
   </g>
  </g>
 </g>
 <defs>
  <clipPath id="pf8374aeb22">
   <rect height="318.109091" width="341.672727" x="491.571273" y="29.3154"/>
  </clipPath>
  <clipPath id="p2ef1ef1128">
   <rect height="318.109091" width="341.672727" x="81.564" y="411.046309"/>
  </clipPath>
 </defs>
</svg>
