<?xml version="1.0" encoding="utf-8" standalone="no"?>
<!DOCTYPE svg PUBLIC "-//W3C//DTD SVG 1.1//EN"
  "http://www.w3.org/Graphics/SVG/1.1/DTD/svg11.dtd">
<!-- Created with matplotlib (https://matplotlib.org/) -->
<svg height="427.079088pt" version="1.1" viewBox="0 0 832.234312 427.079088" width="832.234312pt" xmlns="http://www.w3.org/2000/svg" xmlns:xlink="http://www.w3.org/1999/xlink">
 <defs>
  <style type="text/css">
*{stroke-linecap:butt;stroke-linejoin:round;}
  </style>
 </defs>
 <g id="figure_1">
  <g id="patch_1">
   <path d="M 0 427.079088 
L 832.234312 427.079088 
L 832.234312 0 
L 0 0 
z
" style="fill:#f0f0f0;"/>
  </g>
  <g id="axes_1">
   <g id="patch_2">
    <path d="M 73.354313 380.10165 
L 825.034312 380.10165 
L 825.034312 30.18165 
L 73.354313 30.18165 
z
" style="fill:#f0f0f0;"/>
   </g>
   <g id="matplotlib.axis_1">
    <g id="xtick_1">
     <g id="line2d_1">
      <path clip-path="url(#p45fca2cad9)" d="M 121.326544 380.10165 
L 121.326544 30.18165 
" style="fill:none;stroke:#cbcbcb;"/>
     </g>
     <g id="line2d_2"/>
     <g id="text_1">
      <!-- 11278 -->
      <defs>
       <path d="M 52.59375 0 
L 9.234375 0 
L 9.234375 8.25 
L 26.171875 8.25 
L 26.171875 65.671875 
L 8.796875 60.640625 
L 8.796875 69.4375 
L 35.6875 77.25 
L 35.6875 8.25 
L 52.59375 8.25 
z
" id="MicrosoftYaHei-49"/>
       <path d="M 51.171875 0 
L 5.171875 0 
L 5.171875 8.296875 
L 27.15625 30.21875 
Q 36.234375 39.3125 39.3125 44.609375 
Q 42.390625 49.90625 42.390625 55.5625 
Q 42.390625 62.015625 38.765625 65.453125 
Q 35.15625 68.890625 28.328125 68.890625 
Q 18.21875 68.890625 9.03125 60.296875 
L 9.03125 70.015625 
Q 17.96875 76.90625 29.828125 76.90625 
Q 40.046875 76.90625 45.953125 71.390625 
Q 51.859375 65.875 51.859375 56.546875 
Q 51.859375 49.515625 48.0625 42.75 
Q 44.28125 35.984375 33.734375 25.53125 
L 16.5 8.6875 
L 16.5 8.5 
L 51.171875 8.5 
z
" id="MicrosoftYaHei-50"/>
       <path d="M 53.765625 72.3125 
L 24.171875 0 
L 14.265625 0 
L 42.390625 67.1875 
L 4.59375 67.1875 
L 4.59375 75.640625 
L 53.765625 75.640625 
z
" id="MicrosoftYaHei-55"/>
       <path d="M 21.390625 39.796875 
Q 7.859375 46.09375 7.859375 58.0625 
Q 7.859375 66.40625 14.203125 71.65625 
Q 20.5625 76.90625 30.421875 76.90625 
Q 39.453125 76.90625 45.3125 71.96875 
Q 51.171875 67.046875 51.171875 59.234375 
Q 51.171875 46.625 37.0625 39.84375 
L 37.0625 39.65625 
Q 53.609375 33.6875 53.609375 19.34375 
Q 53.609375 9.90625 46.796875 4.3125 
Q 39.984375 -1.265625 27.78125 -1.265625 
Q 17.78125 -1.265625 11.46875 4.25 
Q 5.171875 9.765625 5.171875 18.5625 
Q 5.171875 33.015625 21.390625 39.59375 
z
M 41.5 58.109375 
Q 41.5 63.1875 38.328125 66.109375 
Q 35.15625 69.046875 29.734375 69.046875 
Q 24.65625 69.046875 21.09375 65.984375 
Q 17.53125 62.9375 17.53125 58.203125 
Q 17.53125 48.734375 29.390625 43.796875 
Q 41.5 48.828125 41.5 58.109375 
z
M 28.8125 35.25 
Q 14.796875 29.59375 14.796875 19.046875 
Q 14.796875 13.578125 18.890625 10.0625 
Q 23 6.546875 29.59375 6.546875 
Q 35.984375 6.546875 39.984375 10.03125 
Q 44 13.53125 44 18.75 
Q 44 29.734375 28.8125 35.25 
z
" id="MicrosoftYaHei-56"/>
      </defs>
      <g transform="translate(100.802325 394.7929)scale(0.14 -0.14)">
       <use xlink:href="#MicrosoftYaHei-49"/>
       <use x="58.642578" xlink:href="#MicrosoftYaHei-49"/>
       <use x="117.285156" xlink:href="#MicrosoftYaHei-50"/>
       <use x="175.927734" xlink:href="#MicrosoftYaHei-55"/>
       <use x="234.570312" xlink:href="#MicrosoftYaHei-56"/>
      </g>
     </g>
    </g>
    <g id="xtick_2">
     <g id="line2d_3">
      <path clip-path="url(#p45fca2cad9)" d="M 155.838941 380.10165 
L 155.838941 30.18165 
" style="fill:none;stroke:#cbcbcb;"/>
     </g>
     <g id="line2d_4"/>
     <g id="text_2">
      <!-- 9700 -->
      <defs>
       <path d="M 9.03125 10.25 
Q 15.28125 6.640625 22.515625 6.640625 
Q 32.671875 6.640625 38.25 14.640625 
Q 43.84375 22.65625 43.84375 37.40625 
Q 43.75 37.3125 43.65625 37.40625 
Q 38.671875 27.9375 26.90625 27.9375 
Q 17.390625 27.9375 11.140625 34.46875 
Q 4.890625 41.015625 4.890625 51.46875 
Q 4.890625 62.59375 11.71875 69.75 
Q 18.5625 76.90625 29.4375 76.90625 
Q 40.71875 76.90625 47.0625 68.046875 
Q 53.421875 59.1875 53.421875 42.234375 
Q 53.421875 21.296875 45.21875 10.015625 
Q 37.015625 -1.265625 22.515625 -1.265625 
Q 14.546875 -1.265625 9.03125 1.3125 
z
M 14.546875 52.6875 
Q 14.546875 45.0625 18.453125 40.59375 
Q 22.359375 36.140625 29.25 36.140625 
Q 35.203125 36.140625 39.25 40.203125 
Q 43.3125 44.28125 43.3125 50.09375 
Q 43.3125 58.25 39.28125 63.59375 
Q 35.25 68.953125 28.65625 68.953125 
Q 22.5625 68.953125 18.546875 64.3125 
Q 14.546875 59.671875 14.546875 52.6875 
z
" id="MicrosoftYaHei-57"/>
       <path d="M 4.4375 36.328125 
Q 4.4375 56.34375 11.078125 66.625 
Q 17.71875 76.90625 30.328125 76.90625 
Q 54.34375 76.90625 54.34375 38.140625 
Q 54.34375 19 47.578125 8.859375 
Q 40.828125 -1.265625 28.609375 -1.265625 
Q 17.09375 -1.265625 10.765625 8.34375 
Q 4.4375 17.96875 4.4375 36.328125 
z
M 14.203125 36.765625 
Q 14.203125 6.640625 29.5 6.640625 
Q 44.53125 6.640625 44.53125 37.25 
Q 44.53125 68.953125 29.78125 68.953125 
Q 14.203125 68.953125 14.203125 36.765625 
z
" id="MicrosoftYaHei-48"/>
      </defs>
      <g transform="translate(139.419566 394.7929)scale(0.14 -0.14)">
       <use xlink:href="#MicrosoftYaHei-57"/>
       <use x="58.642578" xlink:href="#MicrosoftYaHei-55"/>
       <use x="117.285156" xlink:href="#MicrosoftYaHei-48"/>
       <use x="175.927734" xlink:href="#MicrosoftYaHei-48"/>
      </g>
     </g>
    </g>
    <g id="xtick_3">
     <g id="line2d_5">
      <path clip-path="url(#p45fca2cad9)" d="M 190.351337 380.10165 
L 190.351337 30.18165 
" style="fill:none;stroke:#cbcbcb;"/>
     </g>
     <g id="line2d_6"/>
     <g id="text_3">
      <!-- 8349 -->
      <defs>
       <path d="M 6.984375 12.640625 
Q 14.75 6.640625 24.515625 6.640625 
Q 32.328125 6.640625 36.890625 10.46875 
Q 41.453125 14.3125 41.453125 20.75 
Q 41.453125 35.109375 20.90625 35.109375 
L 14.59375 35.109375 
L 14.59375 43.015625 
L 20.609375 43.015625 
Q 38.8125 43.015625 38.8125 56.5 
Q 38.8125 68.953125 24.90625 68.953125 
Q 16.9375 68.953125 9.90625 63.578125 
L 9.90625 72.609375 
Q 17.328125 76.90625 27.25 76.90625 
Q 36.921875 76.90625 42.78125 71.84375 
Q 48.640625 66.796875 48.640625 58.734375 
Q 48.640625 43.890625 33.5 39.65625 
L 33.5 39.453125 
Q 41.703125 38.578125 46.453125 33.671875 
Q 51.21875 28.765625 51.21875 21.4375 
Q 51.21875 11.234375 43.875 4.984375 
Q 36.53125 -1.265625 24.3125 -1.265625 
Q 13.578125 -1.265625 6.984375 2.734375 
z
" id="MicrosoftYaHei-51"/>
       <path d="M 55.078125 19.625 
L 45.40625 19.625 
L 45.40625 0 
L 36.140625 0 
L 36.140625 19.625 
L 0.875 19.625 
L 0.875 25.828125 
L 34.328125 75.640625 
L 45.40625 75.640625 
L 45.40625 27.203125 
L 55.078125 27.203125 
z
M 36.140625 27.203125 
L 36.140625 58.890625 
Q 36.140625 62.25 36.328125 66.65625 
L 36.140625 66.65625 
Q 35.453125 64.796875 33.25 60.84375 
L 10.75 27.203125 
z
" id="MicrosoftYaHei-52"/>
      </defs>
      <g transform="translate(173.931962 394.7929)scale(0.14 -0.14)">
       <use xlink:href="#MicrosoftYaHei-56"/>
       <use x="58.642578" xlink:href="#MicrosoftYaHei-51"/>
       <use x="117.285156" xlink:href="#MicrosoftYaHei-52"/>
       <use x="175.927734" xlink:href="#MicrosoftYaHei-57"/>
      </g>
     </g>
    </g>
    <g id="xtick_4">
     <g id="line2d_7">
      <path clip-path="url(#p45fca2cad9)" d="M 224.863734 380.10165 
L 224.863734 30.18165 
" style="fill:none;stroke:#cbcbcb;"/>
     </g>
     <g id="line2d_8"/>
     <g id="text_4">
      <!-- 5172 -->
      <defs>
       <path d="M 8.640625 11.625 
Q 16.265625 6.640625 24.515625 6.640625 
Q 32.328125 6.640625 37.109375 11 
Q 41.890625 15.375 41.890625 22.609375 
Q 41.890625 29.890625 37.03125 33.890625 
Q 32.171875 37.890625 22.953125 37.890625 
Q 18.5 37.890625 10.984375 37.203125 
L 10.984375 75.640625 
L 48.1875 75.640625 
L 48.1875 67.1875 
L 19.875 67.1875 
L 19.875 45.796875 
Q 24.125 46.046875 26.265625 46.046875 
Q 38.234375 46.046875 44.921875 39.984375 
Q 51.609375 33.9375 51.609375 23.296875 
Q 51.609375 12.3125 44.421875 5.515625 
Q 37.25 -1.265625 24.609375 -1.265625 
Q 14.015625 -1.265625 8.640625 1.859375 
z
" id="MicrosoftYaHei-53"/>
      </defs>
      <g transform="translate(208.444359 394.7929)scale(0.14 -0.14)">
       <use xlink:href="#MicrosoftYaHei-53"/>
       <use x="58.642578" xlink:href="#MicrosoftYaHei-49"/>
       <use x="117.285156" xlink:href="#MicrosoftYaHei-55"/>
       <use x="175.927734" xlink:href="#MicrosoftYaHei-50"/>
      </g>
     </g>
    </g>
    <g id="xtick_5">
     <g id="line2d_9">
      <path clip-path="url(#p45fca2cad9)" d="M 259.376131 380.10165 
L 259.376131 30.18165 
" style="fill:none;stroke:#cbcbcb;"/>
     </g>
     <g id="line2d_10"/>
     <g id="text_5">
      <!-- 4295 -->
      <g transform="translate(242.956756 394.7929)scale(0.14 -0.14)">
       <use xlink:href="#MicrosoftYaHei-52"/>
       <use x="58.642578" xlink:href="#MicrosoftYaHei-50"/>
       <use x="117.285156" xlink:href="#MicrosoftYaHei-57"/>
       <use x="175.927734" xlink:href="#MicrosoftYaHei-53"/>
      </g>
     </g>
    </g>
    <g id="xtick_6">
     <g id="line2d_11">
      <path clip-path="url(#p45fca2cad9)" d="M 293.888527 380.10165 
L 293.888527 30.18165 
" style="fill:none;stroke:#cbcbcb;"/>
     </g>
     <g id="line2d_12"/>
     <g id="text_6">
      <!-- 4215 -->
      <g transform="translate(277.469152 394.7929)scale(0.14 -0.14)">
       <use xlink:href="#MicrosoftYaHei-52"/>
       <use x="58.642578" xlink:href="#MicrosoftYaHei-50"/>
       <use x="117.285156" xlink:href="#MicrosoftYaHei-49"/>
       <use x="175.927734" xlink:href="#MicrosoftYaHei-53"/>
      </g>
     </g>
    </g>
    <g id="xtick_7">
     <g id="line2d_13">
      <path clip-path="url(#p45fca2cad9)" d="M 328.400924 380.10165 
L 328.400924 30.18165 
" style="fill:none;stroke:#cbcbcb;"/>
     </g>
     <g id="line2d_14"/>
     <g id="text_7">
      <!-- 3727 -->
      <g transform="translate(311.981549 394.7929)scale(0.14 -0.14)">
       <use xlink:href="#MicrosoftYaHei-51"/>
       <use x="58.642578" xlink:href="#MicrosoftYaHei-55"/>
       <use x="117.285156" xlink:href="#MicrosoftYaHei-50"/>
       <use x="175.927734" xlink:href="#MicrosoftYaHei-55"/>
      </g>
     </g>
    </g>
    <g id="xtick_8">
     <g id="line2d_15">
      <path clip-path="url(#p45fca2cad9)" d="M 362.913321 380.10165 
L 362.913321 30.18165 
" style="fill:none;stroke:#cbcbcb;"/>
     </g>
     <g id="line2d_16"/>
     <g id="text_8">
      <!-- 3418 -->
      <g transform="translate(346.493946 394.7929)scale(0.14 -0.14)">
       <use xlink:href="#MicrosoftYaHei-51"/>
       <use x="58.642578" xlink:href="#MicrosoftYaHei-52"/>
       <use x="117.285156" xlink:href="#MicrosoftYaHei-49"/>
       <use x="175.927734" xlink:href="#MicrosoftYaHei-56"/>
      </g>
     </g>
    </g>
    <g id="xtick_9">
     <g id="line2d_17">
      <path clip-path="url(#p45fca2cad9)" d="M 397.425717 380.10165 
L 397.425717 30.18165 
" style="fill:none;stroke:#cbcbcb;"/>
     </g>
     <g id="line2d_18"/>
     <g id="text_9">
      <!-- 3353 -->
      <g transform="translate(381.006342 394.7929)scale(0.14 -0.14)">
       <use xlink:href="#MicrosoftYaHei-51"/>
       <use x="58.642578" xlink:href="#MicrosoftYaHei-51"/>
       <use x="117.285156" xlink:href="#MicrosoftYaHei-53"/>
       <use x="175.927734" xlink:href="#MicrosoftYaHei-51"/>
      </g>
     </g>
    </g>
    <g id="xtick_10">
     <g id="line2d_19">
      <path clip-path="url(#p45fca2cad9)" d="M 431.938114 380.10165 
L 431.938114 30.18165 
" style="fill:none;stroke:#cbcbcb;"/>
     </g>
     <g id="line2d_20"/>
     <g id="text_10">
      <!-- 3097 -->
      <g transform="translate(415.518739 394.7929)scale(0.14 -0.14)">
       <use xlink:href="#MicrosoftYaHei-51"/>
       <use x="58.642578" xlink:href="#MicrosoftYaHei-48"/>
       <use x="117.285156" xlink:href="#MicrosoftYaHei-57"/>
       <use x="175.927734" xlink:href="#MicrosoftYaHei-55"/>
      </g>
     </g>
    </g>
    <g id="xtick_11">
     <g id="line2d_21">
      <path clip-path="url(#p45fca2cad9)" d="M 466.450511 380.10165 
L 466.450511 30.18165 
" style="fill:none;stroke:#cbcbcb;"/>
     </g>
     <g id="line2d_22"/>
     <g id="text_11">
      <!-- 3000 -->
      <g transform="translate(450.031136 394.7929)scale(0.14 -0.14)">
       <use xlink:href="#MicrosoftYaHei-51"/>
       <use x="58.642578" xlink:href="#MicrosoftYaHei-48"/>
       <use x="117.285156" xlink:href="#MicrosoftYaHei-48"/>
       <use x="175.927734" xlink:href="#MicrosoftYaHei-48"/>
      </g>
     </g>
    </g>
    <g id="xtick_12">
     <g id="line2d_23">
      <path clip-path="url(#p45fca2cad9)" d="M 500.962908 380.10165 
L 500.962908 30.18165 
" style="fill:none;stroke:#cbcbcb;"/>
     </g>
     <g id="line2d_24"/>
     <g id="text_12">
      <!-- 2989 -->
      <g transform="translate(484.543533 394.7929)scale(0.14 -0.14)">
       <use xlink:href="#MicrosoftYaHei-50"/>
       <use x="58.642578" xlink:href="#MicrosoftYaHei-57"/>
       <use x="117.285156" xlink:href="#MicrosoftYaHei-56"/>
       <use x="175.927734" xlink:href="#MicrosoftYaHei-57"/>
      </g>
     </g>
    </g>
    <g id="xtick_13">
     <g id="line2d_25">
      <path clip-path="url(#p45fca2cad9)" d="M 535.475304 380.10165 
L 535.475304 30.18165 
" style="fill:none;stroke:#cbcbcb;"/>
     </g>
     <g id="line2d_26"/>
     <g id="text_13">
      <!-- 2833 -->
      <g transform="translate(519.055929 394.7929)scale(0.14 -0.14)">
       <use xlink:href="#MicrosoftYaHei-50"/>
       <use x="58.642578" xlink:href="#MicrosoftYaHei-56"/>
       <use x="117.285156" xlink:href="#MicrosoftYaHei-51"/>
       <use x="175.927734" xlink:href="#MicrosoftYaHei-51"/>
      </g>
     </g>
    </g>
    <g id="xtick_14">
     <g id="line2d_27">
      <path clip-path="url(#p45fca2cad9)" d="M 569.987701 380.10165 
L 569.987701 30.18165 
" style="fill:none;stroke:#cbcbcb;"/>
     </g>
     <g id="line2d_28"/>
     <g id="text_14">
      <!-- 2827 -->
      <g transform="translate(553.568326 394.7929)scale(0.14 -0.14)">
       <use xlink:href="#MicrosoftYaHei-50"/>
       <use x="58.642578" xlink:href="#MicrosoftYaHei-56"/>
       <use x="117.285156" xlink:href="#MicrosoftYaHei-50"/>
       <use x="175.927734" xlink:href="#MicrosoftYaHei-55"/>
      </g>
     </g>
    </g>
    <g id="xtick_15">
     <g id="line2d_29">
      <path clip-path="url(#p45fca2cad9)" d="M 604.500098 380.10165 
L 604.500098 30.18165 
" style="fill:none;stroke:#cbcbcb;"/>
     </g>
     <g id="line2d_30"/>
     <g id="text_15">
      <!-- 2663 -->
      <defs>
       <path d="M 49.703125 65.921875 
Q 43.796875 68.953125 37.359375 68.953125 
Q 27.546875 68.953125 21.578125 60.40625 
Q 15.625 51.859375 15.53125 37.0625 
L 15.765625 37.0625 
Q 21.140625 47.46875 32.90625 47.46875 
Q 42.71875 47.46875 48.578125 41.0625 
Q 54.4375 34.671875 54.4375 24.078125 
Q 54.4375 12.984375 47.671875 5.859375 
Q 40.921875 -1.265625 30.421875 -1.265625 
Q 18.890625 -1.265625 12.328125 7.734375 
Q 5.765625 16.75 5.765625 33.296875 
Q 5.765625 53.328125 14.375 65.109375 
Q 23 76.90625 37.0625 76.90625 
Q 45.125 76.90625 49.703125 74.703125 
z
M 16.109375 24.75 
Q 16.109375 17.28125 20.09375 11.953125 
Q 24.078125 6.640625 30.671875 6.640625 
Q 36.921875 6.640625 40.828125 11.234375 
Q 44.734375 15.828125 44.734375 23.046875 
Q 44.734375 30.859375 41.046875 35.203125 
Q 37.359375 39.546875 30.5625 39.546875 
Q 24.125 39.546875 20.109375 35.15625 
Q 16.109375 30.765625 16.109375 24.75 
z
" id="MicrosoftYaHei-54"/>
      </defs>
      <g transform="translate(588.080723 394.7929)scale(0.14 -0.14)">
       <use xlink:href="#MicrosoftYaHei-50"/>
       <use x="58.642578" xlink:href="#MicrosoftYaHei-54"/>
       <use x="117.285156" xlink:href="#MicrosoftYaHei-54"/>
       <use x="175.927734" xlink:href="#MicrosoftYaHei-51"/>
      </g>
     </g>
    </g>
    <g id="xtick_16">
     <g id="line2d_31">
      <path clip-path="url(#p45fca2cad9)" d="M 639.012494 380.10165 
L 639.012494 30.18165 
" style="fill:none;stroke:#cbcbcb;"/>
     </g>
     <g id="line2d_32"/>
     <g id="text_16">
      <!-- 2542 -->
      <g transform="translate(622.593119 394.7929)scale(0.14 -0.14)">
       <use xlink:href="#MicrosoftYaHei-50"/>
       <use x="58.642578" xlink:href="#MicrosoftYaHei-53"/>
       <use x="117.285156" xlink:href="#MicrosoftYaHei-52"/>
       <use x="175.927734" xlink:href="#MicrosoftYaHei-50"/>
      </g>
     </g>
    </g>
    <g id="xtick_17">
     <g id="line2d_33">
      <path clip-path="url(#p45fca2cad9)" d="M 673.524891 380.10165 
L 673.524891 30.18165 
" style="fill:none;stroke:#cbcbcb;"/>
     </g>
     <g id="line2d_34"/>
     <g id="text_17">
      <!-- 2288 -->
      <g transform="translate(657.105516 394.7929)scale(0.14 -0.14)">
       <use xlink:href="#MicrosoftYaHei-50"/>
       <use x="58.642578" xlink:href="#MicrosoftYaHei-50"/>
       <use x="117.285156" xlink:href="#MicrosoftYaHei-56"/>
       <use x="175.927734" xlink:href="#MicrosoftYaHei-56"/>
      </g>
     </g>
    </g>
    <g id="xtick_18">
     <g id="line2d_35">
      <path clip-path="url(#p45fca2cad9)" d="M 708.037288 380.10165 
L 708.037288 30.18165 
" style="fill:none;stroke:#cbcbcb;"/>
     </g>
     <g id="line2d_36"/>
     <g id="text_18">
      <!-- 2134 -->
      <g transform="translate(691.617913 394.7929)scale(0.14 -0.14)">
       <use xlink:href="#MicrosoftYaHei-50"/>
       <use x="58.642578" xlink:href="#MicrosoftYaHei-49"/>
       <use x="117.285156" xlink:href="#MicrosoftYaHei-51"/>
       <use x="175.927734" xlink:href="#MicrosoftYaHei-52"/>
      </g>
     </g>
    </g>
    <g id="xtick_19">
     <g id="line2d_37">
      <path clip-path="url(#p45fca2cad9)" d="M 742.549684 380.10165 
L 742.549684 30.18165 
" style="fill:none;stroke:#cbcbcb;"/>
     </g>
     <g id="line2d_38"/>
     <g id="text_19">
      <!-- 2060 -->
      <g transform="translate(726.130309 394.7929)scale(0.14 -0.14)">
       <use xlink:href="#MicrosoftYaHei-50"/>
       <use x="58.642578" xlink:href="#MicrosoftYaHei-48"/>
       <use x="117.285156" xlink:href="#MicrosoftYaHei-54"/>
       <use x="175.927734" xlink:href="#MicrosoftYaHei-48"/>
      </g>
     </g>
    </g>
    <g id="xtick_20">
     <g id="line2d_39">
      <path clip-path="url(#p45fca2cad9)" d="M 777.062081 380.10165 
L 777.062081 30.18165 
" style="fill:none;stroke:#cbcbcb;"/>
     </g>
     <g id="line2d_40"/>
     <g id="text_20">
      <!-- 2009 -->
      <g transform="translate(760.642706 394.7929)scale(0.14 -0.14)">
       <use xlink:href="#MicrosoftYaHei-50"/>
       <use x="58.642578" xlink:href="#MicrosoftYaHei-48"/>
       <use x="117.285156" xlink:href="#MicrosoftYaHei-48"/>
       <use x="175.927734" xlink:href="#MicrosoftYaHei-57"/>
      </g>
     </g>
    </g>
    <g id="text_21">
     <!-- shop_id -->
     <defs>
      <path d="M 5.515625 11.671875 
Q 12.75 6.453125 21.09375 6.453125 
Q 32.28125 6.453125 32.28125 13.765625 
Q 32.28125 16.890625 29.828125 18.921875 
Q 27.390625 20.953125 19.921875 23.734375 
Q 10.9375 27.34375 8.25 30.875 
Q 5.5625 34.421875 5.5625 39.453125 
Q 5.5625 46.625 11.640625 50.953125 
Q 17.71875 55.28125 26.609375 55.28125 
Q 33.5 55.28125 39.40625 52.875 
L 39.40625 43.65625 
Q 33.34375 47.5625 25.6875 47.5625 
Q 21.09375 47.5625 18.203125 45.5625 
Q 15.328125 43.5625 15.328125 40.28125 
Q 15.328125 37.0625 17.40625 35.25 
Q 19.484375 33.453125 26.609375 30.609375 
Q 35.640625 27.25 38.8125 23.625 
Q 42 20.015625 42 14.703125 
Q 42 7.28125 35.90625 3 
Q 29.828125 -1.265625 20.171875 -1.265625 
Q 11.765625 -1.265625 5.515625 1.90625 
z
" id="MicrosoftYaHei-115"/>
      <path d="M 54.15625 0 
L 44.625 0 
L 44.625 31.0625 
Q 44.625 47.359375 32.515625 47.359375 
Q 26.3125 47.359375 22.203125 42.59375 
Q 18.109375 37.84375 18.109375 30.609375 
L 18.109375 0 
L 8.546875 0 
L 8.546875 79.9375 
L 18.109375 79.9375 
L 18.109375 45.125 
L 18.3125 45.125 
Q 24.515625 55.28125 35.9375 55.28125 
Q 54.15625 55.28125 54.15625 33.25 
z
" id="MicrosoftYaHei-104"/>
      <path d="M 4.9375 26.421875 
Q 4.9375 39.796875 12.40625 47.53125 
Q 19.875 55.28125 32.671875 55.28125 
Q 44.828125 55.28125 51.734375 47.828125 
Q 58.640625 40.375 58.640625 27.25 
Q 58.640625 14.453125 51.265625 6.59375 
Q 43.890625 -1.265625 31.5 -1.265625 
Q 19.390625 -1.265625 12.15625 6.34375 
Q 4.9375 13.96875 4.9375 26.421875 
z
M 14.703125 26.703125 
Q 14.703125 17.390625 19.40625 12.015625 
Q 24.125 6.640625 32.078125 6.640625 
Q 40.28125 6.640625 44.578125 11.890625 
Q 48.875 17.140625 48.875 26.953125 
Q 48.875 36.8125 44.578125 42.078125 
Q 40.28125 47.359375 32.078125 47.359375 
Q 24.03125 47.359375 19.359375 41.84375 
Q 14.703125 36.328125 14.703125 26.703125 
z
" id="MicrosoftYaHei-111"/>
      <path d="M 18.109375 7.625 
L 18.109375 -24.859375 
L 8.546875 -24.859375 
L 8.546875 54 
L 18.109375 54 
L 18.109375 44.671875 
L 18.3125 44.671875 
Q 24.65625 55.28125 36.859375 55.28125 
Q 47.21875 55.28125 53.09375 48.015625 
Q 58.984375 40.765625 58.984375 28.5625 
Q 58.984375 15.09375 52.3125 6.90625 
Q 45.65625 -1.265625 34.375 -1.265625 
Q 23.96875 -1.265625 18.3125 7.625 
z
M 18.0625 22.265625 
Q 18.0625 15.671875 22.3125 11.15625 
Q 26.5625 6.640625 32.953125 6.640625 
Q 40.578125 6.640625 44.875 12.5 
Q 49.171875 18.359375 49.171875 28.71875 
Q 49.171875 37.453125 45.15625 42.40625 
Q 41.15625 47.359375 34.234375 47.359375 
Q 27.15625 47.359375 22.609375 42.328125 
Q 18.0625 37.3125 18.0625 29.4375 
z
" id="MicrosoftYaHei-112"/>
      <path d="M 44.828125 -15.671875 
L 0 -15.671875 
L 0 -9.375 
L 44.828125 -9.375 
z
" id="MicrosoftYaHei-95"/>
      <path d="M 7.375 73.046875 
Q 7.375 75.59375 9.109375 77.3125 
Q 10.84375 79.046875 13.375 79.046875 
Q 15.96875 79.046875 17.75 77.34375 
Q 19.53125 75.640625 19.53125 73.046875 
Q 19.53125 70.515625 17.75 68.828125 
Q 15.96875 67.140625 13.375 67.140625 
Q 10.796875 67.140625 9.078125 68.828125 
Q 7.375 70.515625 7.375 73.046875 
z
M 8.5 0 
L 8.5 54 
L 18.0625 54 
L 18.0625 0 
z
" id="MicrosoftYaHei-105"/>
      <path d="M 55.421875 0 
L 45.84375 0 
L 45.84375 8.984375 
L 45.65625 8.984375 
Q 39.75 -1.265625 27.296875 -1.265625 
Q 17.046875 -1.265625 10.984375 6.03125 
Q 4.9375 13.328125 4.9375 25.734375 
Q 4.9375 39.109375 11.765625 47.1875 
Q 18.609375 55.28125 29.640625 55.28125 
Q 40.671875 55.28125 45.65625 46.6875 
L 45.84375 46.6875 
L 45.84375 79.9375 
L 55.421875 79.9375 
z
M 45.90625 32.125 
Q 45.90625 38.625 41.625 42.984375 
Q 37.359375 47.359375 31.109375 47.359375 
Q 23.484375 47.359375 19.09375 41.671875 
Q 14.703125 35.984375 14.703125 26.171875 
Q 14.703125 17.140625 18.921875 11.890625 
Q 23.140625 6.640625 30.171875 6.640625 
Q 37.109375 6.640625 41.5 11.78125 
Q 45.90625 16.9375 45.90625 24.609375 
z
" id="MicrosoftYaHei-100"/>
     </defs>
     <g transform="translate(418.052625 415.702713)scale(0.168 -0.168)">
      <use xlink:href="#MicrosoftYaHei-115"/>
      <use x="46.289062" xlink:href="#MicrosoftYaHei-104"/>
      <use x="107.861328" xlink:href="#MicrosoftYaHei-111"/>
      <use x="171.435547" xlink:href="#MicrosoftYaHei-112"/>
      <use x="235.302734" xlink:href="#MicrosoftYaHei-95"/>
      <use x="280.126953" xlink:href="#MicrosoftYaHei-105"/>
      <use x="306.738281" xlink:href="#MicrosoftYaHei-100"/>
     </g>
    </g>
   </g>
   <g id="matplotlib.axis_2">
    <g id="ytick_1">
     <g id="line2d_41">
      <path clip-path="url(#p45fca2cad9)" d="M 73.354313 380.10165 
L 825.034312 380.10165 
" style="fill:none;stroke:#cbcbcb;"/>
     </g>
     <g id="line2d_42"/>
     <g id="text_22">
      <!-- 0 -->
      <g transform="translate(61.644625 385.697275)scale(0.14 -0.14)">
       <use xlink:href="#MicrosoftYaHei-48"/>
      </g>
     </g>
    </g>
    <g id="ytick_2">
     <g id="line2d_43">
      <path clip-path="url(#p45fca2cad9)" d="M 73.354313 321.003026 
L 825.034312 321.003026 
" style="fill:none;stroke:#cbcbcb;"/>
     </g>
     <g id="line2d_44"/>
     <g id="text_23">
      <!-- 2000 -->
      <g transform="translate(37.015563 326.598651)scale(0.14 -0.14)">
       <use xlink:href="#MicrosoftYaHei-50"/>
       <use x="58.642578" xlink:href="#MicrosoftYaHei-48"/>
       <use x="117.285156" xlink:href="#MicrosoftYaHei-48"/>
       <use x="175.927734" xlink:href="#MicrosoftYaHei-48"/>
      </g>
     </g>
    </g>
    <g id="ytick_3">
     <g id="line2d_45">
      <path clip-path="url(#p45fca2cad9)" d="M 73.354313 261.904401 
L 825.034312 261.904401 
" style="fill:none;stroke:#cbcbcb;"/>
     </g>
     <g id="line2d_46"/>
     <g id="text_24">
      <!-- 4000 -->
      <g transform="translate(37.015563 267.500026)scale(0.14 -0.14)">
       <use xlink:href="#MicrosoftYaHei-52"/>
       <use x="58.642578" xlink:href="#MicrosoftYaHei-48"/>
       <use x="117.285156" xlink:href="#MicrosoftYaHei-48"/>
       <use x="175.927734" xlink:href="#MicrosoftYaHei-48"/>
      </g>
     </g>
    </g>
    <g id="ytick_4">
     <g id="line2d_47">
      <path clip-path="url(#p45fca2cad9)" d="M 73.354313 202.805777 
L 825.034312 202.805777 
" style="fill:none;stroke:#cbcbcb;"/>
     </g>
     <g id="line2d_48"/>
     <g id="text_25">
      <!-- 6000 -->
      <g transform="translate(37.015563 208.401402)scale(0.14 -0.14)">
       <use xlink:href="#MicrosoftYaHei-54"/>
       <use x="58.642578" xlink:href="#MicrosoftYaHei-48"/>
       <use x="117.285156" xlink:href="#MicrosoftYaHei-48"/>
       <use x="175.927734" xlink:href="#MicrosoftYaHei-48"/>
      </g>
     </g>
    </g>
    <g id="ytick_5">
     <g id="line2d_49">
      <path clip-path="url(#p45fca2cad9)" d="M 73.354313 143.707152 
L 825.034312 143.707152 
" style="fill:none;stroke:#cbcbcb;"/>
     </g>
     <g id="line2d_50"/>
     <g id="text_26">
      <!-- 8000 -->
      <g transform="translate(37.015563 149.302777)scale(0.14 -0.14)">
       <use xlink:href="#MicrosoftYaHei-56"/>
       <use x="58.642578" xlink:href="#MicrosoftYaHei-48"/>
       <use x="117.285156" xlink:href="#MicrosoftYaHei-48"/>
       <use x="175.927734" xlink:href="#MicrosoftYaHei-48"/>
      </g>
     </g>
    </g>
    <g id="ytick_6">
     <g id="line2d_51">
      <path clip-path="url(#p45fca2cad9)" d="M 73.354313 84.608528 
L 825.034312 84.608528 
" style="fill:none;stroke:#cbcbcb;"/>
     </g>
     <g id="line2d_52"/>
     <g id="text_27">
      <!-- 10000 -->
      <g transform="translate(28.805875 90.204153)scale(0.14 -0.14)">
       <use xlink:href="#MicrosoftYaHei-49"/>
       <use x="58.642578" xlink:href="#MicrosoftYaHei-48"/>
       <use x="117.285156" xlink:href="#MicrosoftYaHei-48"/>
       <use x="175.927734" xlink:href="#MicrosoftYaHei-48"/>
       <use x="234.570312" xlink:href="#MicrosoftYaHei-48"/>
      </g>
     </g>
    </g>
    <g id="text_28">
     <!-- 出现次数 -->
     <defs>
      <path d="M 79.6875 33.9375 
L 79.6875 37.546875 
L 54 37.546875 
L 54 -0.734375 
L 82.625 -0.734375 
L 82.625 27.09375 
L 90.828125 27.09375 
L 90.828125 -11.671875 
L 82.625 -11.671875 
L 82.625 -8.15625 
L 9.1875 -8.15625 
L 9.1875 27.09375 
L 17.484375 27.09375 
L 17.484375 -0.734375 
L 45.515625 -0.734375 
L 45.515625 37.546875 
L 11.8125 37.546875 
L 11.8125 72.609375 
L 20.125 72.609375 
L 20.125 44.96875 
L 45.515625 44.96875 
L 45.515625 81.59375 
L 54 81.59375 
L 54 44.96875 
L 79.6875 44.96875 
L 79.6875 72.609375 
L 87.984375 72.609375 
L 87.984375 33.9375 
z
" id="MicrosoftYaHei-20986"/>
      <path d="M 60.9375 64.703125 
L 68.5625 64.703125 
L 68.5625 48.296875 
Q 68.5625 35.75 66.40625 26.21875 
L 72.859375 26.21875 
L 72.859375 1.609375 
Q 72.859375 -3.5625 78.515625 -3.5625 
L 83.203125 -3.5625 
Q 89.0625 -3.5625 89.65625 1.703125 
Q 90.234375 6.203125 90.625 14.5 
Q 93.953125 13.140625 98.640625 11.46875 
Q 97.859375 2.875 97.078125 -1.421875 
Q 95.609375 -10.40625 84.28125 -10.40625 
L 77.046875 -10.40625 
Q 65.4375 -10.40625 65.4375 0.640625 
L 65.4375 22.265625 
Q 63.421875 15.328125 60.15625 10.203125 
Q 51.859375 -3.171875 32.71875 -13.03125 
Q 30.171875 -9.421875 27.4375 -6.59375 
Q 46.484375 2.59375 53.90625 14.703125 
Q 60.9375 25.640625 60.9375 47.703125 
z
M 40.4375 78.65625 
L 90.328125 78.65625 
L 90.328125 20.0625 
L 82.71875 20.0625 
L 82.71875 71.4375 
L 48.046875 71.4375 
L 48.046875 18.703125 
L 40.4375 18.703125 
z
M 1.265625 6 
Q 8.296875 7.90625 16.015625 10.109375 
L 16.015625 38.53125 
L 3.125 38.53125 
L 3.125 45.5625 
L 16.015625 45.5625 
L 16.015625 68.21875 
L 2.34375 68.21875 
L 2.34375 75.25 
L 37.5 75.25 
L 37.5 68.21875 
L 23.640625 68.21875 
L 23.640625 45.5625 
L 36.140625 45.5625 
L 36.140625 38.53125 
L 23.640625 38.53125 
L 23.640625 12.359375 
Q 30.5625 14.453125 37.984375 16.75 
Q 38.1875 13.03125 38.671875 9.421875 
Q 21.875 4.25 4 -1.515625 
z
" id="MicrosoftYaHei-29616"/>
      <path d="M 64.359375 54.25 
Q 64.265625 49.359375 63.921875 44.625 
Q 70.453125 11.375 98.734375 -4.4375 
Q 94.734375 -8.734375 92.390625 -12.0625 
Q 67.875 5.171875 60.9375 30.375 
Q 54.546875 3.125 25.78125 -13.53125 
Q 23.828125 -10.5 20.40625 -6.59375 
Q 50.390625 9.234375 55.078125 37.9375 
Q 56.453125 44.96875 56.546875 54.25 
z
M 77.25 41.359375 
Q 81.640625 49.46875 85.15625 58.84375 
L 46.734375 58.84375 
Q 42.484375 49.125 37.3125 40.1875 
Q 33.796875 42.71875 30.28125 44.390625 
Q 41.703125 63.03125 46.875 82.953125 
L 54.78125 80.71875 
Q 52.4375 73.046875 49.609375 65.765625 
L 93.5625 65.765625 
L 93.5625 58.84375 
Q 89.546875 48 84.765625 38.53125 
Q 81.453125 40.1875 77.25 41.359375 
z
M 21.6875 40.96875 
Q 26.171875 37.546875 29.296875 35.6875 
Q 16.796875 13.421875 8.984375 -2.78125 
L 1.078125 2.390625 
Q 11.140625 17.625 21.6875 40.96875 
z
M 10.0625 76.8125 
Q 17.96875 68.890625 27.828125 57.375 
L 21.484375 51.515625 
Q 12.015625 64.015625 4.390625 71.734375 
z
" id="MicrosoftYaHei-27425"/>
      <path d="M 65.234375 82.859375 
L 73.046875 81.6875 
Q 71 72.21875 68.265625 64.015625 
L 98.140625 64.015625 
L 98.140625 57.375 
L 92 57.375 
Q 89.546875 28.65625 79.5 11.765625 
Q 87.40625 1.03125 99.609375 -5.8125 
Q 96.484375 -10.109375 94.34375 -13.53125 
Q 82.421875 -5.8125 74.515625 4.828125 
Q 65.53125 -6.296875 53.125 -14.5 
Q 50.984375 -11.671875 47.5625 -8.34375 
Q 61.234375 0.640625 69.734375 12.0625 
Q 61.8125 25.734375 59.28125 43.609375 
Q 57.234375 39.984375 54.984375 36.859375 
Q 53.03125 39.703125 50.09375 43.109375 
Q 61.421875 59.421875 65.234375 82.859375 
z
M 2.34375 26.515625 
L 17.1875 26.515625 
Q 19.34375 30.21875 21.390625 34.125 
L 28.421875 31.890625 
Q 26.859375 29.15625 25.296875 26.515625 
L 49.21875 26.515625 
L 49.21875 20.171875 
Q 45.515625 10.59375 37.984375 3.375 
Q 43.359375 0.828125 48.921875 -1.703125 
L 44.625 -8.453125 
Q 38.578125 -5.03125 32.03125 -1.609375 
Q 21 -9.515625 4.203125 -14.109375 
Q 2.640625 -10.984375 0.875 -7.28125 
Q 15.140625 -4.046875 25 2 
Q 16.609375 6.296875 7.421875 10.796875 
Q 10.546875 15.28125 13.484375 20.0625 
L 2.34375 20.0625 
z
M 3.421875 60.109375 
L 25.875 60.109375 
L 25.875 81.984375 
L 33.109375 81.984375 
L 33.109375 60.109375 
L 51.859375 60.109375 
L 51.859375 53.65625 
L 33.109375 53.65625 
L 33.109375 47.703125 
L 36.03125 51.03125 
Q 45.125 44.390625 51.265625 39.3125 
L 46.578125 33.84375 
Q 41.21875 38.921875 33.109375 45.265625 
L 33.109375 34.125 
L 25.875 34.125 
L 25.875 47.796875 
Q 17 38.53125 5.171875 31.5 
Q 3.328125 34.328125 0.984375 37.453125 
Q 13.28125 44.09375 23.53125 53.65625 
L 3.421875 53.65625 
z
M 84.1875 57.375 
L 65.921875 57.375 
Q 65.4375 56.109375 64.84375 54.9375 
Q 66.609375 34.234375 74.609375 19.484375 
Q 82.421875 33.734375 84.1875 57.375 
z
M 17 13.03125 
Q 23.921875 9.90625 31.25 6.5 
Q 37.984375 12.25 41.796875 20.0625 
L 21.484375 20.0625 
Q 19.234375 16.453125 17 13.03125 
z
M 47.46875 79.546875 
L 53.515625 75.53125 
Q 48.140625 68.5 42.78125 62.546875 
Q 40.53125 64.5 37.5 66.65625 
Q 42.578125 72.609375 47.46875 79.546875 
z
M 5.953125 75.25 
L 11.53125 79.046875 
Q 15.921875 73.6875 20.609375 67.53125 
L 14.546875 63.234375 
Q 10.25 69.578125 5.953125 75.25 
z
" id="MicrosoftYaHei-25968"/>
     </defs>
     <g transform="translate(20.6295 238.74165)rotate(-90)scale(0.168 -0.168)">
      <use xlink:href="#MicrosoftYaHei-20986"/>
      <use x="100" xlink:href="#MicrosoftYaHei-29616"/>
      <use x="200" xlink:href="#MicrosoftYaHei-27425"/>
      <use x="300" xlink:href="#MicrosoftYaHei-25968"/>
     </g>
    </g>
   </g>
   <g id="patch_3">
    <path clip-path="url(#p45fca2cad9)" d="M 107.521585 380.10165 
L 135.131503 380.10165 
L 135.131503 46.844507 
L 107.521585 46.844507 
z
" style="fill:#336699;fill-opacity:0.6;"/>
   </g>
   <g id="patch_4">
    <path clip-path="url(#p45fca2cad9)" d="M 142.033982 380.10165 
L 169.643899 380.10165 
L 169.643899 93.473322 
L 142.033982 93.473322 
z
" style="fill:#336699;fill-opacity:0.6;"/>
   </g>
   <g id="patch_5">
    <path clip-path="url(#p45fca2cad9)" d="M 176.546379 380.10165 
L 204.156296 380.10165 
L 204.156296 133.394443 
L 176.546379 133.394443 
z
" style="fill:#336699;fill-opacity:0.6;"/>
   </g>
   <g id="patch_6">
    <path clip-path="url(#p45fca2cad9)" d="M 211.058775 380.10165 
L 238.668693 380.10165 
L 238.668693 227.272607 
L 211.058775 227.272607 
z
" style="fill:#336699;fill-opacity:0.6;"/>
   </g>
   <g id="patch_7">
    <path clip-path="url(#p45fca2cad9)" d="M 245.571172 380.10165 
L 273.181089 380.10165 
L 273.181089 253.187354 
L 245.571172 253.187354 
z
" style="fill:#336699;fill-opacity:0.6;"/>
   </g>
   <g id="patch_8">
    <path clip-path="url(#p45fca2cad9)" d="M 280.083569 380.10165 
L 307.693486 380.10165 
L 307.693486 255.551299 
L 280.083569 255.551299 
z
" style="fill:#336699;fill-opacity:0.6;"/>
   </g>
   <g id="patch_9">
    <path clip-path="url(#p45fca2cad9)" d="M 314.595965 380.10165 
L 342.205883 380.10165 
L 342.205883 269.971363 
L 314.595965 269.971363 
z
" style="fill:#336699;fill-opacity:0.6;"/>
   </g>
   <g id="patch_10">
    <path clip-path="url(#p45fca2cad9)" d="M 349.108362 380.10165 
L 376.718279 380.10165 
L 376.718279 279.102101 
L 349.108362 279.102101 
z
" style="fill:#336699;fill-opacity:0.6;"/>
   </g>
   <g id="patch_11">
    <path clip-path="url(#p45fca2cad9)" d="M 383.620759 380.10165 
L 411.230676 380.10165 
L 411.230676 281.022806 
L 383.620759 281.022806 
z
" style="fill:#336699;fill-opacity:0.6;"/>
   </g>
   <g id="patch_12">
    <path clip-path="url(#p45fca2cad9)" d="M 418.133155 380.10165 
L 445.743073 380.10165 
L 445.743073 288.58743 
L 418.133155 288.58743 
z
" style="fill:#336699;fill-opacity:0.6;"/>
   </g>
   <g id="patch_13">
    <path clip-path="url(#p45fca2cad9)" d="M 452.645552 380.10165 
L 480.25547 380.10165 
L 480.25547 291.453713 
L 452.645552 291.453713 
z
" style="fill:#336699;fill-opacity:0.6;"/>
   </g>
   <g id="patch_14">
    <path clip-path="url(#p45fca2cad9)" d="M 487.157949 380.10165 
L 514.767866 380.10165 
L 514.767866 291.778756 
L 487.157949 291.778756 
z
" style="fill:#336699;fill-opacity:0.6;"/>
   </g>
   <g id="patch_15">
    <path clip-path="url(#p45fca2cad9)" d="M 521.670346 380.10165 
L 549.280263 380.10165 
L 549.280263 296.388449 
L 521.670346 296.388449 
z
" style="fill:#336699;fill-opacity:0.6;"/>
   </g>
   <g id="patch_16">
    <path clip-path="url(#p45fca2cad9)" d="M 556.182742 380.10165 
L 583.79266 380.10165 
L 583.79266 296.565744 
L 556.182742 296.565744 
z
" style="fill:#336699;fill-opacity:0.6;"/>
   </g>
   <g id="patch_17">
    <path clip-path="url(#p45fca2cad9)" d="M 590.695139 380.10165 
L 618.305056 380.10165 
L 618.305056 301.411832 
L 590.695139 301.411832 
z
" style="fill:#336699;fill-opacity:0.6;"/>
   </g>
   <g id="patch_18">
    <path clip-path="url(#p45fca2cad9)" d="M 625.207536 380.10165 
L 652.817453 380.10165 
L 652.817453 304.987298 
L 625.207536 304.987298 
z
" style="fill:#336699;fill-opacity:0.6;"/>
   </g>
   <g id="patch_19">
    <path clip-path="url(#p45fca2cad9)" d="M 659.719932 380.10165 
L 687.32985 380.10165 
L 687.32985 312.492824 
L 659.719932 312.492824 
z
" style="fill:#336699;fill-opacity:0.6;"/>
   </g>
   <g id="patch_20">
    <path clip-path="url(#p45fca2cad9)" d="M 694.232329 380.10165 
L 721.842246 380.10165 
L 721.842246 317.043418 
L 694.232329 317.043418 
z
" style="fill:#336699;fill-opacity:0.6;"/>
   </g>
   <g id="patch_21">
    <path clip-path="url(#p45fca2cad9)" d="M 728.744726 380.10165 
L 756.354643 380.10165 
L 756.354643 319.230067 
L 728.744726 319.230067 
z
" style="fill:#336699;fill-opacity:0.6;"/>
   </g>
   <g id="patch_22">
    <path clip-path="url(#p45fca2cad9)" d="M 763.257122 380.10165 
L 790.86704 380.10165 
L 790.86704 320.737082 
L 763.257122 320.737082 
z
" style="fill:#336699;fill-opacity:0.6;"/>
   </g>
   <g id="patch_23">
    <path d="M 73.354313 380.10165 
L 73.354313 30.18165 
" style="fill:none;stroke:#f0f0f0;stroke-linecap:square;stroke-linejoin:miter;stroke-width:3;"/>
   </g>
   <g id="patch_24">
    <path d="M 825.034312 380.10165 
L 825.034312 30.18165 
" style="fill:none;stroke:#f0f0f0;stroke-linecap:square;stroke-linejoin:miter;stroke-width:3;"/>
   </g>
   <g id="patch_25">
    <path d="M 73.354312 380.10165 
L 825.034312 380.10165 
" style="fill:none;stroke:#f0f0f0;stroke-linecap:square;stroke-linejoin:miter;stroke-width:3;"/>
   </g>
   <g id="patch_26">
    <path d="M 73.354312 30.18165 
L 825.034312 30.18165 
" style="fill:none;stroke:#f0f0f0;stroke-linecap:square;stroke-linejoin:miter;stroke-width:3;"/>
   </g>
   <g id="text_29">
    <!-- top20出现次数的店铺 -->
    <defs>
     <path d="M 34.46875 0.53125 
Q 31.34375 -1.171875 26.03125 -1.171875 
Q 11.53125 -1.171875 11.53125 14.890625 
L 11.53125 46.09375 
L 2.25 46.09375 
L 2.25 54 
L 11.53125 54 
L 11.53125 67 
L 21.046875 70.015625 
L 21.046875 54 
L 34.46875 54 
L 34.46875 46.09375 
L 21.046875 46.09375 
L 21.046875 16.609375 
Q 21.046875 11.28125 22.84375 8.984375 
Q 24.65625 6.6875 28.859375 6.6875 
Q 32.078125 6.6875 34.46875 8.5 
z
" id="MicrosoftYaHei-116"/>
     <path d="M 5.5625 66.9375 
L 15.4375 66.9375 
Q 19.046875 75.828125 21.390625 83.15625 
L 29.59375 80.8125 
Q 26.515625 73.34375 23.640625 66.9375 
L 43.171875 66.9375 
L 43.171875 -10.796875 
L 35.359375 -10.796875 
L 35.359375 -3.171875 
L 13.375 -3.171875 
L 13.375 -11.46875 
L 5.5625 -11.46875 
z
M 44.625 46.921875 
Q 53.8125 61.46875 60.15625 83.15625 
L 68.359375 81.109375 
Q 65.875 73.734375 63.28125 67.234375 
L 94.734375 67.234375 
Q 93.5625 17.046875 92.78125 4.046875 
Q 92.09375 -11.28125 76.65625 -11.28125 
Q 67.78125 -11.28125 58.59375 -10.6875 
Q 58.015625 -5.8125 57.03125 -2 
L 57.328125 -2 
Q 67.09375 -3.375 75.203125 -3.375 
Q 84.078125 -3.375 84.765625 6 
Q 85.84375 20.5625 86.328125 59.90625 
L 60.15625 59.90625 
Q 55.90625 50.484375 51.375 43.3125 
Q 48.734375 45.171875 44.625 46.921875 
z
M 13.375 4.15625 
L 35.359375 4.15625 
L 35.359375 28.859375 
L 13.375 28.859375 
z
M 35.359375 59.625 
L 13.375 59.625 
L 13.375 35.890625 
L 35.359375 35.890625 
z
M 53.21875 40.28125 
L 59.1875 44.671875 
Q 70.015625 31.890625 76.46875 22.515625 
L 69.234375 17.4375 
Q 62.3125 28.765625 53.21875 40.28125 
z
" id="MicrosoftYaHei-30340"/>
     <path d="M 51.171875 62.0625 
L 59.1875 62.0625 
L 59.1875 49.859375 
L 95.796875 49.859375 
L 95.796875 42.828125 
L 59.1875 42.828125 
L 59.1875 28.953125 
L 88.1875 28.953125 
L 88.1875 -12.9375 
L 80.375 -12.9375 
L 80.375 -6.59375 
L 36.03125 -6.59375 
L 36.03125 -12.9375 
L 28.21875 -12.9375 
L 28.21875 28.953125 
L 51.171875 28.953125 
z
M 46.390625 80.8125 
L 53.328125 84.234375 
Q 57.28125 78.375 60.6875 72.015625 
L 98.25 72.015625 
L 98.25 64.796875 
L 18.953125 64.796875 
L 18.953125 32.078125 
Q 17.96875 1.609375 5.765625 -13.71875 
Q 3.515625 -10.6875 0.203125 -7.078125 
Q 10.75 6.890625 10.84375 33.84375 
L 10.84375 72.015625 
L 51.609375 72.015625 
Q 49.265625 76.421875 46.390625 80.8125 
z
M 80.375 21.921875 
L 36.03125 21.921875 
L 36.03125 0.25 
L 80.375 0.25 
z
" id="MicrosoftYaHei-24215"/>
     <path d="M 34.578125 69.578125 
L 61.234375 69.578125 
L 61.234375 82.671875 
L 68.453125 82.671875 
L 68.453125 69.578125 
L 81.640625 69.578125 
Q 78.328125 74.46875 74.21875 79.34375 
L 80.28125 83.546875 
Q 84.96875 78.171875 89.0625 72.796875 
L 84.46875 69.578125 
L 98.046875 69.578125 
L 98.046875 62.546875 
L 68.453125 62.546875 
L 68.453125 53.265625 
L 93.5625 53.265625 
L 93.5625 -1.90625 
Q 93.5625 -11.96875 83.5 -12.0625 
Q 78.515625 -12.0625 73.140625 -11.859375 
Q 72.65625 -8.640625 71.6875 -4.34375 
Q 77.640625 -4.9375 81.25 -4.9375 
Q 86.328125 -4.9375 86.328125 0.140625 
L 86.328125 10.015625 
L 68.453125 10.015625 
L 68.453125 -11.671875 
L 61.234375 -11.671875 
L 61.234375 10.015625 
L 44.828125 10.015625 
L 44.828125 -12.75 
L 37.59375 -12.75 
L 37.59375 53.265625 
L 61.234375 53.265625 
L 61.234375 62.546875 
L 34.578125 62.546875 
z
M 8.796875 49.078125 
L 30.953125 49.078125 
L 30.953125 42.328125 
L 21 42.328125 
L 21 30.328125 
L 33.796875 30.328125 
L 33.796875 23.578125 
L 21 23.578125 
L 21 0.640625 
Q 26.765625 4.4375 31.9375 8.15625 
Q 32.71875 3.65625 33.5 0.4375 
Q 29.296875 -2.203125 21.09375 -8.0625 
Q 19.34375 -9.328125 15.921875 -12.453125 
L 10.75 -6 
Q 14.0625 -3.375 14.0625 1.609375 
L 14.0625 23.578125 
L 2.25 23.578125 
L 2.25 30.328125 
L 14.0625 30.328125 
L 14.0625 42.328125 
L 8.796875 42.328125 
z
M 14.0625 61.375 
Q 10.15625 52.203125 5.953125 45.359375 
Q 3.8125 48.390625 0.875 51.90625 
Q 9.96875 66.0625 13.28125 82.375 
L 20.609375 80.71875 
Q 18.84375 74.171875 16.703125 68.109375 
L 32.03125 68.109375 
L 32.03125 61.375 
z
M 68.453125 16.84375 
L 86.328125 16.84375 
L 86.328125 28.265625 
L 68.453125 28.265625 
z
M 86.328125 46.4375 
L 68.453125 46.4375 
L 68.453125 35.109375 
L 86.328125 35.109375 
z
M 44.828125 16.84375 
L 61.234375 16.84375 
L 61.234375 28.265625 
L 44.828125 28.265625 
z
M 44.828125 35.109375 
L 61.234375 35.109375 
L 61.234375 46.4375 
L 44.828125 46.4375 
z
" id="MicrosoftYaHei-38138"/>
    </defs>
    <g transform="translate(350.210287 24.18165)scale(0.2016 -0.2016)">
     <use xlink:href="#MicrosoftYaHei-116"/>
     <use x="37.255859" xlink:href="#MicrosoftYaHei-111"/>
     <use x="100.830078" xlink:href="#MicrosoftYaHei-112"/>
     <use x="164.697266" xlink:href="#MicrosoftYaHei-50"/>
     <use x="223.339844" xlink:href="#MicrosoftYaHei-48"/>
     <use x="281.982422" xlink:href="#MicrosoftYaHei-20986"/>
     <use x="381.982422" xlink:href="#MicrosoftYaHei-29616"/>
     <use x="481.982422" xlink:href="#MicrosoftYaHei-27425"/>
     <use x="581.982422" xlink:href="#MicrosoftYaHei-25968"/>
     <use x="681.982422" xlink:href="#MicrosoftYaHei-30340"/>
     <use x="781.982422" xlink:href="#MicrosoftYaHei-24215"/>
     <use x="881.982422" xlink:href="#MicrosoftYaHei-38138"/>
    </g>
   </g>
  </g>
 </g>
 <defs>
  <clipPath id="p45fca2cad9">
   <rect height="349.92" width="751.68" x="73.354313" y="30.18165"/>
  </clipPath>
 </defs>
</svg>
