<?xml version="1.0" encoding="utf-8" standalone="no"?>
<!DOCTYPE svg PUBLIC "-//W3C//DTD SVG 1.1//EN"
  "http://www.w3.org/Graphics/SVG/1.1/DTD/svg11.dtd">
<!-- Created with matplotlib (https://matplotlib.org/) -->
<svg height="426.753588pt" version="1.1" viewBox="0 0 816.354421 426.753588" width="816.354421pt" xmlns="http://www.w3.org/2000/svg" xmlns:xlink="http://www.w3.org/1999/xlink">
 <defs>
  <style type="text/css">
*{stroke-linecap:butt;stroke-linejoin:round;}
  </style>
 </defs>
 <g id="figure_1">
  <g id="patch_1">
   <path d="M 0 426.753588 
L 816.354421 426.753588 
L 816.354421 0 
L 0 0 
z
" style="fill:#f0f0f0;"/>
  </g>
  <g id="axes_1">
   <g id="patch_2">
    <path d="M 56.934938 379.2354 
L 808.614937 379.2354 
L 808.614937 29.3154 
L 56.934938 29.3154 
z
" style="fill:#f0f0f0;"/>
   </g>
   <g id="matplotlib.axis_1">
    <g id="xtick_1">
     <g id="line2d_1"/>
     <g id="text_1">
      <!-- 1 -->
      <defs>
       <path d="M 52.59375 0 
L 9.234375 0 
L 9.234375 8.25 
L 26.171875 8.25 
L 26.171875 65.671875 
L 8.796875 60.640625 
L 8.796875 69.4375 
L 35.6875 77.25 
L 35.6875 8.25 
L 52.59375 8.25 
z
" id="MicrosoftYaHei-49"/>
      </defs>
      <g transform="translate(60.500298 393.92665)scale(0.14 -0.14)">
       <use xlink:href="#MicrosoftYaHei-49"/>
      </g>
     </g>
    </g>
    <g id="xtick_2">
     <g id="line2d_2"/>
     <g id="text_2">
      <!-- 2 -->
      <defs>
       <path d="M 51.171875 0 
L 5.171875 0 
L 5.171875 8.296875 
L 27.15625 30.21875 
Q 36.234375 39.3125 39.3125 44.609375 
Q 42.390625 49.90625 42.390625 55.5625 
Q 42.390625 62.015625 38.765625 65.453125 
Q 35.15625 68.890625 28.328125 68.890625 
Q 18.21875 68.890625 9.03125 60.296875 
L 9.03125 70.015625 
Q 17.96875 76.90625 29.828125 76.90625 
Q 40.046875 76.90625 45.953125 71.390625 
Q 51.859375 65.875 51.859375 56.546875 
Q 51.859375 49.515625 48.0625 42.75 
Q 44.28125 35.984375 33.734375 25.53125 
L 16.5 8.6875 
L 16.5 8.5 
L 51.171875 8.5 
z
" id="MicrosoftYaHei-50"/>
      </defs>
      <g transform="translate(75.840706 393.92665)scale(0.14 -0.14)">
       <use xlink:href="#MicrosoftYaHei-50"/>
      </g>
     </g>
    </g>
    <g id="xtick_3">
     <g id="line2d_3"/>
     <g id="text_3">
      <!-- 3 -->
      <defs>
       <path d="M 6.984375 12.640625 
Q 14.75 6.640625 24.515625 6.640625 
Q 32.328125 6.640625 36.890625 10.46875 
Q 41.453125 14.3125 41.453125 20.75 
Q 41.453125 35.109375 20.90625 35.109375 
L 14.59375 35.109375 
L 14.59375 43.015625 
L 20.609375 43.015625 
Q 38.8125 43.015625 38.8125 56.5 
Q 38.8125 68.953125 24.90625 68.953125 
Q 16.9375 68.953125 9.90625 63.578125 
L 9.90625 72.609375 
Q 17.328125 76.90625 27.25 76.90625 
Q 36.921875 76.90625 42.78125 71.84375 
Q 48.640625 66.796875 48.640625 58.734375 
Q 48.640625 43.890625 33.5 39.65625 
L 33.5 39.453125 
Q 41.703125 38.578125 46.453125 33.671875 
Q 51.21875 28.765625 51.21875 21.4375 
Q 51.21875 11.234375 43.875 4.984375 
Q 36.53125 -1.265625 24.3125 -1.265625 
Q 13.578125 -1.265625 6.984375 2.734375 
z
" id="MicrosoftYaHei-51"/>
      </defs>
      <g transform="translate(91.181114 393.92665)scale(0.14 -0.14)">
       <use xlink:href="#MicrosoftYaHei-51"/>
      </g>
     </g>
    </g>
    <g id="xtick_4">
     <g id="line2d_4"/>
     <g id="text_4">
      <!-- 4 -->
      <defs>
       <path d="M 55.078125 19.625 
L 45.40625 19.625 
L 45.40625 0 
L 36.140625 0 
L 36.140625 19.625 
L 0.875 19.625 
L 0.875 25.828125 
L 34.328125 75.640625 
L 45.40625 75.640625 
L 45.40625 27.203125 
L 55.078125 27.203125 
z
M 36.140625 27.203125 
L 36.140625 58.890625 
Q 36.140625 62.25 36.328125 66.65625 
L 36.140625 66.65625 
Q 35.453125 64.796875 33.25 60.84375 
L 10.75 27.203125 
z
" id="MicrosoftYaHei-52"/>
      </defs>
      <g transform="translate(106.521522 393.92665)scale(0.14 -0.14)">
       <use xlink:href="#MicrosoftYaHei-52"/>
      </g>
     </g>
    </g>
    <g id="xtick_5">
     <g id="line2d_5"/>
     <g id="text_5">
      <!-- 5 -->
      <defs>
       <path d="M 8.640625 11.625 
Q 16.265625 6.640625 24.515625 6.640625 
Q 32.328125 6.640625 37.109375 11 
Q 41.890625 15.375 41.890625 22.609375 
Q 41.890625 29.890625 37.03125 33.890625 
Q 32.171875 37.890625 22.953125 37.890625 
Q 18.5 37.890625 10.984375 37.203125 
L 10.984375 75.640625 
L 48.1875 75.640625 
L 48.1875 67.1875 
L 19.875 67.1875 
L 19.875 45.796875 
Q 24.125 46.046875 26.265625 46.046875 
Q 38.234375 46.046875 44.921875 39.984375 
Q 51.609375 33.9375 51.609375 23.296875 
Q 51.609375 12.3125 44.421875 5.515625 
Q 37.25 -1.265625 24.609375 -1.265625 
Q 14.015625 -1.265625 8.640625 1.859375 
z
" id="MicrosoftYaHei-53"/>
      </defs>
      <g transform="translate(121.86193 393.92665)scale(0.14 -0.14)">
       <use xlink:href="#MicrosoftYaHei-53"/>
      </g>
     </g>
    </g>
    <g id="xtick_6">
     <g id="line2d_6"/>
     <g id="text_6">
      <!-- 6 -->
      <defs>
       <path d="M 49.703125 65.921875 
Q 43.796875 68.953125 37.359375 68.953125 
Q 27.546875 68.953125 21.578125 60.40625 
Q 15.625 51.859375 15.53125 37.0625 
L 15.765625 37.0625 
Q 21.140625 47.46875 32.90625 47.46875 
Q 42.71875 47.46875 48.578125 41.0625 
Q 54.4375 34.671875 54.4375 24.078125 
Q 54.4375 12.984375 47.671875 5.859375 
Q 40.921875 -1.265625 30.421875 -1.265625 
Q 18.890625 -1.265625 12.328125 7.734375 
Q 5.765625 16.75 5.765625 33.296875 
Q 5.765625 53.328125 14.375 65.109375 
Q 23 76.90625 37.0625 76.90625 
Q 45.125 76.90625 49.703125 74.703125 
z
M 16.109375 24.75 
Q 16.109375 17.28125 20.09375 11.953125 
Q 24.078125 6.640625 30.671875 6.640625 
Q 36.921875 6.640625 40.828125 11.234375 
Q 44.734375 15.828125 44.734375 23.046875 
Q 44.734375 30.859375 41.046875 35.203125 
Q 37.359375 39.546875 30.5625 39.546875 
Q 24.125 39.546875 20.109375 35.15625 
Q 16.109375 30.765625 16.109375 24.75 
z
" id="MicrosoftYaHei-54"/>
      </defs>
      <g transform="translate(137.202339 393.92665)scale(0.14 -0.14)">
       <use xlink:href="#MicrosoftYaHei-54"/>
      </g>
     </g>
    </g>
    <g id="xtick_7">
     <g id="line2d_7"/>
     <g id="text_7">
      <!-- 7 -->
      <defs>
       <path d="M 53.765625 72.3125 
L 24.171875 0 
L 14.265625 0 
L 42.390625 67.1875 
L 4.59375 67.1875 
L 4.59375 75.640625 
L 53.765625 75.640625 
z
" id="MicrosoftYaHei-55"/>
      </defs>
      <g transform="translate(152.542747 393.92665)scale(0.14 -0.14)">
       <use xlink:href="#MicrosoftYaHei-55"/>
      </g>
     </g>
    </g>
    <g id="xtick_8">
     <g id="line2d_8"/>
     <g id="text_8">
      <!-- 8 -->
      <defs>
       <path d="M 21.390625 39.796875 
Q 7.859375 46.09375 7.859375 58.0625 
Q 7.859375 66.40625 14.203125 71.65625 
Q 20.5625 76.90625 30.421875 76.90625 
Q 39.453125 76.90625 45.3125 71.96875 
Q 51.171875 67.046875 51.171875 59.234375 
Q 51.171875 46.625 37.0625 39.84375 
L 37.0625 39.65625 
Q 53.609375 33.6875 53.609375 19.34375 
Q 53.609375 9.90625 46.796875 4.3125 
Q 39.984375 -1.265625 27.78125 -1.265625 
Q 17.78125 -1.265625 11.46875 4.25 
Q 5.171875 9.765625 5.171875 18.5625 
Q 5.171875 33.015625 21.390625 39.59375 
z
M 41.5 58.109375 
Q 41.5 63.1875 38.328125 66.109375 
Q 35.15625 69.046875 29.734375 69.046875 
Q 24.65625 69.046875 21.09375 65.984375 
Q 17.53125 62.9375 17.53125 58.203125 
Q 17.53125 48.734375 29.390625 43.796875 
Q 41.5 48.828125 41.5 58.109375 
z
M 28.8125 35.25 
Q 14.796875 29.59375 14.796875 19.046875 
Q 14.796875 13.578125 18.890625 10.0625 
Q 23 6.546875 29.59375 6.546875 
Q 35.984375 6.546875 39.984375 10.03125 
Q 44 13.53125 44 18.75 
Q 44 29.734375 28.8125 35.25 
z
" id="MicrosoftYaHei-56"/>
      </defs>
      <g transform="translate(167.883155 393.92665)scale(0.14 -0.14)">
       <use xlink:href="#MicrosoftYaHei-56"/>
      </g>
     </g>
    </g>
    <g id="xtick_9">
     <g id="line2d_9"/>
     <g id="text_9">
      <!-- 9 -->
      <defs>
       <path d="M 9.03125 10.25 
Q 15.28125 6.640625 22.515625 6.640625 
Q 32.671875 6.640625 38.25 14.640625 
Q 43.84375 22.65625 43.84375 37.40625 
Q 43.75 37.3125 43.65625 37.40625 
Q 38.671875 27.9375 26.90625 27.9375 
Q 17.390625 27.9375 11.140625 34.46875 
Q 4.890625 41.015625 4.890625 51.46875 
Q 4.890625 62.59375 11.71875 69.75 
Q 18.5625 76.90625 29.4375 76.90625 
Q 40.71875 76.90625 47.0625 68.046875 
Q 53.421875 59.1875 53.421875 42.234375 
Q 53.421875 21.296875 45.21875 10.015625 
Q 37.015625 -1.265625 22.515625 -1.265625 
Q 14.546875 -1.265625 9.03125 1.3125 
z
M 14.546875 52.6875 
Q 14.546875 45.0625 18.453125 40.59375 
Q 22.359375 36.140625 29.25 36.140625 
Q 35.203125 36.140625 39.25 40.203125 
Q 43.3125 44.28125 43.3125 50.09375 
Q 43.3125 58.25 39.28125 63.59375 
Q 35.25 68.953125 28.65625 68.953125 
Q 22.5625 68.953125 18.546875 64.3125 
Q 14.546875 59.671875 14.546875 52.6875 
z
" id="MicrosoftYaHei-57"/>
      </defs>
      <g transform="translate(183.223563 393.92665)scale(0.14 -0.14)">
       <use xlink:href="#MicrosoftYaHei-57"/>
      </g>
     </g>
    </g>
    <g id="xtick_10">
     <g id="line2d_10"/>
     <g id="text_10">
      <!-- 10 -->
      <defs>
       <path d="M 4.4375 36.328125 
Q 4.4375 56.34375 11.078125 66.625 
Q 17.71875 76.90625 30.328125 76.90625 
Q 54.34375 76.90625 54.34375 38.140625 
Q 54.34375 19 47.578125 8.859375 
Q 40.828125 -1.265625 28.609375 -1.265625 
Q 17.09375 -1.265625 10.765625 8.34375 
Q 4.4375 17.96875 4.4375 36.328125 
z
M 14.203125 36.765625 
Q 14.203125 6.640625 29.5 6.640625 
Q 44.53125 6.640625 44.53125 37.25 
Q 44.53125 68.953125 29.78125 68.953125 
Q 14.203125 68.953125 14.203125 36.765625 
z
" id="MicrosoftYaHei-48"/>
      </defs>
      <g transform="translate(194.459128 393.92665)scale(0.14 -0.14)">
       <use xlink:href="#MicrosoftYaHei-49"/>
       <use x="58.642578" xlink:href="#MicrosoftYaHei-48"/>
      </g>
     </g>
    </g>
    <g id="xtick_11">
     <g id="line2d_11"/>
     <g id="text_11">
      <!-- 11 -->
      <g transform="translate(209.799536 393.92665)scale(0.14 -0.14)">
       <use xlink:href="#MicrosoftYaHei-49"/>
       <use x="58.642578" xlink:href="#MicrosoftYaHei-49"/>
      </g>
     </g>
    </g>
    <g id="xtick_12">
     <g id="line2d_12"/>
     <g id="text_12">
      <!-- 12 -->
      <g transform="translate(225.139944 393.92665)scale(0.14 -0.14)">
       <use xlink:href="#MicrosoftYaHei-49"/>
       <use x="58.642578" xlink:href="#MicrosoftYaHei-50"/>
      </g>
     </g>
    </g>
    <g id="xtick_13">
     <g id="line2d_13"/>
     <g id="text_13">
      <!-- 13 -->
      <g transform="translate(240.480352 393.92665)scale(0.14 -0.14)">
       <use xlink:href="#MicrosoftYaHei-49"/>
       <use x="58.642578" xlink:href="#MicrosoftYaHei-51"/>
      </g>
     </g>
    </g>
    <g id="xtick_14">
     <g id="line2d_14"/>
     <g id="text_14">
      <!-- 14 -->
      <g transform="translate(255.82076 393.92665)scale(0.14 -0.14)">
       <use xlink:href="#MicrosoftYaHei-49"/>
       <use x="58.642578" xlink:href="#MicrosoftYaHei-52"/>
      </g>
     </g>
    </g>
    <g id="xtick_15">
     <g id="line2d_15"/>
     <g id="text_15">
      <!-- 15 -->
      <g transform="translate(271.161168 393.92665)scale(0.14 -0.14)">
       <use xlink:href="#MicrosoftYaHei-49"/>
       <use x="58.642578" xlink:href="#MicrosoftYaHei-53"/>
      </g>
     </g>
    </g>
    <g id="xtick_16">
     <g id="line2d_16"/>
     <g id="text_16">
      <!-- 16 -->
      <g transform="translate(286.501577 393.92665)scale(0.14 -0.14)">
       <use xlink:href="#MicrosoftYaHei-49"/>
       <use x="58.642578" xlink:href="#MicrosoftYaHei-54"/>
      </g>
     </g>
    </g>
    <g id="xtick_17">
     <g id="line2d_17"/>
     <g id="text_17">
      <!-- 17 -->
      <g transform="translate(301.841985 393.92665)scale(0.14 -0.14)">
       <use xlink:href="#MicrosoftYaHei-49"/>
       <use x="58.642578" xlink:href="#MicrosoftYaHei-55"/>
      </g>
     </g>
    </g>
    <g id="xtick_18">
     <g id="line2d_18"/>
     <g id="text_18">
      <!-- 18 -->
      <g transform="translate(317.182393 393.92665)scale(0.14 -0.14)">
       <use xlink:href="#MicrosoftYaHei-49"/>
       <use x="58.642578" xlink:href="#MicrosoftYaHei-56"/>
      </g>
     </g>
    </g>
    <g id="xtick_19">
     <g id="line2d_19"/>
     <g id="text_19">
      <!-- 19 -->
      <g transform="translate(332.522801 393.92665)scale(0.14 -0.14)">
       <use xlink:href="#MicrosoftYaHei-49"/>
       <use x="58.642578" xlink:href="#MicrosoftYaHei-57"/>
      </g>
     </g>
    </g>
    <g id="xtick_20">
     <g id="line2d_20"/>
     <g id="text_20">
      <!-- 20 -->
      <g transform="translate(347.863209 393.92665)scale(0.14 -0.14)">
       <use xlink:href="#MicrosoftYaHei-50"/>
       <use x="58.642578" xlink:href="#MicrosoftYaHei-48"/>
      </g>
     </g>
    </g>
    <g id="xtick_21">
     <g id="line2d_21"/>
     <g id="text_21">
      <!-- 21 -->
      <g transform="translate(363.203617 393.92665)scale(0.14 -0.14)">
       <use xlink:href="#MicrosoftYaHei-50"/>
       <use x="58.642578" xlink:href="#MicrosoftYaHei-49"/>
      </g>
     </g>
    </g>
    <g id="xtick_22">
     <g id="line2d_22"/>
     <g id="text_22">
      <!-- 22 -->
      <g transform="translate(378.544026 393.92665)scale(0.14 -0.14)">
       <use xlink:href="#MicrosoftYaHei-50"/>
       <use x="58.642578" xlink:href="#MicrosoftYaHei-50"/>
      </g>
     </g>
    </g>
    <g id="xtick_23">
     <g id="line2d_23"/>
     <g id="text_23">
      <!-- 23 -->
      <g transform="translate(393.884434 393.92665)scale(0.14 -0.14)">
       <use xlink:href="#MicrosoftYaHei-50"/>
       <use x="58.642578" xlink:href="#MicrosoftYaHei-51"/>
      </g>
     </g>
    </g>
    <g id="xtick_24">
     <g id="line2d_24"/>
     <g id="text_24">
      <!-- 24 -->
      <g transform="translate(409.224842 393.92665)scale(0.14 -0.14)">
       <use xlink:href="#MicrosoftYaHei-50"/>
       <use x="58.642578" xlink:href="#MicrosoftYaHei-52"/>
      </g>
     </g>
    </g>
    <g id="xtick_25">
     <g id="line2d_25"/>
     <g id="text_25">
      <!-- 25 -->
      <g transform="translate(424.56525 393.92665)scale(0.14 -0.14)">
       <use xlink:href="#MicrosoftYaHei-50"/>
       <use x="58.642578" xlink:href="#MicrosoftYaHei-53"/>
      </g>
     </g>
    </g>
    <g id="xtick_26">
     <g id="line2d_26"/>
     <g id="text_26">
      <!-- 26 -->
      <g transform="translate(439.905658 393.92665)scale(0.14 -0.14)">
       <use xlink:href="#MicrosoftYaHei-50"/>
       <use x="58.642578" xlink:href="#MicrosoftYaHei-54"/>
      </g>
     </g>
    </g>
    <g id="xtick_27">
     <g id="line2d_27"/>
     <g id="text_27">
      <!-- 27 -->
      <g transform="translate(455.246066 393.92665)scale(0.14 -0.14)">
       <use xlink:href="#MicrosoftYaHei-50"/>
       <use x="58.642578" xlink:href="#MicrosoftYaHei-55"/>
      </g>
     </g>
    </g>
    <g id="xtick_28">
     <g id="line2d_28"/>
     <g id="text_28">
      <!-- 28 -->
      <g transform="translate(470.586474 393.92665)scale(0.14 -0.14)">
       <use xlink:href="#MicrosoftYaHei-50"/>
       <use x="58.642578" xlink:href="#MicrosoftYaHei-56"/>
      </g>
     </g>
    </g>
    <g id="xtick_29">
     <g id="line2d_29"/>
     <g id="text_29">
      <!-- 29 -->
      <g transform="translate(485.926883 393.92665)scale(0.14 -0.14)">
       <use xlink:href="#MicrosoftYaHei-50"/>
       <use x="58.642578" xlink:href="#MicrosoftYaHei-57"/>
      </g>
     </g>
    </g>
    <g id="xtick_30">
     <g id="line2d_30"/>
     <g id="text_30">
      <!-- 30 -->
      <g transform="translate(501.267291 393.92665)scale(0.14 -0.14)">
       <use xlink:href="#MicrosoftYaHei-51"/>
       <use x="58.642578" xlink:href="#MicrosoftYaHei-48"/>
      </g>
     </g>
    </g>
    <g id="xtick_31">
     <g id="line2d_31"/>
     <g id="text_31">
      <!-- 31 -->
      <g transform="translate(516.607699 393.92665)scale(0.14 -0.14)">
       <use xlink:href="#MicrosoftYaHei-51"/>
       <use x="58.642578" xlink:href="#MicrosoftYaHei-49"/>
      </g>
     </g>
    </g>
    <g id="xtick_32">
     <g id="line2d_32"/>
     <g id="text_32">
      <!-- 32 -->
      <g transform="translate(531.948107 393.92665)scale(0.14 -0.14)">
       <use xlink:href="#MicrosoftYaHei-51"/>
       <use x="58.642578" xlink:href="#MicrosoftYaHei-50"/>
      </g>
     </g>
    </g>
    <g id="xtick_33">
     <g id="line2d_33"/>
     <g id="text_33">
      <!-- 33 -->
      <g transform="translate(547.288515 393.92665)scale(0.14 -0.14)">
       <use xlink:href="#MicrosoftYaHei-51"/>
       <use x="58.642578" xlink:href="#MicrosoftYaHei-51"/>
      </g>
     </g>
    </g>
    <g id="xtick_34">
     <g id="line2d_34"/>
     <g id="text_34">
      <!-- 34 -->
      <g transform="translate(562.628923 393.92665)scale(0.14 -0.14)">
       <use xlink:href="#MicrosoftYaHei-51"/>
       <use x="58.642578" xlink:href="#MicrosoftYaHei-52"/>
      </g>
     </g>
    </g>
    <g id="xtick_35">
     <g id="line2d_35"/>
     <g id="text_35">
      <!-- 35 -->
      <g transform="translate(577.969332 393.92665)scale(0.14 -0.14)">
       <use xlink:href="#MicrosoftYaHei-51"/>
       <use x="58.642578" xlink:href="#MicrosoftYaHei-53"/>
      </g>
     </g>
    </g>
    <g id="xtick_36">
     <g id="line2d_36"/>
     <g id="text_36">
      <!-- 36 -->
      <g transform="translate(593.30974 393.92665)scale(0.14 -0.14)">
       <use xlink:href="#MicrosoftYaHei-51"/>
       <use x="58.642578" xlink:href="#MicrosoftYaHei-54"/>
      </g>
     </g>
    </g>
    <g id="xtick_37">
     <g id="line2d_37"/>
     <g id="text_37">
      <!-- 37 -->
      <g transform="translate(608.650148 393.92665)scale(0.14 -0.14)">
       <use xlink:href="#MicrosoftYaHei-51"/>
       <use x="58.642578" xlink:href="#MicrosoftYaHei-55"/>
      </g>
     </g>
    </g>
    <g id="xtick_38">
     <g id="line2d_38"/>
     <g id="text_38">
      <!-- 38 -->
      <g transform="translate(623.990556 393.92665)scale(0.14 -0.14)">
       <use xlink:href="#MicrosoftYaHei-51"/>
       <use x="58.642578" xlink:href="#MicrosoftYaHei-56"/>
      </g>
     </g>
    </g>
    <g id="xtick_39">
     <g id="line2d_39"/>
     <g id="text_39">
      <!-- 39 -->
      <g transform="translate(639.330964 393.92665)scale(0.14 -0.14)">
       <use xlink:href="#MicrosoftYaHei-51"/>
       <use x="58.642578" xlink:href="#MicrosoftYaHei-57"/>
      </g>
     </g>
    </g>
    <g id="xtick_40">
     <g id="line2d_40"/>
     <g id="text_40">
      <!-- 40 -->
      <g transform="translate(654.671372 393.92665)scale(0.14 -0.14)">
       <use xlink:href="#MicrosoftYaHei-52"/>
       <use x="58.642578" xlink:href="#MicrosoftYaHei-48"/>
      </g>
     </g>
    </g>
    <g id="xtick_41">
     <g id="line2d_41"/>
     <g id="text_41">
      <!-- 41 -->
      <g transform="translate(670.011781 393.92665)scale(0.14 -0.14)">
       <use xlink:href="#MicrosoftYaHei-52"/>
       <use x="58.642578" xlink:href="#MicrosoftYaHei-49"/>
      </g>
     </g>
    </g>
    <g id="xtick_42">
     <g id="line2d_42"/>
     <g id="text_42">
      <!-- 42 -->
      <g transform="translate(685.352189 393.92665)scale(0.14 -0.14)">
       <use xlink:href="#MicrosoftYaHei-52"/>
       <use x="58.642578" xlink:href="#MicrosoftYaHei-50"/>
      </g>
     </g>
    </g>
    <g id="xtick_43">
     <g id="line2d_43"/>
     <g id="text_43">
      <!-- 43 -->
      <g transform="translate(700.692597 393.92665)scale(0.14 -0.14)">
       <use xlink:href="#MicrosoftYaHei-52"/>
       <use x="58.642578" xlink:href="#MicrosoftYaHei-51"/>
      </g>
     </g>
    </g>
    <g id="xtick_44">
     <g id="line2d_44"/>
     <g id="text_44">
      <!-- 44 -->
      <g transform="translate(716.033005 393.92665)scale(0.14 -0.14)">
       <use xlink:href="#MicrosoftYaHei-52"/>
       <use x="58.642578" xlink:href="#MicrosoftYaHei-52"/>
      </g>
     </g>
    </g>
    <g id="xtick_45">
     <g id="line2d_45"/>
     <g id="text_45">
      <!-- 45 -->
      <g transform="translate(731.373413 393.92665)scale(0.14 -0.14)">
       <use xlink:href="#MicrosoftYaHei-52"/>
       <use x="58.642578" xlink:href="#MicrosoftYaHei-53"/>
      </g>
     </g>
    </g>
    <g id="xtick_46">
     <g id="line2d_46"/>
     <g id="text_46">
      <!-- 46 -->
      <g transform="translate(746.713821 393.92665)scale(0.14 -0.14)">
       <use xlink:href="#MicrosoftYaHei-52"/>
       <use x="58.642578" xlink:href="#MicrosoftYaHei-54"/>
      </g>
     </g>
    </g>
    <g id="xtick_47">
     <g id="line2d_47"/>
     <g id="text_47">
      <!-- 47 -->
      <g transform="translate(762.05423 393.92665)scale(0.14 -0.14)">
       <use xlink:href="#MicrosoftYaHei-52"/>
       <use x="58.642578" xlink:href="#MicrosoftYaHei-55"/>
      </g>
     </g>
    </g>
    <g id="xtick_48">
     <g id="line2d_48"/>
     <g id="text_48">
      <!-- 48 -->
      <g transform="translate(777.394638 393.92665)scale(0.14 -0.14)">
       <use xlink:href="#MicrosoftYaHei-52"/>
       <use x="58.642578" xlink:href="#MicrosoftYaHei-56"/>
      </g>
     </g>
    </g>
    <g id="xtick_49">
     <g id="line2d_49"/>
     <g id="text_49">
      <!-- 49 -->
      <g transform="translate(792.735046 393.92665)scale(0.14 -0.14)">
       <use xlink:href="#MicrosoftYaHei-52"/>
       <use x="58.642578" xlink:href="#MicrosoftYaHei-57"/>
      </g>
     </g>
    </g>
    <g id="text_50">
     <!-- shop出现的次数 -->
     <defs>
      <path d="M 5.515625 11.671875 
Q 12.75 6.453125 21.09375 6.453125 
Q 32.28125 6.453125 32.28125 13.765625 
Q 32.28125 16.890625 29.828125 18.921875 
Q 27.390625 20.953125 19.921875 23.734375 
Q 10.9375 27.34375 8.25 30.875 
Q 5.5625 34.421875 5.5625 39.453125 
Q 5.5625 46.625 11.640625 50.953125 
Q 17.71875 55.28125 26.609375 55.28125 
Q 33.5 55.28125 39.40625 52.875 
L 39.40625 43.65625 
Q 33.34375 47.5625 25.6875 47.5625 
Q 21.09375 47.5625 18.203125 45.5625 
Q 15.328125 43.5625 15.328125 40.28125 
Q 15.328125 37.0625 17.40625 35.25 
Q 19.484375 33.453125 26.609375 30.609375 
Q 35.640625 27.25 38.8125 23.625 
Q 42 20.015625 42 14.703125 
Q 42 7.28125 35.90625 3 
Q 29.828125 -1.265625 20.171875 -1.265625 
Q 11.765625 -1.265625 5.515625 1.90625 
z
" id="MicrosoftYaHei-115"/>
      <path d="M 54.15625 0 
L 44.625 0 
L 44.625 31.0625 
Q 44.625 47.359375 32.515625 47.359375 
Q 26.3125 47.359375 22.203125 42.59375 
Q 18.109375 37.84375 18.109375 30.609375 
L 18.109375 0 
L 8.546875 0 
L 8.546875 79.9375 
L 18.109375 79.9375 
L 18.109375 45.125 
L 18.3125 45.125 
Q 24.515625 55.28125 35.9375 55.28125 
Q 54.15625 55.28125 54.15625 33.25 
z
" id="MicrosoftYaHei-104"/>
      <path d="M 4.9375 26.421875 
Q 4.9375 39.796875 12.40625 47.53125 
Q 19.875 55.28125 32.671875 55.28125 
Q 44.828125 55.28125 51.734375 47.828125 
Q 58.640625 40.375 58.640625 27.25 
Q 58.640625 14.453125 51.265625 6.59375 
Q 43.890625 -1.265625 31.5 -1.265625 
Q 19.390625 -1.265625 12.15625 6.34375 
Q 4.9375 13.96875 4.9375 26.421875 
z
M 14.703125 26.703125 
Q 14.703125 17.390625 19.40625 12.015625 
Q 24.125 6.640625 32.078125 6.640625 
Q 40.28125 6.640625 44.578125 11.890625 
Q 48.875 17.140625 48.875 26.953125 
Q 48.875 36.8125 44.578125 42.078125 
Q 40.28125 47.359375 32.078125 47.359375 
Q 24.03125 47.359375 19.359375 41.84375 
Q 14.703125 36.328125 14.703125 26.703125 
z
" id="MicrosoftYaHei-111"/>
      <path d="M 18.109375 7.625 
L 18.109375 -24.859375 
L 8.546875 -24.859375 
L 8.546875 54 
L 18.109375 54 
L 18.109375 44.671875 
L 18.3125 44.671875 
Q 24.65625 55.28125 36.859375 55.28125 
Q 47.21875 55.28125 53.09375 48.015625 
Q 58.984375 40.765625 58.984375 28.5625 
Q 58.984375 15.09375 52.3125 6.90625 
Q 45.65625 -1.265625 34.375 -1.265625 
Q 23.96875 -1.265625 18.3125 7.625 
z
M 18.0625 22.265625 
Q 18.0625 15.671875 22.3125 11.15625 
Q 26.5625 6.640625 32.953125 6.640625 
Q 40.578125 6.640625 44.875 12.5 
Q 49.171875 18.359375 49.171875 28.71875 
Q 49.171875 37.453125 45.15625 42.40625 
Q 41.15625 47.359375 34.234375 47.359375 
Q 27.15625 47.359375 22.609375 42.328125 
Q 18.0625 37.3125 18.0625 29.4375 
z
" id="MicrosoftYaHei-112"/>
      <path d="M 79.6875 33.9375 
L 79.6875 37.546875 
L 54 37.546875 
L 54 -0.734375 
L 82.625 -0.734375 
L 82.625 27.09375 
L 90.828125 27.09375 
L 90.828125 -11.671875 
L 82.625 -11.671875 
L 82.625 -8.15625 
L 9.1875 -8.15625 
L 9.1875 27.09375 
L 17.484375 27.09375 
L 17.484375 -0.734375 
L 45.515625 -0.734375 
L 45.515625 37.546875 
L 11.8125 37.546875 
L 11.8125 72.609375 
L 20.125 72.609375 
L 20.125 44.96875 
L 45.515625 44.96875 
L 45.515625 81.59375 
L 54 81.59375 
L 54 44.96875 
L 79.6875 44.96875 
L 79.6875 72.609375 
L 87.984375 72.609375 
L 87.984375 33.9375 
z
" id="MicrosoftYaHei-20986"/>
      <path d="M 60.9375 64.703125 
L 68.5625 64.703125 
L 68.5625 48.296875 
Q 68.5625 35.75 66.40625 26.21875 
L 72.859375 26.21875 
L 72.859375 1.609375 
Q 72.859375 -3.5625 78.515625 -3.5625 
L 83.203125 -3.5625 
Q 89.0625 -3.5625 89.65625 1.703125 
Q 90.234375 6.203125 90.625 14.5 
Q 93.953125 13.140625 98.640625 11.46875 
Q 97.859375 2.875 97.078125 -1.421875 
Q 95.609375 -10.40625 84.28125 -10.40625 
L 77.046875 -10.40625 
Q 65.4375 -10.40625 65.4375 0.640625 
L 65.4375 22.265625 
Q 63.421875 15.328125 60.15625 10.203125 
Q 51.859375 -3.171875 32.71875 -13.03125 
Q 30.171875 -9.421875 27.4375 -6.59375 
Q 46.484375 2.59375 53.90625 14.703125 
Q 60.9375 25.640625 60.9375 47.703125 
z
M 40.4375 78.65625 
L 90.328125 78.65625 
L 90.328125 20.0625 
L 82.71875 20.0625 
L 82.71875 71.4375 
L 48.046875 71.4375 
L 48.046875 18.703125 
L 40.4375 18.703125 
z
M 1.265625 6 
Q 8.296875 7.90625 16.015625 10.109375 
L 16.015625 38.53125 
L 3.125 38.53125 
L 3.125 45.5625 
L 16.015625 45.5625 
L 16.015625 68.21875 
L 2.34375 68.21875 
L 2.34375 75.25 
L 37.5 75.25 
L 37.5 68.21875 
L 23.640625 68.21875 
L 23.640625 45.5625 
L 36.140625 45.5625 
L 36.140625 38.53125 
L 23.640625 38.53125 
L 23.640625 12.359375 
Q 30.5625 14.453125 37.984375 16.75 
Q 38.1875 13.03125 38.671875 9.421875 
Q 21.875 4.25 4 -1.515625 
z
" id="MicrosoftYaHei-29616"/>
      <path d="M 5.5625 66.9375 
L 15.4375 66.9375 
Q 19.046875 75.828125 21.390625 83.15625 
L 29.59375 80.8125 
Q 26.515625 73.34375 23.640625 66.9375 
L 43.171875 66.9375 
L 43.171875 -10.796875 
L 35.359375 -10.796875 
L 35.359375 -3.171875 
L 13.375 -3.171875 
L 13.375 -11.46875 
L 5.5625 -11.46875 
z
M 44.625 46.921875 
Q 53.8125 61.46875 60.15625 83.15625 
L 68.359375 81.109375 
Q 65.875 73.734375 63.28125 67.234375 
L 94.734375 67.234375 
Q 93.5625 17.046875 92.78125 4.046875 
Q 92.09375 -11.28125 76.65625 -11.28125 
Q 67.78125 -11.28125 58.59375 -10.6875 
Q 58.015625 -5.8125 57.03125 -2 
L 57.328125 -2 
Q 67.09375 -3.375 75.203125 -3.375 
Q 84.078125 -3.375 84.765625 6 
Q 85.84375 20.5625 86.328125 59.90625 
L 60.15625 59.90625 
Q 55.90625 50.484375 51.375 43.3125 
Q 48.734375 45.171875 44.625 46.921875 
z
M 13.375 4.15625 
L 35.359375 4.15625 
L 35.359375 28.859375 
L 13.375 28.859375 
z
M 35.359375 59.625 
L 13.375 59.625 
L 13.375 35.890625 
L 35.359375 35.890625 
z
M 53.21875 40.28125 
L 59.1875 44.671875 
Q 70.015625 31.890625 76.46875 22.515625 
L 69.234375 17.4375 
Q 62.3125 28.765625 53.21875 40.28125 
z
" id="MicrosoftYaHei-30340"/>
      <path d="M 64.359375 54.25 
Q 64.265625 49.359375 63.921875 44.625 
Q 70.453125 11.375 98.734375 -4.4375 
Q 94.734375 -8.734375 92.390625 -12.0625 
Q 67.875 5.171875 60.9375 30.375 
Q 54.546875 3.125 25.78125 -13.53125 
Q 23.828125 -10.5 20.40625 -6.59375 
Q 50.390625 9.234375 55.078125 37.9375 
Q 56.453125 44.96875 56.546875 54.25 
z
M 77.25 41.359375 
Q 81.640625 49.46875 85.15625 58.84375 
L 46.734375 58.84375 
Q 42.484375 49.125 37.3125 40.1875 
Q 33.796875 42.71875 30.28125 44.390625 
Q 41.703125 63.03125 46.875 82.953125 
L 54.78125 80.71875 
Q 52.4375 73.046875 49.609375 65.765625 
L 93.5625 65.765625 
L 93.5625 58.84375 
Q 89.546875 48 84.765625 38.53125 
Q 81.453125 40.1875 77.25 41.359375 
z
M 21.6875 40.96875 
Q 26.171875 37.546875 29.296875 35.6875 
Q 16.796875 13.421875 8.984375 -2.78125 
L 1.078125 2.390625 
Q 11.140625 17.625 21.6875 40.96875 
z
M 10.0625 76.8125 
Q 17.96875 68.890625 27.828125 57.375 
L 21.484375 51.515625 
Q 12.015625 64.015625 4.390625 71.734375 
z
" id="MicrosoftYaHei-27425"/>
      <path d="M 65.234375 82.859375 
L 73.046875 81.6875 
Q 71 72.21875 68.265625 64.015625 
L 98.140625 64.015625 
L 98.140625 57.375 
L 92 57.375 
Q 89.546875 28.65625 79.5 11.765625 
Q 87.40625 1.03125 99.609375 -5.8125 
Q 96.484375 -10.109375 94.34375 -13.53125 
Q 82.421875 -5.8125 74.515625 4.828125 
Q 65.53125 -6.296875 53.125 -14.5 
Q 50.984375 -11.671875 47.5625 -8.34375 
Q 61.234375 0.640625 69.734375 12.0625 
Q 61.8125 25.734375 59.28125 43.609375 
Q 57.234375 39.984375 54.984375 36.859375 
Q 53.03125 39.703125 50.09375 43.109375 
Q 61.421875 59.421875 65.234375 82.859375 
z
M 2.34375 26.515625 
L 17.1875 26.515625 
Q 19.34375 30.21875 21.390625 34.125 
L 28.421875 31.890625 
Q 26.859375 29.15625 25.296875 26.515625 
L 49.21875 26.515625 
L 49.21875 20.171875 
Q 45.515625 10.59375 37.984375 3.375 
Q 43.359375 0.828125 48.921875 -1.703125 
L 44.625 -8.453125 
Q 38.578125 -5.03125 32.03125 -1.609375 
Q 21 -9.515625 4.203125 -14.109375 
Q 2.640625 -10.984375 0.875 -7.28125 
Q 15.140625 -4.046875 25 2 
Q 16.609375 6.296875 7.421875 10.796875 
Q 10.546875 15.28125 13.484375 20.0625 
L 2.34375 20.0625 
z
M 3.421875 60.109375 
L 25.875 60.109375 
L 25.875 81.984375 
L 33.109375 81.984375 
L 33.109375 60.109375 
L 51.859375 60.109375 
L 51.859375 53.65625 
L 33.109375 53.65625 
L 33.109375 47.703125 
L 36.03125 51.03125 
Q 45.125 44.390625 51.265625 39.3125 
L 46.578125 33.84375 
Q 41.21875 38.921875 33.109375 45.265625 
L 33.109375 34.125 
L 25.875 34.125 
L 25.875 47.796875 
Q 17 38.53125 5.171875 31.5 
Q 3.328125 34.328125 0.984375 37.453125 
Q 13.28125 44.09375 23.53125 53.65625 
L 3.421875 53.65625 
z
M 84.1875 57.375 
L 65.921875 57.375 
Q 65.4375 56.109375 64.84375 54.9375 
Q 66.609375 34.234375 74.609375 19.484375 
Q 82.421875 33.734375 84.1875 57.375 
z
M 17 13.03125 
Q 23.921875 9.90625 31.25 6.5 
Q 37.984375 12.25 41.796875 20.0625 
L 21.484375 20.0625 
Q 19.234375 16.453125 17 13.03125 
z
M 47.46875 79.546875 
L 53.515625 75.53125 
Q 48.140625 68.5 42.78125 62.546875 
Q 40.53125 64.5 37.5 66.65625 
Q 42.578125 72.609375 47.46875 79.546875 
z
M 5.953125 75.25 
L 11.53125 79.046875 
Q 15.921875 73.6875 20.609375 67.53125 
L 14.546875 63.234375 
Q 10.25 69.578125 5.953125 75.25 
z
" id="MicrosoftYaHei-25968"/>
     </defs>
     <g transform="translate(371.007375 415.377213)scale(0.168 -0.168)">
      <use xlink:href="#MicrosoftYaHei-115"/>
      <use x="46.289062" xlink:href="#MicrosoftYaHei-104"/>
      <use x="107.861328" xlink:href="#MicrosoftYaHei-111"/>
      <use x="171.435547" xlink:href="#MicrosoftYaHei-112"/>
      <use x="235.302734" xlink:href="#MicrosoftYaHei-20986"/>
      <use x="335.302734" xlink:href="#MicrosoftYaHei-29616"/>
      <use x="435.302734" xlink:href="#MicrosoftYaHei-30340"/>
      <use x="535.302734" xlink:href="#MicrosoftYaHei-27425"/>
      <use x="635.302734" xlink:href="#MicrosoftYaHei-25968"/>
     </g>
    </g>
   </g>
   <g id="matplotlib.axis_2">
    <g id="ytick_1">
     <g id="line2d_50">
      <path clip-path="url(#p998e744b67)" d="M 56.934938 379.2354 
L 808.614937 379.2354 
" style="fill:none;stroke:#cbcbcb;"/>
     </g>
     <g id="line2d_51"/>
     <g id="text_51">
      <!-- 0 -->
      <g transform="translate(45.22525 384.831025)scale(0.14 -0.14)">
       <use xlink:href="#MicrosoftYaHei-48"/>
      </g>
     </g>
    </g>
    <g id="ytick_2">
     <g id="line2d_52">
      <path clip-path="url(#p998e744b67)" d="M 56.934938 306.152693 
L 808.614937 306.152693 
" style="fill:none;stroke:#cbcbcb;"/>
     </g>
     <g id="line2d_53"/>
     <g id="text_52">
      <!-- 100 -->
      <g transform="translate(28.805875 311.748318)scale(0.14 -0.14)">
       <use xlink:href="#MicrosoftYaHei-49"/>
       <use x="58.642578" xlink:href="#MicrosoftYaHei-48"/>
       <use x="117.285156" xlink:href="#MicrosoftYaHei-48"/>
      </g>
     </g>
    </g>
    <g id="ytick_3">
     <g id="line2d_54">
      <path clip-path="url(#p998e744b67)" d="M 56.934938 233.069986 
L 808.614937 233.069986 
" style="fill:none;stroke:#cbcbcb;"/>
     </g>
     <g id="line2d_55"/>
     <g id="text_53">
      <!-- 200 -->
      <g transform="translate(28.805875 238.665611)scale(0.14 -0.14)">
       <use xlink:href="#MicrosoftYaHei-50"/>
       <use x="58.642578" xlink:href="#MicrosoftYaHei-48"/>
       <use x="117.285156" xlink:href="#MicrosoftYaHei-48"/>
      </g>
     </g>
    </g>
    <g id="ytick_4">
     <g id="line2d_56">
      <path clip-path="url(#p998e744b67)" d="M 56.934938 159.98728 
L 808.614937 159.98728 
" style="fill:none;stroke:#cbcbcb;"/>
     </g>
     <g id="line2d_57"/>
     <g id="text_54">
      <!-- 300 -->
      <g transform="translate(28.805875 165.582905)scale(0.14 -0.14)">
       <use xlink:href="#MicrosoftYaHei-51"/>
       <use x="58.642578" xlink:href="#MicrosoftYaHei-48"/>
       <use x="117.285156" xlink:href="#MicrosoftYaHei-48"/>
      </g>
     </g>
    </g>
    <g id="ytick_5">
     <g id="line2d_58">
      <path clip-path="url(#p998e744b67)" d="M 56.934938 86.904573 
L 808.614937 86.904573 
" style="fill:none;stroke:#cbcbcb;"/>
     </g>
     <g id="line2d_59"/>
     <g id="text_55">
      <!-- 400 -->
      <g transform="translate(28.805875 92.500198)scale(0.14 -0.14)">
       <use xlink:href="#MicrosoftYaHei-52"/>
       <use x="58.642578" xlink:href="#MicrosoftYaHei-48"/>
       <use x="117.285156" xlink:href="#MicrosoftYaHei-48"/>
      </g>
     </g>
    </g>
    <g id="text_56">
     <!-- 出现n次的店铺的数量 -->
     <defs>
      <path d="M 54.203125 0 
L 44.671875 0 
L 44.671875 30.71875 
Q 44.671875 47.359375 32.515625 47.359375 
Q 26.21875 47.359375 22.15625 42.671875 
Q 18.109375 37.984375 18.109375 30.8125 
L 18.109375 0 
L 8.546875 0 
L 8.546875 54 
L 18.109375 54 
L 18.109375 45.0625 
L 18.3125 45.0625 
Q 24.421875 55.28125 36.03125 55.28125 
Q 44.921875 55.28125 49.5625 49.578125 
Q 54.203125 43.890625 54.203125 33.015625 
z
" id="MicrosoftYaHei-110"/>
      <path d="M 51.171875 62.0625 
L 59.1875 62.0625 
L 59.1875 49.859375 
L 95.796875 49.859375 
L 95.796875 42.828125 
L 59.1875 42.828125 
L 59.1875 28.953125 
L 88.1875 28.953125 
L 88.1875 -12.9375 
L 80.375 -12.9375 
L 80.375 -6.59375 
L 36.03125 -6.59375 
L 36.03125 -12.9375 
L 28.21875 -12.9375 
L 28.21875 28.953125 
L 51.171875 28.953125 
z
M 46.390625 80.8125 
L 53.328125 84.234375 
Q 57.28125 78.375 60.6875 72.015625 
L 98.25 72.015625 
L 98.25 64.796875 
L 18.953125 64.796875 
L 18.953125 32.078125 
Q 17.96875 1.609375 5.765625 -13.71875 
Q 3.515625 -10.6875 0.203125 -7.078125 
Q 10.75 6.890625 10.84375 33.84375 
L 10.84375 72.015625 
L 51.609375 72.015625 
Q 49.265625 76.421875 46.390625 80.8125 
z
M 80.375 21.921875 
L 36.03125 21.921875 
L 36.03125 0.25 
L 80.375 0.25 
z
" id="MicrosoftYaHei-24215"/>
      <path d="M 34.578125 69.578125 
L 61.234375 69.578125 
L 61.234375 82.671875 
L 68.453125 82.671875 
L 68.453125 69.578125 
L 81.640625 69.578125 
Q 78.328125 74.46875 74.21875 79.34375 
L 80.28125 83.546875 
Q 84.96875 78.171875 89.0625 72.796875 
L 84.46875 69.578125 
L 98.046875 69.578125 
L 98.046875 62.546875 
L 68.453125 62.546875 
L 68.453125 53.265625 
L 93.5625 53.265625 
L 93.5625 -1.90625 
Q 93.5625 -11.96875 83.5 -12.0625 
Q 78.515625 -12.0625 73.140625 -11.859375 
Q 72.65625 -8.640625 71.6875 -4.34375 
Q 77.640625 -4.9375 81.25 -4.9375 
Q 86.328125 -4.9375 86.328125 0.140625 
L 86.328125 10.015625 
L 68.453125 10.015625 
L 68.453125 -11.671875 
L 61.234375 -11.671875 
L 61.234375 10.015625 
L 44.828125 10.015625 
L 44.828125 -12.75 
L 37.59375 -12.75 
L 37.59375 53.265625 
L 61.234375 53.265625 
L 61.234375 62.546875 
L 34.578125 62.546875 
z
M 8.796875 49.078125 
L 30.953125 49.078125 
L 30.953125 42.328125 
L 21 42.328125 
L 21 30.328125 
L 33.796875 30.328125 
L 33.796875 23.578125 
L 21 23.578125 
L 21 0.640625 
Q 26.765625 4.4375 31.9375 8.15625 
Q 32.71875 3.65625 33.5 0.4375 
Q 29.296875 -2.203125 21.09375 -8.0625 
Q 19.34375 -9.328125 15.921875 -12.453125 
L 10.75 -6 
Q 14.0625 -3.375 14.0625 1.609375 
L 14.0625 23.578125 
L 2.25 23.578125 
L 2.25 30.328125 
L 14.0625 30.328125 
L 14.0625 42.328125 
L 8.796875 42.328125 
z
M 14.0625 61.375 
Q 10.15625 52.203125 5.953125 45.359375 
Q 3.8125 48.390625 0.875 51.90625 
Q 9.96875 66.0625 13.28125 82.375 
L 20.609375 80.71875 
Q 18.84375 74.171875 16.703125 68.109375 
L 32.03125 68.109375 
L 32.03125 61.375 
z
M 68.453125 16.84375 
L 86.328125 16.84375 
L 86.328125 28.265625 
L 68.453125 28.265625 
z
M 86.328125 46.4375 
L 68.453125 46.4375 
L 68.453125 35.109375 
L 86.328125 35.109375 
z
M 44.828125 16.84375 
L 61.234375 16.84375 
L 61.234375 28.265625 
L 44.828125 28.265625 
z
M 44.828125 35.109375 
L 61.234375 35.109375 
L 61.234375 46.4375 
L 44.828125 46.4375 
z
" id="MicrosoftYaHei-38138"/>
      <path d="M 1.765625 -4.34375 
L 46.578125 -4.34375 
L 46.578125 1.21875 
L 7.421875 1.21875 
L 7.421875 6.296875 
L 46.578125 6.296875 
L 46.578125 11.859375 
L 23.34375 11.859375 
L 23.34375 9.328125 
L 16.703125 9.328125 
L 16.703125 39.3125 
L 83.59375 39.3125 
L 83.59375 9.328125 
L 76.953125 9.328125 
L 76.953125 11.859375 
L 53.421875 11.859375 
L 53.421875 6.296875 
L 92.671875 6.296875 
L 92.671875 1.21875 
L 53.421875 1.21875 
L 53.421875 -4.34375 
L 98.25 -4.34375 
L 98.25 -9.625 
L 1.765625 -9.625 
z
M 17.484375 79.25 
L 82.90625 79.25 
L 82.90625 51.3125 
L 76.265625 51.3125 
L 76.265625 53.953125 
L 24.125 53.953125 
L 24.125 51.3125 
L 17.484375 51.3125 
z
M 2.546875 49.265625 
L 97.859375 49.265625 
L 97.859375 44 
L 2.546875 44 
z
M 24.125 59.03125 
L 76.265625 59.03125 
L 76.265625 64.3125 
L 24.125 64.3125 
z
M 76.265625 74.171875 
L 24.125 74.171875 
L 24.125 69 
L 76.265625 69 
z
M 53.421875 16.9375 
L 76.953125 16.9375 
L 76.953125 23.296875 
L 53.421875 23.296875 
z
M 23.34375 16.9375 
L 46.578125 16.9375 
L 46.578125 23.296875 
L 23.34375 23.296875 
z
M 76.953125 34.234375 
L 53.421875 34.234375 
L 53.421875 27.984375 
L 76.953125 27.984375 
z
M 23.34375 27.984375 
L 46.578125 27.984375 
L 46.578125 34.234375 
L 23.34375 34.234375 
z
" id="MicrosoftYaHei-37327"/>
     </defs>
     <g transform="translate(20.6295 285.0519)rotate(-90)scale(0.168 -0.168)">
      <use xlink:href="#MicrosoftYaHei-20986"/>
      <use x="100" xlink:href="#MicrosoftYaHei-29616"/>
      <use x="200" xlink:href="#MicrosoftYaHei-110"/>
      <use x="261.621094" xlink:href="#MicrosoftYaHei-27425"/>
      <use x="361.621094" xlink:href="#MicrosoftYaHei-30340"/>
      <use x="461.621094" xlink:href="#MicrosoftYaHei-24215"/>
      <use x="561.621094" xlink:href="#MicrosoftYaHei-38138"/>
      <use x="661.621094" xlink:href="#MicrosoftYaHei-30340"/>
      <use x="761.621094" xlink:href="#MicrosoftYaHei-25968"/>
      <use x="861.621094" xlink:href="#MicrosoftYaHei-37327"/>
     </g>
    </g>
   </g>
   <g id="patch_3">
    <path clip-path="url(#p998e744b67)" d="M 58.468978 379.2354 
L 70.741305 379.2354 
L 70.741305 45.978257 
L 58.468978 45.978257 
z
" style="fill:#ea96a3;"/>
   </g>
   <g id="patch_4">
    <path clip-path="url(#p998e744b67)" d="M 73.809386 379.2354 
L 86.081713 379.2354 
L 86.081713 172.41134 
L 73.809386 172.41134 
z
" style="fill:#ea9799;"/>
   </g>
   <g id="patch_5">
    <path clip-path="url(#p998e744b67)" d="M 89.149795 379.2354 
L 101.422121 379.2354 
L 101.422121 227.22337 
L 89.149795 227.22337 
z
" style="fill:#e8968b;"/>
   </g>
   <g id="patch_6">
    <path clip-path="url(#p998e744b67)" d="M 104.490203 379.2354 
L 116.762529 379.2354 
L 116.762529 252.802317 
L 104.490203 252.802317 
z
" style="fill:#e69577;"/>
   </g>
   <g id="patch_7">
    <path clip-path="url(#p998e744b67)" d="M 119.830611 379.2354 
L 132.102937 379.2354 
L 132.102937 294.45946 
L 119.830611 294.45946 
z
" style="fill:#e19257;"/>
   </g>
   <g id="patch_8">
    <path clip-path="url(#p998e744b67)" d="M 135.171019 379.2354 
L 147.443346 379.2354 
L 147.443346 293.728633 
L 135.171019 293.728633 
z
" style="fill:#d6944e;"/>
   </g>
   <g id="patch_9">
    <path clip-path="url(#p998e744b67)" d="M 150.511427 379.2354 
L 162.783754 379.2354 
L 162.783754 311.268483 
L 150.511427 311.268483 
z
" style="fill:#cb974c;"/>
   </g>
   <g id="patch_10">
    <path clip-path="url(#p998e744b67)" d="M 165.851835 379.2354 
L 178.124162 379.2354 
L 178.124162 320.038408 
L 165.851835 320.038408 
z
" style="fill:#c29a4b;"/>
   </g>
   <g id="patch_11">
    <path clip-path="url(#p998e744b67)" d="M 181.192244 379.2354 
L 193.46457 379.2354 
L 193.46457 331.731641 
L 181.192244 331.731641 
z
" style="fill:#ba9b49;"/>
   </g>
   <g id="patch_12">
    <path clip-path="url(#p998e744b67)" d="M 196.532652 379.2354 
L 208.804978 379.2354 
L 208.804978 328.808332 
L 196.532652 328.808332 
z
" style="fill:#b29d48;"/>
   </g>
   <g id="patch_13">
    <path clip-path="url(#p998e744b67)" d="M 211.87306 379.2354 
L 224.145386 379.2354 
L 224.145386 332.462468 
L 211.87306 332.462468 
z
" style="fill:#aa9e47;"/>
   </g>
   <g id="patch_14">
    <path clip-path="url(#p998e744b67)" d="M 227.213468 379.2354 
L 239.485795 379.2354 
L 239.485795 320.769235 
L 227.213468 320.769235 
z
" style="fill:#a19f46;"/>
   </g>
   <g id="patch_15">
    <path clip-path="url(#p998e744b67)" d="M 242.553876 379.2354 
L 254.826203 379.2354 
L 254.826203 339.039911 
L 242.553876 339.039911 
z
" style="fill:#9aa146;"/>
   </g>
   <g id="patch_16">
    <path clip-path="url(#p998e744b67)" d="M 257.894284 379.2354 
L 270.166611 379.2354 
L 270.166611 344.155701 
L 257.894284 344.155701 
z
" style="fill:#92a446;"/>
   </g>
   <g id="patch_17">
    <path clip-path="url(#p998e744b67)" d="M 273.234693 379.2354 
L 285.507019 379.2354 
L 285.507019 350.002317 
L 273.234693 350.002317 
z
" style="fill:#88a746;"/>
   </g>
   <g id="patch_18">
    <path clip-path="url(#p998e744b67)" d="M 288.575101 379.2354 
L 300.847427 379.2354 
L 300.847427 355.118107 
L 288.575101 355.118107 
z
" style="fill:#7baa47;"/>
   </g>
   <g id="patch_19">
    <path clip-path="url(#p998e744b67)" d="M 303.915509 379.2354 
L 316.187835 379.2354 
L 316.187835 351.463971 
L 303.915509 351.463971 
z
" style="fill:#69ad47;"/>
   </g>
   <g id="patch_20">
    <path clip-path="url(#p998e744b67)" d="M 319.255917 379.2354 
L 331.528244 379.2354 
L 331.528244 348.540663 
L 319.255917 348.540663 
z
" style="fill:#48b14b;"/>
   </g>
   <g id="patch_21">
    <path clip-path="url(#p998e744b67)" d="M 334.596325 379.2354 
L 346.868652 379.2354 
L 346.868652 355.118107 
L 334.596325 355.118107 
z
" style="fill:#48af6b;"/>
   </g>
   <g id="patch_22">
    <path clip-path="url(#p998e744b67)" d="M 349.936733 379.2354 
L 362.20906 379.2354 
L 362.20906 349.27149 
L 349.936733 349.27149 
z
" style="fill:#49af7b;"/>
   </g>
   <g id="patch_23">
    <path clip-path="url(#p998e744b67)" d="M 365.277142 379.2354 
L 377.549468 379.2354 
L 377.549468 353.656453 
L 365.277142 353.656453 
z
" style="fill:#49ae87;"/>
   </g>
   <g id="patch_24">
    <path clip-path="url(#p998e744b67)" d="M 380.61755 379.2354 
L 392.889876 379.2354 
L 392.889876 351.463971 
L 380.61755 351.463971 
z
" style="fill:#4aad8f;"/>
   </g>
   <g id="patch_25">
    <path clip-path="url(#p998e744b67)" d="M 395.957958 379.2354 
L 408.230284 379.2354 
L 408.230284 355.848934 
L 395.957958 355.848934 
z
" style="fill:#4aad96;"/>
   </g>
   <g id="patch_26">
    <path clip-path="url(#p998e744b67)" d="M 411.298366 379.2354 
L 423.570693 379.2354 
L 423.570693 358.041415 
L 411.298366 358.041415 
z
" style="fill:#4aac9c;"/>
   </g>
   <g id="patch_27">
    <path clip-path="url(#p998e744b67)" d="M 426.638774 379.2354 
L 438.911101 379.2354 
L 438.911101 365.349686 
L 426.638774 365.349686 
z
" style="fill:#4baba2;"/>
   </g>
   <g id="patch_28">
    <path clip-path="url(#p998e744b67)" d="M 441.979182 379.2354 
L 454.251509 379.2354 
L 454.251509 359.503069 
L 441.979182 359.503069 
z
" style="fill:#4baba7;"/>
   </g>
   <g id="patch_29">
    <path clip-path="url(#p998e744b67)" d="M 457.319591 379.2354 
L 469.591917 379.2354 
L 469.591917 360.964723 
L 457.319591 360.964723 
z
" style="fill:#4cabac;"/>
   </g>
   <g id="patch_30">
    <path clip-path="url(#p998e744b67)" d="M 472.659999 379.2354 
L 484.932325 379.2354 
L 484.932325 364.618859 
L 472.659999 364.618859 
z
" style="fill:#4dabb2;"/>
   </g>
   <g id="patch_31">
    <path clip-path="url(#p998e744b67)" d="M 488.000407 379.2354 
L 500.272733 379.2354 
L 500.272733 361.69555 
L 488.000407 361.69555 
z
" style="fill:#4eabb8;"/>
   </g>
   <g id="patch_32">
    <path clip-path="url(#p998e744b67)" d="M 503.340815 379.2354 
L 515.613142 379.2354 
L 515.613142 366.080513 
L 503.340815 366.080513 
z
" style="fill:#50acbf;"/>
   </g>
   <g id="patch_33">
    <path clip-path="url(#p998e744b67)" d="M 518.681223 379.2354 
L 530.95355 379.2354 
L 530.95355 363.888032 
L 518.681223 363.888032 
z
" style="fill:#52acc7;"/>
   </g>
   <g id="patch_34">
    <path clip-path="url(#p998e744b67)" d="M 534.021631 379.2354 
L 546.293958 379.2354 
L 546.293958 364.618859 
L 534.021631 364.618859 
z
" style="fill:#54acd1;"/>
   </g>
   <g id="patch_35">
    <path clip-path="url(#p998e744b67)" d="M 549.36204 379.2354 
L 561.634366 379.2354 
L 561.634366 363.888032 
L 549.36204 363.888032 
z
" style="fill:#56addd;"/>
   </g>
   <g id="patch_36">
    <path clip-path="url(#p998e744b67)" d="M 564.702448 379.2354 
L 576.974774 379.2354 
L 576.974774 363.888032 
L 564.702448 363.888032 
z
" style="fill:#77aee4;"/>
   </g>
   <g id="patch_37">
    <path clip-path="url(#p998e744b67)" d="M 580.042856 379.2354 
L 592.315182 379.2354 
L 592.315182 365.349686 
L 580.042856 365.349686 
z
" style="fill:#8eaee7;"/>
   </g>
   <g id="patch_38">
    <path clip-path="url(#p998e744b67)" d="M 595.383264 379.2354 
L 607.655591 379.2354 
L 607.655591 363.157205 
L 595.383264 363.157205 
z
" style="fill:#a0adea;"/>
   </g>
   <g id="patch_39">
    <path clip-path="url(#p998e744b67)" d="M 610.723672 379.2354 
L 622.995999 379.2354 
L 622.995999 364.618859 
L 610.723672 364.618859 
z
" style="fill:#aeabeb;"/>
   </g>
   <g id="patch_40">
    <path clip-path="url(#p998e744b67)" d="M 626.06408 379.2354 
L 638.336407 379.2354 
L 638.336407 368.272994 
L 626.06408 368.272994 
z
" style="fill:#b9a7eb;"/>
   </g>
   <g id="patch_41">
    <path clip-path="url(#p998e744b67)" d="M 641.404489 379.2354 
L 653.676815 379.2354 
L 653.676815 362.426377 
L 641.404489 362.426377 
z
" style="fill:#c2a2ea;"/>
   </g>
   <g id="patch_42">
    <path clip-path="url(#p998e744b67)" d="M 656.744897 379.2354 
L 669.017223 379.2354 
L 669.017223 371.927129 
L 656.744897 371.927129 
z
" style="fill:#cc9ce9;"/>
   </g>
   <g id="patch_43">
    <path clip-path="url(#p998e744b67)" d="M 672.085305 379.2354 
L 684.357631 379.2354 
L 684.357631 370.465475 
L 672.085305 370.465475 
z
" style="fill:#d696e8;"/>
   </g>
   <g id="patch_44">
    <path clip-path="url(#p998e744b67)" d="M 687.425713 379.2354 
L 699.69804 379.2354 
L 699.69804 369.003821 
L 687.425713 369.003821 
z
" style="fill:#e08ee7;"/>
   </g>
   <g id="patch_45">
    <path clip-path="url(#p998e744b67)" d="M 702.766121 379.2354 
L 715.038448 379.2354 
L 715.038448 371.196302 
L 702.766121 371.196302 
z
" style="fill:#e78ae0;"/>
   </g>
   <g id="patch_46">
    <path clip-path="url(#p998e744b67)" d="M 718.106529 379.2354 
L 730.378856 379.2354 
L 730.378856 371.927129 
L 718.106529 371.927129 
z
" style="fill:#e78cd6;"/>
   </g>
   <g id="patch_47">
    <path clip-path="url(#p998e744b67)" d="M 733.446937 379.2354 
L 745.719264 379.2354 
L 745.719264 369.003821 
L 733.446937 369.003821 
z
" style="fill:#e88fcd;"/>
   </g>
   <g id="patch_48">
    <path clip-path="url(#p998e744b67)" d="M 748.787346 379.2354 
L 761.059672 379.2354 
L 761.059672 367.542167 
L 748.787346 367.542167 
z
" style="fill:#e890c5;"/>
   </g>
   <g id="patch_49">
    <path clip-path="url(#p998e744b67)" d="M 764.127754 379.2354 
L 776.40008 379.2354 
L 776.40008 371.196302 
L 764.127754 371.196302 
z
" style="fill:#e992bd;"/>
   </g>
   <g id="patch_50">
    <path clip-path="url(#p998e744b67)" d="M 779.468162 379.2354 
L 791.740489 379.2354 
L 791.740489 367.542167 
L 779.468162 367.542167 
z
" style="fill:#e993b5;"/>
   </g>
   <g id="patch_51">
    <path clip-path="url(#p998e744b67)" d="M 794.80857 379.2354 
L 807.080897 379.2354 
L 807.080897 369.003821 
L 794.80857 369.003821 
z
" style="fill:#e994ad;"/>
   </g>
   <g id="patch_52">
    <path d="M 56.934938 379.2354 
L 56.934938 29.3154 
" style="fill:none;stroke:#f0f0f0;stroke-linecap:square;stroke-linejoin:miter;stroke-width:3;"/>
   </g>
   <g id="patch_53">
    <path d="M 808.614937 379.2354 
L 808.614937 29.3154 
" style="fill:none;stroke:#f0f0f0;stroke-linecap:square;stroke-linejoin:miter;stroke-width:3;"/>
   </g>
   <g id="patch_54">
    <path d="M 56.934938 379.2354 
L 808.614937 379.2354 
" style="fill:none;stroke:#f0f0f0;stroke-linecap:square;stroke-linejoin:miter;stroke-width:3;"/>
   </g>
   <g id="patch_55">
    <path d="M 56.934938 29.3154 
L 808.614937 29.3154 
" style="fill:none;stroke:#f0f0f0;stroke-linecap:square;stroke-linejoin:miter;stroke-width:3;"/>
   </g>
   <g id="text_57">
    <!-- 店铺分布 -->
    <defs>
     <path d="M 14.0625 39.984375 
L 79 39.984375 
Q 78.515625 23.390625 77.546875 7.5625 
Q 76.375 -10.6875 60.25 -10.59375 
Q 52.34375 -10.6875 43.5625 -10.109375 
Q 42.96875 -6 42.1875 -1.8125 
Q 49.703125 -2.875 58.984375 -2.984375 
Q 68.75 -3.171875 69.734375 8.453125 
Q 70.515625 19 70.90625 32.765625 
L 40.875 32.765625 
Q 39.703125 16.453125 34.078125 6.5 
Q 26.65625 -6.59375 9.1875 -13.71875 
Q 6.640625 -10.40625 3.609375 -7.171875 
Q 19.828125 -1.125 26.953125 10.40625 
Q 32.078125 19.140625 32.859375 32.765625 
L 14.0625 32.765625 
z
M 54.5 80.609375 
L 61.53125 83.640625 
Q 72.265625 57.46875 99.21875 44.484375 
Q 94.828125 39.890625 92.875 37.0625 
Q 66.015625 52.59375 54.5 80.609375 
z
M 0.78125 43.21875 
Q 20.90625 57.46875 35.15625 82.078125 
L 42.09375 78.265625 
Q 27.25 52.296875 6.453125 36.578125 
Q 4.390625 39.59375 0.78125 43.21875 
z
" id="MicrosoftYaHei-20998"/>
     <path d="M 50.78125 57.28125 
L 58.59375 57.28125 
L 58.59375 42.234375 
L 88.765625 42.234375 
L 88.765625 8.453125 
Q 88.765625 -3.078125 78.90625 -3.078125 
Q 76.375 -3.078125 64.359375 -2.984375 
Q 63.765625 0.25 62.796875 4.9375 
Q 72.5625 4.34375 74.515625 4.34375 
Q 81.0625 4.15625 81.0625 10.40625 
L 81.0625 35.203125 
L 58.59375 35.203125 
L 58.59375 -12.9375 
L 50.78125 -12.9375 
L 50.78125 35.203125 
L 28.8125 35.203125 
L 28.8125 -5.515625 
L 21.09375 -5.515625 
L 21.09375 33.015625 
Q 14.5 24.265625 7.03125 16.0625 
Q 4.59375 19.578125 1.46875 22.609375 
Q 19.390625 41.359375 30.765625 62.25 
L 3.125 62.25 
L 3.125 69.28125 
L 34.375 69.28125 
Q 37.796875 76.3125 40.53125 83.640625 
L 48.25 80.515625 
Q 45.84375 74.8125 43.21875 69.28125 
L 97.65625 69.28125 
L 97.65625 62.25 
L 39.65625 62.25 
Q 34.1875 51.953125 27.6875 42.234375 
L 50.78125 42.234375 
z
" id="MicrosoftYaHei-24067"/>
    </defs>
    <g transform="translate(392.454937 23.3154)scale(0.2016 -0.2016)">
     <use xlink:href="#MicrosoftYaHei-24215"/>
     <use x="100" xlink:href="#MicrosoftYaHei-38138"/>
     <use x="200" xlink:href="#MicrosoftYaHei-20998"/>
     <use x="300" xlink:href="#MicrosoftYaHei-24067"/>
    </g>
   </g>
  </g>
 </g>
 <defs>
  <clipPath id="p998e744b67">
   <rect height="349.92" width="751.68" x="56.934938" y="29.3154"/>
  </clipPath>
 </defs>
</svg>
